<svg width="277" height="244" viewBox="0 0 277 244" fill="none" xmlns="http://www.w3.org/2000/svg">
<path opacity="0.2" d="M57.8135 41.2839C68.8157 41.284 78.2069 43.0951 85.9492 46.7625H85.9482C93.7998 50.4186 99.8014 55.5172 103.902 62.073L104.293 62.6912C108.268 69.1106 110.241 76.5387 110.241 84.9412C110.241 92.4907 108.961 98.9002 106.349 104.126L106.348 104.125C103.874 109.338 99.8448 114.1 94.3086 118.421C88.8003 122.72 81.5713 127.268 72.6387 132.067L72.6367 132.068C61.2393 138.164 52.892 143.762 47.5391 148.854L47.5303 148.863H47.5293C42.6773 153.36 40.0192 157.231 39.2617 160.485H109.241C109.793 160.485 110.241 160.933 110.241 161.485V187C110.241 187.552 109.793 188 109.241 188H2C1.44772 188 1 187.552 1 187C1.00002 174.822 2.6056 164.205 5.84277 155.168L5.84668 155.156C9.2247 146.103 14.628 138.005 22.0371 130.865L22.043 130.859C29.5705 123.735 39.4881 116.974 51.7695 110.566L51.7773 110.562C58.2717 107.249 63.3474 104.346 67.0195 101.854C70.8066 99.2416 73.4029 96.6817 74.8955 94.1941C76.3831 91.7149 77.1455 88.7754 77.1455 85.3396C77.1455 82.0435 76.3867 79.2452 74.9082 76.9041C74.8975 76.8871 74.8866 76.8699 74.877 76.8523C73.5207 74.3864 71.4852 72.4631 68.7285 71.0847C68.7179 71.0794 68.7067 71.0738 68.6963 71.0681C65.9589 69.5751 62.481 68.7986 58.2119 68.7986C51.2462 68.7986 45.8057 70.8552 41.7764 74.8845C37.8616 78.7993 35.3311 84.6119 34.2861 92.449C34.2169 92.9675 33.7596 93.3453 33.2373 93.3152L2.1416 91.5212C1.87158 91.5056 1.6192 91.3812 1.44238 91.1765C1.26554 90.9718 1.17928 90.7038 1.20312 90.4343C2.55025 75.2121 8.08809 63.1968 17.8799 54.4929C27.809 45.6522 41.1584 41.2839 57.8135 41.2839Z" fill="url(#paint0_linear_93_4390)" stroke="#17C866" stroke-width="2" stroke-linejoin="round"/>
<g filter="url(#filter0_d_93_4390)">
<rect x="91.5527" y="4" width="177" height="228" rx="12" fill="white"/>
</g>
<path d="M91.5527 16C91.5527 9.37258 96.9253 4 103.553 4H256.553C263.18 4 268.553 9.37258 268.553 16V99H91.5527V16Z" fill="url(#paint1_linear_93_4390)"/>
<mask id="mask0_93_4390" style="mask-type:alpha" maskUnits="userSpaceOnUse" x="91" y="4" width="178" height="96">
<path d="M91.5527 16C91.5527 9.37258 96.9253 4 103.553 4H256.553C263.18 4 268.553 9.37258 268.553 16V100H91.5527V16Z" fill="#2BD06E"/>
</mask>
<g mask="url(#mask0_93_4390)">
<g opacity="0.1">
<circle cx="96.9216" cy="10.0573" r="1.36885" fill="#15C865"/>
<circle cx="110.61" cy="10.0573" r="1.36885" fill="#15C865"/>
<circle cx="124.299" cy="10.0573" r="1.36885" fill="#15C865"/>
<circle cx="137.987" cy="10.0573" r="1.36885" fill="#15C865"/>
<circle cx="151.676" cy="10.0573" r="1.36885" fill="#15C865"/>
<circle cx="165.364" cy="10.0573" r="1.36885" fill="#15C865"/>
<circle cx="179.053" cy="10.0573" r="1.36885" fill="#15C865"/>
<circle cx="192.741" cy="10.0573" r="1.36885" fill="#15C865"/>
<circle cx="206.43" cy="10.0573" r="1.36885" fill="#15C865"/>
<circle cx="220.118" cy="10.0573" r="1.36885" fill="#15C865"/>
<circle cx="233.807" cy="10.0573" r="1.36885" fill="#15C865"/>
<circle cx="247.495" cy="10.0573" r="1.36885" fill="#15C865"/>
<circle cx="261.184" cy="10.0573" r="1.36885" fill="#15C865"/>
<circle cx="91.9216" cy="23.7458" r="1.36885" fill="#15C865"/>
<circle cx="105.61" cy="23.7458" r="1.36885" fill="#15C865"/>
<circle cx="119.299" cy="23.7458" r="1.36885" fill="#15C865"/>
<circle cx="132.987" cy="23.7458" r="1.36885" fill="#15C865"/>
<circle cx="146.675" cy="23.7458" r="1.36885" fill="#15C865"/>
<circle cx="160.364" cy="23.7458" r="1.36885" fill="#15C865"/>
<circle cx="174.053" cy="23.7458" r="1.36885" fill="#15C865"/>
<circle cx="187.741" cy="23.7458" r="1.36885" fill="#15C865"/>
<circle cx="201.43" cy="23.7458" r="1.36885" fill="#15C865"/>
<circle cx="215.118" cy="23.7458" r="1.36885" fill="#15C865"/>
<circle cx="228.807" cy="23.7458" r="1.36885" fill="#15C865"/>
<circle cx="242.495" cy="23.7458" r="1.36885" fill="#15C865"/>
<circle cx="256.184" cy="23.7458" r="1.36885" fill="#15C865"/>
<circle cx="96.9216" cy="37.4345" r="1.36885" fill="#15C865"/>
<circle cx="110.61" cy="37.4345" r="1.36885" fill="#15C865"/>
<circle cx="124.299" cy="37.4345" r="1.36885" fill="#15C865"/>
<circle cx="137.987" cy="37.4345" r="1.36885" fill="#15C865"/>
<circle cx="151.676" cy="37.4345" r="1.36885" fill="#15C865"/>
<circle cx="165.364" cy="37.4345" r="1.36885" fill="#15C865"/>
<circle cx="179.053" cy="37.4345" r="1.36885" fill="#15C865"/>
<circle cx="192.741" cy="37.4345" r="1.36885" fill="#15C865"/>
<circle cx="206.43" cy="37.4345" r="1.36885" fill="#15C865"/>
<circle cx="220.118" cy="37.4345" r="1.36885" fill="#15C865"/>
<circle cx="233.807" cy="37.4345" r="1.36885" fill="#15C865"/>
<circle cx="247.495" cy="37.4345" r="1.36885" fill="#15C865"/>
<circle cx="261.184" cy="37.4345" r="1.36885" fill="#15C865"/>
<circle cx="91.9216" cy="51.123" r="1.36885" fill="#15C865"/>
<circle cx="105.61" cy="51.123" r="1.36885" fill="#15C865"/>
<circle cx="119.299" cy="51.123" r="1.36885" fill="#15C865"/>
<circle cx="132.987" cy="51.123" r="1.36885" fill="#15C865"/>
<circle cx="146.675" cy="51.123" r="1.36885" fill="#15C865"/>
<circle cx="160.364" cy="51.123" r="1.36885" fill="#15C865"/>
<circle cx="174.053" cy="51.123" r="1.36885" fill="#15C865"/>
<circle cx="187.741" cy="51.123" r="1.36885" fill="#15C865"/>
<circle cx="201.43" cy="51.123" r="1.36885" fill="#15C865"/>
<circle cx="215.118" cy="51.123" r="1.36885" fill="#15C865"/>
<circle cx="228.807" cy="51.123" r="1.36885" fill="#15C865"/>
<circle cx="242.495" cy="51.123" r="1.36885" fill="#15C865"/>
<circle cx="256.184" cy="51.123" r="1.36885" fill="#15C865"/>
<circle cx="96.9216" cy="64.8115" r="1.36885" fill="#15C865"/>
<circle cx="110.61" cy="64.8115" r="1.36885" fill="#15C865"/>
<circle cx="124.299" cy="64.8115" r="1.36885" fill="#15C865"/>
<circle cx="137.987" cy="64.8115" r="1.36885" fill="#15C865"/>
<circle cx="151.676" cy="64.8115" r="1.36885" fill="#15C865"/>
<circle cx="165.364" cy="64.8115" r="1.36885" fill="#15C865"/>
<circle cx="179.053" cy="64.8115" r="1.36885" fill="#15C865"/>
<circle cx="192.741" cy="64.8115" r="1.36885" fill="#15C865"/>
<circle cx="206.43" cy="64.8115" r="1.36885" fill="#15C865"/>
<circle cx="220.118" cy="64.8115" r="1.36885" fill="#15C865"/>
<circle cx="233.807" cy="64.8115" r="1.36885" fill="#15C865"/>
<circle cx="247.495" cy="64.8115" r="1.36885" fill="#15C865"/>
<circle cx="261.184" cy="64.8115" r="1.36885" fill="#15C865"/>
<circle cx="91.9216" cy="78.5" r="1.36885" fill="#15C865"/>
<circle cx="105.61" cy="78.5" r="1.36885" fill="#15C865"/>
<circle cx="119.299" cy="78.5" r="1.36885" fill="#15C865"/>
<circle cx="132.987" cy="78.5" r="1.36885" fill="#15C865"/>
<circle cx="146.675" cy="78.5" r="1.36885" fill="#15C865"/>
<circle cx="160.364" cy="78.5" r="1.36885" fill="#15C865"/>
<circle cx="174.053" cy="78.5" r="1.36885" fill="#15C865"/>
<circle cx="187.741" cy="78.5" r="1.36885" fill="#15C865"/>
<circle cx="201.43" cy="78.5" r="1.36885" fill="#15C865"/>
<circle cx="215.118" cy="78.5" r="1.36885" fill="#15C865"/>
<circle cx="228.807" cy="78.5" r="1.36885" fill="#15C865"/>
<circle cx="242.495" cy="78.5" r="1.36885" fill="#15C865"/>
<circle cx="256.184" cy="78.5" r="1.36885" fill="#15C865"/>
<circle cx="96.9216" cy="92.1884" r="1.36885" fill="#15C865"/>
<circle cx="110.61" cy="92.1884" r="1.36885" fill="#15C865"/>
<circle cx="124.299" cy="92.1884" r="1.36885" fill="#15C865"/>
<circle cx="137.987" cy="92.1884" r="1.36885" fill="#15C865"/>
<circle cx="151.676" cy="92.1884" r="1.36885" fill="#15C865"/>
<circle cx="165.364" cy="92.1884" r="1.36885" fill="#15C865"/>
<circle cx="179.053" cy="92.1884" r="1.36885" fill="#15C865"/>
<circle cx="192.741" cy="92.1884" r="1.36885" fill="#15C865"/>
<circle cx="206.43" cy="92.1884" r="1.36885" fill="#15C865"/>
<circle cx="220.118" cy="92.1884" r="1.36885" fill="#15C865"/>
<circle cx="233.807" cy="92.1884" r="1.36885" fill="#15C865"/>
<circle cx="247.495" cy="92.1884" r="1.36885" fill="#15C865"/>
<circle cx="261.184" cy="92.1884" r="1.36885" fill="#15C865"/>
</g>
<g opacity="0.6" filter="url(#filter1_f_93_4390)">
<g filter="url(#filter2_d_93_4390)">
<rect x="133.513" y="60.3999" width="95.76" height="31.92" rx="6.384" fill="white"/>
<rect x="133.832" y="60.7191" width="95.1216" height="31.2816" rx="6.0648" stroke="#1FCA6C" stroke-opacity="0.42" stroke-width="0.6384"/>
</g>
<rect x="137.343" y="64.2302" width="24.2592" height="24.2592" rx="4.4688" fill="#1CC969"/>
<rect x="164.156" y="64.2302" width="39.5808" height="4.4688" rx="2.2344" fill="url(#paint2_linear_93_4390)"/>
<rect x="164.156" y="69.9758" width="16.5984" height="2.5536" rx="1.2768" fill="url(#paint3_linear_93_4390)"/>
<rect x="164.156" y="79.552" width="12.1296" height="8.9376" rx="2.5536" fill="url(#paint4_linear_93_4390)"/>
</g>
<g opacity="0.8" filter="url(#filter3_f_93_4390)">
<g filter="url(#filter4_d_93_4390)">
<rect x="125.953" y="47.8" width="110.88" height="36.96" rx="7.392" fill="white"/>
<rect x="126.322" y="48.1696" width="110.141" height="36.2208" rx="7.0224" stroke="#1FCA6C" stroke-opacity="0.42" stroke-width="0.7392"/>
</g>
<rect x="130.388" y="52.2354" width="28.0896" height="28.0896" rx="5.1744" fill="#1CC969"/>
<rect x="161.434" y="52.2354" width="45.8304" height="5.1744" rx="2.5872" fill="url(#paint5_linear_93_4390)"/>
<rect x="161.434" y="58.8882" width="19.2192" height="2.9568" rx="1.4784" fill="url(#paint6_linear_93_4390)"/>
<rect x="161.434" y="69.9761" width="14.0448" height="10.3488" rx="2.9568" fill="url(#paint7_linear_93_4390)"/>
</g>
<g opacity="0.6" filter="url(#filter5_f_93_4390)">
<g filter="url(#filter6_d_93_4390)">
<rect x="133.513" y="11.6799" width="95.76" height="31.92" rx="6.384" fill="white"/>
<rect x="133.832" y="11.9991" width="95.1216" height="31.2816" rx="6.0648" stroke="#1FCA6C" stroke-opacity="0.42" stroke-width="0.6384"/>
</g>
<rect x="137.343" y="15.5103" width="24.2592" height="24.2592" rx="4.4688" fill="#1CC969"/>
<rect x="164.156" y="15.5103" width="39.5808" height="4.4688" rx="2.2344" fill="url(#paint8_linear_93_4390)"/>
<rect x="164.156" y="21.2559" width="16.5984" height="2.5536" rx="1.2768" fill="url(#paint9_linear_93_4390)"/>
<rect x="164.156" y="30.832" width="12.1296" height="8.9376" rx="2.5536" fill="url(#paint10_linear_93_4390)"/>
</g>
<g opacity="0.8" filter="url(#filter7_f_93_4390)">
<g filter="url(#filter8_d_93_4390)">
<rect x="125.953" y="19.24" width="110.88" height="36.96" rx="7.392" fill="white"/>
<rect x="126.322" y="19.6096" width="110.141" height="36.2208" rx="7.0224" stroke="#1FCA6C" stroke-opacity="0.42" stroke-width="0.7392"/>
</g>
<rect x="130.388" y="23.6753" width="28.0896" height="28.0896" rx="5.1744" fill="#1CC969"/>
<rect x="161.434" y="23.6753" width="45.8304" height="5.1744" rx="2.5872" fill="url(#paint11_linear_93_4390)"/>
<rect x="161.434" y="30.3281" width="19.2192" height="2.9568" rx="1.4784" fill="url(#paint12_linear_93_4390)"/>
<rect x="161.434" y="41.416" width="14.0448" height="10.3488" rx="2.9568" fill="url(#paint13_linear_93_4390)"/>
</g>
<g filter="url(#filter9_d_93_4390)">
<rect x="117.553" y="31" width="126" height="42" rx="8.4" fill="white"/>
<rect x="117.973" y="31.42" width="125.16" height="41.16" rx="7.98" stroke="#1FCA6C" stroke-opacity="0.42" stroke-width="0.84"/>
</g>
<rect x="122.593" y="36.04" width="31.92" height="31.92" rx="5.88" fill="#1CC969"/>
<rect x="157.873" y="36.04" width="47.04" height="5.88" rx="2.94" fill="url(#paint14_linear_93_4390)"/>
<rect x="157.873" y="43.6001" width="64.68" height="3.36" rx="1.68" fill="url(#paint15_linear_93_4390)"/>
<rect x="157.873" y="56.2" width="26.88" height="11.76" rx="3.36" fill="url(#paint16_linear_93_4390)"/>
</g>
<path d="M91.5527 100H268.553V216C268.553 224.837 261.389 232 252.553 232H107.553C98.7162 232 91.5527 224.837 91.5527 216V100Z" fill="white"/>
<path d="M134.576 126.25C134.006 124.648 133.443 123.266 132.904 122.102H132.693C132.123 123.438 131.576 124.805 131.045 126.266C131.639 126.227 132.217 126.203 132.842 126.203C133.428 126.203 134.014 126.219 134.576 126.25ZM129.334 127.508L130.506 124.57C130.568 124.406 130.662 124.164 130.795 123.852C131.576 121.914 132.061 120.539 132.248 119.719C132.303 119.469 132.381 119.312 132.498 119.242C132.615 119.172 132.818 119.141 133.123 119.141C133.529 119.141 133.725 119.258 133.943 119.672C134.256 120.281 134.67 121.18 135.186 122.367C135.709 123.547 136.24 124.836 136.787 126.219L137.17 127.18C137.779 128.75 138.264 129.633 138.631 129.828C138.686 129.859 138.779 129.898 138.912 129.938C139.256 130.039 139.428 130.203 139.428 130.422C139.428 130.672 139.264 130.844 138.936 130.938C138.615 131.031 137.967 131.078 136.998 131.078C136.037 131.078 135.396 131.031 135.076 130.938C134.756 130.844 134.6 130.672 134.6 130.422C134.6 130.227 134.795 130.055 135.186 129.914L135.311 129.867C135.615 129.766 135.717 129.625 135.717 129.367C135.717 129.219 135.678 128.992 135.592 128.688C135.506 128.375 135.404 128.086 135.287 127.828C135.154 127.57 135.107 127.539 135.021 127.516C134.811 127.461 134.139 127.43 133.139 127.43H132.74C131.92 127.43 131.381 127.445 131.107 127.484C130.834 127.516 130.662 127.57 130.584 127.656C130.459 127.797 130.334 128.023 130.217 128.344C130.1 128.656 130.037 128.914 130.037 129.109C130.037 129.445 130.193 129.68 130.529 129.812C130.6 129.844 130.693 129.883 130.811 129.922C131.146 130.039 131.318 130.203 131.318 130.422C131.318 130.672 131.178 130.844 130.904 130.938C130.631 131.031 130.076 131.078 129.256 131.078C128.428 131.078 127.873 131.031 127.6 130.938C127.326 130.844 127.193 130.672 127.193 130.422C127.193 130.211 127.357 130.047 127.678 129.914C127.818 129.859 127.92 129.805 127.99 129.766C128.404 129.516 128.787 128.922 129.146 127.992L129.334 127.508ZM145.045 130.727V130.148C145.045 130.109 145.029 130.102 144.998 130.102C144.936 130.102 144.842 130.172 144.709 130.305L144.6 130.422C144.092 130.953 143.436 131.211 142.631 131.211C141.811 131.211 141.061 130.891 140.584 130.328C140.326 130.023 140.146 129.648 140.037 129.211C139.936 128.773 139.881 127.969 139.881 126.805C139.881 126.695 139.881 126.516 139.889 126.258C139.896 126 139.896 125.805 139.896 125.656V125.492C139.896 125.047 139.865 124.758 139.803 124.641C139.74 124.516 139.607 124.414 139.412 124.344C139.334 124.312 139.225 124.281 139.092 124.242C138.787 124.156 138.631 124.023 138.631 123.828C138.631 123.695 138.686 123.578 138.795 123.492C138.904 123.398 139.146 123.289 139.529 123.156C140.287 122.906 141.053 122.742 141.498 122.742C141.787 122.742 141.912 122.953 141.912 123.43C141.912 123.461 141.904 123.57 141.896 123.75C141.842 124.75 141.818 125.766 141.818 126.789C141.818 127.898 141.936 128.664 142.162 129.086C142.389 129.508 142.779 129.719 143.334 129.719C143.959 129.719 144.404 129.445 144.67 128.898C144.943 128.352 145.076 127.414 145.076 126.086V125.461C145.076 125.039 145.045 124.766 144.982 124.641C144.928 124.508 144.803 124.414 144.615 124.344C144.529 124.312 144.42 124.281 144.287 124.242C143.982 124.156 143.834 124.023 143.834 123.828C143.834 123.695 143.889 123.586 143.99 123.5C144.1 123.406 144.342 123.289 144.725 123.156C145.482 122.906 146.232 122.742 146.662 122.742C146.998 122.742 147.107 122.922 147.107 123.43C147.107 123.484 147.1 123.641 147.092 123.883C147.029 125.039 146.998 126.156 146.998 127.242C146.998 127.922 147.006 128.375 147.014 128.617C147.021 128.852 147.037 129.031 147.061 129.156C147.1 129.383 147.264 129.547 147.537 129.656H147.545L147.693 129.703C147.998 129.805 148.154 129.953 148.154 130.133C148.154 130.375 147.982 130.539 147.514 130.727C147.115 130.883 146.725 131.008 146.35 131.102C145.982 131.195 145.693 131.242 145.498 131.242C145.186 131.242 145.045 131.078 145.045 130.727ZM151.537 122.969H153.357C153.631 122.969 153.709 123.047 153.709 123.352V123.547C153.709 123.828 153.607 123.945 153.357 123.945H151.678C151.576 123.945 151.506 124.039 151.506 124.203V128.25C151.506 128.945 151.561 129.383 151.678 129.562C151.795 129.742 152.014 129.828 152.334 129.828C152.506 129.828 152.725 129.781 152.99 129.695C153.264 129.609 153.451 129.562 153.553 129.562C153.795 129.562 153.967 129.719 153.967 129.945C153.967 130.242 153.732 130.531 153.271 130.812C152.811 131.086 152.295 131.227 151.709 131.227C151.029 131.227 150.49 131.047 150.107 130.695C149.912 130.516 149.779 130.281 149.701 129.984C149.623 129.68 149.584 129.125 149.584 128.312V123.945H148.834C148.607 123.945 148.529 123.867 148.529 123.672V123.477C148.529 123.297 148.811 122.969 149.381 122.484L149.717 122.195L150.029 121.922C150.592 121.43 150.975 121.18 151.186 121.18C151.404 121.18 151.537 121.281 151.537 121.445V122.969ZM156.615 126.297C156.615 127.375 156.842 128.273 157.295 129C157.756 129.727 158.311 130.086 158.967 130.086C159.498 130.086 159.928 129.859 160.256 129.414C160.592 128.969 160.756 128.375 160.756 127.641C160.756 126.578 160.521 125.688 160.061 124.969C159.6 124.242 159.053 123.883 158.404 123.883C157.865 123.883 157.436 124.102 157.107 124.547C156.779 124.984 156.615 125.57 156.615 126.297ZM158.615 131.227C157.443 131.227 156.475 130.828 155.701 130.031C154.928 129.234 154.545 128.227 154.545 127.016C154.545 125.789 154.951 124.773 155.756 123.961C156.568 123.148 157.584 122.742 158.803 122.742C159.975 122.742 160.936 123.125 161.678 123.883C162.428 124.641 162.803 125.617 162.803 126.805C162.803 128.062 162.404 129.117 161.6 129.961C160.795 130.805 159.803 131.227 158.615 131.227ZM166.701 127.656C166.084 127.656 165.475 127.68 164.881 127.727C164.795 127.734 164.74 127.734 164.725 127.734C164.381 127.734 164.256 127.625 164.256 127.32C164.256 127.109 164.35 126.82 164.514 126.469C164.584 126.32 164.662 126.219 164.74 126.164C164.818 126.109 164.975 126.086 165.201 126.086C165.209 126.086 165.342 126.086 165.584 126.094C165.834 126.102 166.076 126.102 166.318 126.102C166.764 126.102 167.232 126.086 167.717 126.055C167.834 126.047 167.912 126.039 167.936 126.039C168.279 126.039 168.42 126.156 168.42 126.438C168.42 126.758 168.334 127.047 168.162 127.305C167.998 127.562 167.787 127.688 167.537 127.688C167.467 127.688 167.342 127.68 167.154 127.672C166.967 127.664 166.818 127.656 166.701 127.656ZM170.475 124.773V124.148C170.475 122.789 170.451 121.914 170.404 121.516C170.357 121.117 170.279 120.891 170.162 120.828C170.045 120.766 169.873 120.703 169.662 120.648C169.318 120.555 169.146 120.414 169.146 120.219C169.146 120.086 169.201 119.969 169.303 119.883C169.412 119.789 169.662 119.68 170.045 119.547C170.795 119.289 171.553 119.125 171.982 119.125C172.303 119.125 172.428 119.305 172.428 119.812C172.428 119.883 172.42 120.094 172.412 120.438C172.35 122.367 172.318 124.32 172.318 126.297C172.318 127.742 172.334 128.664 172.365 129.062C172.404 129.461 172.467 129.711 172.553 129.812C172.607 129.867 172.756 129.945 173.006 130.047C173.264 130.148 173.389 130.297 173.389 130.508C173.389 130.719 173.256 130.867 172.982 130.953C172.709 131.039 172.225 131.078 171.514 131.078C170.686 131.078 170.139 131.031 169.873 130.945C169.615 130.859 169.482 130.695 169.482 130.453C169.482 130.289 169.592 130.156 169.818 130.055C170.045 129.953 170.178 129.883 170.232 129.828C170.326 129.742 170.389 129.531 170.428 129.203C170.467 128.867 170.49 128.336 170.49 127.594C170.49 127.375 170.49 126.953 170.482 126.328C170.475 125.703 170.475 125.188 170.475 124.773ZM177.053 124.281L176.99 126.359V126.406C176.967 127.312 176.959 127.977 176.959 128.406C176.959 128.922 176.982 129.289 177.029 129.5C177.076 129.711 177.162 129.852 177.279 129.914C177.35 129.953 177.451 129.992 177.584 130.047C177.857 130.148 177.998 130.297 177.998 130.508C177.998 130.719 177.865 130.867 177.6 130.953C177.334 131.039 176.85 131.078 176.139 131.078C175.311 131.078 174.764 131.031 174.49 130.945C174.225 130.859 174.092 130.695 174.092 130.453C174.092 130.273 174.225 130.133 174.49 130.031C174.592 129.992 174.662 129.969 174.701 129.945C174.982 129.789 175.084 129.484 175.084 128.664C175.084 128.562 175.084 128.383 175.076 128.117C175.068 127.852 175.068 127.633 175.068 127.461V126.617C175.068 125.766 175.045 125.203 175.006 124.945C174.967 124.688 174.889 124.523 174.779 124.469C174.693 124.43 174.568 124.383 174.396 124.328C174.068 124.227 173.904 124.078 173.904 123.898C173.904 123.656 174.092 123.477 174.561 123.289C174.975 123.125 175.381 123 175.787 122.898C176.193 122.797 176.482 122.742 176.654 122.742C176.943 122.742 177.068 122.93 177.068 123.43C177.068 123.828 177.061 124.039 177.053 124.281ZM174.592 120.312C174.592 120.008 174.717 119.742 174.975 119.523C175.232 119.305 175.537 119.195 175.904 119.195C176.256 119.195 176.553 119.297 176.779 119.492C177.014 119.688 177.131 119.938 177.131 120.234C177.131 120.531 177.006 120.781 176.748 120.992C176.498 121.203 176.186 121.305 175.803 121.305C175.107 121.305 174.592 120.883 174.592 120.312ZM180.287 131.031C180.107 131.164 179.951 131.227 179.787 131.227C179.686 131.227 179.568 131.172 179.451 131.078C179.271 130.93 179.107 130.633 178.951 130.195C178.795 129.758 178.717 129.336 178.717 128.938C178.717 128.594 178.928 128.328 179.201 128.328C179.451 128.328 179.701 128.547 179.959 128.984C180.084 129.203 180.186 129.367 180.271 129.477C180.592 129.906 181.193 130.172 181.842 130.172C182.561 130.172 183.006 129.781 183.006 129.18C183.006 128.719 182.553 128.273 181.639 127.836L181.17 127.609C180.318 127.188 179.748 126.797 179.451 126.445C179.154 126.094 179.006 125.656 179.006 125.141C179.006 124.43 179.248 123.859 179.74 123.414C180.232 122.969 180.873 122.742 181.662 122.742C182.045 122.742 182.436 122.781 182.818 122.875C183.123 122.742 183.326 122.68 183.451 122.68C183.717 122.68 183.975 122.891 184.225 123.32C184.482 123.75 184.607 124.195 184.607 124.664C184.607 125.047 184.436 125.273 184.123 125.273C183.873 125.273 183.662 125.102 183.326 124.57C182.92 123.906 182.521 123.672 181.92 123.672C181.287 123.672 180.865 124.062 180.865 124.633C180.865 124.875 180.959 125.094 181.154 125.289C181.35 125.484 181.795 125.75 182.475 126.086L182.568 126.133C184.076 126.875 184.834 127.688 184.834 128.57C184.834 129.328 184.545 129.961 183.959 130.469C183.381 130.977 182.654 131.227 181.787 131.227C181.42 131.227 180.936 131.156 180.287 131.031ZM188.568 122.969H190.389C190.662 122.969 190.74 123.047 190.74 123.352V123.547C190.74 123.828 190.639 123.945 190.389 123.945H188.709C188.607 123.945 188.537 124.039 188.537 124.203V128.25C188.537 128.945 188.592 129.383 188.709 129.562C188.826 129.742 189.045 129.828 189.365 129.828C189.537 129.828 189.756 129.781 190.021 129.695C190.295 129.609 190.482 129.562 190.584 129.562C190.826 129.562 190.998 129.719 190.998 129.945C190.998 130.242 190.764 130.531 190.303 130.812C189.842 131.086 189.326 131.227 188.74 131.227C188.061 131.227 187.521 131.047 187.139 130.695C186.943 130.516 186.811 130.281 186.732 129.984C186.654 129.68 186.615 129.125 186.615 128.312V123.945H185.865C185.639 123.945 185.561 123.867 185.561 123.672V123.477C185.561 123.297 185.842 122.969 186.412 122.484L186.748 122.195L187.061 121.922C187.623 121.43 188.006 121.18 188.217 121.18C188.436 121.18 188.568 121.281 188.568 121.445V122.969ZM198.35 126.875H194.443H194.334C194.029 126.875 193.85 126.898 193.795 126.945C193.74 126.992 193.709 127.117 193.709 127.32C193.709 128 193.951 128.578 194.436 129.07C194.92 129.555 195.506 129.797 196.201 129.797C196.795 129.797 197.342 129.625 197.865 129.258C197.936 129.203 198.037 129.133 198.162 129.031C198.436 128.805 198.646 128.695 198.795 128.695C199.037 128.695 199.209 128.875 199.209 129.094C199.209 129.352 198.92 129.766 198.459 130.133C197.514 130.914 196.693 131.227 195.662 131.227C194.506 131.227 193.537 130.836 192.764 130.047C191.99 129.258 191.607 128.273 191.607 127.109C191.607 125.836 192.006 124.797 192.795 123.977C193.592 123.156 194.607 122.742 195.85 122.742C196.896 122.742 197.725 123.039 198.334 123.641C198.951 124.234 199.256 125.039 199.256 126.055C199.256 126.391 199.209 126.609 199.107 126.719C199.006 126.82 198.756 126.875 198.35 126.875ZM194.279 125.945H196.92C197.334 125.945 197.436 125.883 197.436 125.641C197.436 125.117 197.256 124.672 196.904 124.32C196.553 123.961 196.115 123.781 195.576 123.781C195.061 123.781 194.631 123.961 194.295 124.32C193.959 124.672 193.787 125.117 193.787 125.641C193.787 125.883 193.873 125.945 194.279 125.945ZM206.334 130.633V130.234C206.334 130.109 206.303 130.023 206.271 130.023C206.248 130.023 206.17 130.078 206.021 130.195C205.881 130.305 205.764 130.398 205.662 130.469C205.014 130.961 204.404 131.18 203.74 131.18C202.725 131.18 201.896 130.812 201.256 130.086C200.623 129.352 200.303 128.398 200.303 127.227C200.303 125.906 200.67 124.828 201.396 123.992C202.131 123.156 203.076 122.742 204.24 122.742C204.795 122.742 205.373 122.875 205.967 123.148C206.084 123.203 206.146 123.227 206.17 123.227C206.256 123.227 206.287 123.133 206.287 122.82V121.867C206.287 121.484 206.248 121.227 206.178 121.078C206.107 120.93 205.975 120.812 205.771 120.742L205.553 120.68C205.217 120.586 205.053 120.445 205.053 120.25C205.053 120.102 205.115 119.977 205.248 119.875C205.381 119.773 205.646 119.641 206.061 119.492C206.693 119.266 207.279 119.141 207.725 119.141C208.092 119.141 208.24 119.336 208.24 119.812C208.24 119.852 208.232 119.992 208.225 120.227C208.17 121.836 208.139 123.516 208.139 125.258C208.139 127 208.154 128.141 208.193 128.664C208.232 129.188 208.295 129.477 208.381 129.547C208.467 129.602 208.646 129.664 208.936 129.734C209.225 129.797 209.373 129.922 209.373 130.117C209.373 130.367 208.982 130.617 208.193 130.875L208.107 130.906C207.662 131.055 207.076 131.156 206.764 131.156C206.459 131.156 206.334 131 206.334 130.633ZM206.256 127.852V125.625C206.248 125.289 206.232 125.07 206.209 124.953C206.186 124.836 206.146 124.734 206.092 124.664C205.74 124.188 205.029 123.852 204.365 123.852C203.764 123.852 203.279 124.102 202.92 124.594C202.561 125.086 202.381 125.766 202.381 126.617C202.381 127.531 202.576 128.273 202.967 128.844C203.365 129.414 203.865 129.703 204.475 129.703C205.631 129.703 206.256 129.062 206.256 127.852ZM216.428 126.297C216.428 127.375 216.654 128.273 217.107 129C217.568 129.727 218.123 130.086 218.779 130.086C219.311 130.086 219.74 129.859 220.068 129.414C220.404 128.969 220.568 128.375 220.568 127.641C220.568 126.578 220.334 125.688 219.873 124.969C219.412 124.242 218.865 123.883 218.217 123.883C217.678 123.883 217.248 124.102 216.92 124.547C216.592 124.984 216.428 125.57 216.428 126.297ZM218.428 131.227C217.256 131.227 216.287 130.828 215.514 130.031C214.74 129.234 214.357 128.227 214.357 127.016C214.357 125.789 214.764 124.773 215.568 123.961C216.381 123.148 217.396 122.742 218.615 122.742C219.787 122.742 220.748 123.125 221.49 123.883C222.24 124.641 222.615 125.617 222.615 126.805C222.615 128.062 222.217 129.117 221.412 129.961C220.607 130.805 219.615 131.227 218.428 131.227ZM226.537 123.898L226.725 123.727C226.764 123.688 226.826 123.641 226.896 123.57C227.482 123.016 228.123 122.742 228.811 122.742C229.592 122.742 230.357 123.102 230.857 123.688C231.107 123.984 231.287 124.336 231.389 124.75C231.49 125.164 231.545 125.805 231.545 126.68V127.781C231.545 127.914 231.545 128.094 231.537 128.312C231.529 128.531 231.529 128.688 231.529 128.773C231.529 129.156 231.553 129.43 231.607 129.594C231.662 129.75 231.764 129.867 231.896 129.945L232.107 130.031C232.373 130.133 232.506 130.273 232.506 130.453C232.506 130.688 232.381 130.852 232.131 130.938C231.881 131.023 231.342 131.062 230.506 131.062C229.748 131.062 229.232 131.023 228.975 130.945C228.717 130.859 228.592 130.719 228.592 130.508C228.592 130.297 228.725 130.148 228.998 130.047C229.139 129.992 229.24 129.953 229.303 129.914C229.428 129.844 229.514 129.695 229.568 129.461C229.623 129.219 229.646 128.805 229.646 128.219C229.646 126.492 229.537 125.406 229.311 124.969C229.092 124.531 228.693 124.312 228.123 124.312C227.537 124.312 226.967 124.688 226.686 125.273C226.568 125.508 226.482 125.836 226.436 126.258C226.389 126.68 226.365 127.43 226.365 128.508C226.365 129.031 226.389 129.383 226.428 129.562C226.475 129.734 226.553 129.852 226.67 129.914C226.74 129.953 226.842 129.992 226.975 130.047C227.248 130.148 227.389 130.297 227.389 130.508C227.389 130.719 227.256 130.867 226.99 130.953C226.725 131.039 226.24 131.078 225.529 131.078C224.701 131.078 224.154 131.031 223.881 130.945C223.615 130.859 223.482 130.695 223.482 130.453C223.482 130.273 223.615 130.133 223.881 130.031C223.982 129.992 224.053 129.969 224.092 129.945C224.373 129.789 224.475 129.484 224.475 128.664C224.475 128.562 224.475 128.383 224.467 128.117C224.459 127.852 224.459 127.633 224.459 127.461V126.617C224.459 125.766 224.436 125.203 224.396 124.945C224.357 124.688 224.279 124.523 224.17 124.469C224.084 124.43 223.959 124.383 223.787 124.328C223.459 124.227 223.295 124.078 223.295 123.898C223.295 123.656 223.482 123.477 223.951 123.289C224.35 123.133 224.74 123.008 225.123 122.914C225.506 122.82 225.787 122.773 225.967 122.773C226.271 122.773 226.396 122.922 226.396 123.289V123.828C226.396 123.914 226.404 123.922 226.459 123.93C226.482 123.93 226.529 123.906 226.537 123.898ZM135.943 145.297C135.943 146.375 136.17 147.273 136.623 148C137.084 148.727 137.639 149.086 138.295 149.086C138.826 149.086 139.256 148.859 139.584 148.414C139.92 147.969 140.084 147.375 140.084 146.641C140.084 145.578 139.85 144.688 139.389 143.969C138.928 143.242 138.381 142.883 137.732 142.883C137.193 142.883 136.764 143.102 136.436 143.547C136.107 143.984 135.943 144.57 135.943 145.297ZM137.943 150.227C136.771 150.227 135.803 149.828 135.029 149.031C134.256 148.234 133.873 147.227 133.873 146.016C133.873 144.789 134.279 143.773 135.084 142.961C135.896 142.148 136.912 141.742 138.131 141.742C139.303 141.742 140.264 142.125 141.006 142.883C141.756 143.641 142.131 144.617 142.131 145.805C142.131 147.062 141.732 148.117 140.928 148.961C140.123 149.805 139.131 150.227 137.943 150.227ZM149.014 149.727V149.148C149.014 149.109 148.998 149.102 148.967 149.102C148.904 149.102 148.811 149.172 148.678 149.305L148.568 149.422C148.061 149.953 147.404 150.211 146.6 150.211C145.779 150.211 145.029 149.891 144.553 149.328C144.295 149.023 144.115 148.648 144.006 148.211C143.904 147.773 143.85 146.969 143.85 145.805C143.85 145.695 143.85 145.516 143.857 145.258C143.865 145 143.865 144.805 143.865 144.656V144.492C143.865 144.047 143.834 143.758 143.771 143.641C143.709 143.516 143.576 143.414 143.381 143.344C143.303 143.312 143.193 143.281 143.061 143.242C142.756 143.156 142.6 143.023 142.6 142.828C142.6 142.695 142.654 142.578 142.764 142.492C142.873 142.398 143.115 142.289 143.498 142.156C144.256 141.906 145.021 141.742 145.467 141.742C145.756 141.742 145.881 141.953 145.881 142.43C145.881 142.461 145.873 142.57 145.865 142.75C145.811 143.75 145.787 144.766 145.787 145.789C145.787 146.898 145.904 147.664 146.131 148.086C146.357 148.508 146.748 148.719 147.303 148.719C147.928 148.719 148.373 148.445 148.639 147.898C148.912 147.352 149.045 146.414 149.045 145.086V144.461C149.045 144.039 149.014 143.766 148.951 143.641C148.896 143.508 148.771 143.414 148.584 143.344C148.498 143.312 148.389 143.281 148.256 143.242C147.951 143.156 147.803 143.023 147.803 142.828C147.803 142.695 147.857 142.586 147.959 142.5C148.068 142.406 148.311 142.289 148.693 142.156C149.451 141.906 150.201 141.742 150.631 141.742C150.967 141.742 151.076 141.922 151.076 142.43C151.076 142.484 151.068 142.641 151.061 142.883C150.998 144.039 150.967 145.156 150.967 146.242C150.967 146.922 150.975 147.375 150.982 147.617C150.99 147.852 151.006 148.031 151.029 148.156C151.068 148.383 151.232 148.547 151.506 148.656H151.514L151.662 148.703C151.967 148.805 152.123 148.953 152.123 149.133C152.123 149.375 151.951 149.539 151.482 149.727C151.084 149.883 150.693 150.008 150.318 150.102C149.951 150.195 149.662 150.242 149.467 150.242C149.154 150.242 149.014 150.078 149.014 149.727ZM155.529 142.891L155.553 143.055L155.631 143.086C156.186 142.211 156.803 141.742 157.42 141.742C158.17 141.742 158.654 142.234 158.654 142.992C158.654 143.75 158.295 144.211 157.678 144.211C157.373 144.211 157.123 144.102 156.928 143.891C156.857 143.82 156.795 143.711 156.74 143.57C156.686 143.43 156.623 143.359 156.561 143.359C156.186 143.359 155.92 143.617 155.771 144.141C155.623 144.656 155.553 145.742 155.553 147.391C155.553 148.336 155.678 148.789 155.967 148.914C156.045 148.945 156.154 148.984 156.287 149.023C156.615 149.125 156.779 149.289 156.779 149.508C156.779 149.711 156.631 149.859 156.326 149.945C156.021 150.031 155.498 150.078 154.748 150.078C153.928 150.078 153.381 150.031 153.115 149.945C152.85 149.859 152.717 149.695 152.717 149.453C152.717 149.273 152.85 149.133 153.107 149.039C153.209 149 153.287 148.969 153.326 148.945C153.607 148.789 153.709 148.484 153.709 147.664C153.709 147.562 153.709 147.383 153.701 147.117C153.693 146.852 153.693 146.633 153.693 146.461V145.984C153.693 144.977 153.67 144.328 153.623 144.023C153.584 143.719 153.506 143.539 153.389 143.469C153.303 143.43 153.178 143.383 153.014 143.328C152.693 143.227 152.529 143.078 152.529 142.898C152.529 142.641 152.693 142.477 153.186 142.289C153.561 142.141 153.92 142.016 154.271 141.93C154.623 141.836 154.873 141.789 155.006 141.789C155.264 141.789 155.443 142.156 155.529 142.891ZM166.107 142.32V142.719C166.107 142.852 166.123 142.922 166.154 142.93C166.178 142.93 166.287 142.859 166.475 142.711L166.787 142.477C167.467 141.977 168.068 141.742 168.701 141.742C169.709 141.742 170.537 142.109 171.178 142.852C171.818 143.594 172.139 144.547 172.139 145.727C172.139 147.031 171.779 148.102 171.053 148.938C170.334 149.773 169.42 150.195 168.318 150.195C167.717 150.195 167.1 150.023 166.482 149.68C166.381 149.625 166.318 149.602 166.303 149.602C166.17 149.602 166.107 149.883 166.107 150.594C166.107 151.242 166.186 151.688 166.318 151.844C166.389 151.914 166.537 151.984 166.779 152.055C166.92 152.094 167.029 152.133 167.1 152.156C167.248 152.227 167.342 152.367 167.342 152.547C167.342 152.742 167.186 152.883 166.865 152.969C166.545 153.055 166.006 153.102 165.232 153.102C164.443 153.102 163.912 153.055 163.639 152.969C163.365 152.883 163.232 152.719 163.232 152.492C163.232 152.312 163.35 152.18 163.576 152.078C163.811 151.984 163.951 151.914 163.998 151.875C164.107 151.766 164.186 151.5 164.225 151.07C164.264 150.641 164.287 149.75 164.287 148.398V147.711V147.07C164.287 145.594 164.264 144.648 164.209 144.219C164.162 143.789 164.076 143.539 163.951 143.469C163.865 143.43 163.74 143.383 163.576 143.328C163.248 143.227 163.084 143.078 163.084 142.898C163.084 142.641 163.271 142.461 163.709 142.305C164.521 141.984 165.295 141.789 165.678 141.789C165.982 141.789 166.107 141.945 166.107 142.32ZM166.186 145.086V147.312C166.186 147.633 166.201 147.859 166.225 147.977C166.248 148.094 166.295 148.195 166.35 148.273C166.529 148.516 166.779 148.711 167.1 148.867C167.42 149.023 167.748 149.102 168.076 149.102C168.678 149.102 169.162 148.852 169.521 148.352C169.881 147.852 170.061 147.172 170.061 146.32C170.061 145.406 169.865 144.664 169.467 144.094C169.076 143.523 168.576 143.234 167.967 143.234C166.811 143.234 166.186 143.875 166.186 145.086ZM174.037 143.773V143.148C174.037 141.789 174.014 140.914 173.967 140.516C173.92 140.117 173.842 139.891 173.725 139.828C173.607 139.766 173.436 139.703 173.225 139.648C172.881 139.555 172.709 139.414 172.709 139.219C172.709 139.086 172.764 138.969 172.865 138.883C172.975 138.789 173.225 138.68 173.607 138.547C174.357 138.289 175.115 138.125 175.545 138.125C175.865 138.125 175.99 138.305 175.99 138.812C175.99 138.883 175.982 139.094 175.975 139.438C175.912 141.367 175.881 143.32 175.881 145.297C175.881 146.742 175.896 147.664 175.928 148.062C175.967 148.461 176.029 148.711 176.115 148.812C176.17 148.867 176.318 148.945 176.568 149.047C176.826 149.148 176.951 149.297 176.951 149.508C176.951 149.719 176.818 149.867 176.545 149.953C176.271 150.039 175.787 150.078 175.076 150.078C174.248 150.078 173.701 150.031 173.436 149.945C173.178 149.859 173.045 149.695 173.045 149.453C173.045 149.289 173.154 149.156 173.381 149.055C173.607 148.953 173.74 148.883 173.795 148.828C173.889 148.742 173.951 148.531 173.99 148.203C174.029 147.867 174.053 147.336 174.053 146.594C174.053 146.375 174.053 145.953 174.045 145.328C174.037 144.703 174.037 144.188 174.037 143.773ZM184.631 145.148V147.773C184.631 148.391 184.732 148.672 184.951 148.734C185.014 148.758 185.1 148.781 185.201 148.805C185.545 148.898 185.717 149.039 185.717 149.219C185.717 149.477 185.537 149.719 185.17 149.93C184.803 150.141 184.381 150.242 183.896 150.242C183.654 150.242 183.404 150.102 183.131 149.82C182.865 149.531 182.725 149.391 182.709 149.391C182.662 149.391 182.545 149.453 182.357 149.57C181.67 150.016 180.99 150.242 180.326 150.242C179.537 150.242 178.896 150.016 178.404 149.555C177.912 149.094 177.67 148.484 177.67 147.742C177.67 146.875 177.982 146.195 178.615 145.711C179.248 145.219 180.123 144.977 181.256 144.977C181.686 144.977 182.186 145.023 182.771 145.117L182.779 144.258C182.779 143.297 182.35 142.766 181.576 142.766C181.045 142.766 180.6 142.992 180.17 143.484C180.131 143.531 180.068 143.602 179.998 143.695C179.67 144.109 179.318 144.32 178.951 144.32C178.521 144.32 178.248 144.023 178.248 143.555C178.248 143.047 178.561 142.617 179.193 142.266C179.826 141.914 180.631 141.742 181.623 141.742C182.834 141.742 183.709 142.07 184.186 142.672C184.35 142.883 184.459 143.148 184.529 143.484C184.6 143.82 184.631 144.375 184.631 145.148ZM182.779 147.359L182.771 146.156C182.342 146.062 181.943 146.016 181.592 146.016C180.428 146.016 179.732 146.57 179.732 147.484C179.732 148.352 180.342 148.914 181.303 148.914C182.365 148.914 182.779 148.492 182.779 147.359ZM189.162 141.969H190.982C191.256 141.969 191.334 142.047 191.334 142.352V142.547C191.334 142.828 191.232 142.945 190.982 142.945H189.303C189.201 142.945 189.131 143.039 189.131 143.203V147.25C189.131 147.945 189.186 148.383 189.303 148.562C189.42 148.742 189.639 148.828 189.959 148.828C190.131 148.828 190.35 148.781 190.615 148.695C190.889 148.609 191.076 148.562 191.178 148.562C191.42 148.562 191.592 148.719 191.592 148.945C191.592 149.242 191.357 149.531 190.896 149.812C190.436 150.086 189.92 150.227 189.334 150.227C188.654 150.227 188.115 150.047 187.732 149.695C187.537 149.516 187.404 149.281 187.326 148.984C187.248 148.68 187.209 148.125 187.209 147.312V142.945H186.459C186.232 142.945 186.154 142.867 186.154 142.672V142.477C186.154 142.297 186.436 141.969 187.006 141.484L187.342 141.195L187.654 140.922C188.217 140.43 188.6 140.18 188.811 140.18C189.029 140.18 189.162 140.281 189.162 140.445V141.969ZM194.896 141.969H196.076C196.35 141.969 196.428 142.047 196.428 142.352V142.547C196.428 142.828 196.326 142.945 196.076 142.945H194.912V147.133C194.912 147.828 194.936 148.289 194.975 148.5C195.014 148.711 195.092 148.844 195.201 148.898C195.279 148.938 195.389 148.977 195.521 149.023C195.842 149.133 195.998 149.297 195.998 149.508C195.998 149.719 195.865 149.859 195.6 149.945C195.334 150.023 194.803 150.062 194.014 150.062C193.225 150.062 192.693 150.023 192.428 149.938C192.162 149.852 192.029 149.703 192.029 149.484C192.029 149.312 192.154 149.18 192.412 149.086L192.623 148.992C192.756 148.922 192.842 148.797 192.896 148.625C192.951 148.445 192.975 148.125 192.975 147.664V146.883V142.945H192.061C191.811 142.945 191.725 142.852 191.725 142.547V142.352C191.725 142.078 191.826 141.969 192.076 141.969H192.936C192.865 141.508 192.826 141.117 192.826 140.75C192.826 139.93 193.076 139.289 193.568 138.828C194.068 138.367 194.764 138.141 195.662 138.141C196.279 138.141 196.779 138.281 197.162 138.562C197.545 138.836 197.74 139.188 197.74 139.617C197.74 140.125 197.459 140.398 196.928 140.398C196.584 140.398 196.303 140.234 196.123 139.953L195.967 139.656C195.771 139.266 195.514 139.07 195.193 139.07C194.787 139.07 194.506 139.359 194.506 139.789C194.506 139.914 194.568 140.219 194.693 140.695C194.818 141.172 194.889 141.594 194.896 141.969ZM198.865 145.297C198.865 146.375 199.092 147.273 199.545 148C200.006 148.727 200.561 149.086 201.217 149.086C201.748 149.086 202.178 148.859 202.506 148.414C202.842 147.969 203.006 147.375 203.006 146.641C203.006 145.578 202.771 144.688 202.311 143.969C201.85 143.242 201.303 142.883 200.654 142.883C200.115 142.883 199.686 143.102 199.357 143.547C199.029 143.984 198.865 144.57 198.865 145.297ZM200.865 150.227C199.693 150.227 198.725 149.828 197.951 149.031C197.178 148.234 196.795 147.227 196.795 146.016C196.795 144.789 197.201 143.773 198.006 142.961C198.818 142.148 199.834 141.742 201.053 141.742C202.225 141.742 203.186 142.125 203.928 142.883C204.678 143.641 205.053 144.617 205.053 145.805C205.053 147.062 204.654 148.117 203.85 148.961C203.045 149.805 202.053 150.227 200.865 150.227ZM208.748 142.891L208.771 143.055L208.85 143.086C209.404 142.211 210.021 141.742 210.639 141.742C211.389 141.742 211.873 142.234 211.873 142.992C211.873 143.75 211.514 144.211 210.896 144.211C210.592 144.211 210.342 144.102 210.146 143.891C210.076 143.82 210.014 143.711 209.959 143.57C209.904 143.43 209.842 143.359 209.779 143.359C209.404 143.359 209.139 143.617 208.99 144.141C208.842 144.656 208.771 145.742 208.771 147.391C208.771 148.336 208.896 148.789 209.186 148.914C209.264 148.945 209.373 148.984 209.506 149.023C209.834 149.125 209.998 149.289 209.998 149.508C209.998 149.711 209.85 149.859 209.545 149.945C209.24 150.031 208.717 150.078 207.967 150.078C207.146 150.078 206.6 150.031 206.334 149.945C206.068 149.859 205.936 149.695 205.936 149.453C205.936 149.273 206.068 149.133 206.326 149.039C206.428 149 206.506 148.969 206.545 148.945C206.826 148.789 206.928 148.484 206.928 147.664C206.928 147.562 206.928 147.383 206.92 147.117C206.912 146.852 206.912 146.633 206.912 146.461V145.984C206.912 144.977 206.889 144.328 206.842 144.023C206.803 143.719 206.725 143.539 206.607 143.469C206.521 143.43 206.396 143.383 206.232 143.328C205.912 143.227 205.748 143.078 205.748 142.898C205.748 142.641 205.912 142.477 206.404 142.289C206.779 142.141 207.139 142.016 207.49 141.93C207.842 141.836 208.092 141.789 208.225 141.789C208.482 141.789 208.662 142.156 208.748 142.891ZM215.037 142.305V142.734V142.828C215.037 142.922 215.061 142.93 215.1 142.93C215.123 142.93 215.17 142.906 215.178 142.898L215.365 142.727L215.459 142.641C216.107 142.039 216.771 141.742 217.436 141.742C217.936 141.742 218.404 141.891 218.842 142.195C219.053 142.328 219.256 142.523 219.459 142.766C219.662 143.008 219.787 143.133 219.834 143.133C219.904 143.133 220.014 143.047 220.154 142.883C220.303 142.719 220.42 142.594 220.521 142.516C220.873 142.219 221.178 142.016 221.436 141.906C221.701 141.797 221.99 141.742 222.303 141.742C223.561 141.742 224.553 142.273 224.99 143.188C225.232 143.688 225.35 144.734 225.35 146.336C225.357 146.688 225.357 146.953 225.357 147.133C225.357 147.25 225.357 147.398 225.35 147.578C225.342 147.758 225.342 147.883 225.342 147.953C225.342 148.578 225.436 148.789 225.709 148.945C225.748 148.969 225.818 148.992 225.92 149.031C226.193 149.133 226.334 149.273 226.334 149.453C226.334 149.688 226.209 149.852 225.951 149.938C225.693 150.023 225.146 150.062 224.303 150.062C223.529 150.062 223.006 150.023 222.74 149.945C222.482 149.859 222.35 149.719 222.35 149.508C222.35 149.297 222.49 149.141 222.779 149.023C222.904 148.977 222.998 148.938 223.068 148.898C223.201 148.828 223.295 148.656 223.35 148.391C223.404 148.117 223.436 147.664 223.436 147.023C223.436 145.414 223.326 144.391 223.107 143.961C222.889 143.531 222.49 143.312 221.92 143.312C221.287 143.312 220.834 143.586 220.561 144.141C220.287 144.688 220.154 145.625 220.154 146.945V147.391C220.154 147.977 220.186 148.359 220.24 148.547C220.295 148.734 220.396 148.867 220.537 148.945L220.748 149.031C221.014 149.133 221.146 149.273 221.146 149.453C221.146 149.688 221.021 149.852 220.771 149.938C220.521 150.023 219.982 150.062 219.146 150.062C218.389 150.062 217.873 150.023 217.615 149.945C217.357 149.859 217.225 149.719 217.225 149.508C217.225 149.297 217.365 149.148 217.639 149.047C217.771 149 217.873 148.953 217.951 148.914C218.068 148.844 218.146 148.703 218.193 148.484C218.248 148.258 218.271 147.836 218.271 147.219C218.271 145.492 218.162 144.406 217.936 143.969C217.717 143.531 217.318 143.312 216.748 143.312C216.162 143.312 215.607 143.688 215.326 144.273C215.201 144.516 215.115 144.867 215.061 145.312C215.014 145.758 214.99 146.484 214.99 147.508C214.99 148.008 215.014 148.352 215.061 148.539C215.107 148.719 215.193 148.844 215.311 148.914C215.381 148.953 215.482 148.992 215.615 149.047C215.889 149.148 216.029 149.297 216.029 149.508C216.029 149.719 215.896 149.867 215.623 149.953C215.357 150.039 214.865 150.078 214.154 150.078C213.326 150.078 212.779 150.031 212.514 149.945C212.256 149.859 212.123 149.695 212.123 149.453C212.123 149.273 212.256 149.133 212.521 149.031C212.623 148.992 212.693 148.969 212.732 148.945C213.014 148.789 213.115 148.484 213.115 147.664C213.115 147.562 213.115 147.383 213.107 147.117C213.1 146.852 213.1 146.633 213.1 146.461V145.984C213.1 144.977 213.076 144.328 213.029 144.023C212.99 143.719 212.912 143.539 212.795 143.469C212.709 143.43 212.584 143.383 212.42 143.328C212.1 143.227 211.936 143.078 211.936 142.898C211.936 142.656 212.1 142.5 212.592 142.305C213.014 142.133 213.412 142 213.779 141.898C214.154 141.797 214.428 141.742 214.592 141.742C214.873 141.742 215.014 141.922 215.037 142.305Z" fill="black"/>
<path d="M142.078 176L139.46 166.06H140.776L142.82 174.348L144.85 166.06H146.222L148.266 174.348L150.296 166.06H151.626L149.008 176H147.496L145.536 168.3L143.576 176H142.078ZM155.62 176.168C154.92 176.168 154.313 176.009 153.8 175.692C153.296 175.375 152.904 174.927 152.624 174.348C152.353 173.76 152.218 173.074 152.218 172.29C152.218 171.506 152.353 170.825 152.624 170.246C152.904 169.667 153.291 169.219 153.786 168.902C154.29 168.575 154.882 168.412 155.564 168.412C156.208 168.412 156.777 168.566 157.272 168.874C157.766 169.173 158.149 169.611 158.42 170.19C158.7 170.769 158.84 171.473 158.84 172.304V172.654H153.45C153.496 173.447 153.706 174.045 154.08 174.446C154.462 174.847 154.976 175.048 155.62 175.048C156.105 175.048 156.502 174.936 156.81 174.712C157.127 174.479 157.346 174.175 157.468 173.802L158.728 173.9C158.532 174.563 158.158 175.109 157.608 175.538C157.066 175.958 156.404 176.168 155.62 176.168ZM153.45 171.618H157.552C157.496 170.899 157.286 170.372 156.922 170.036C156.567 169.7 156.114 169.532 155.564 169.532C154.994 169.532 154.523 169.709 154.15 170.064C153.786 170.409 153.552 170.927 153.45 171.618ZM166.785 176C166.113 176 165.614 175.846 165.287 175.538C164.97 175.23 164.811 174.749 164.811 174.096V166.844H165.987V174.068C165.987 174.404 166.062 174.637 166.211 174.768C166.361 174.899 166.589 174.964 166.897 174.964H167.961V176H166.785ZM163.719 169.616V168.58H167.961V169.616H163.719ZM171.906 176.168C171.168 176.168 170.576 175.921 170.128 175.426C169.689 174.922 169.47 174.231 169.47 173.354V168.58H170.646V173.032C170.646 173.751 170.772 174.283 171.024 174.628C171.285 174.964 171.682 175.132 172.214 175.132C172.802 175.132 173.264 174.945 173.6 174.572C173.936 174.189 174.104 173.667 174.104 173.004V168.58H175.28V176H174.16V174.166L174.342 174.264C174.192 174.871 173.908 175.342 173.488 175.678C173.068 176.005 172.54 176.168 171.906 176.168ZM177.522 176V168.58H178.558L178.614 170.456L178.502 170.414C178.596 169.779 178.796 169.317 179.104 169.028C179.422 168.729 179.842 168.58 180.364 168.58H181.092V169.7H180.378C180.005 169.7 179.692 169.77 179.44 169.91C179.198 170.041 179.011 170.241 178.88 170.512C178.759 170.773 178.698 171.109 178.698 171.52V176H177.522ZM182.266 176V168.58H183.344L183.386 170.47L183.246 170.344C183.34 169.905 183.503 169.546 183.736 169.266C183.97 168.977 184.25 168.762 184.576 168.622C184.912 168.482 185.272 168.412 185.654 168.412C186.224 168.412 186.69 168.538 187.054 168.79C187.428 169.042 187.703 169.383 187.88 169.812C188.067 170.232 188.16 170.703 188.16 171.226V176H186.984V171.562C186.984 171.105 186.928 170.722 186.816 170.414C186.714 170.097 186.546 169.859 186.312 169.7C186.079 169.532 185.776 169.448 185.402 169.448C184.833 169.448 184.362 169.63 183.988 169.994C183.624 170.349 183.442 170.871 183.442 171.562V176H182.266ZM194.223 178.1V177.064H195.077C195.339 177.064 195.53 177.022 195.651 176.938C195.782 176.863 195.88 176.737 195.945 176.56L196.211 175.86H195.805L193.089 168.58H194.377L196.589 174.768L198.703 168.58H199.991L196.981 176.938C196.841 177.339 196.631 177.633 196.351 177.82C196.071 178.007 195.684 178.1 195.189 178.1H194.223ZM203.95 176.168C203.268 176.168 202.671 176.009 202.158 175.692C201.644 175.375 201.248 174.927 200.968 174.348C200.688 173.76 200.548 173.074 200.548 172.29C200.548 171.497 200.688 170.811 200.968 170.232C201.248 169.653 201.644 169.205 202.158 168.888C202.671 168.571 203.268 168.412 203.95 168.412C204.631 168.412 205.224 168.571 205.728 168.888C206.241 169.205 206.638 169.653 206.918 170.232C207.198 170.811 207.338 171.497 207.338 172.29C207.338 173.074 207.198 173.76 206.918 174.348C206.638 174.927 206.241 175.375 205.728 175.692C205.224 176.009 204.631 176.168 203.95 176.168ZM203.95 175.048C204.631 175.048 205.158 174.805 205.532 174.32C205.914 173.825 206.106 173.149 206.106 172.29C206.106 171.431 205.914 170.759 205.532 170.274C205.158 169.779 204.631 169.532 203.95 169.532C203.268 169.532 202.736 169.779 202.354 170.274C201.971 170.759 201.78 171.431 201.78 172.29C201.78 173.149 201.971 173.825 202.354 174.32C202.736 174.805 203.268 175.048 203.95 175.048ZM211.376 176.168C210.639 176.168 210.046 175.921 209.598 175.426C209.16 174.922 208.94 174.231 208.94 173.354V168.58H210.116V173.032C210.116 173.751 210.242 174.283 210.494 174.628C210.756 174.964 211.152 175.132 211.684 175.132C212.272 175.132 212.734 174.945 213.07 174.572C213.406 174.189 213.574 173.667 213.574 173.004V168.58H214.75V176H213.63V174.166L213.812 174.264C213.663 174.871 213.378 175.342 212.958 175.678C212.538 176.005 212.011 176.168 211.376 176.168ZM216.993 176V168.58H218.029L218.085 170.456L217.973 170.414C218.066 169.779 218.267 169.317 218.575 169.028C218.892 168.729 219.312 168.58 219.835 168.58H220.563V169.7H219.849C219.476 169.7 219.163 169.77 218.911 169.91C218.668 170.041 218.482 170.241 218.351 170.512C218.23 170.773 218.169 171.109 218.169 171.52V176H216.993ZM132.569 194V186.58H133.647L133.689 188.456L133.521 188.4C133.605 187.989 133.75 187.639 133.955 187.35C134.17 187.051 134.431 186.823 134.739 186.664C135.047 186.496 135.388 186.412 135.761 186.412C136.405 186.412 136.928 186.589 137.329 186.944C137.74 187.299 137.997 187.793 138.099 188.428L137.875 188.414C137.95 187.985 138.085 187.625 138.281 187.336C138.487 187.037 138.748 186.809 139.065 186.65C139.383 186.491 139.747 186.412 140.157 186.412C140.689 186.412 141.137 186.524 141.501 186.748C141.865 186.963 142.141 187.28 142.327 187.7C142.514 188.12 142.607 188.629 142.607 189.226V194H141.431V189.478C141.431 188.806 141.301 188.302 141.039 187.966C140.778 187.621 140.391 187.448 139.877 187.448C139.532 187.448 139.229 187.532 138.967 187.7C138.715 187.868 138.519 188.111 138.379 188.428C138.239 188.736 138.169 189.114 138.169 189.562V194H136.993V189.562C136.993 188.899 136.877 188.381 136.643 188.008C136.41 187.635 136.018 187.448 135.467 187.448C135.122 187.448 134.819 187.532 134.557 187.7C134.305 187.868 134.105 188.111 133.955 188.428C133.815 188.745 133.745 189.123 133.745 189.562V194H132.569ZM147.581 194.168C146.881 194.168 146.274 194.009 145.761 193.692C145.257 193.375 144.865 192.927 144.585 192.348C144.314 191.76 144.179 191.074 144.179 190.29C144.179 189.506 144.314 188.825 144.585 188.246C144.865 187.667 145.252 187.219 145.747 186.902C146.251 186.575 146.843 186.412 147.525 186.412C148.169 186.412 148.738 186.566 149.233 186.874C149.727 187.173 150.11 187.611 150.381 188.19C150.661 188.769 150.801 189.473 150.801 190.304V190.654H145.41C145.457 191.447 145.667 192.045 146.041 192.446C146.423 192.847 146.937 193.048 147.581 193.048C148.066 193.048 148.463 192.936 148.771 192.712C149.088 192.479 149.307 192.175 149.429 191.802L150.689 191.9C150.493 192.563 150.119 193.109 149.569 193.538C149.027 193.958 148.365 194.168 147.581 194.168ZM145.41 189.618H149.513C149.457 188.899 149.247 188.372 148.883 188.036C148.528 187.7 148.075 187.532 147.525 187.532C146.955 187.532 146.484 187.709 146.111 188.064C145.747 188.409 145.513 188.927 145.41 189.618ZM155.095 194.168C154.433 194.168 153.868 194.061 153.401 193.846C152.944 193.631 152.585 193.337 152.323 192.964C152.071 192.581 151.927 192.147 151.889 191.662L153.121 191.578C153.196 192.026 153.387 192.385 153.695 192.656C154.003 192.917 154.47 193.048 155.095 193.048C155.599 193.048 156.001 192.969 156.299 192.81C156.607 192.642 156.761 192.376 156.761 192.012C156.761 191.816 156.715 191.653 156.621 191.522C156.528 191.391 156.346 191.279 156.075 191.186C155.805 191.083 155.403 190.985 154.871 190.892C154.162 190.761 153.602 190.603 153.191 190.416C152.79 190.22 152.501 189.982 152.323 189.702C152.155 189.413 152.071 189.072 152.071 188.68C152.071 188.017 152.314 187.476 152.799 187.056C153.285 186.627 153.975 186.412 154.871 186.412C155.478 186.412 155.987 186.524 156.397 186.748C156.817 186.963 157.144 187.252 157.377 187.616C157.62 187.971 157.779 188.363 157.853 188.792L156.621 188.876C156.565 188.615 156.463 188.386 156.313 188.19C156.164 187.985 155.968 187.826 155.725 187.714C155.483 187.593 155.193 187.532 154.857 187.532C154.325 187.532 153.933 187.635 153.681 187.84C153.429 188.045 153.303 188.307 153.303 188.624C153.303 188.867 153.359 189.067 153.471 189.226C153.593 189.375 153.784 189.501 154.045 189.604C154.307 189.697 154.657 189.781 155.095 189.856C155.851 189.987 156.439 190.145 156.859 190.332C157.279 190.519 157.573 190.747 157.741 191.018C157.909 191.289 157.993 191.62 157.993 192.012C157.993 192.469 157.863 192.861 157.601 193.188C157.349 193.505 157.004 193.748 156.565 193.916C156.136 194.084 155.646 194.168 155.095 194.168ZM162.301 194.168C161.638 194.168 161.073 194.061 160.607 193.846C160.149 193.631 159.79 193.337 159.529 192.964C159.277 192.581 159.132 192.147 159.095 191.662L160.327 191.578C160.401 192.026 160.593 192.385 160.901 192.656C161.209 192.917 161.675 193.048 162.301 193.048C162.805 193.048 163.206 192.969 163.505 192.81C163.813 192.642 163.967 192.376 163.967 192.012C163.967 191.816 163.92 191.653 163.827 191.522C163.733 191.391 163.551 191.279 163.281 191.186C163.01 191.083 162.609 190.985 162.077 190.892C161.367 190.761 160.807 190.603 160.397 190.416C159.995 190.22 159.706 189.982 159.529 189.702C159.361 189.413 159.277 189.072 159.277 188.68C159.277 188.017 159.519 187.476 160.005 187.056C160.49 186.627 161.181 186.412 162.077 186.412C162.683 186.412 163.192 186.524 163.603 186.748C164.023 186.963 164.349 187.252 164.583 187.616C164.825 187.971 164.984 188.363 165.059 188.792L163.827 188.876C163.771 188.615 163.668 188.386 163.519 188.19C163.369 187.985 163.173 187.826 162.931 187.714C162.688 187.593 162.399 187.532 162.063 187.532C161.531 187.532 161.139 187.635 160.887 187.84C160.635 188.045 160.509 188.307 160.509 188.624C160.509 188.867 160.565 189.067 160.677 189.226C160.798 189.375 160.989 189.501 161.251 189.604C161.512 189.697 161.862 189.781 162.301 189.856C163.057 189.987 163.645 190.145 164.065 190.332C164.485 190.519 164.779 190.747 164.947 191.018C165.115 191.289 165.199 191.62 165.199 192.012C165.199 192.469 165.068 192.861 164.807 193.188C164.555 193.505 164.209 193.748 163.771 193.916C163.341 194.084 162.851 194.168 162.301 194.168ZM168.997 194.168C168.232 194.168 167.62 193.991 167.163 193.636C166.715 193.281 166.491 192.787 166.491 192.152C166.491 191.517 166.678 191.018 167.051 190.654C167.424 190.29 168.017 190.033 168.829 189.884L171.461 189.394C171.461 188.769 171.312 188.302 171.013 187.994C170.724 187.686 170.285 187.532 169.697 187.532C169.184 187.532 168.778 187.649 168.479 187.882C168.18 188.106 167.975 188.433 167.863 188.862L166.617 188.764C166.757 188.064 167.093 187.499 167.625 187.07C168.166 186.631 168.857 186.412 169.697 186.412C170.649 186.412 171.377 186.683 171.881 187.224C172.385 187.756 172.637 188.493 172.637 189.436V192.502C172.637 192.67 172.665 192.791 172.721 192.866C172.786 192.931 172.889 192.964 173.029 192.964H173.323V194C173.286 194.009 173.225 194.014 173.141 194.014C173.057 194.023 172.968 194.028 172.875 194.028C172.539 194.028 172.264 193.977 172.049 193.874C171.844 193.762 171.694 193.594 171.601 193.37C171.508 193.137 171.461 192.833 171.461 192.46L171.601 192.488C171.536 192.805 171.377 193.095 171.125 193.356C170.873 193.608 170.56 193.809 170.187 193.958C169.814 194.098 169.417 194.168 168.997 194.168ZM169.109 193.132C169.604 193.132 170.024 193.039 170.369 192.852C170.724 192.656 170.994 192.395 171.181 192.068C171.368 191.732 171.461 191.359 171.461 190.948V190.416L169.053 190.864C168.549 190.957 168.199 191.102 168.003 191.298C167.816 191.485 167.723 191.732 167.723 192.04C167.723 192.385 167.844 192.656 168.087 192.852C168.339 193.039 168.68 193.132 169.109 193.132ZM177.438 196.268C176.906 196.268 176.425 196.179 175.996 196.002C175.567 195.825 175.207 195.573 174.918 195.246C174.629 194.919 174.433 194.541 174.33 194.112L175.562 194.028C175.674 194.373 175.87 194.644 176.15 194.84C176.439 195.045 176.869 195.148 177.438 195.148C178.11 195.148 178.623 195.013 178.978 194.742C179.342 194.471 179.524 194.065 179.524 193.524V192.32C179.347 192.712 179.062 193.025 178.67 193.258C178.278 193.491 177.839 193.608 177.354 193.608C176.729 193.608 176.169 193.454 175.674 193.146C175.189 192.838 174.806 192.413 174.526 191.872C174.255 191.331 174.12 190.71 174.12 190.01C174.12 189.301 174.255 188.68 174.526 188.148C174.797 187.607 175.17 187.182 175.646 186.874C176.131 186.566 176.682 186.412 177.298 186.412C177.821 186.412 178.287 186.533 178.698 186.776C179.118 187.019 179.412 187.345 179.58 187.756V186.58H180.7V193.496C180.7 194.075 180.569 194.569 180.308 194.98C180.047 195.4 179.673 195.717 179.188 195.932C178.703 196.156 178.119 196.268 177.438 196.268ZM177.41 192.488C178.045 192.488 178.553 192.269 178.936 191.83C179.319 191.382 179.515 190.775 179.524 190.01C179.533 189.497 179.449 189.058 179.272 188.694C179.104 188.321 178.857 188.036 178.53 187.84C178.213 187.635 177.839 187.532 177.41 187.532C176.757 187.532 176.248 187.756 175.884 188.204C175.529 188.643 175.352 189.245 175.352 190.01C175.352 190.775 175.534 191.382 175.898 191.83C176.271 192.269 176.775 192.488 177.41 192.488ZM185.698 194.168C184.998 194.168 184.391 194.009 183.878 193.692C183.374 193.375 182.982 192.927 182.702 192.348C182.431 191.76 182.296 191.074 182.296 190.29C182.296 189.506 182.431 188.825 182.702 188.246C182.982 187.667 183.369 187.219 183.864 186.902C184.368 186.575 184.96 186.412 185.642 186.412C186.286 186.412 186.855 186.566 187.35 186.874C187.844 187.173 188.227 187.611 188.498 188.19C188.778 188.769 188.918 189.473 188.918 190.304V190.654H183.528C183.574 191.447 183.784 192.045 184.158 192.446C184.54 192.847 185.054 193.048 185.698 193.048C186.183 193.048 186.58 192.936 186.888 192.712C187.205 192.479 187.424 192.175 187.546 191.802L188.806 191.9C188.61 192.563 188.236 193.109 187.686 193.538C187.144 193.958 186.482 194.168 185.698 194.168ZM183.528 189.618H187.63C187.574 188.899 187.364 188.372 187 188.036C186.645 187.7 186.192 187.532 185.642 187.532C185.072 187.532 184.601 187.709 184.228 188.064C183.864 188.409 183.63 188.927 183.528 189.618ZM194.147 194V186.58H195.323V194H194.147ZM194.119 185.418V184.046H195.351V185.418H194.119ZM197.702 194V186.58H198.78L198.822 188.47L198.682 188.344C198.775 187.905 198.939 187.546 199.172 187.266C199.405 186.977 199.685 186.762 200.012 186.622C200.348 186.482 200.707 186.412 201.09 186.412C201.659 186.412 202.126 186.538 202.49 186.79C202.863 187.042 203.139 187.383 203.316 187.812C203.503 188.232 203.596 188.703 203.596 189.226V194H202.42V189.562C202.42 189.105 202.364 188.722 202.252 188.414C202.149 188.097 201.981 187.859 201.748 187.7C201.515 187.532 201.211 187.448 200.838 187.448C200.269 187.448 199.797 187.63 199.424 187.994C199.06 188.349 198.878 188.871 198.878 189.562V194H197.702ZM207.992 194C207.32 194 206.821 193.846 206.494 193.538C206.177 193.23 206.018 192.749 206.018 192.096V184.844H207.194V192.068C207.194 192.404 207.269 192.637 207.418 192.768C207.568 192.899 207.796 192.964 208.104 192.964H209.168V194H207.992ZM204.926 187.616V186.58H209.168V187.616H204.926ZM213.438 194.168C212.757 194.168 212.159 194.009 211.646 193.692C211.133 193.375 210.736 192.927 210.456 192.348C210.176 191.76 210.036 191.074 210.036 190.29C210.036 189.497 210.176 188.811 210.456 188.232C210.736 187.653 211.133 187.205 211.646 186.888C212.159 186.571 212.757 186.412 213.438 186.412C214.119 186.412 214.712 186.571 215.216 186.888C215.729 187.205 216.126 187.653 216.406 188.232C216.686 188.811 216.826 189.497 216.826 190.29C216.826 191.074 216.686 191.76 216.406 192.348C216.126 192.927 215.729 193.375 215.216 193.692C214.712 194.009 214.119 194.168 213.438 194.168ZM213.438 193.048C214.119 193.048 214.647 192.805 215.02 192.32C215.403 191.825 215.594 191.149 215.594 190.29C215.594 189.431 215.403 188.759 215.02 188.274C214.647 187.779 214.119 187.532 213.438 187.532C212.757 187.532 212.225 187.779 211.842 188.274C211.459 188.759 211.268 189.431 211.268 190.29C211.268 191.149 211.459 191.825 211.842 192.32C212.225 192.805 212.757 193.048 213.438 193.048ZM224.067 194.168C223.302 194.168 222.691 193.991 222.233 193.636C221.785 193.281 221.561 192.787 221.561 192.152C221.561 191.517 221.748 191.018 222.121 190.654C222.495 190.29 223.087 190.033 223.899 189.884L226.531 189.394C226.531 188.769 226.382 188.302 226.083 187.994C225.794 187.686 225.355 187.532 224.767 187.532C224.254 187.532 223.848 187.649 223.549 187.882C223.251 188.106 223.045 188.433 222.933 188.862L221.687 188.764C221.827 188.064 222.163 187.499 222.695 187.07C223.237 186.631 223.927 186.412 224.767 186.412C225.719 186.412 226.447 186.683 226.951 187.224C227.455 187.756 227.707 188.493 227.707 189.436V192.502C227.707 192.67 227.735 192.791 227.791 192.866C227.857 192.931 227.959 192.964 228.099 192.964H228.393V194C228.356 194.009 228.295 194.014 228.211 194.014C228.127 194.023 228.039 194.028 227.945 194.028C227.609 194.028 227.334 193.977 227.119 193.874C226.914 193.762 226.765 193.594 226.671 193.37C226.578 193.137 226.531 192.833 226.531 192.46L226.671 192.488C226.606 192.805 226.447 193.095 226.195 193.356C225.943 193.608 225.631 193.809 225.257 193.958C224.884 194.098 224.487 194.168 224.067 194.168ZM224.179 193.132C224.674 193.132 225.094 193.039 225.439 192.852C225.794 192.656 226.065 192.395 226.251 192.068C226.438 191.732 226.531 191.359 226.531 190.948V190.416L224.123 190.864C223.619 190.957 223.269 191.102 223.073 191.298C222.887 191.485 222.793 191.732 222.793 192.04C222.793 192.385 222.915 192.656 223.157 192.852C223.409 193.039 223.75 193.132 224.179 193.132ZM126.002 212.168C125.339 212.168 124.774 212.061 124.308 211.846C123.85 211.631 123.491 211.337 123.23 210.964C122.978 210.581 122.833 210.147 122.796 209.662L124.028 209.578C124.102 210.026 124.294 210.385 124.602 210.656C124.91 210.917 125.376 211.048 126.002 211.048C126.506 211.048 126.907 210.969 127.206 210.81C127.514 210.642 127.668 210.376 127.668 210.012C127.668 209.816 127.621 209.653 127.528 209.522C127.434 209.391 127.252 209.279 126.982 209.186C126.711 209.083 126.31 208.985 125.778 208.892C125.068 208.761 124.508 208.603 124.098 208.416C123.696 208.22 123.407 207.982 123.23 207.702C123.062 207.413 122.978 207.072 122.978 206.68C122.978 206.017 123.22 205.476 123.706 205.056C124.191 204.627 124.882 204.412 125.778 204.412C126.384 204.412 126.893 204.524 127.304 204.748C127.724 204.963 128.05 205.252 128.284 205.616C128.526 205.971 128.685 206.363 128.76 206.792L127.528 206.876C127.472 206.615 127.369 206.386 127.22 206.19C127.07 205.985 126.874 205.826 126.632 205.714C126.389 205.593 126.1 205.532 125.764 205.532C125.232 205.532 124.84 205.635 124.588 205.84C124.336 206.045 124.21 206.307 124.21 206.624C124.21 206.867 124.266 207.067 124.378 207.226C124.499 207.375 124.69 207.501 124.952 207.604C125.213 207.697 125.563 207.781 126.002 207.856C126.758 207.987 127.346 208.145 127.766 208.332C128.186 208.519 128.48 208.747 128.648 209.018C128.816 209.289 128.9 209.62 128.9 210.012C128.9 210.469 128.769 210.861 128.508 211.188C128.256 211.505 127.91 211.748 127.472 211.916C127.042 212.084 126.552 212.168 126.002 212.168ZM133.403 212.168C132.703 212.168 132.096 212.009 131.583 211.692C131.079 211.375 130.687 210.927 130.407 210.348C130.136 209.76 130.001 209.074 130.001 208.29C130.001 207.506 130.136 206.825 130.407 206.246C130.687 205.667 131.074 205.219 131.569 204.902C132.073 204.575 132.665 204.412 133.347 204.412C133.991 204.412 134.56 204.566 135.055 204.874C135.549 205.173 135.932 205.611 136.203 206.19C136.483 206.769 136.623 207.473 136.623 208.304V208.654H131.233C131.279 209.447 131.489 210.045 131.863 210.446C132.245 210.847 132.759 211.048 133.403 211.048C133.888 211.048 134.285 210.936 134.593 210.712C134.91 210.479 135.129 210.175 135.251 209.802L136.511 209.9C136.315 210.563 135.941 211.109 135.391 211.538C134.849 211.958 134.187 212.168 133.403 212.168ZM131.233 207.618H135.335C135.279 206.899 135.069 206.372 134.705 206.036C134.35 205.7 133.897 205.532 133.347 205.532C132.777 205.532 132.306 205.709 131.933 206.064C131.569 206.409 131.335 206.927 131.233 207.618ZM140.409 212.168C139.644 212.168 139.032 211.991 138.575 211.636C138.127 211.281 137.903 210.787 137.903 210.152C137.903 209.517 138.09 209.018 138.463 208.654C138.836 208.29 139.429 208.033 140.241 207.884L142.873 207.394C142.873 206.769 142.724 206.302 142.425 205.994C142.136 205.686 141.697 205.532 141.109 205.532C140.596 205.532 140.19 205.649 139.891 205.882C139.592 206.106 139.387 206.433 139.275 206.862L138.029 206.764C138.169 206.064 138.505 205.499 139.037 205.07C139.578 204.631 140.269 204.412 141.109 204.412C142.061 204.412 142.789 204.683 143.293 205.224C143.797 205.756 144.049 206.493 144.049 207.436V210.502C144.049 210.67 144.077 210.791 144.133 210.866C144.198 210.931 144.301 210.964 144.441 210.964H144.735V212C144.698 212.009 144.637 212.014 144.553 212.014C144.469 212.023 144.38 212.028 144.287 212.028C143.951 212.028 143.676 211.977 143.461 211.874C143.256 211.762 143.106 211.594 143.013 211.37C142.92 211.137 142.873 210.833 142.873 210.46L143.013 210.488C142.948 210.805 142.789 211.095 142.537 211.356C142.285 211.608 141.972 211.809 141.599 211.958C141.226 212.098 140.829 212.168 140.409 212.168ZM140.521 211.132C141.016 211.132 141.436 211.039 141.781 210.852C142.136 210.656 142.406 210.395 142.593 210.068C142.78 209.732 142.873 209.359 142.873 208.948V208.416L140.465 208.864C139.961 208.957 139.611 209.102 139.415 209.298C139.228 209.485 139.135 209.732 139.135 210.04C139.135 210.385 139.256 210.656 139.499 210.852C139.751 211.039 140.092 211.132 140.521 211.132ZM146.063 212V204.58H147.099L147.155 206.456L147.043 206.414C147.137 205.779 147.337 205.317 147.645 205.028C147.963 204.729 148.383 204.58 148.905 204.58H149.633V205.7H148.919C148.546 205.7 148.233 205.77 147.981 205.91C147.739 206.041 147.552 206.241 147.421 206.512C147.3 206.773 147.239 207.109 147.239 207.52V212H146.063ZM153.706 212.168C153.015 212.168 152.413 212.009 151.9 211.692C151.396 211.375 151.004 210.927 150.724 210.348C150.444 209.76 150.304 209.074 150.304 208.29C150.304 207.506 150.444 206.825 150.724 206.246C151.004 205.667 151.396 205.219 151.9 204.902C152.413 204.575 153.015 204.412 153.706 204.412C154.275 204.412 154.779 204.515 155.218 204.72C155.666 204.916 156.03 205.205 156.31 205.588C156.59 205.971 156.772 206.437 156.856 206.988L155.624 207.072C155.54 206.577 155.325 206.199 154.98 205.938C154.634 205.667 154.21 205.532 153.706 205.532C153.024 205.532 152.492 205.779 152.11 206.274C151.727 206.759 151.535 207.431 151.535 208.29C151.535 209.149 151.727 209.825 152.11 210.32C152.492 210.805 153.024 211.048 153.706 211.048C154.21 211.048 154.634 210.908 154.98 210.628C155.325 210.348 155.54 209.928 155.624 209.368L156.856 209.452C156.772 210.003 156.59 210.483 156.31 210.894C156.03 211.295 155.666 211.608 155.218 211.832C154.779 212.056 154.275 212.168 153.706 212.168ZM158.313 212V202.06H159.489V206.218L159.349 206.19C159.443 205.779 159.601 205.443 159.825 205.182C160.049 204.921 160.325 204.729 160.651 204.608C160.978 204.477 161.337 204.412 161.729 204.412C162.261 204.412 162.709 204.533 163.073 204.776C163.447 205.009 163.727 205.341 163.913 205.77C164.109 206.19 164.207 206.675 164.207 207.226V212H163.031V207.562C163.031 206.843 162.901 206.311 162.639 205.966C162.387 205.621 162 205.448 161.477 205.448C160.88 205.448 160.399 205.63 160.035 205.994C159.671 206.358 159.489 206.885 159.489 207.576V212H158.313ZM168.313 212.168C167.548 212.168 166.937 211.991 166.479 211.636C166.031 211.281 165.807 210.787 165.807 210.152C165.807 209.517 165.994 209.018 166.367 208.654C166.741 208.29 167.333 208.033 168.145 207.884L170.777 207.394C170.777 206.769 170.628 206.302 170.329 205.994C170.04 205.686 169.601 205.532 169.013 205.532C168.5 205.532 168.094 205.649 167.795 205.882C167.497 206.106 167.291 206.433 167.179 206.862L165.933 206.764C166.073 206.064 166.409 205.499 166.941 205.07C167.483 204.631 168.173 204.412 169.013 204.412C169.965 204.412 170.693 204.683 171.197 205.224C171.701 205.756 171.953 206.493 171.953 207.436V210.502C171.953 210.67 171.981 210.791 172.037 210.866C172.103 210.931 172.205 210.964 172.345 210.964H172.639V212C172.602 212.009 172.541 212.014 172.457 212.014C172.373 212.023 172.285 212.028 172.191 212.028C171.855 212.028 171.58 211.977 171.365 211.874C171.16 211.762 171.011 211.594 170.917 211.37C170.824 211.137 170.777 210.833 170.777 210.46L170.917 210.488C170.852 210.805 170.693 211.095 170.441 211.356C170.189 211.608 169.877 211.809 169.503 211.958C169.13 212.098 168.733 212.168 168.313 212.168ZM168.425 211.132C168.92 211.132 169.34 211.039 169.685 210.852C170.04 210.656 170.311 210.395 170.497 210.068C170.684 209.732 170.777 209.359 170.777 208.948V208.416L168.369 208.864C167.865 208.957 167.515 209.102 167.319 209.298C167.133 209.485 167.039 209.732 167.039 210.04C167.039 210.385 167.161 210.656 167.403 210.852C167.655 211.039 167.996 211.132 168.425 211.132ZM177.315 212.168C176.802 212.168 176.344 212.056 175.943 211.832C175.542 211.599 175.234 211.281 175.019 210.88L174.977 212H173.913V202.06H175.089V205.616C175.276 205.308 175.565 205.033 175.957 204.79C176.349 204.538 176.802 204.412 177.315 204.412C177.968 204.412 178.533 204.571 179.009 204.888C179.485 205.205 179.854 205.653 180.115 206.232C180.376 206.811 180.507 207.497 180.507 208.29C180.507 209.083 180.376 209.769 180.115 210.348C179.854 210.927 179.485 211.375 179.009 211.692C178.533 212.009 177.968 212.168 177.315 212.168ZM177.245 211.048C177.87 211.048 178.365 210.801 178.729 210.306C179.093 209.811 179.275 209.139 179.275 208.29C179.275 207.431 179.093 206.759 178.729 206.274C178.365 205.779 177.88 205.532 177.273 205.532C176.816 205.532 176.424 205.644 176.097 205.868C175.77 206.083 175.518 206.395 175.341 206.806C175.173 207.217 175.089 207.711 175.089 208.29C175.089 208.85 175.173 209.34 175.341 209.76C175.518 210.171 175.766 210.488 176.083 210.712C176.41 210.936 176.797 211.048 177.245 211.048ZM183.627 212C183.197 212 182.847 211.888 182.577 211.664C182.306 211.44 182.171 211.085 182.171 210.6V202.06H183.347V210.502C183.347 210.651 183.384 210.768 183.459 210.852C183.543 210.927 183.659 210.964 183.809 210.964H184.453V212H183.627ZM188.719 212.168C188.019 212.168 187.413 212.009 186.899 211.692C186.395 211.375 186.003 210.927 185.723 210.348C185.453 209.76 185.317 209.074 185.317 208.29C185.317 207.506 185.453 206.825 185.723 206.246C186.003 205.667 186.391 205.219 186.885 204.902C187.389 204.575 187.982 204.412 188.663 204.412C189.307 204.412 189.877 204.566 190.371 204.874C190.866 205.173 191.249 205.611 191.519 206.19C191.799 206.769 191.939 207.473 191.939 208.304V208.654H186.549C186.596 209.447 186.806 210.045 187.179 210.446C187.562 210.847 188.075 211.048 188.719 211.048C189.205 211.048 189.601 210.936 189.909 210.712C190.227 210.479 190.446 210.175 190.567 209.802L191.827 209.9C191.631 210.563 191.258 211.109 190.707 211.538C190.166 211.958 189.503 212.168 188.719 212.168ZM186.549 207.618H190.651C190.595 206.899 190.385 206.372 190.021 206.036C189.667 205.7 189.214 205.532 188.663 205.532C188.094 205.532 187.623 205.709 187.249 206.064C186.885 206.409 186.652 206.927 186.549 207.618ZM198.625 212C198.195 212 197.845 211.888 197.575 211.664C197.304 211.44 197.169 211.085 197.169 210.6V202.06H198.345V210.502C198.345 210.651 198.382 210.768 198.457 210.852C198.541 210.927 198.657 210.964 198.807 210.964H199.451V212H198.625ZM200.792 212V204.58H201.968V212H200.792ZM200.764 203.418V202.046H201.996V203.418H200.764ZM206.775 212.168C206.112 212.168 205.548 212.061 205.081 211.846C204.624 211.631 204.264 211.337 204.003 210.964C203.751 210.581 203.606 210.147 203.569 209.662L204.801 209.578C204.876 210.026 205.067 210.385 205.375 210.656C205.683 210.917 206.15 211.048 206.775 211.048C207.279 211.048 207.68 210.969 207.979 210.81C208.287 210.642 208.441 210.376 208.441 210.012C208.441 209.816 208.394 209.653 208.301 209.522C208.208 209.391 208.026 209.279 207.755 209.186C207.484 209.083 207.083 208.985 206.551 208.892C205.842 208.761 205.282 208.603 204.871 208.416C204.47 208.22 204.18 207.982 204.003 207.702C203.835 207.413 203.751 207.072 203.751 206.68C203.751 206.017 203.994 205.476 204.479 205.056C204.964 204.627 205.655 204.412 206.551 204.412C207.158 204.412 207.666 204.524 208.077 204.748C208.497 204.963 208.824 205.252 209.057 205.616C209.3 205.971 209.458 206.363 209.533 206.792L208.301 206.876C208.245 206.615 208.142 206.386 207.993 206.19C207.844 205.985 207.648 205.826 207.405 205.714C207.162 205.593 206.873 205.532 206.537 205.532C206.005 205.532 205.613 205.635 205.361 205.84C205.109 206.045 204.983 206.307 204.983 206.624C204.983 206.867 205.039 207.067 205.151 207.226C205.272 207.375 205.464 207.501 205.725 207.604C205.986 207.697 206.336 207.781 206.775 207.856C207.531 207.987 208.119 208.145 208.539 208.332C208.959 208.519 209.253 208.747 209.421 209.018C209.589 209.289 209.673 209.62 209.673 210.012C209.673 210.469 209.542 210.861 209.281 211.188C209.029 211.505 208.684 211.748 208.245 211.916C207.816 212.084 207.326 212.168 206.775 212.168ZM213.707 212C213.035 212 212.536 211.846 212.209 211.538C211.892 211.23 211.733 210.749 211.733 210.096V202.844H212.909V210.068C212.909 210.404 212.984 210.637 213.133 210.768C213.282 210.899 213.511 210.964 213.819 210.964H214.883V212H213.707ZM210.641 205.616V204.58H214.883V205.616H210.641ZM216.391 212V204.58H217.567V212H216.391ZM216.363 203.418V202.046H217.595V203.418H216.363ZM219.946 212V204.58H221.024L221.066 206.47L220.926 206.344C221.02 205.905 221.183 205.546 221.416 205.266C221.65 204.977 221.93 204.762 222.256 204.622C222.592 204.482 222.952 204.412 223.334 204.412C223.904 204.412 224.37 204.538 224.734 204.79C225.108 205.042 225.383 205.383 225.56 205.812C225.747 206.232 225.84 206.703 225.84 207.226V212H224.664V207.562C224.664 207.105 224.608 206.722 224.496 206.414C224.394 206.097 224.226 205.859 223.992 205.7C223.759 205.532 223.456 205.448 223.082 205.448C222.513 205.448 222.042 205.63 221.668 205.994C221.304 206.349 221.122 206.871 221.122 207.562V212H219.946ZM230.731 214.268C230.199 214.268 229.718 214.179 229.289 214.002C228.86 213.825 228.5 213.573 228.211 213.246C227.922 212.919 227.726 212.541 227.623 212.112L228.855 212.028C228.967 212.373 229.163 212.644 229.443 212.84C229.732 213.045 230.162 213.148 230.731 213.148C231.403 213.148 231.916 213.013 232.271 212.742C232.635 212.471 232.817 212.065 232.817 211.524V210.32C232.64 210.712 232.355 211.025 231.963 211.258C231.571 211.491 231.132 211.608 230.647 211.608C230.022 211.608 229.462 211.454 228.967 211.146C228.482 210.838 228.099 210.413 227.819 209.872C227.548 209.331 227.413 208.71 227.413 208.01C227.413 207.301 227.548 206.68 227.819 206.148C228.09 205.607 228.463 205.182 228.939 204.874C229.424 204.566 229.975 204.412 230.591 204.412C231.114 204.412 231.58 204.533 231.991 204.776C232.411 205.019 232.705 205.345 232.873 205.756V204.58H233.993V211.496C233.993 212.075 233.862 212.569 233.601 212.98C233.34 213.4 232.966 213.717 232.481 213.932C231.996 214.156 231.412 214.268 230.731 214.268ZM230.703 210.488C231.338 210.488 231.846 210.269 232.229 209.83C232.612 209.382 232.808 208.775 232.817 208.01C232.826 207.497 232.742 207.058 232.565 206.694C232.397 206.321 232.15 206.036 231.823 205.84C231.506 205.635 231.132 205.532 230.703 205.532C230.05 205.532 229.541 205.756 229.177 206.204C228.822 206.643 228.645 207.245 228.645 208.01C228.645 208.775 228.827 209.382 229.191 209.83C229.564 210.269 230.068 210.488 230.703 210.488ZM235.725 212V210.418H237.307V212H235.725Z" fill="black"/>
<path d="M91.5527 99H268.553" stroke="url(#paint17_linear_93_4390)"/>
<defs>
<filter id="filter0_d_93_4390" x="83.5527" y="0" width="193" height="244" filterUnits="userSpaceOnUse" color-interpolation-filters="sRGB">
<feFlood flood-opacity="0" result="BackgroundImageFix"/>
<feColorMatrix in="SourceAlpha" type="matrix" values="0 0 0 0 0 0 0 0 0 0 0 0 0 0 0 0 0 0 127 0" result="hardAlpha"/>
<feOffset dy="4"/>
<feGaussianBlur stdDeviation="4"/>
<feComposite in2="hardAlpha" operator="out"/>
<feColorMatrix type="matrix" values="0 0 0 0 0 0 0 0 0 0 0 0 0 0 0 0 0 0 0.07 0"/>
<feBlend mode="normal" in2="BackgroundImageFix" result="effect1_dropShadow_93_4390"/>
<feBlend mode="normal" in="SourceGraphic" in2="effect1_dropShadow_93_4390" result="shape"/>
</filter>
<filter id="filter1_f_93_4390" x="128.473" y="55.3599" width="105.84" height="41.9999" filterUnits="userSpaceOnUse" color-interpolation-filters="sRGB">
<feFlood flood-opacity="0" result="BackgroundImageFix"/>
<feBlend mode="normal" in="SourceGraphic" in2="BackgroundImageFix" result="shape"/>
<feGaussianBlur stdDeviation="2.52" result="effect1_foregroundBlur_93_4390"/>
</filter>
<filter id="filter2_d_93_4390" x="128.533" y="57.974" width="105.719" height="41.879" filterUnits="userSpaceOnUse" color-interpolation-filters="sRGB">
<feFlood flood-opacity="0" result="BackgroundImageFix"/>
<feColorMatrix in="SourceAlpha" type="matrix" values="0 0 0 0 0 0 0 0 0 0 0 0 0 0 0 0 0 0 127 0" result="hardAlpha"/>
<feOffset dy="2.5536"/>
<feGaussianBlur stdDeviation="2.48976"/>
<feComposite in2="hardAlpha" operator="out"/>
<feColorMatrix type="matrix" values="0 0 0 0 0 0 0 0 0 0 0 0 0 0 0 0 0 0 0.1 0"/>
<feBlend mode="normal" in2="BackgroundImageFix" result="effect1_dropShadow_93_4390"/>
<feBlend mode="normal" in="SourceGraphic" in2="effect1_dropShadow_93_4390" result="shape"/>
</filter>
<filter id="filter3_f_93_4390" x="124.693" y="46.54" width="113.4" height="39.48" filterUnits="userSpaceOnUse" color-interpolation-filters="sRGB">
<feFlood flood-opacity="0" result="BackgroundImageFix"/>
<feBlend mode="normal" in="SourceGraphic" in2="BackgroundImageFix" result="shape"/>
<feGaussianBlur stdDeviation="0.63" result="effect1_foregroundBlur_93_4390"/>
</filter>
<filter id="filter4_d_93_4390" x="120.187" y="44.9911" width="122.411" height="48.4915" filterUnits="userSpaceOnUse" color-interpolation-filters="sRGB">
<feFlood flood-opacity="0" result="BackgroundImageFix"/>
<feColorMatrix in="SourceAlpha" type="matrix" values="0 0 0 0 0 0 0 0 0 0 0 0 0 0 0 0 0 0 127 0" result="hardAlpha"/>
<feOffset dy="2.9568"/>
<feGaussianBlur stdDeviation="2.88288"/>
<feComposite in2="hardAlpha" operator="out"/>
<feColorMatrix type="matrix" values="0 0 0 0 0 0 0 0 0 0 0 0 0 0 0 0 0 0 0.1 0"/>
<feBlend mode="normal" in2="BackgroundImageFix" result="effect1_dropShadow_93_4390"/>
<feBlend mode="normal" in="SourceGraphic" in2="effect1_dropShadow_93_4390" result="shape"/>
</filter>
<filter id="filter5_f_93_4390" x="128.473" y="6.63993" width="105.84" height="41.9999" filterUnits="userSpaceOnUse" color-interpolation-filters="sRGB">
<feFlood flood-opacity="0" result="BackgroundImageFix"/>
<feBlend mode="normal" in="SourceGraphic" in2="BackgroundImageFix" result="shape"/>
<feGaussianBlur stdDeviation="2.52" result="effect1_foregroundBlur_93_4390"/>
</filter>
<filter id="filter6_d_93_4390" x="128.533" y="9.25401" width="105.719" height="41.879" filterUnits="userSpaceOnUse" color-interpolation-filters="sRGB">
<feFlood flood-opacity="0" result="BackgroundImageFix"/>
<feColorMatrix in="SourceAlpha" type="matrix" values="0 0 0 0 0 0 0 0 0 0 0 0 0 0 0 0 0 0 127 0" result="hardAlpha"/>
<feOffset dy="2.5536"/>
<feGaussianBlur stdDeviation="2.48976"/>
<feComposite in2="hardAlpha" operator="out"/>
<feColorMatrix type="matrix" values="0 0 0 0 0 0 0 0 0 0 0 0 0 0 0 0 0 0 0.1 0"/>
<feBlend mode="normal" in2="BackgroundImageFix" result="effect1_dropShadow_93_4390"/>
<feBlend mode="normal" in="SourceGraphic" in2="effect1_dropShadow_93_4390" result="shape"/>
</filter>
<filter id="filter7_f_93_4390" x="124.693" y="17.98" width="113.4" height="39.48" filterUnits="userSpaceOnUse" color-interpolation-filters="sRGB">
<feFlood flood-opacity="0" result="BackgroundImageFix"/>
<feBlend mode="normal" in="SourceGraphic" in2="BackgroundImageFix" result="shape"/>
<feGaussianBlur stdDeviation="0.63" result="effect1_foregroundBlur_93_4390"/>
</filter>
<filter id="filter8_d_93_4390" x="120.187" y="16.431" width="122.411" height="48.4915" filterUnits="userSpaceOnUse" color-interpolation-filters="sRGB">
<feFlood flood-opacity="0" result="BackgroundImageFix"/>
<feColorMatrix in="SourceAlpha" type="matrix" values="0 0 0 0 0 0 0 0 0 0 0 0 0 0 0 0 0 0 127 0" result="hardAlpha"/>
<feOffset dy="2.9568"/>
<feGaussianBlur stdDeviation="2.88288"/>
<feComposite in2="hardAlpha" operator="out"/>
<feColorMatrix type="matrix" values="0 0 0 0 0 0 0 0 0 0 0 0 0 0 0 0 0 0 0.1 0"/>
<feBlend mode="normal" in2="BackgroundImageFix" result="effect1_dropShadow_93_4390"/>
<feBlend mode="normal" in="SourceGraphic" in2="effect1_dropShadow_93_4390" result="shape"/>
</filter>
<filter id="filter9_d_93_4390" x="111.001" y="27.808" width="139.104" height="55.104" filterUnits="userSpaceOnUse" color-interpolation-filters="sRGB">
<feFlood flood-opacity="0" result="BackgroundImageFix"/>
<feColorMatrix in="SourceAlpha" type="matrix" values="0 0 0 0 0 0 0 0 0 0 0 0 0 0 0 0 0 0 127 0" result="hardAlpha"/>
<feOffset dy="3.36"/>
<feGaussianBlur stdDeviation="3.276"/>
<feComposite in2="hardAlpha" operator="out"/>
<feColorMatrix type="matrix" values="0 0 0 0 0 0 0 0 0 0 0 0 0 0 0 0 0 0 0.1 0"/>
<feBlend mode="normal" in2="BackgroundImageFix" result="effect1_dropShadow_93_4390"/>
<feBlend mode="normal" in="SourceGraphic" in2="effect1_dropShadow_93_4390" result="shape"/>
</filter>
<linearGradient id="paint0_linear_93_4390" x1="2.05274" y1="42" x2="109.053" y2="187" gradientUnits="userSpaceOnUse">
<stop stop-color="#1AC968" stop-opacity="0.5"/>
<stop offset="1" stop-color="#1AC968"/>
</linearGradient>
<linearGradient id="paint1_linear_93_4390" x1="268.553" y1="99" x2="91.5527" y2="4" gradientUnits="userSpaceOnUse">
<stop stop-color="#2BD06E" stop-opacity="0.2"/>
<stop offset="1" stop-color="#2BD06E" stop-opacity="0"/>
</linearGradient>
<linearGradient id="paint2_linear_93_4390" x1="164.156" y1="66.4646" x2="203.737" y2="66.4646" gradientUnits="userSpaceOnUse">
<stop stop-color="#86D8A7"/>
<stop offset="1" stop-color="#B8EECE"/>
</linearGradient>
<linearGradient id="paint3_linear_93_4390" x1="164.156" y1="71.2526" x2="180.754" y2="71.2526" gradientUnits="userSpaceOnUse">
<stop stop-color="#86D8A7"/>
<stop offset="1" stop-color="#B8EECE"/>
</linearGradient>
<linearGradient id="paint4_linear_93_4390" x1="164.156" y1="79.552" x2="177.694" y2="83.0687" gradientUnits="userSpaceOnUse">
<stop stop-color="#86D8A7"/>
<stop offset="1" stop-color="#B8EECE"/>
</linearGradient>
<linearGradient id="paint5_linear_93_4390" x1="161.434" y1="54.8226" x2="207.265" y2="54.8226" gradientUnits="userSpaceOnUse">
<stop stop-color="#86D8A7"/>
<stop offset="1" stop-color="#B8EECE"/>
</linearGradient>
<linearGradient id="paint6_linear_93_4390" x1="161.434" y1="60.3666" x2="180.654" y2="60.3666" gradientUnits="userSpaceOnUse">
<stop stop-color="#86D8A7"/>
<stop offset="1" stop-color="#B8EECE"/>
</linearGradient>
<linearGradient id="paint7_linear_93_4390" x1="161.434" y1="69.9761" x2="177.11" y2="74.048" gradientUnits="userSpaceOnUse">
<stop stop-color="#86D8A7"/>
<stop offset="1" stop-color="#B8EECE"/>
</linearGradient>
<linearGradient id="paint8_linear_93_4390" x1="164.156" y1="17.7447" x2="203.737" y2="17.7447" gradientUnits="userSpaceOnUse">
<stop stop-color="#86D8A7"/>
<stop offset="1" stop-color="#B8EECE"/>
</linearGradient>
<linearGradient id="paint9_linear_93_4390" x1="164.156" y1="22.5327" x2="180.754" y2="22.5327" gradientUnits="userSpaceOnUse">
<stop stop-color="#86D8A7"/>
<stop offset="1" stop-color="#B8EECE"/>
</linearGradient>
<linearGradient id="paint10_linear_93_4390" x1="164.156" y1="30.832" x2="177.694" y2="34.3487" gradientUnits="userSpaceOnUse">
<stop stop-color="#86D8A7"/>
<stop offset="1" stop-color="#B8EECE"/>
</linearGradient>
<linearGradient id="paint11_linear_93_4390" x1="161.434" y1="26.2625" x2="207.265" y2="26.2625" gradientUnits="userSpaceOnUse">
<stop stop-color="#86D8A7"/>
<stop offset="1" stop-color="#B8EECE"/>
</linearGradient>
<linearGradient id="paint12_linear_93_4390" x1="161.434" y1="31.8065" x2="180.654" y2="31.8065" gradientUnits="userSpaceOnUse">
<stop stop-color="#86D8A7"/>
<stop offset="1" stop-color="#B8EECE"/>
</linearGradient>
<linearGradient id="paint13_linear_93_4390" x1="161.434" y1="41.416" x2="177.11" y2="45.4879" gradientUnits="userSpaceOnUse">
<stop stop-color="#86D8A7"/>
<stop offset="1" stop-color="#B8EECE"/>
</linearGradient>
<linearGradient id="paint14_linear_93_4390" x1="157.873" y1="38.98" x2="204.913" y2="38.98" gradientUnits="userSpaceOnUse">
<stop stop-color="#86D8A7"/>
<stop offset="1" stop-color="#B8EECE"/>
</linearGradient>
<linearGradient id="paint15_linear_93_4390" x1="157.873" y1="45.2801" x2="222.553" y2="45.2801" gradientUnits="userSpaceOnUse">
<stop stop-color="#86D8A7"/>
<stop offset="1" stop-color="#B8EECE"/>
</linearGradient>
<linearGradient id="paint16_linear_93_4390" x1="157.873" y1="56.2" x2="184.753" y2="67.96" gradientUnits="userSpaceOnUse">
<stop stop-color="#86D8A7"/>
<stop offset="1" stop-color="#B8EECE"/>
</linearGradient>
<linearGradient id="paint17_linear_93_4390" x1="91.5527" y1="99.5" x2="268.553" y2="99.5" gradientUnits="userSpaceOnUse">
<stop stop-color="#B1F4CB" stop-opacity="0.7"/>
<stop offset="1" stop-color="#B1F4CB" stop-opacity="0.5"/>
</linearGradient>
</defs>
</svg>
