<svg width="193" height="260" viewBox="0 0 193 260" fill="none" xmlns="http://www.w3.org/2000/svg">
<g filter="url(#filter0_d_181_725)">
<rect x="7.99976" y="4" width="177" height="228" rx="12" fill="white"/>
</g>
<path d="M7.99976 16C7.99976 9.37258 13.3723 4 19.9998 4H173C179.627 4 185 9.37258 185 16V99H7.99976V16Z" fill="url(#paint0_linear_181_725)"/>
<mask id="mask0_181_725" style="mask-type:alpha" maskUnits="userSpaceOnUse" x="7" y="4" width="178" height="96">
<path d="M7.99976 16C7.99976 9.37258 13.3723 4 19.9998 4H173C179.627 4 185 9.37258 185 16V100H7.99976V16Z" fill="#2BD06E"/>
</mask>
<g mask="url(#mask0_181_725)">
<g opacity="0.1">
<circle cx="13.3686" cy="10.0573" r="1.36885" fill="#15C865"/>
<circle cx="27.0571" cy="10.0573" r="1.36885" fill="#15C865"/>
<circle cx="40.7456" cy="10.0573" r="1.36885" fill="#15C865"/>
<circle cx="54.4343" cy="10.0573" r="1.36885" fill="#15C865"/>
<circle cx="68.1228" cy="10.0573" r="1.36885" fill="#15C865"/>
<circle cx="81.8112" cy="10.0573" r="1.36885" fill="#15C865"/>
<circle cx="95.4997" cy="10.0573" r="1.36885" fill="#15C865"/>
<circle cx="109.188" cy="10.0573" r="1.36885" fill="#15C865"/>
<circle cx="122.877" cy="10.0573" r="1.36885" fill="#15C865"/>
<circle cx="136.565" cy="10.0573" r="1.36885" fill="#15C865"/>
<circle cx="150.254" cy="10.0573" r="1.36885" fill="#15C865"/>
<circle cx="163.942" cy="10.0573" r="1.36885" fill="#15C865"/>
<circle cx="177.631" cy="10.0573" r="1.36885" fill="#15C865"/>
<circle cx="8.36861" cy="23.7458" r="1.36885" fill="#15C865"/>
<circle cx="22.0571" cy="23.7458" r="1.36885" fill="#15C865"/>
<circle cx="35.7458" cy="23.7458" r="1.36885" fill="#15C865"/>
<circle cx="49.4343" cy="23.7458" r="1.36885" fill="#15C865"/>
<circle cx="63.1225" cy="23.7458" r="1.36885" fill="#15C865"/>
<circle cx="76.8112" cy="23.7458" r="1.36885" fill="#15C865"/>
<circle cx="90.4997" cy="23.7458" r="1.36885" fill="#15C865"/>
<circle cx="104.188" cy="23.7458" r="1.36885" fill="#15C865"/>
<circle cx="117.877" cy="23.7458" r="1.36885" fill="#15C865"/>
<circle cx="131.565" cy="23.7458" r="1.36885" fill="#15C865"/>
<circle cx="145.254" cy="23.7458" r="1.36885" fill="#15C865"/>
<circle cx="158.942" cy="23.7458" r="1.36885" fill="#15C865"/>
<circle cx="172.631" cy="23.7458" r="1.36885" fill="#15C865"/>
<circle cx="13.3686" cy="37.4343" r="1.36885" fill="#15C865"/>
<circle cx="27.0571" cy="37.4343" r="1.36885" fill="#15C865"/>
<circle cx="40.7456" cy="37.4343" r="1.36885" fill="#15C865"/>
<circle cx="54.4343" cy="37.4343" r="1.36885" fill="#15C865"/>
<circle cx="68.1228" cy="37.4343" r="1.36885" fill="#15C865"/>
<circle cx="81.8112" cy="37.4343" r="1.36885" fill="#15C865"/>
<circle cx="95.4997" cy="37.4343" r="1.36885" fill="#15C865"/>
<circle cx="109.188" cy="37.4343" r="1.36885" fill="#15C865"/>
<circle cx="122.877" cy="37.4343" r="1.36885" fill="#15C865"/>
<circle cx="136.565" cy="37.4343" r="1.36885" fill="#15C865"/>
<circle cx="150.254" cy="37.4343" r="1.36885" fill="#15C865"/>
<circle cx="163.942" cy="37.4343" r="1.36885" fill="#15C865"/>
<circle cx="177.631" cy="37.4343" r="1.36885" fill="#15C865"/>
<circle cx="8.36861" cy="51.1228" r="1.36885" fill="#15C865"/>
<circle cx="22.0571" cy="51.1228" r="1.36885" fill="#15C865"/>
<circle cx="35.7458" cy="51.1228" r="1.36885" fill="#15C865"/>
<circle cx="49.4343" cy="51.1228" r="1.36885" fill="#15C865"/>
<circle cx="63.1225" cy="51.1228" r="1.36885" fill="#15C865"/>
<circle cx="76.8112" cy="51.1228" r="1.36885" fill="#15C865"/>
<circle cx="90.4997" cy="51.1228" r="1.36885" fill="#15C865"/>
<circle cx="104.188" cy="51.1228" r="1.36885" fill="#15C865"/>
<circle cx="117.877" cy="51.1228" r="1.36885" fill="#15C865"/>
<circle cx="131.565" cy="51.1228" r="1.36885" fill="#15C865"/>
<circle cx="145.254" cy="51.1228" r="1.36885" fill="#15C865"/>
<circle cx="158.942" cy="51.1228" r="1.36885" fill="#15C865"/>
<circle cx="172.631" cy="51.1228" r="1.36885" fill="#15C865"/>
<circle cx="13.3686" cy="64.8112" r="1.36885" fill="#15C865"/>
<circle cx="27.0571" cy="64.8112" r="1.36885" fill="#15C865"/>
<circle cx="40.7456" cy="64.8112" r="1.36885" fill="#15C865"/>
<circle cx="54.4343" cy="64.8112" r="1.36885" fill="#15C865"/>
<circle cx="68.1228" cy="64.8112" r="1.36885" fill="#15C865"/>
<circle cx="81.8112" cy="64.8112" r="1.36885" fill="#15C865"/>
<circle cx="95.4997" cy="64.8112" r="1.36885" fill="#15C865"/>
<circle cx="109.188" cy="64.8112" r="1.36885" fill="#15C865"/>
<circle cx="122.877" cy="64.8112" r="1.36885" fill="#15C865"/>
<circle cx="136.565" cy="64.8112" r="1.36885" fill="#15C865"/>
<circle cx="150.254" cy="64.8112" r="1.36885" fill="#15C865"/>
<circle cx="163.942" cy="64.8112" r="1.36885" fill="#15C865"/>
<circle cx="177.631" cy="64.8112" r="1.36885" fill="#15C865"/>
<circle cx="8.36861" cy="78.5002" r="1.36885" fill="#15C865"/>
<circle cx="22.0571" cy="78.5002" r="1.36885" fill="#15C865"/>
<circle cx="35.7458" cy="78.5002" r="1.36885" fill="#15C865"/>
<circle cx="49.4343" cy="78.5002" r="1.36885" fill="#15C865"/>
<circle cx="63.1225" cy="78.5002" r="1.36885" fill="#15C865"/>
<circle cx="76.8112" cy="78.5002" r="1.36885" fill="#15C865"/>
<circle cx="90.4997" cy="78.5002" r="1.36885" fill="#15C865"/>
<circle cx="104.188" cy="78.5002" r="1.36885" fill="#15C865"/>
<circle cx="117.877" cy="78.5002" r="1.36885" fill="#15C865"/>
<circle cx="131.565" cy="78.5002" r="1.36885" fill="#15C865"/>
<circle cx="145.254" cy="78.5002" r="1.36885" fill="#15C865"/>
<circle cx="158.942" cy="78.5002" r="1.36885" fill="#15C865"/>
<circle cx="172.631" cy="78.5002" r="1.36885" fill="#15C865"/>
<circle cx="13.3686" cy="92.1887" r="1.36885" fill="#15C865"/>
<circle cx="27.0571" cy="92.1887" r="1.36885" fill="#15C865"/>
<circle cx="40.7456" cy="92.1887" r="1.36885" fill="#15C865"/>
<circle cx="54.4343" cy="92.1887" r="1.36885" fill="#15C865"/>
<circle cx="68.1228" cy="92.1887" r="1.36885" fill="#15C865"/>
<circle cx="81.8112" cy="92.1887" r="1.36885" fill="#15C865"/>
<circle cx="95.4997" cy="92.1887" r="1.36885" fill="#15C865"/>
<circle cx="109.188" cy="92.1887" r="1.36885" fill="#15C865"/>
<circle cx="122.877" cy="92.1887" r="1.36885" fill="#15C865"/>
<circle cx="136.565" cy="92.1887" r="1.36885" fill="#15C865"/>
<circle cx="150.254" cy="92.1887" r="1.36885" fill="#15C865"/>
<circle cx="163.942" cy="92.1887" r="1.36885" fill="#15C865"/>
<circle cx="177.631" cy="92.1887" r="1.36885" fill="#15C865"/>
</g>
<g opacity="0.6" filter="url(#filter1_f_181_725)">
<g filter="url(#filter2_d_181_725)">
<rect x="49.9597" y="60.4004" width="95.76" height="31.92" rx="6.384" fill="white"/>
<rect x="50.2789" y="60.7196" width="95.1216" height="31.2816" rx="6.0648" stroke="#1FCA6C" stroke-opacity="0.42" stroke-width="0.6384"/>
</g>
<rect x="53.7903" y="64.231" width="24.2592" height="24.2592" rx="4.4688" fill="#1CC969"/>
<rect x="80.603" y="64.231" width="39.5808" height="4.4688" rx="2.2344" fill="url(#paint1_linear_181_725)"/>
<rect x="80.603" y="69.9766" width="16.5984" height="2.5536" rx="1.2768" fill="url(#paint2_linear_181_725)"/>
<rect x="80.603" y="79.5522" width="12.1296" height="8.9376" rx="2.5536" fill="url(#paint3_linear_181_725)"/>
</g>
<g opacity="0.8" filter="url(#filter3_f_181_725)">
<g filter="url(#filter4_d_181_725)">
<rect x="42.3997" y="47.8003" width="110.88" height="36.96" rx="7.392" fill="white"/>
<rect x="42.7693" y="48.1699" width="110.141" height="36.2208" rx="7.0224" stroke="#1FCA6C" stroke-opacity="0.42" stroke-width="0.7392"/>
</g>
<rect x="46.835" y="52.2354" width="28.0896" height="28.0896" rx="5.1744" fill="#1CC969"/>
<rect x="77.8813" y="52.2354" width="45.8304" height="5.1744" rx="2.5872" fill="url(#paint4_linear_181_725)"/>
<rect x="77.8813" y="58.8882" width="19.2192" height="2.9568" rx="1.4784" fill="url(#paint5_linear_181_725)"/>
<rect x="77.8813" y="69.9766" width="14.0448" height="10.3488" rx="2.9568" fill="url(#paint6_linear_181_725)"/>
</g>
<g opacity="0.6" filter="url(#filter5_f_181_725)">
<g filter="url(#filter6_d_181_725)">
<rect x="49.9597" y="11.6802" width="95.76" height="31.92" rx="6.384" fill="white"/>
<rect x="50.2789" y="11.9994" width="95.1216" height="31.2816" rx="6.0648" stroke="#1FCA6C" stroke-opacity="0.42" stroke-width="0.6384"/>
</g>
<rect x="53.7903" y="15.5107" width="24.2592" height="24.2592" rx="4.4688" fill="#1CC969"/>
<rect x="80.603" y="15.5107" width="39.5808" height="4.4688" rx="2.2344" fill="url(#paint7_linear_181_725)"/>
<rect x="80.603" y="21.2563" width="16.5984" height="2.5536" rx="1.2768" fill="url(#paint8_linear_181_725)"/>
<rect x="80.603" y="30.832" width="12.1296" height="8.9376" rx="2.5536" fill="url(#paint9_linear_181_725)"/>
</g>
<g opacity="0.8" filter="url(#filter7_f_181_725)">
<g filter="url(#filter8_d_181_725)">
<rect x="42.3997" y="19.2402" width="110.88" height="36.96" rx="7.392" fill="white"/>
<rect x="42.7693" y="19.6098" width="110.141" height="36.2208" rx="7.0224" stroke="#1FCA6C" stroke-opacity="0.42" stroke-width="0.7392"/>
</g>
<rect x="46.835" y="23.6753" width="28.0896" height="28.0896" rx="5.1744" fill="#1CC969"/>
<rect x="77.8813" y="23.6753" width="45.8304" height="5.1744" rx="2.5872" fill="url(#paint10_linear_181_725)"/>
<rect x="77.8813" y="30.3281" width="19.2192" height="2.9568" rx="1.4784" fill="url(#paint11_linear_181_725)"/>
<rect x="77.8813" y="41.4165" width="14.0448" height="10.3488" rx="2.9568" fill="url(#paint12_linear_181_725)"/>
</g>
<g filter="url(#filter9_d_181_725)">
<rect x="33.9998" y="31" width="126" height="42" rx="8.4" fill="white"/>
<rect x="34.4198" y="31.42" width="125.16" height="41.16" rx="7.98" stroke="#1FCA6C" stroke-opacity="0.42" stroke-width="0.84"/>
</g>
<rect x="39.0398" y="36.04" width="31.92" height="31.92" rx="5.88" fill="#1CC969"/>
<rect x="74.3198" y="36.04" width="47.04" height="5.88" rx="2.94" fill="url(#paint13_linear_181_725)"/>
<rect x="74.3198" y="43.6001" width="64.68" height="3.36" rx="1.68" fill="url(#paint14_linear_181_725)"/>
<rect x="74.3198" y="56.2002" width="26.88" height="11.76" rx="3.36" fill="url(#paint15_linear_181_725)"/>
</g>
<path d="M7.99976 100H185V224C185 232.837 177.836 240 169 240H23.9998C15.1632 240 7.99976 232.837 7.99976 224V100Z" fill="white"/>
<path d="M51.0232 126.25C50.4529 124.648 49.8904 123.266 49.3513 122.102H49.1404C48.5701 123.438 48.0232 124.805 47.4919 126.266C48.0857 126.227 48.6638 126.203 49.2888 126.203C49.8748 126.203 50.4607 126.219 51.0232 126.25ZM45.781 127.508L46.9529 124.57C47.0154 124.406 47.1091 124.164 47.2419 123.852C48.0232 121.914 48.5076 120.539 48.6951 119.719C48.7498 119.469 48.8279 119.312 48.9451 119.242C49.0623 119.172 49.2654 119.141 49.5701 119.141C49.9763 119.141 50.1716 119.258 50.3904 119.672C50.7029 120.281 51.1169 121.18 51.6326 122.367C52.156 123.547 52.6873 124.836 53.2341 126.219L53.6169 127.18C54.2263 128.75 54.7107 129.633 55.0779 129.828C55.1326 129.859 55.2263 129.898 55.3591 129.938C55.7029 130.039 55.8748 130.203 55.8748 130.422C55.8748 130.672 55.7107 130.844 55.3826 130.938C55.0623 131.031 54.4138 131.078 53.4451 131.078C52.4841 131.078 51.8435 131.031 51.5232 130.938C51.2029 130.844 51.0466 130.672 51.0466 130.422C51.0466 130.227 51.2419 130.055 51.6326 129.914L51.7576 129.867C52.0623 129.766 52.1638 129.625 52.1638 129.367C52.1638 129.219 52.1248 128.992 52.0388 128.688C51.9529 128.375 51.8513 128.086 51.7341 127.828C51.6013 127.57 51.5544 127.539 51.4685 127.516C51.2576 127.461 50.5857 127.43 49.5857 127.43H49.1873C48.3669 127.43 47.8279 127.445 47.5544 127.484C47.281 127.516 47.1091 127.57 47.031 127.656C46.906 127.797 46.781 128.023 46.6638 128.344C46.5466 128.656 46.4841 128.914 46.4841 129.109C46.4841 129.445 46.6404 129.68 46.9763 129.812C47.0466 129.844 47.1404 129.883 47.2576 129.922C47.5935 130.039 47.7654 130.203 47.7654 130.422C47.7654 130.672 47.6248 130.844 47.3513 130.938C47.0779 131.031 46.5232 131.078 45.7029 131.078C44.8748 131.078 44.3201 131.031 44.0466 130.938C43.7732 130.844 43.6404 130.672 43.6404 130.422C43.6404 130.211 43.8044 130.047 44.1248 129.914C44.2654 129.859 44.3669 129.805 44.4373 129.766C44.8513 129.516 45.2341 128.922 45.5935 127.992L45.781 127.508ZM61.4919 130.727V130.148C61.4919 130.109 61.4763 130.102 61.4451 130.102C61.3826 130.102 61.2888 130.172 61.156 130.305L61.0466 130.422C60.5388 130.953 59.8826 131.211 59.0779 131.211C58.2576 131.211 57.5076 130.891 57.031 130.328C56.7732 130.023 56.5935 129.648 56.4841 129.211C56.3826 128.773 56.3279 127.969 56.3279 126.805C56.3279 126.695 56.3279 126.516 56.3357 126.258C56.3435 126 56.3435 125.805 56.3435 125.656V125.492C56.3435 125.047 56.3123 124.758 56.2498 124.641C56.1873 124.516 56.0544 124.414 55.8591 124.344C55.781 124.312 55.6716 124.281 55.5388 124.242C55.2341 124.156 55.0779 124.023 55.0779 123.828C55.0779 123.695 55.1326 123.578 55.2419 123.492C55.3513 123.398 55.5935 123.289 55.9763 123.156C56.7341 122.906 57.4998 122.742 57.9451 122.742C58.2341 122.742 58.3591 122.953 58.3591 123.43C58.3591 123.461 58.3513 123.57 58.3435 123.75C58.2888 124.75 58.2654 125.766 58.2654 126.789C58.2654 127.898 58.3826 128.664 58.6091 129.086C58.8357 129.508 59.2263 129.719 59.781 129.719C60.406 129.719 60.8513 129.445 61.1169 128.898C61.3904 128.352 61.5232 127.414 61.5232 126.086V125.461C61.5232 125.039 61.4919 124.766 61.4294 124.641C61.3748 124.508 61.2498 124.414 61.0623 124.344C60.9763 124.312 60.8669 124.281 60.7341 124.242C60.4294 124.156 60.281 124.023 60.281 123.828C60.281 123.695 60.3357 123.586 60.4373 123.5C60.5466 123.406 60.7888 123.289 61.1716 123.156C61.9294 122.906 62.6794 122.742 63.1091 122.742C63.4451 122.742 63.5544 122.922 63.5544 123.43C63.5544 123.484 63.5466 123.641 63.5388 123.883C63.4763 125.039 63.4451 126.156 63.4451 127.242C63.4451 127.922 63.4529 128.375 63.4607 128.617C63.4685 128.852 63.4841 129.031 63.5076 129.156C63.5466 129.383 63.7107 129.547 63.9841 129.656H63.9919L64.1404 129.703C64.4451 129.805 64.6013 129.953 64.6013 130.133C64.6013 130.375 64.4294 130.539 63.9607 130.727C63.5623 130.883 63.1716 131.008 62.7966 131.102C62.4294 131.195 62.1404 131.242 61.9451 131.242C61.6326 131.242 61.4919 131.078 61.4919 130.727ZM67.9841 122.969H69.8044C70.0779 122.969 70.156 123.047 70.156 123.352V123.547C70.156 123.828 70.0544 123.945 69.8044 123.945H68.1248C68.0232 123.945 67.9529 124.039 67.9529 124.203V128.25C67.9529 128.945 68.0076 129.383 68.1248 129.562C68.2419 129.742 68.4607 129.828 68.781 129.828C68.9529 129.828 69.1716 129.781 69.4373 129.695C69.7107 129.609 69.8982 129.562 69.9998 129.562C70.2419 129.562 70.4138 129.719 70.4138 129.945C70.4138 130.242 70.1794 130.531 69.7185 130.812C69.2576 131.086 68.7419 131.227 68.156 131.227C67.4763 131.227 66.9373 131.047 66.5544 130.695C66.3591 130.516 66.2263 130.281 66.1482 129.984C66.0701 129.68 66.031 129.125 66.031 128.312V123.945H65.281C65.0544 123.945 64.9763 123.867 64.9763 123.672V123.477C64.9763 123.297 65.2576 122.969 65.8279 122.484L66.1638 122.195L66.4763 121.922C67.0388 121.43 67.4216 121.18 67.6326 121.18C67.8513 121.18 67.9841 121.281 67.9841 121.445V122.969ZM73.0623 126.297C73.0623 127.375 73.2888 128.273 73.7419 129C74.2029 129.727 74.7576 130.086 75.4138 130.086C75.9451 130.086 76.3748 129.859 76.7029 129.414C77.0388 128.969 77.2029 128.375 77.2029 127.641C77.2029 126.578 76.9685 125.688 76.5076 124.969C76.0466 124.242 75.4998 123.883 74.8513 123.883C74.3123 123.883 73.8826 124.102 73.5544 124.547C73.2263 124.984 73.0623 125.57 73.0623 126.297ZM75.0623 131.227C73.8904 131.227 72.9216 130.828 72.1482 130.031C71.3748 129.234 70.9919 128.227 70.9919 127.016C70.9919 125.789 71.3982 124.773 72.2029 123.961C73.0154 123.148 74.031 122.742 75.2498 122.742C76.4216 122.742 77.3826 123.125 78.1248 123.883C78.8748 124.641 79.2498 125.617 79.2498 126.805C79.2498 128.062 78.8513 129.117 78.0466 129.961C77.2419 130.805 76.2498 131.227 75.0623 131.227ZM83.1482 127.656C82.531 127.656 81.9216 127.68 81.3279 127.727C81.2419 127.734 81.1873 127.734 81.1716 127.734C80.8279 127.734 80.7029 127.625 80.7029 127.32C80.7029 127.109 80.7966 126.82 80.9607 126.469C81.031 126.32 81.1091 126.219 81.1873 126.164C81.2654 126.109 81.4216 126.086 81.6482 126.086C81.656 126.086 81.7888 126.086 82.031 126.094C82.281 126.102 82.5232 126.102 82.7654 126.102C83.2107 126.102 83.6794 126.086 84.1638 126.055C84.281 126.047 84.3591 126.039 84.3826 126.039C84.7263 126.039 84.8669 126.156 84.8669 126.438C84.8669 126.758 84.781 127.047 84.6091 127.305C84.4451 127.562 84.2341 127.688 83.9841 127.688C83.9138 127.688 83.7888 127.68 83.6013 127.672C83.4138 127.664 83.2654 127.656 83.1482 127.656ZM86.9216 124.773V124.148C86.9216 122.789 86.8982 121.914 86.8513 121.516C86.8044 121.117 86.7263 120.891 86.6091 120.828C86.4919 120.766 86.3201 120.703 86.1091 120.648C85.7654 120.555 85.5935 120.414 85.5935 120.219C85.5935 120.086 85.6482 119.969 85.7498 119.883C85.8591 119.789 86.1091 119.68 86.4919 119.547C87.2419 119.289 87.9998 119.125 88.4294 119.125C88.7498 119.125 88.8748 119.305 88.8748 119.812C88.8748 119.883 88.8669 120.094 88.8591 120.438C88.7966 122.367 88.7654 124.32 88.7654 126.297C88.7654 127.742 88.781 128.664 88.8123 129.062C88.8513 129.461 88.9138 129.711 88.9998 129.812C89.0544 129.867 89.2029 129.945 89.4529 130.047C89.7107 130.148 89.8357 130.297 89.8357 130.508C89.8357 130.719 89.7029 130.867 89.4294 130.953C89.156 131.039 88.6716 131.078 87.9607 131.078C87.1326 131.078 86.5857 131.031 86.3201 130.945C86.0623 130.859 85.9294 130.695 85.9294 130.453C85.9294 130.289 86.0388 130.156 86.2654 130.055C86.4919 129.953 86.6248 129.883 86.6794 129.828C86.7732 129.742 86.8357 129.531 86.8748 129.203C86.9138 128.867 86.9373 128.336 86.9373 127.594C86.9373 127.375 86.9373 126.953 86.9294 126.328C86.9216 125.703 86.9216 125.188 86.9216 124.773ZM93.4998 124.281L93.4373 126.359V126.406C93.4138 127.312 93.406 127.977 93.406 128.406C93.406 128.922 93.4294 129.289 93.4763 129.5C93.5232 129.711 93.6091 129.852 93.7263 129.914C93.7966 129.953 93.8982 129.992 94.031 130.047C94.3044 130.148 94.4451 130.297 94.4451 130.508C94.4451 130.719 94.3123 130.867 94.0466 130.953C93.781 131.039 93.2966 131.078 92.5857 131.078C91.7576 131.078 91.2107 131.031 90.9373 130.945C90.6716 130.859 90.5388 130.695 90.5388 130.453C90.5388 130.273 90.6716 130.133 90.9373 130.031C91.0388 129.992 91.1091 129.969 91.1482 129.945C91.4294 129.789 91.531 129.484 91.531 128.664C91.531 128.562 91.531 128.383 91.5232 128.117C91.5154 127.852 91.5154 127.633 91.5154 127.461V126.617C91.5154 125.766 91.4919 125.203 91.4529 124.945C91.4138 124.688 91.3357 124.523 91.2263 124.469C91.1404 124.43 91.0154 124.383 90.8435 124.328C90.5154 124.227 90.3513 124.078 90.3513 123.898C90.3513 123.656 90.5388 123.477 91.0076 123.289C91.4216 123.125 91.8279 123 92.2341 122.898C92.6404 122.797 92.9294 122.742 93.1013 122.742C93.3904 122.742 93.5154 122.93 93.5154 123.43C93.5154 123.828 93.5076 124.039 93.4998 124.281ZM91.0388 120.312C91.0388 120.008 91.1638 119.742 91.4216 119.523C91.6794 119.305 91.9841 119.195 92.3513 119.195C92.7029 119.195 92.9998 119.297 93.2263 119.492C93.4607 119.688 93.5779 119.938 93.5779 120.234C93.5779 120.531 93.4529 120.781 93.1951 120.992C92.9451 121.203 92.6326 121.305 92.2498 121.305C91.5544 121.305 91.0388 120.883 91.0388 120.312ZM96.7341 131.031C96.5544 131.164 96.3982 131.227 96.2341 131.227C96.1326 131.227 96.0154 131.172 95.8982 131.078C95.7185 130.93 95.5544 130.633 95.3982 130.195C95.2419 129.758 95.1638 129.336 95.1638 128.938C95.1638 128.594 95.3748 128.328 95.6482 128.328C95.8982 128.328 96.1482 128.547 96.406 128.984C96.531 129.203 96.6326 129.367 96.7185 129.477C97.0388 129.906 97.6404 130.172 98.2888 130.172C99.0076 130.172 99.4529 129.781 99.4529 129.18C99.4529 128.719 98.9998 128.273 98.0857 127.836L97.6169 127.609C96.7654 127.188 96.1951 126.797 95.8982 126.445C95.6013 126.094 95.4529 125.656 95.4529 125.141C95.4529 124.43 95.6951 123.859 96.1873 123.414C96.6794 122.969 97.3201 122.742 98.1091 122.742C98.4919 122.742 98.8826 122.781 99.2654 122.875C99.5701 122.742 99.7732 122.68 99.8982 122.68C100.164 122.68 100.422 122.891 100.672 123.32C100.929 123.75 101.054 124.195 101.054 124.664C101.054 125.047 100.883 125.273 100.57 125.273C100.32 125.273 100.109 125.102 99.7732 124.57C99.3669 123.906 98.9685 123.672 98.3669 123.672C97.7341 123.672 97.3123 124.062 97.3123 124.633C97.3123 124.875 97.406 125.094 97.6013 125.289C97.7966 125.484 98.2419 125.75 98.9216 126.086L99.0154 126.133C100.523 126.875 101.281 127.688 101.281 128.57C101.281 129.328 100.992 129.961 100.406 130.469C99.8279 130.977 99.1013 131.227 98.2341 131.227C97.8669 131.227 97.3826 131.156 96.7341 131.031ZM105.015 122.969H106.836C107.109 122.969 107.187 123.047 107.187 123.352V123.547C107.187 123.828 107.086 123.945 106.836 123.945H105.156C105.054 123.945 104.984 124.039 104.984 124.203V128.25C104.984 128.945 105.039 129.383 105.156 129.562C105.273 129.742 105.492 129.828 105.812 129.828C105.984 129.828 106.203 129.781 106.469 129.695C106.742 129.609 106.929 129.562 107.031 129.562C107.273 129.562 107.445 129.719 107.445 129.945C107.445 130.242 107.211 130.531 106.75 130.812C106.289 131.086 105.773 131.227 105.187 131.227C104.508 131.227 103.969 131.047 103.586 130.695C103.39 130.516 103.258 130.281 103.179 129.984C103.101 129.68 103.062 129.125 103.062 128.312V123.945H102.312C102.086 123.945 102.008 123.867 102.008 123.672V123.477C102.008 123.297 102.289 122.969 102.859 122.484L103.195 122.195L103.508 121.922C104.07 121.43 104.453 121.18 104.664 121.18C104.883 121.18 105.015 121.281 105.015 121.445V122.969ZM114.797 126.875H110.89H110.781C110.476 126.875 110.297 126.898 110.242 126.945C110.187 126.992 110.156 127.117 110.156 127.32C110.156 128 110.398 128.578 110.883 129.07C111.367 129.555 111.953 129.797 112.648 129.797C113.242 129.797 113.789 129.625 114.312 129.258C114.383 129.203 114.484 129.133 114.609 129.031C114.883 128.805 115.094 128.695 115.242 128.695C115.484 128.695 115.656 128.875 115.656 129.094C115.656 129.352 115.367 129.766 114.906 130.133C113.961 130.914 113.14 131.227 112.109 131.227C110.953 131.227 109.984 130.836 109.211 130.047C108.437 129.258 108.054 128.273 108.054 127.109C108.054 125.836 108.453 124.797 109.242 123.977C110.039 123.156 111.054 122.742 112.297 122.742C113.344 122.742 114.172 123.039 114.781 123.641C115.398 124.234 115.703 125.039 115.703 126.055C115.703 126.391 115.656 126.609 115.554 126.719C115.453 126.82 115.203 126.875 114.797 126.875ZM110.726 125.945H113.367C113.781 125.945 113.883 125.883 113.883 125.641C113.883 125.117 113.703 124.672 113.351 124.32C113 123.961 112.562 123.781 112.023 123.781C111.508 123.781 111.078 123.961 110.742 124.32C110.406 124.672 110.234 125.117 110.234 125.641C110.234 125.883 110.32 125.945 110.726 125.945ZM122.781 130.633V130.234C122.781 130.109 122.75 130.023 122.719 130.023C122.695 130.023 122.617 130.078 122.469 130.195C122.328 130.305 122.211 130.398 122.109 130.469C121.461 130.961 120.851 131.18 120.187 131.18C119.172 131.18 118.344 130.812 117.703 130.086C117.07 129.352 116.75 128.398 116.75 127.227C116.75 125.906 117.117 124.828 117.844 123.992C118.578 123.156 119.523 122.742 120.687 122.742C121.242 122.742 121.82 122.875 122.414 123.148C122.531 123.203 122.594 123.227 122.617 123.227C122.703 123.227 122.734 123.133 122.734 122.82V121.867C122.734 121.484 122.695 121.227 122.625 121.078C122.554 120.93 122.422 120.812 122.219 120.742L122 120.68C121.664 120.586 121.5 120.445 121.5 120.25C121.5 120.102 121.562 119.977 121.695 119.875C121.828 119.773 122.094 119.641 122.508 119.492C123.14 119.266 123.726 119.141 124.172 119.141C124.539 119.141 124.687 119.336 124.687 119.812C124.687 119.852 124.679 119.992 124.672 120.227C124.617 121.836 124.586 123.516 124.586 125.258C124.586 127 124.601 128.141 124.64 128.664C124.679 129.188 124.742 129.477 124.828 129.547C124.914 129.602 125.094 129.664 125.383 129.734C125.672 129.797 125.82 129.922 125.82 130.117C125.82 130.367 125.429 130.617 124.64 130.875L124.554 130.906C124.109 131.055 123.523 131.156 123.211 131.156C122.906 131.156 122.781 131 122.781 130.633ZM122.703 127.852V125.625C122.695 125.289 122.679 125.07 122.656 124.953C122.633 124.836 122.594 124.734 122.539 124.664C122.187 124.188 121.476 123.852 120.812 123.852C120.211 123.852 119.726 124.102 119.367 124.594C119.008 125.086 118.828 125.766 118.828 126.617C118.828 127.531 119.023 128.273 119.414 128.844C119.812 129.414 120.312 129.703 120.922 129.703C122.078 129.703 122.703 129.062 122.703 127.852ZM132.875 126.297C132.875 127.375 133.101 128.273 133.554 129C134.015 129.727 134.57 130.086 135.226 130.086C135.758 130.086 136.187 129.859 136.515 129.414C136.851 128.969 137.015 128.375 137.015 127.641C137.015 126.578 136.781 125.688 136.32 124.969C135.859 124.242 135.312 123.883 134.664 123.883C134.125 123.883 133.695 124.102 133.367 124.547C133.039 124.984 132.875 125.57 132.875 126.297ZM134.875 131.227C133.703 131.227 132.734 130.828 131.961 130.031C131.187 129.234 130.804 128.227 130.804 127.016C130.804 125.789 131.211 124.773 132.015 123.961C132.828 123.148 133.844 122.742 135.062 122.742C136.234 122.742 137.195 123.125 137.937 123.883C138.687 124.641 139.062 125.617 139.062 126.805C139.062 128.062 138.664 129.117 137.859 129.961C137.054 130.805 136.062 131.227 134.875 131.227ZM142.984 123.898L143.172 123.727C143.211 123.688 143.273 123.641 143.344 123.57C143.929 123.016 144.57 122.742 145.258 122.742C146.039 122.742 146.804 123.102 147.304 123.688C147.554 123.984 147.734 124.336 147.836 124.75C147.937 125.164 147.992 125.805 147.992 126.68V127.781C147.992 127.914 147.992 128.094 147.984 128.312C147.976 128.531 147.976 128.688 147.976 128.773C147.976 129.156 148 129.43 148.054 129.594C148.109 129.75 148.211 129.867 148.344 129.945L148.554 130.031C148.82 130.133 148.953 130.273 148.953 130.453C148.953 130.688 148.828 130.852 148.578 130.938C148.328 131.023 147.789 131.062 146.953 131.062C146.195 131.062 145.679 131.023 145.422 130.945C145.164 130.859 145.039 130.719 145.039 130.508C145.039 130.297 145.172 130.148 145.445 130.047C145.586 129.992 145.687 129.953 145.75 129.914C145.875 129.844 145.961 129.695 146.015 129.461C146.07 129.219 146.094 128.805 146.094 128.219C146.094 126.492 145.984 125.406 145.758 124.969C145.539 124.531 145.14 124.312 144.57 124.312C143.984 124.312 143.414 124.688 143.133 125.273C143.015 125.508 142.929 125.836 142.883 126.258C142.836 126.68 142.812 127.43 142.812 128.508C142.812 129.031 142.836 129.383 142.875 129.562C142.922 129.734 143 129.852 143.117 129.914C143.187 129.953 143.289 129.992 143.422 130.047C143.695 130.148 143.836 130.297 143.836 130.508C143.836 130.719 143.703 130.867 143.437 130.953C143.172 131.039 142.687 131.078 141.976 131.078C141.148 131.078 140.601 131.031 140.328 130.945C140.062 130.859 139.929 130.695 139.929 130.453C139.929 130.273 140.062 130.133 140.328 130.031C140.429 129.992 140.5 129.969 140.539 129.945C140.82 129.789 140.922 129.484 140.922 128.664C140.922 128.562 140.922 128.383 140.914 128.117C140.906 127.852 140.906 127.633 140.906 127.461V126.617C140.906 125.766 140.883 125.203 140.844 124.945C140.804 124.688 140.726 124.523 140.617 124.469C140.531 124.43 140.406 124.383 140.234 124.328C139.906 124.227 139.742 124.078 139.742 123.898C139.742 123.656 139.929 123.477 140.398 123.289C140.797 123.133 141.187 123.008 141.57 122.914C141.953 122.82 142.234 122.773 142.414 122.773C142.719 122.773 142.844 122.922 142.844 123.289V123.828C142.844 123.914 142.851 123.922 142.906 123.93C142.929 123.93 142.976 123.906 142.984 123.898ZM52.3904 145.297C52.3904 146.375 52.6169 147.273 53.0701 148C53.531 148.727 54.0857 149.086 54.7419 149.086C55.2732 149.086 55.7029 148.859 56.031 148.414C56.3669 147.969 56.531 147.375 56.531 146.641C56.531 145.578 56.2966 144.688 55.8357 143.969C55.3748 143.242 54.8279 142.883 54.1794 142.883C53.6404 142.883 53.2107 143.102 52.8826 143.547C52.5544 143.984 52.3904 144.57 52.3904 145.297ZM54.3904 150.227C53.2185 150.227 52.2498 149.828 51.4763 149.031C50.7029 148.234 50.3201 147.227 50.3201 146.016C50.3201 144.789 50.7263 143.773 51.531 142.961C52.3435 142.148 53.3591 141.742 54.5779 141.742C55.7498 141.742 56.7107 142.125 57.4529 142.883C58.2029 143.641 58.5779 144.617 58.5779 145.805C58.5779 147.062 58.1794 148.117 57.3748 148.961C56.5701 149.805 55.5779 150.227 54.3904 150.227ZM65.4607 149.727V149.148C65.4607 149.109 65.4451 149.102 65.4138 149.102C65.3513 149.102 65.2576 149.172 65.1248 149.305L65.0154 149.422C64.5076 149.953 63.8513 150.211 63.0466 150.211C62.2263 150.211 61.4763 149.891 60.9998 149.328C60.7419 149.023 60.5623 148.648 60.4529 148.211C60.3513 147.773 60.2966 146.969 60.2966 145.805C60.2966 145.695 60.2966 145.516 60.3044 145.258C60.3123 145 60.3123 144.805 60.3123 144.656V144.492C60.3123 144.047 60.281 143.758 60.2185 143.641C60.156 143.516 60.0232 143.414 59.8279 143.344C59.7498 143.312 59.6404 143.281 59.5076 143.242C59.2029 143.156 59.0466 143.023 59.0466 142.828C59.0466 142.695 59.1013 142.578 59.2107 142.492C59.3201 142.398 59.5623 142.289 59.9451 142.156C60.7029 141.906 61.4685 141.742 61.9138 141.742C62.2029 141.742 62.3279 141.953 62.3279 142.43C62.3279 142.461 62.3201 142.57 62.3123 142.75C62.2576 143.75 62.2341 144.766 62.2341 145.789C62.2341 146.898 62.3513 147.664 62.5779 148.086C62.8044 148.508 63.1951 148.719 63.7498 148.719C64.3748 148.719 64.8201 148.445 65.0857 147.898C65.3591 147.352 65.4919 146.414 65.4919 145.086V144.461C65.4919 144.039 65.4607 143.766 65.3982 143.641C65.3435 143.508 65.2185 143.414 65.031 143.344C64.9451 143.312 64.8357 143.281 64.7029 143.242C64.3982 143.156 64.2498 143.023 64.2498 142.828C64.2498 142.695 64.3044 142.586 64.406 142.5C64.5154 142.406 64.7576 142.289 65.1404 142.156C65.8982 141.906 66.6482 141.742 67.0779 141.742C67.4138 141.742 67.5232 141.922 67.5232 142.43C67.5232 142.484 67.5154 142.641 67.5076 142.883C67.4451 144.039 67.4138 145.156 67.4138 146.242C67.4138 146.922 67.4216 147.375 67.4294 147.617C67.4373 147.852 67.4529 148.031 67.4763 148.156C67.5154 148.383 67.6794 148.547 67.9529 148.656H67.9607L68.1091 148.703C68.4138 148.805 68.5701 148.953 68.5701 149.133C68.5701 149.375 68.3982 149.539 67.9294 149.727C67.531 149.883 67.1404 150.008 66.7654 150.102C66.3982 150.195 66.1091 150.242 65.9138 150.242C65.6013 150.242 65.4607 150.078 65.4607 149.727ZM71.9763 142.891L71.9998 143.055L72.0779 143.086C72.6326 142.211 73.2498 141.742 73.8669 141.742C74.6169 141.742 75.1013 142.234 75.1013 142.992C75.1013 143.75 74.7419 144.211 74.1248 144.211C73.8201 144.211 73.5701 144.102 73.3748 143.891C73.3044 143.82 73.2419 143.711 73.1873 143.57C73.1326 143.43 73.0701 143.359 73.0076 143.359C72.6326 143.359 72.3669 143.617 72.2185 144.141C72.0701 144.656 71.9998 145.742 71.9998 147.391C71.9998 148.336 72.1248 148.789 72.4138 148.914C72.4919 148.945 72.6013 148.984 72.7341 149.023C73.0623 149.125 73.2263 149.289 73.2263 149.508C73.2263 149.711 73.0779 149.859 72.7732 149.945C72.4685 150.031 71.9451 150.078 71.1951 150.078C70.3748 150.078 69.8279 150.031 69.5623 149.945C69.2966 149.859 69.1638 149.695 69.1638 149.453C69.1638 149.273 69.2966 149.133 69.5544 149.039C69.656 149 69.7341 148.969 69.7732 148.945C70.0544 148.789 70.156 148.484 70.156 147.664C70.156 147.562 70.156 147.383 70.1482 147.117C70.1404 146.852 70.1404 146.633 70.1404 146.461V145.984C70.1404 144.977 70.1169 144.328 70.0701 144.023C70.031 143.719 69.9529 143.539 69.8357 143.469C69.7498 143.43 69.6248 143.383 69.4607 143.328C69.1404 143.227 68.9763 143.078 68.9763 142.898C68.9763 142.641 69.1404 142.477 69.6326 142.289C70.0076 142.141 70.3669 142.016 70.7185 141.93C71.0701 141.836 71.3201 141.789 71.4529 141.789C71.7107 141.789 71.8904 142.156 71.9763 142.891ZM82.5544 142.32V142.719C82.5544 142.852 82.5701 142.922 82.6013 142.93C82.6248 142.93 82.7341 142.859 82.9216 142.711L83.2341 142.477C83.9138 141.977 84.5154 141.742 85.1482 141.742C86.156 141.742 86.9841 142.109 87.6248 142.852C88.2654 143.594 88.5857 144.547 88.5857 145.727C88.5857 147.031 88.2263 148.102 87.4998 148.938C86.781 149.773 85.8669 150.195 84.7654 150.195C84.1638 150.195 83.5466 150.023 82.9294 149.68C82.8279 149.625 82.7654 149.602 82.7498 149.602C82.6169 149.602 82.5544 149.883 82.5544 150.594C82.5544 151.242 82.6326 151.688 82.7654 151.844C82.8357 151.914 82.9841 151.984 83.2263 152.055C83.3669 152.094 83.4763 152.133 83.5466 152.156C83.6951 152.227 83.7888 152.367 83.7888 152.547C83.7888 152.742 83.6326 152.883 83.3123 152.969C82.9919 153.055 82.4529 153.102 81.6794 153.102C80.8904 153.102 80.3591 153.055 80.0857 152.969C79.8123 152.883 79.6794 152.719 79.6794 152.492C79.6794 152.312 79.7966 152.18 80.0232 152.078C80.2576 151.984 80.3982 151.914 80.4451 151.875C80.5544 151.766 80.6326 151.5 80.6716 151.07C80.7107 150.641 80.7341 149.75 80.7341 148.398V147.711V147.07C80.7341 145.594 80.7107 144.648 80.656 144.219C80.6091 143.789 80.5232 143.539 80.3982 143.469C80.3123 143.43 80.1873 143.383 80.0232 143.328C79.6951 143.227 79.531 143.078 79.531 142.898C79.531 142.641 79.7185 142.461 80.156 142.305C80.9685 141.984 81.7419 141.789 82.1248 141.789C82.4294 141.789 82.5544 141.945 82.5544 142.32ZM82.6326 145.086V147.312C82.6326 147.633 82.6482 147.859 82.6716 147.977C82.6951 148.094 82.7419 148.195 82.7966 148.273C82.9763 148.516 83.2263 148.711 83.5466 148.867C83.8669 149.023 84.1951 149.102 84.5232 149.102C85.1248 149.102 85.6091 148.852 85.9685 148.352C86.3279 147.852 86.5076 147.172 86.5076 146.32C86.5076 145.406 86.3123 144.664 85.9138 144.094C85.5232 143.523 85.0232 143.234 84.4138 143.234C83.2576 143.234 82.6326 143.875 82.6326 145.086ZM90.4841 143.773V143.148C90.4841 141.789 90.4607 140.914 90.4138 140.516C90.3669 140.117 90.2888 139.891 90.1716 139.828C90.0544 139.766 89.8826 139.703 89.6716 139.648C89.3279 139.555 89.156 139.414 89.156 139.219C89.156 139.086 89.2107 138.969 89.3123 138.883C89.4216 138.789 89.6716 138.68 90.0544 138.547C90.8044 138.289 91.5623 138.125 91.9919 138.125C92.3123 138.125 92.4373 138.305 92.4373 138.812C92.4373 138.883 92.4294 139.094 92.4216 139.438C92.3591 141.367 92.3279 143.32 92.3279 145.297C92.3279 146.742 92.3435 147.664 92.3748 148.062C92.4138 148.461 92.4763 148.711 92.5623 148.812C92.6169 148.867 92.7654 148.945 93.0154 149.047C93.2732 149.148 93.3982 149.297 93.3982 149.508C93.3982 149.719 93.2654 149.867 92.9919 149.953C92.7185 150.039 92.2341 150.078 91.5232 150.078C90.6951 150.078 90.1482 150.031 89.8826 149.945C89.6248 149.859 89.4919 149.695 89.4919 149.453C89.4919 149.289 89.6013 149.156 89.8279 149.055C90.0544 148.953 90.1873 148.883 90.2419 148.828C90.3357 148.742 90.3982 148.531 90.4373 148.203C90.4763 147.867 90.4998 147.336 90.4998 146.594C90.4998 146.375 90.4998 145.953 90.4919 145.328C90.4841 144.703 90.4841 144.188 90.4841 143.773ZM101.078 145.148V147.773C101.078 148.391 101.179 148.672 101.398 148.734C101.461 148.758 101.547 148.781 101.648 148.805C101.992 148.898 102.164 149.039 102.164 149.219C102.164 149.477 101.984 149.719 101.617 149.93C101.25 150.141 100.828 150.242 100.344 150.242C100.101 150.242 99.8513 150.102 99.5779 149.82C99.3123 149.531 99.1716 149.391 99.156 149.391C99.1091 149.391 98.9919 149.453 98.8044 149.57C98.1169 150.016 97.4373 150.242 96.7732 150.242C95.9841 150.242 95.3435 150.016 94.8513 149.555C94.3591 149.094 94.1169 148.484 94.1169 147.742C94.1169 146.875 94.4294 146.195 95.0623 145.711C95.6951 145.219 96.5701 144.977 97.7029 144.977C98.1326 144.977 98.6326 145.023 99.2185 145.117L99.2263 144.258C99.2263 143.297 98.7966 142.766 98.0232 142.766C97.4919 142.766 97.0466 142.992 96.6169 143.484C96.5779 143.531 96.5154 143.602 96.4451 143.695C96.1169 144.109 95.7654 144.32 95.3982 144.32C94.9685 144.32 94.6951 144.023 94.6951 143.555C94.6951 143.047 95.0076 142.617 95.6404 142.266C96.2732 141.914 97.0779 141.742 98.0701 141.742C99.281 141.742 100.156 142.07 100.633 142.672C100.797 142.883 100.906 143.148 100.976 143.484C101.047 143.82 101.078 144.375 101.078 145.148ZM99.2263 147.359L99.2185 146.156C98.7888 146.062 98.3904 146.016 98.0388 146.016C96.8748 146.016 96.1794 146.57 96.1794 147.484C96.1794 148.352 96.7888 148.914 97.7498 148.914C98.8123 148.914 99.2263 148.492 99.2263 147.359ZM105.609 141.969H107.429C107.703 141.969 107.781 142.047 107.781 142.352V142.547C107.781 142.828 107.679 142.945 107.429 142.945H105.75C105.648 142.945 105.578 143.039 105.578 143.203V147.25C105.578 147.945 105.633 148.383 105.75 148.562C105.867 148.742 106.086 148.828 106.406 148.828C106.578 148.828 106.797 148.781 107.062 148.695C107.336 148.609 107.523 148.562 107.625 148.562C107.867 148.562 108.039 148.719 108.039 148.945C108.039 149.242 107.804 149.531 107.344 149.812C106.883 150.086 106.367 150.227 105.781 150.227C105.101 150.227 104.562 150.047 104.179 149.695C103.984 149.516 103.851 149.281 103.773 148.984C103.695 148.68 103.656 148.125 103.656 147.312V142.945H102.906C102.679 142.945 102.601 142.867 102.601 142.672V142.477C102.601 142.297 102.883 141.969 103.453 141.484L103.789 141.195L104.101 140.922C104.664 140.43 105.047 140.18 105.258 140.18C105.476 140.18 105.609 140.281 105.609 140.445V141.969ZM111.344 141.969H112.523C112.797 141.969 112.875 142.047 112.875 142.352V142.547C112.875 142.828 112.773 142.945 112.523 142.945H111.359V147.133C111.359 147.828 111.383 148.289 111.422 148.5C111.461 148.711 111.539 148.844 111.648 148.898C111.726 148.938 111.836 148.977 111.969 149.023C112.289 149.133 112.445 149.297 112.445 149.508C112.445 149.719 112.312 149.859 112.047 149.945C111.781 150.023 111.25 150.062 110.461 150.062C109.672 150.062 109.14 150.023 108.875 149.938C108.609 149.852 108.476 149.703 108.476 149.484C108.476 149.312 108.601 149.18 108.859 149.086L109.07 148.992C109.203 148.922 109.289 148.797 109.344 148.625C109.398 148.445 109.422 148.125 109.422 147.664V146.883V142.945H108.508C108.258 142.945 108.172 142.852 108.172 142.547V142.352C108.172 142.078 108.273 141.969 108.523 141.969H109.383C109.312 141.508 109.273 141.117 109.273 140.75C109.273 139.93 109.523 139.289 110.015 138.828C110.515 138.367 111.211 138.141 112.109 138.141C112.726 138.141 113.226 138.281 113.609 138.562C113.992 138.836 114.187 139.188 114.187 139.617C114.187 140.125 113.906 140.398 113.375 140.398C113.031 140.398 112.75 140.234 112.57 139.953L112.414 139.656C112.219 139.266 111.961 139.07 111.64 139.07C111.234 139.07 110.953 139.359 110.953 139.789C110.953 139.914 111.015 140.219 111.14 140.695C111.265 141.172 111.336 141.594 111.344 141.969ZM115.312 145.297C115.312 146.375 115.539 147.273 115.992 148C116.453 148.727 117.008 149.086 117.664 149.086C118.195 149.086 118.625 148.859 118.953 148.414C119.289 147.969 119.453 147.375 119.453 146.641C119.453 145.578 119.219 144.688 118.758 143.969C118.297 143.242 117.75 142.883 117.101 142.883C116.562 142.883 116.133 143.102 115.804 143.547C115.476 143.984 115.312 144.57 115.312 145.297ZM117.312 150.227C116.14 150.227 115.172 149.828 114.398 149.031C113.625 148.234 113.242 147.227 113.242 146.016C113.242 144.789 113.648 143.773 114.453 142.961C115.265 142.148 116.281 141.742 117.5 141.742C118.672 141.742 119.633 142.125 120.375 142.883C121.125 143.641 121.5 144.617 121.5 145.805C121.5 147.062 121.101 148.117 120.297 148.961C119.492 149.805 118.5 150.227 117.312 150.227ZM125.195 142.891L125.219 143.055L125.297 143.086C125.851 142.211 126.469 141.742 127.086 141.742C127.836 141.742 128.32 142.234 128.32 142.992C128.32 143.75 127.961 144.211 127.344 144.211C127.039 144.211 126.789 144.102 126.594 143.891C126.523 143.82 126.461 143.711 126.406 143.57C126.351 143.43 126.289 143.359 126.226 143.359C125.851 143.359 125.586 143.617 125.437 144.141C125.289 144.656 125.219 145.742 125.219 147.391C125.219 148.336 125.344 148.789 125.633 148.914C125.711 148.945 125.82 148.984 125.953 149.023C126.281 149.125 126.445 149.289 126.445 149.508C126.445 149.711 126.297 149.859 125.992 149.945C125.687 150.031 125.164 150.078 124.414 150.078C123.594 150.078 123.047 150.031 122.781 149.945C122.515 149.859 122.383 149.695 122.383 149.453C122.383 149.273 122.515 149.133 122.773 149.039C122.875 149 122.953 148.969 122.992 148.945C123.273 148.789 123.375 148.484 123.375 147.664C123.375 147.562 123.375 147.383 123.367 147.117C123.359 146.852 123.359 146.633 123.359 146.461V145.984C123.359 144.977 123.336 144.328 123.289 144.023C123.25 143.719 123.172 143.539 123.054 143.469C122.969 143.43 122.844 143.383 122.679 143.328C122.359 143.227 122.195 143.078 122.195 142.898C122.195 142.641 122.359 142.477 122.851 142.289C123.226 142.141 123.586 142.016 123.937 141.93C124.289 141.836 124.539 141.789 124.672 141.789C124.929 141.789 125.109 142.156 125.195 142.891ZM131.484 142.305V142.734V142.828C131.484 142.922 131.508 142.93 131.547 142.93C131.57 142.93 131.617 142.906 131.625 142.898L131.812 142.727L131.906 142.641C132.554 142.039 133.219 141.742 133.883 141.742C134.383 141.742 134.851 141.891 135.289 142.195C135.5 142.328 135.703 142.523 135.906 142.766C136.109 143.008 136.234 143.133 136.281 143.133C136.351 143.133 136.461 143.047 136.601 142.883C136.75 142.719 136.867 142.594 136.969 142.516C137.32 142.219 137.625 142.016 137.883 141.906C138.148 141.797 138.437 141.742 138.75 141.742C140.008 141.742 141 142.273 141.437 143.188C141.679 143.688 141.797 144.734 141.797 146.336C141.804 146.688 141.804 146.953 141.804 147.133C141.804 147.25 141.804 147.398 141.797 147.578C141.789 147.758 141.789 147.883 141.789 147.953C141.789 148.578 141.883 148.789 142.156 148.945C142.195 148.969 142.265 148.992 142.367 149.031C142.64 149.133 142.781 149.273 142.781 149.453C142.781 149.688 142.656 149.852 142.398 149.938C142.14 150.023 141.594 150.062 140.75 150.062C139.976 150.062 139.453 150.023 139.187 149.945C138.929 149.859 138.797 149.719 138.797 149.508C138.797 149.297 138.937 149.141 139.226 149.023C139.351 148.977 139.445 148.938 139.515 148.898C139.648 148.828 139.742 148.656 139.797 148.391C139.851 148.117 139.883 147.664 139.883 147.023C139.883 145.414 139.773 144.391 139.554 143.961C139.336 143.531 138.937 143.312 138.367 143.312C137.734 143.312 137.281 143.586 137.008 144.141C136.734 144.688 136.601 145.625 136.601 146.945V147.391C136.601 147.977 136.633 148.359 136.687 148.547C136.742 148.734 136.844 148.867 136.984 148.945L137.195 149.031C137.461 149.133 137.594 149.273 137.594 149.453C137.594 149.688 137.469 149.852 137.219 149.938C136.969 150.023 136.429 150.062 135.594 150.062C134.836 150.062 134.32 150.023 134.062 149.945C133.804 149.859 133.672 149.719 133.672 149.508C133.672 149.297 133.812 149.148 134.086 149.047C134.219 149 134.32 148.953 134.398 148.914C134.515 148.844 134.594 148.703 134.64 148.484C134.695 148.258 134.719 147.836 134.719 147.219C134.719 145.492 134.609 144.406 134.383 143.969C134.164 143.531 133.765 143.312 133.195 143.312C132.609 143.312 132.054 143.688 131.773 144.273C131.648 144.516 131.562 144.867 131.508 145.312C131.461 145.758 131.437 146.484 131.437 147.508C131.437 148.008 131.461 148.352 131.508 148.539C131.554 148.719 131.64 148.844 131.758 148.914C131.828 148.953 131.929 148.992 132.062 149.047C132.336 149.148 132.476 149.297 132.476 149.508C132.476 149.719 132.344 149.867 132.07 149.953C131.804 150.039 131.312 150.078 130.601 150.078C129.773 150.078 129.226 150.031 128.961 149.945C128.703 149.859 128.57 149.695 128.57 149.453C128.57 149.273 128.703 149.133 128.969 149.031C129.07 148.992 129.14 148.969 129.179 148.945C129.461 148.789 129.562 148.484 129.562 147.664C129.562 147.562 129.562 147.383 129.554 147.117C129.547 146.852 129.547 146.633 129.547 146.461V145.984C129.547 144.977 129.523 144.328 129.476 144.023C129.437 143.719 129.359 143.539 129.242 143.469C129.156 143.43 129.031 143.383 128.867 143.328C128.547 143.227 128.383 143.078 128.383 142.898C128.383 142.656 128.547 142.5 129.039 142.305C129.461 142.133 129.859 142 130.226 141.898C130.601 141.797 130.875 141.742 131.039 141.742C131.32 141.742 131.461 141.922 131.484 142.305Z" fill="black"/>
<path d="M58.5248 176L55.9068 166.06H57.2228L59.2668 174.348L61.2968 166.06H62.6688L64.7128 174.348L66.7428 166.06H68.0728L65.4548 176H63.9428L61.9828 168.3L60.0228 176H58.5248ZM72.0666 176.168C71.3666 176.168 70.7599 176.009 70.2466 175.692C69.7426 175.375 69.3506 174.927 69.0706 174.348C68.7999 173.76 68.6646 173.074 68.6646 172.29C68.6646 171.506 68.7999 170.825 69.0706 170.246C69.3506 169.667 69.7379 169.219 70.2326 168.902C70.7366 168.575 71.3293 168.412 72.0106 168.412C72.6546 168.412 73.2239 168.566 73.7186 168.874C74.2133 169.173 74.5959 169.611 74.8666 170.19C75.1466 170.769 75.2866 171.473 75.2866 172.304V172.654H69.8966C69.9433 173.447 70.1533 174.045 70.5266 174.446C70.9093 174.847 71.4226 175.048 72.0666 175.048C72.5519 175.048 72.9486 174.936 73.2566 174.712C73.5739 174.479 73.7933 174.175 73.9146 173.802L75.1746 173.9C74.9786 174.563 74.6053 175.109 74.0546 175.538C73.5133 175.958 72.8506 176.168 72.0666 176.168ZM69.8966 171.618H73.9986C73.9426 170.899 73.7326 170.372 73.3686 170.036C73.0139 169.7 72.5613 169.532 72.0106 169.532C71.4413 169.532 70.9699 169.709 70.5966 170.064C70.2326 170.409 69.9993 170.927 69.8966 171.618ZM83.2322 176C82.5602 176 82.0609 175.846 81.7342 175.538C81.4169 175.23 81.2582 174.749 81.2582 174.096V166.844H82.4342V174.068C82.4342 174.404 82.5089 174.637 82.6582 174.768C82.8076 174.899 83.0362 174.964 83.3442 174.964H84.4082V176H83.2322ZM80.1662 169.616V168.58H84.4082V169.616H80.1662ZM88.3526 176.168C87.6153 176.168 87.0226 175.921 86.5746 175.426C86.136 174.922 85.9166 174.231 85.9166 173.354V168.58H87.0926V173.032C87.0926 173.751 87.2186 174.283 87.4706 174.628C87.732 174.964 88.1286 175.132 88.6606 175.132C89.2486 175.132 89.7106 174.945 90.0466 174.572C90.3826 174.189 90.5506 173.667 90.5506 173.004V168.58H91.7266V176H90.6066V174.166L90.7886 174.264C90.6393 174.871 90.3546 175.342 89.9346 175.678C89.5146 176.005 88.9873 176.168 88.3526 176.168ZM93.9694 176V168.58H95.0054L95.0614 170.456L94.9494 170.414C95.0427 169.779 95.2434 169.317 95.5514 169.028C95.8687 168.729 96.2887 168.58 96.8114 168.58H97.5394V169.7H96.8254C96.452 169.7 96.1394 169.77 95.8874 169.91C95.6447 170.041 95.458 170.241 95.3274 170.512C95.206 170.773 95.1454 171.109 95.1454 171.52V176H93.9694ZM98.7135 176V168.58H99.7915L99.8335 170.47L99.6935 170.344C99.7868 169.905 99.9502 169.546 100.184 169.266C100.417 168.977 100.697 168.762 101.024 168.622C101.36 168.482 101.719 168.412 102.102 168.412C102.671 168.412 103.138 168.538 103.502 168.79C103.875 169.042 104.15 169.383 104.328 169.812C104.514 170.232 104.608 170.703 104.608 171.226V176H103.432V171.562C103.432 171.105 103.376 170.722 103.264 170.414C103.161 170.097 102.993 169.859 102.76 169.7C102.526 169.532 102.223 169.448 101.85 169.448C101.28 169.448 100.809 169.63 100.436 169.994C100.072 170.349 99.8895 170.871 99.8895 171.562V176H98.7135ZM110.67 178.1V177.064H111.524C111.786 177.064 111.977 177.022 112.098 176.938C112.229 176.863 112.327 176.737 112.392 176.56L112.658 175.86H112.252L109.536 168.58H110.824L113.036 174.768L115.15 168.58H116.438L113.428 176.938C113.288 177.339 113.078 177.633 112.798 177.82C112.518 178.007 112.131 178.1 111.636 178.1H110.67ZM120.397 176.168C119.715 176.168 119.118 176.009 118.605 175.692C118.091 175.375 117.695 174.927 117.415 174.348C117.135 173.76 116.995 173.074 116.995 172.29C116.995 171.497 117.135 170.811 117.415 170.232C117.695 169.653 118.091 169.205 118.605 168.888C119.118 168.571 119.715 168.412 120.397 168.412C121.078 168.412 121.671 168.571 122.175 168.888C122.688 169.205 123.085 169.653 123.365 170.232C123.645 170.811 123.785 171.497 123.785 172.29C123.785 173.074 123.645 173.76 123.365 174.348C123.085 174.927 122.688 175.375 122.175 175.692C121.671 176.009 121.078 176.168 120.397 176.168ZM120.397 175.048C121.078 175.048 121.605 174.805 121.979 174.32C122.361 173.825 122.553 173.149 122.553 172.29C122.553 171.431 122.361 170.759 121.979 170.274C121.605 169.779 121.078 169.532 120.397 169.532C119.715 169.532 119.183 169.779 118.801 170.274C118.418 170.759 118.227 171.431 118.227 172.29C118.227 173.149 118.418 173.825 118.801 174.32C119.183 174.805 119.715 175.048 120.397 175.048ZM127.823 176.168C127.086 176.168 126.493 175.921 126.045 175.426C125.607 174.922 125.387 174.231 125.387 173.354V168.58H126.563V173.032C126.563 173.751 126.689 174.283 126.941 174.628C127.203 174.964 127.599 175.132 128.131 175.132C128.719 175.132 129.181 174.945 129.517 174.572C129.853 174.189 130.021 173.667 130.021 173.004V168.58H131.197V176H130.077V174.166L130.259 174.264C130.11 174.871 129.825 175.342 129.405 175.678C128.985 176.005 128.458 176.168 127.823 176.168ZM133.44 176V168.58H134.476L134.532 170.456L134.42 170.414C134.513 169.779 134.714 169.317 135.022 169.028C135.339 168.729 135.759 168.58 136.282 168.58H137.01V169.7H136.296C135.923 169.7 135.61 169.77 135.358 169.91C135.115 170.041 134.929 170.241 134.798 170.512C134.677 170.773 134.616 171.109 134.616 171.52V176H133.44ZM49.0162 194V186.58H50.0942L50.1362 188.456L49.9682 188.4C50.0522 187.989 50.1969 187.639 50.4022 187.35C50.6169 187.051 50.8782 186.823 51.1862 186.664C51.4942 186.496 51.8349 186.412 52.2082 186.412C52.8522 186.412 53.3749 186.589 53.7762 186.944C54.1869 187.299 54.4436 187.793 54.5462 188.428L54.3222 188.414C54.3969 187.985 54.5322 187.625 54.7282 187.336C54.9336 187.037 55.1949 186.809 55.5122 186.65C55.8296 186.491 56.1936 186.412 56.6042 186.412C57.1362 186.412 57.5842 186.524 57.9482 186.748C58.3122 186.963 58.5876 187.28 58.7742 187.7C58.9609 188.12 59.0542 188.629 59.0542 189.226V194H57.8782V189.478C57.8782 188.806 57.7476 188.302 57.4862 187.966C57.2249 187.621 56.8376 187.448 56.3242 187.448C55.9789 187.448 55.6756 187.532 55.4142 187.7C55.1622 187.868 54.9662 188.111 54.8262 188.428C54.6862 188.736 54.6162 189.114 54.6162 189.562V194H53.4402V189.562C53.4402 188.899 53.3236 188.381 53.0902 188.008C52.8569 187.635 52.4649 187.448 51.9142 187.448C51.5689 187.448 51.2656 187.532 51.0042 187.7C50.7522 187.868 50.5516 188.111 50.4022 188.428C50.2622 188.745 50.1922 189.123 50.1922 189.562V194H49.0162ZM64.0275 194.168C63.3275 194.168 62.7209 194.009 62.2075 193.692C61.7035 193.375 61.3115 192.927 61.0315 192.348C60.7609 191.76 60.6255 191.074 60.6255 190.29C60.6255 189.506 60.7609 188.825 61.0315 188.246C61.3115 187.667 61.6989 187.219 62.1935 186.902C62.6975 186.575 63.2902 186.412 63.9715 186.412C64.6155 186.412 65.1849 186.566 65.6795 186.874C66.1742 187.173 66.5569 187.611 66.8275 188.19C67.1075 188.769 67.2475 189.473 67.2475 190.304V190.654H61.8575C61.9042 191.447 62.1142 192.045 62.4875 192.446C62.8702 192.847 63.3835 193.048 64.0275 193.048C64.5129 193.048 64.9095 192.936 65.2175 192.712C65.5349 192.479 65.7542 192.175 65.8755 191.802L67.1355 191.9C66.9395 192.563 66.5662 193.109 66.0155 193.538C65.4742 193.958 64.8115 194.168 64.0275 194.168ZM61.8575 189.618H65.9595C65.9035 188.899 65.6935 188.372 65.3295 188.036C64.9749 187.7 64.5222 187.532 63.9715 187.532C63.4022 187.532 62.9309 187.709 62.5575 188.064C62.1935 188.409 61.9602 188.927 61.8575 189.618ZM71.5425 194.168C70.8798 194.168 70.3151 194.061 69.8485 193.846C69.3911 193.631 69.0318 193.337 68.7705 192.964C68.5185 192.581 68.3738 192.147 68.3365 191.662L69.5685 191.578C69.6431 192.026 69.8345 192.385 70.1425 192.656C70.4505 192.917 70.9171 193.048 71.5425 193.048C72.0465 193.048 72.4478 192.969 72.7465 192.81C73.0545 192.642 73.2085 192.376 73.2085 192.012C73.2085 191.816 73.1618 191.653 73.0685 191.522C72.9751 191.391 72.7931 191.279 72.5225 191.186C72.2518 191.083 71.8505 190.985 71.3185 190.892C70.6091 190.761 70.0491 190.603 69.6385 190.416C69.2371 190.22 68.9478 189.982 68.7705 189.702C68.6025 189.413 68.5185 189.072 68.5185 188.68C68.5185 188.017 68.7611 187.476 69.2465 187.056C69.7318 186.627 70.4225 186.412 71.3185 186.412C71.9251 186.412 72.4338 186.524 72.8445 186.748C73.2645 186.963 73.5911 187.252 73.8245 187.616C74.0671 187.971 74.2258 188.363 74.3005 188.792L73.0685 188.876C73.0125 188.615 72.9098 188.386 72.7605 188.19C72.6111 187.985 72.4151 187.826 72.1725 187.714C71.9298 187.593 71.6405 187.532 71.3045 187.532C70.7725 187.532 70.3805 187.635 70.1285 187.84C69.8765 188.045 69.7505 188.307 69.7505 188.624C69.7505 188.867 69.8065 189.067 69.9185 189.226C70.0398 189.375 70.2311 189.501 70.4925 189.604C70.7538 189.697 71.1038 189.781 71.5425 189.856C72.2985 189.987 72.8865 190.145 73.3065 190.332C73.7265 190.519 74.0205 190.747 74.1885 191.018C74.3565 191.289 74.4405 191.62 74.4405 192.012C74.4405 192.469 74.3098 192.861 74.0485 193.188C73.7965 193.505 73.4511 193.748 73.0125 193.916C72.5831 194.084 72.0931 194.168 71.5425 194.168ZM78.7475 194.168C78.0849 194.168 77.5202 194.061 77.0535 193.846C76.5962 193.631 76.2369 193.337 75.9755 192.964C75.7235 192.581 75.5789 192.147 75.5415 191.662L76.7735 191.578C76.8482 192.026 77.0395 192.385 77.3475 192.656C77.6555 192.917 78.1222 193.048 78.7475 193.048C79.2515 193.048 79.6529 192.969 79.9515 192.81C80.2595 192.642 80.4135 192.376 80.4135 192.012C80.4135 191.816 80.3669 191.653 80.2735 191.522C80.1802 191.391 79.9982 191.279 79.7275 191.186C79.4569 191.083 79.0555 190.985 78.5235 190.892C77.8142 190.761 77.2542 190.603 76.8435 190.416C76.4422 190.22 76.1529 189.982 75.9755 189.702C75.8075 189.413 75.7235 189.072 75.7235 188.68C75.7235 188.017 75.9662 187.476 76.4515 187.056C76.9369 186.627 77.6275 186.412 78.5235 186.412C79.1302 186.412 79.6389 186.524 80.0495 186.748C80.4695 186.963 80.7962 187.252 81.0295 187.616C81.2722 187.971 81.4309 188.363 81.5055 188.792L80.2735 188.876C80.2175 188.615 80.1149 188.386 79.9655 188.19C79.8162 187.985 79.6202 187.826 79.3775 187.714C79.1349 187.593 78.8455 187.532 78.5095 187.532C77.9775 187.532 77.5855 187.635 77.3335 187.84C77.0815 188.045 76.9555 188.307 76.9555 188.624C76.9555 188.867 77.0115 189.067 77.1235 189.226C77.2449 189.375 77.4362 189.501 77.6975 189.604C77.9589 189.697 78.3089 189.781 78.7475 189.856C79.5035 189.987 80.0915 190.145 80.5115 190.332C80.9315 190.519 81.2255 190.747 81.3935 191.018C81.5615 191.289 81.6455 191.62 81.6455 192.012C81.6455 192.469 81.5149 192.861 81.2535 193.188C81.0015 193.505 80.6562 193.748 80.2175 193.916C79.7882 194.084 79.2982 194.168 78.7475 194.168ZM85.444 194.168C84.6787 194.168 84.0674 193.991 83.61 193.636C83.162 193.281 82.938 192.787 82.938 192.152C82.938 191.517 83.1247 191.018 83.498 190.654C83.8714 190.29 84.464 190.033 85.276 189.884L87.908 189.394C87.908 188.769 87.7587 188.302 87.46 187.994C87.1707 187.686 86.732 187.532 86.144 187.532C85.6307 187.532 85.2247 187.649 84.926 187.882C84.6274 188.106 84.422 188.433 84.31 188.862L83.064 188.764C83.204 188.064 83.54 187.499 84.072 187.07C84.6134 186.631 85.304 186.412 86.144 186.412C87.096 186.412 87.824 186.683 88.328 187.224C88.832 187.756 89.084 188.493 89.084 189.436V192.502C89.084 192.67 89.112 192.791 89.168 192.866C89.2334 192.931 89.336 192.964 89.476 192.964H89.77V194C89.7327 194.009 89.672 194.014 89.588 194.014C89.504 194.023 89.4154 194.028 89.322 194.028C88.986 194.028 88.7107 193.977 88.496 193.874C88.2907 193.762 88.1414 193.594 88.048 193.37C87.9547 193.137 87.908 192.833 87.908 192.46L88.048 192.488C87.9827 192.805 87.824 193.095 87.572 193.356C87.32 193.608 87.0074 193.809 86.634 193.958C86.2607 194.098 85.864 194.168 85.444 194.168ZM85.556 193.132C86.0507 193.132 86.4707 193.039 86.816 192.852C87.1707 192.656 87.4414 192.395 87.628 192.068C87.8147 191.732 87.908 191.359 87.908 190.948V190.416L85.5 190.864C84.996 190.957 84.646 191.102 84.45 191.298C84.2634 191.485 84.17 191.732 84.17 192.04C84.17 192.385 84.2914 192.656 84.534 192.852C84.786 193.039 85.1267 193.132 85.556 193.132ZM93.8849 196.268C93.3529 196.268 92.8723 196.179 92.4429 196.002C92.0136 195.825 91.6543 195.573 91.3649 195.246C91.0756 194.919 90.8796 194.541 90.7769 194.112L92.0089 194.028C92.1209 194.373 92.3169 194.644 92.5969 194.84C92.8863 195.045 93.3156 195.148 93.8849 195.148C94.5569 195.148 95.0703 195.013 95.4249 194.742C95.7889 194.471 95.9709 194.065 95.9709 193.524V192.32C95.7936 192.712 95.5089 193.025 95.1169 193.258C94.7249 193.491 94.2863 193.608 93.8009 193.608C93.1756 193.608 92.6156 193.454 92.1209 193.146C91.6356 192.838 91.2529 192.413 90.9729 191.872C90.7023 191.331 90.5669 190.71 90.5669 190.01C90.5669 189.301 90.7023 188.68 90.9729 188.148C91.2436 187.607 91.6169 187.182 92.0929 186.874C92.5783 186.566 93.1289 186.412 93.7449 186.412C94.2676 186.412 94.7343 186.533 95.1449 186.776C95.5649 187.019 95.8589 187.345 96.0269 187.756V186.58H97.1469V193.496C97.1469 194.075 97.0163 194.569 96.7549 194.98C96.4936 195.4 96.1203 195.717 95.6349 195.932C95.1496 196.156 94.5663 196.268 93.8849 196.268ZM93.8569 192.488C94.4916 192.488 95.0003 192.269 95.3829 191.83C95.7656 191.382 95.9616 190.775 95.9709 190.01C95.9803 189.497 95.8963 189.058 95.7189 188.694C95.5509 188.321 95.3036 188.036 94.9769 187.84C94.6596 187.635 94.2863 187.532 93.8569 187.532C93.2036 187.532 92.6949 187.756 92.3309 188.204C91.9763 188.643 91.7989 189.245 91.7989 190.01C91.7989 190.775 91.9809 191.382 92.3449 191.83C92.7183 192.269 93.2223 192.488 93.8569 192.488ZM102.145 194.168C101.445 194.168 100.838 194.009 100.325 193.692C99.8207 193.375 99.4287 192.927 99.1487 192.348C98.878 191.76 98.7427 191.074 98.7427 190.29C98.7427 189.506 98.878 188.825 99.1487 188.246C99.4287 187.667 99.816 187.219 100.311 186.902C100.815 186.575 101.407 186.412 102.089 186.412C102.733 186.412 103.302 186.566 103.797 186.874C104.291 187.173 104.674 187.611 104.945 188.19C105.225 188.769 105.365 189.473 105.365 190.304V190.654H99.9747C100.021 191.447 100.231 192.045 100.605 192.446C100.987 192.847 101.501 193.048 102.145 193.048C102.63 193.048 103.027 192.936 103.335 192.712C103.652 192.479 103.871 192.175 103.993 191.802L105.253 191.9C105.057 192.563 104.683 193.109 104.133 193.538C103.591 193.958 102.929 194.168 102.145 194.168ZM99.9747 189.618H104.077C104.021 188.899 103.811 188.372 103.447 188.036C103.092 187.7 102.639 187.532 102.089 187.532C101.519 187.532 101.048 187.709 100.675 188.064C100.311 188.409 100.077 188.927 99.9747 189.618ZM110.594 194V186.58H111.77V194H110.594ZM110.566 185.418V184.046H111.798V185.418H110.566ZM114.149 194V186.58H115.227L115.269 188.47L115.129 188.344C115.222 187.905 115.386 187.546 115.619 187.266C115.852 186.977 116.132 186.762 116.459 186.622C116.795 186.482 117.154 186.412 117.537 186.412C118.106 186.412 118.573 186.538 118.937 186.79C119.31 187.042 119.586 187.383 119.763 187.812C119.95 188.232 120.043 188.703 120.043 189.226V194H118.867V189.562C118.867 189.105 118.811 188.722 118.699 188.414C118.596 188.097 118.428 187.859 118.195 187.7C117.962 187.532 117.658 187.448 117.285 187.448C116.716 187.448 116.244 187.63 115.871 187.994C115.507 188.349 115.325 188.871 115.325 189.562V194H114.149ZM124.439 194C123.767 194 123.268 193.846 122.941 193.538C122.624 193.23 122.465 192.749 122.465 192.096V184.844H123.641V192.068C123.641 192.404 123.716 192.637 123.865 192.768C124.015 192.899 124.243 192.964 124.551 192.964H125.615V194H124.439ZM121.373 187.616V186.58H125.615V187.616H121.373ZM129.885 194.168C129.204 194.168 128.606 194.009 128.093 193.692C127.58 193.375 127.183 192.927 126.903 192.348C126.623 191.76 126.483 191.074 126.483 190.29C126.483 189.497 126.623 188.811 126.903 188.232C127.183 187.653 127.58 187.205 128.093 186.888C128.606 186.571 129.204 186.412 129.885 186.412C130.566 186.412 131.159 186.571 131.663 186.888C132.176 187.205 132.573 187.653 132.853 188.232C133.133 188.811 133.273 189.497 133.273 190.29C133.273 191.074 133.133 191.76 132.853 192.348C132.573 192.927 132.176 193.375 131.663 193.692C131.159 194.009 130.566 194.168 129.885 194.168ZM129.885 193.048C130.566 193.048 131.094 192.805 131.467 192.32C131.85 191.825 132.041 191.149 132.041 190.29C132.041 189.431 131.85 188.759 131.467 188.274C131.094 187.779 130.566 187.532 129.885 187.532C129.204 187.532 128.672 187.779 128.289 188.274C127.906 188.759 127.715 189.431 127.715 190.29C127.715 191.149 127.906 191.825 128.289 192.32C128.672 192.805 129.204 193.048 129.885 193.048ZM140.514 194.168C139.749 194.168 139.138 193.991 138.68 193.636C138.232 193.281 138.008 192.787 138.008 192.152C138.008 191.517 138.195 191.018 138.568 190.654C138.942 190.29 139.534 190.033 140.346 189.884L142.978 189.394C142.978 188.769 142.829 188.302 142.53 187.994C142.241 187.686 141.802 187.532 141.214 187.532C140.701 187.532 140.295 187.649 139.996 187.882C139.698 188.106 139.492 188.433 139.38 188.862L138.134 188.764C138.274 188.064 138.61 187.499 139.142 187.07C139.684 186.631 140.374 186.412 141.214 186.412C142.166 186.412 142.894 186.683 143.398 187.224C143.902 187.756 144.154 188.493 144.154 189.436V192.502C144.154 192.67 144.182 192.791 144.238 192.866C144.304 192.931 144.406 192.964 144.546 192.964H144.84V194C144.803 194.009 144.742 194.014 144.658 194.014C144.574 194.023 144.486 194.028 144.392 194.028C144.056 194.028 143.781 193.977 143.566 193.874C143.361 193.762 143.212 193.594 143.118 193.37C143.025 193.137 142.978 192.833 142.978 192.46L143.118 192.488C143.053 192.805 142.894 193.095 142.642 193.356C142.39 193.608 142.078 193.809 141.704 193.958C141.331 194.098 140.934 194.168 140.514 194.168ZM140.626 193.132C141.121 193.132 141.541 193.039 141.886 192.852C142.241 192.656 142.512 192.395 142.698 192.068C142.885 191.732 142.978 191.359 142.978 190.948V190.416L140.57 190.864C140.066 190.957 139.716 191.102 139.52 191.298C139.334 191.485 139.24 191.732 139.24 192.04C139.24 192.385 139.362 192.656 139.604 192.852C139.856 193.039 140.197 193.132 140.626 193.132ZM42.4487 212.168C41.786 212.168 41.2214 212.061 40.7547 211.846C40.2974 211.631 39.938 211.337 39.6767 210.964C39.4247 210.581 39.28 210.147 39.2427 209.662L40.4747 209.578C40.5494 210.026 40.7407 210.385 41.0487 210.656C41.3567 210.917 41.8234 211.048 42.4487 211.048C42.9527 211.048 43.354 210.969 43.6527 210.81C43.9607 210.642 44.1147 210.376 44.1147 210.012C44.1147 209.816 44.068 209.653 43.9747 209.522C43.8814 209.391 43.6994 209.279 43.4287 209.186C43.158 209.083 42.7567 208.985 42.2247 208.892C41.5154 208.761 40.9554 208.603 40.5447 208.416C40.1434 208.22 39.854 207.982 39.6767 207.702C39.5087 207.413 39.4247 207.072 39.4247 206.68C39.4247 206.017 39.6674 205.476 40.1527 205.056C40.638 204.627 41.3287 204.412 42.2247 204.412C42.8314 204.412 43.34 204.524 43.7507 204.748C44.1707 204.963 44.4974 205.252 44.7307 205.616C44.9734 205.971 45.132 206.363 45.2067 206.792L43.9747 206.876C43.9187 206.615 43.816 206.386 43.6667 206.19C43.5174 205.985 43.3214 205.826 43.0787 205.714C42.836 205.593 42.5467 205.532 42.2107 205.532C41.6787 205.532 41.2867 205.635 41.0347 205.84C40.7827 206.045 40.6567 206.307 40.6567 206.624C40.6567 206.867 40.7127 207.067 40.8247 207.226C40.946 207.375 41.1374 207.501 41.3987 207.604C41.66 207.697 42.01 207.781 42.4487 207.856C43.2047 207.987 43.7927 208.145 44.2127 208.332C44.6327 208.519 44.9267 208.747 45.0947 209.018C45.2627 209.289 45.3467 209.62 45.3467 210.012C45.3467 210.469 45.216 210.861 44.9547 211.188C44.7027 211.505 44.3574 211.748 43.9187 211.916C43.4894 212.084 42.9994 212.168 42.4487 212.168ZM49.8498 212.168C49.1498 212.168 48.5431 212.009 48.0298 211.692C47.5258 211.375 47.1338 210.927 46.8538 210.348C46.5831 209.76 46.4478 209.074 46.4478 208.29C46.4478 207.506 46.5831 206.825 46.8538 206.246C47.1338 205.667 47.5211 205.219 48.0158 204.902C48.5198 204.575 49.1125 204.412 49.7938 204.412C50.4378 204.412 51.0071 204.566 51.5018 204.874C51.9965 205.173 52.3791 205.611 52.6498 206.19C52.9298 206.769 53.0698 207.473 53.0698 208.304V208.654H47.6798C47.7265 209.447 47.9365 210.045 48.3098 210.446C48.6925 210.847 49.2058 211.048 49.8498 211.048C50.3351 211.048 50.7318 210.936 51.0398 210.712C51.3571 210.479 51.5765 210.175 51.6978 209.802L52.9578 209.9C52.7618 210.563 52.3885 211.109 51.8378 211.538C51.2965 211.958 50.6338 212.168 49.8498 212.168ZM47.6798 207.618H51.7818C51.7258 206.899 51.5158 206.372 51.1518 206.036C50.7971 205.7 50.3445 205.532 49.7938 205.532C49.2245 205.532 48.7531 205.709 48.3798 206.064C48.0158 206.409 47.7825 206.927 47.6798 207.618ZM56.8561 212.168C56.0908 212.168 55.4795 211.991 55.0221 211.636C54.5741 211.281 54.3501 210.787 54.3501 210.152C54.3501 209.517 54.5368 209.018 54.9101 208.654C55.2835 208.29 55.8761 208.033 56.6881 207.884L59.3201 207.394C59.3201 206.769 59.1708 206.302 58.8721 205.994C58.5828 205.686 58.1441 205.532 57.5561 205.532C57.0428 205.532 56.6368 205.649 56.3381 205.882C56.0395 206.106 55.8341 206.433 55.7221 206.862L54.4761 206.764C54.6161 206.064 54.9521 205.499 55.4841 205.07C56.0255 204.631 56.7161 204.412 57.5561 204.412C58.5081 204.412 59.2361 204.683 59.7401 205.224C60.2441 205.756 60.4961 206.493 60.4961 207.436V210.502C60.4961 210.67 60.5241 210.791 60.5801 210.866C60.6455 210.931 60.7481 210.964 60.8881 210.964H61.1821V212C61.1448 212.009 61.0841 212.014 61.0001 212.014C60.9161 212.023 60.8275 212.028 60.7341 212.028C60.3981 212.028 60.1228 211.977 59.9081 211.874C59.7028 211.762 59.5535 211.594 59.4601 211.37C59.3668 211.137 59.3201 210.833 59.3201 210.46L59.4601 210.488C59.3948 210.805 59.2361 211.095 58.9841 211.356C58.7321 211.608 58.4195 211.809 58.0461 211.958C57.6728 212.098 57.2761 212.168 56.8561 212.168ZM56.9681 211.132C57.4628 211.132 57.8828 211.039 58.2281 210.852C58.5828 210.656 58.8535 210.395 59.0401 210.068C59.2268 209.732 59.3201 209.359 59.3201 208.948V208.416L56.9121 208.864C56.4081 208.957 56.0581 209.102 55.8621 209.298C55.6755 209.485 55.5821 209.732 55.5821 210.04C55.5821 210.385 55.7035 210.656 55.9461 210.852C56.1981 211.039 56.5388 211.132 56.9681 211.132ZM62.5104 212V204.58H63.5464L63.6024 206.456L63.4904 206.414C63.5837 205.779 63.7844 205.317 64.0924 205.028C64.4097 204.729 64.8297 204.58 65.3524 204.58H66.0804V205.7H65.3664C64.993 205.7 64.6804 205.77 64.4284 205.91C64.1857 206.041 63.999 206.241 63.8684 206.512C63.747 206.773 63.6864 207.109 63.6864 207.52V212H62.5104ZM70.1525 212.168C69.4619 212.168 68.8599 212.009 68.3465 211.692C67.8425 211.375 67.4505 210.927 67.1705 210.348C66.8905 209.76 66.7505 209.074 66.7505 208.29C66.7505 207.506 66.8905 206.825 67.1705 206.246C67.4505 205.667 67.8425 205.219 68.3465 204.902C68.8599 204.575 69.4619 204.412 70.1525 204.412C70.7219 204.412 71.2259 204.515 71.6645 204.72C72.1125 204.916 72.4765 205.205 72.7565 205.588C73.0365 205.971 73.2185 206.437 73.3025 206.988L72.0705 207.072C71.9865 206.577 71.7719 206.199 71.4265 205.938C71.0812 205.667 70.6565 205.532 70.1525 205.532C69.4712 205.532 68.9392 205.779 68.5565 206.274C68.1739 206.759 67.9825 207.431 67.9825 208.29C67.9825 209.149 68.1739 209.825 68.5565 210.32C68.9392 210.805 69.4712 211.048 70.1525 211.048C70.6565 211.048 71.0812 210.908 71.4265 210.628C71.7719 210.348 71.9865 209.928 72.0705 209.368L73.3025 209.452C73.2185 210.003 73.0365 210.483 72.7565 210.894C72.4765 211.295 72.1125 211.608 71.6645 211.832C71.2259 212.056 70.7219 212.168 70.1525 212.168ZM74.7604 212V202.06H75.9364V206.218L75.7964 206.19C75.8897 205.779 76.0484 205.443 76.2724 205.182C76.4964 204.921 76.7717 204.729 77.0984 204.608C77.425 204.477 77.7844 204.412 78.1764 204.412C78.7084 204.412 79.1564 204.533 79.5204 204.776C79.8937 205.009 80.1737 205.341 80.3604 205.77C80.5564 206.19 80.6544 206.675 80.6544 207.226V212H79.4784V207.562C79.4784 206.843 79.3477 206.311 79.0864 205.966C78.8344 205.621 78.447 205.448 77.9244 205.448C77.327 205.448 76.8464 205.63 76.4824 205.994C76.1184 206.358 75.9364 206.885 75.9364 207.576V212H74.7604ZM84.7604 212.168C83.9951 212.168 83.3838 211.991 82.9264 211.636C82.4784 211.281 82.2544 210.787 82.2544 210.152C82.2544 209.517 82.4411 209.018 82.8144 208.654C83.1878 208.29 83.7804 208.033 84.5924 207.884L87.2244 207.394C87.2244 206.769 87.0751 206.302 86.7764 205.994C86.4871 205.686 86.0484 205.532 85.4604 205.532C84.9471 205.532 84.5411 205.649 84.2424 205.882C83.9438 206.106 83.7384 206.433 83.6264 206.862L82.3804 206.764C82.5204 206.064 82.8564 205.499 83.3884 205.07C83.9298 204.631 84.6204 204.412 85.4604 204.412C86.4124 204.412 87.1404 204.683 87.6444 205.224C88.1484 205.756 88.4004 206.493 88.4004 207.436V210.502C88.4004 210.67 88.4284 210.791 88.4844 210.866C88.5498 210.931 88.6524 210.964 88.7924 210.964H89.0864V212C89.0491 212.009 88.9884 212.014 88.9044 212.014C88.8204 212.023 88.7318 212.028 88.6384 212.028C88.3024 212.028 88.0271 211.977 87.8124 211.874C87.6071 211.762 87.4578 211.594 87.3644 211.37C87.2711 211.137 87.2244 210.833 87.2244 210.46L87.3644 210.488C87.2991 210.805 87.1404 211.095 86.8884 211.356C86.6364 211.608 86.3238 211.809 85.9504 211.958C85.5771 212.098 85.1804 212.168 84.7604 212.168ZM84.8724 211.132C85.3671 211.132 85.7871 211.039 86.1324 210.852C86.4871 210.656 86.7578 210.395 86.9444 210.068C87.1311 209.732 87.2244 209.359 87.2244 208.948V208.416L84.8164 208.864C84.3124 208.957 83.9624 209.102 83.7664 209.298C83.5798 209.485 83.4864 209.732 83.4864 210.04C83.4864 210.385 83.6078 210.656 83.8504 210.852C84.1024 211.039 84.4431 211.132 84.8724 211.132ZM93.762 212.168C93.2487 212.168 92.7913 212.056 92.39 211.832C91.9887 211.599 91.6807 211.281 91.466 210.88L91.424 212H90.36V202.06H91.536V205.616C91.7227 205.308 92.012 205.033 92.404 204.79C92.796 204.538 93.2487 204.412 93.762 204.412C94.4153 204.412 94.98 204.571 95.456 204.888C95.932 205.205 96.3007 205.653 96.562 206.232C96.8233 206.811 96.954 207.497 96.954 208.29C96.954 209.083 96.8233 209.769 96.562 210.348C96.3007 210.927 95.932 211.375 95.456 211.692C94.98 212.009 94.4153 212.168 93.762 212.168ZM93.692 211.048C94.3173 211.048 94.812 210.801 95.176 210.306C95.54 209.811 95.722 209.139 95.722 208.29C95.722 207.431 95.54 206.759 95.176 206.274C94.812 205.779 94.3267 205.532 93.72 205.532C93.2627 205.532 92.8707 205.644 92.544 205.868C92.2173 206.083 91.9653 206.395 91.788 206.806C91.62 207.217 91.536 207.711 91.536 208.29C91.536 208.85 91.62 209.34 91.788 209.76C91.9653 210.171 92.2127 210.488 92.53 210.712C92.8567 210.936 93.244 211.048 93.692 211.048ZM100.074 212C99.6445 212 99.2945 211.888 99.0238 211.664C98.7531 211.44 98.6178 211.085 98.6178 210.6V202.06H99.7938V210.502C99.7938 210.651 99.8311 210.768 99.9058 210.852C99.9898 210.927 100.106 210.964 100.256 210.964H100.9V212H100.074ZM105.166 212.168C104.466 212.168 103.86 212.009 103.346 211.692C102.842 211.375 102.45 210.927 102.17 210.348C101.9 209.76 101.764 209.074 101.764 208.29C101.764 207.506 101.9 206.825 102.17 206.246C102.45 205.667 102.838 205.219 103.332 204.902C103.836 204.575 104.429 204.412 105.11 204.412C105.754 204.412 106.324 204.566 106.818 204.874C107.313 205.173 107.696 205.611 107.966 206.19C108.246 206.769 108.386 207.473 108.386 208.304V208.654H102.996C103.043 209.447 103.253 210.045 103.626 210.446C104.009 210.847 104.522 211.048 105.166 211.048C105.652 211.048 106.048 210.936 106.356 210.712C106.674 210.479 106.893 210.175 107.014 209.802L108.274 209.9C108.078 210.563 107.705 211.109 107.154 211.538C106.613 211.958 105.95 212.168 105.166 212.168ZM102.996 207.618H107.098C107.042 206.899 106.832 206.372 106.468 206.036C106.114 205.7 105.661 205.532 105.11 205.532C104.541 205.532 104.07 205.709 103.696 206.064C103.332 206.409 103.099 206.927 102.996 207.618ZM115.072 212C114.643 212 114.293 211.888 114.022 211.664C113.751 211.44 113.616 211.085 113.616 210.6V202.06H114.792V210.502C114.792 210.651 114.829 210.768 114.904 210.852C114.988 210.927 115.105 210.964 115.254 210.964H115.898V212H115.072ZM117.239 212V204.58H118.415V212H117.239ZM117.211 203.418V202.046H118.443V203.418H117.211ZM123.222 212.168C122.559 212.168 121.995 212.061 121.528 211.846C121.071 211.631 120.711 211.337 120.45 210.964C120.198 210.581 120.053 210.147 120.016 209.662L121.248 209.578C121.323 210.026 121.514 210.385 121.822 210.656C122.13 210.917 122.597 211.048 123.222 211.048C123.726 211.048 124.127 210.969 124.426 210.81C124.734 210.642 124.888 210.376 124.888 210.012C124.888 209.816 124.841 209.653 124.748 209.522C124.655 209.391 124.473 209.279 124.202 209.186C123.931 209.083 123.53 208.985 122.998 208.892C122.289 208.761 121.729 208.603 121.318 208.416C120.917 208.22 120.627 207.982 120.45 207.702C120.282 207.413 120.198 207.072 120.198 206.68C120.198 206.017 120.441 205.476 120.926 205.056C121.411 204.627 122.102 204.412 122.998 204.412C123.605 204.412 124.113 204.524 124.524 204.748C124.944 204.963 125.271 205.252 125.504 205.616C125.747 205.971 125.905 206.363 125.98 206.792L124.748 206.876C124.692 206.615 124.589 206.386 124.44 206.19C124.291 205.985 124.095 205.826 123.852 205.714C123.609 205.593 123.32 205.532 122.984 205.532C122.452 205.532 122.06 205.635 121.808 205.84C121.556 206.045 121.43 206.307 121.43 206.624C121.43 206.867 121.486 207.067 121.598 207.226C121.719 207.375 121.911 207.501 122.172 207.604C122.433 207.697 122.783 207.781 123.222 207.856C123.978 207.987 124.566 208.145 124.986 208.332C125.406 208.519 125.7 208.747 125.868 209.018C126.036 209.289 126.12 209.62 126.12 210.012C126.12 210.469 125.989 210.861 125.728 211.188C125.476 211.505 125.131 211.748 124.692 211.916C124.263 212.084 123.773 212.168 123.222 212.168ZM130.154 212C129.482 212 128.983 211.846 128.656 211.538C128.339 211.23 128.18 210.749 128.18 210.096V202.844H129.356V210.068C129.356 210.404 129.431 210.637 129.58 210.768C129.729 210.899 129.958 210.964 130.266 210.964H131.33V212H130.154ZM127.088 205.616V204.58H131.33V205.616H127.088ZM132.839 212V204.58H134.015V212H132.839ZM132.811 203.418V202.046H134.043V203.418H132.811ZM136.393 212V204.58H137.471L137.513 206.47L137.373 206.344C137.467 205.905 137.63 205.546 137.863 205.266C138.097 204.977 138.377 204.762 138.703 204.622C139.039 204.482 139.399 204.412 139.781 204.412C140.351 204.412 140.817 204.538 141.181 204.79C141.555 205.042 141.83 205.383 142.007 205.812C142.194 206.232 142.287 206.703 142.287 207.226V212H141.111V207.562C141.111 207.105 141.055 206.722 140.943 206.414C140.841 206.097 140.673 205.859 140.439 205.7C140.206 205.532 139.903 205.448 139.529 205.448C138.96 205.448 138.489 205.63 138.115 205.994C137.751 206.349 137.569 206.871 137.569 207.562V212H136.393ZM147.178 214.268C146.646 214.268 146.165 214.179 145.736 214.002C145.307 213.825 144.947 213.573 144.658 213.246C144.369 212.919 144.173 212.541 144.07 212.112L145.302 212.028C145.414 212.373 145.61 212.644 145.89 212.84C146.179 213.045 146.609 213.148 147.178 213.148C147.85 213.148 148.363 213.013 148.718 212.742C149.082 212.471 149.264 212.065 149.264 211.524V210.32C149.087 210.712 148.802 211.025 148.41 211.258C148.018 211.491 147.579 211.608 147.094 211.608C146.469 211.608 145.909 211.454 145.414 211.146C144.929 210.838 144.546 210.413 144.266 209.872C143.995 209.331 143.86 208.71 143.86 208.01C143.86 207.301 143.995 206.68 144.266 206.148C144.537 205.607 144.91 205.182 145.386 204.874C145.871 204.566 146.422 204.412 147.038 204.412C147.561 204.412 148.027 204.533 148.438 204.776C148.858 205.019 149.152 205.345 149.32 205.756V204.58H150.44V211.496C150.44 212.075 150.309 212.569 150.048 212.98C149.787 213.4 149.413 213.717 148.928 213.932C148.443 214.156 147.859 214.268 147.178 214.268ZM147.15 210.488C147.785 210.488 148.293 210.269 148.676 209.83C149.059 209.382 149.255 208.775 149.264 208.01C149.273 207.497 149.189 207.058 149.012 206.694C148.844 206.321 148.597 206.036 148.27 205.84C147.953 205.635 147.579 205.532 147.15 205.532C146.497 205.532 145.988 205.756 145.624 206.204C145.269 206.643 145.092 207.245 145.092 208.01C145.092 208.775 145.274 209.382 145.638 209.83C146.011 210.269 146.515 210.488 147.15 210.488ZM152.172 212V210.418H153.754V212H152.172Z" fill="black"/>
<path d="M7.99976 99H185" stroke="url(#paint16_linear_181_725)"/>
<g filter="url(#filter10_d_181_725)">
<rect x="82.9998" y="226" width="28" height="28" rx="10" fill="#1BC969" shape-rendering="crispEdges"/>
<rect x="82.9998" y="226" width="28" height="28" rx="10" stroke="white" stroke-width="2" shape-rendering="crispEdges"/>
<path d="M93.4166 245C93.4166 244.253 93.5286 243.586 93.7526 242.998C93.9766 242.41 94.3592 241.864 94.9006 241.36C95.4419 240.856 96.1886 240.352 97.1406 239.848C97.5979 239.615 97.9619 239.4 98.2326 239.204C98.5126 238.999 98.7132 238.789 98.8346 238.574C98.9559 238.359 99.0166 238.098 99.0166 237.79C99.0166 237.473 98.9466 237.202 98.8066 236.978C98.6759 236.745 98.4799 236.563 98.2186 236.432C97.9572 236.292 97.6259 236.222 97.2246 236.222C96.5899 236.222 96.0859 236.395 95.7126 236.74C95.3486 237.076 95.1199 237.561 95.0266 238.196L93.4586 238.098C93.5706 237.099 93.9486 236.306 94.5926 235.718C95.2459 235.13 96.1232 234.836 97.2246 234.836C97.9339 234.836 98.5359 234.962 99.0306 235.214C99.5346 235.457 99.9172 235.797 100.179 236.236C100.449 236.675 100.585 237.183 100.585 237.762C100.585 238.266 100.501 238.7 100.333 239.064C100.165 239.428 99.8846 239.769 99.4926 240.086C99.1006 240.394 98.5686 240.725 97.8966 241.08C97.0379 241.537 96.3892 241.99 95.9506 242.438C95.5119 242.877 95.2786 243.269 95.2506 243.614H100.585V245H93.4166Z" fill="white"/>
</g>
<defs>
<filter id="filter0_d_181_725" x="-0.000244141" y="0" width="193" height="244" filterUnits="userSpaceOnUse" color-interpolation-filters="sRGB">
<feFlood flood-opacity="0" result="BackgroundImageFix"/>
<feColorMatrix in="SourceAlpha" type="matrix" values="0 0 0 0 0 0 0 0 0 0 0 0 0 0 0 0 0 0 127 0" result="hardAlpha"/>
<feOffset dy="4"/>
<feGaussianBlur stdDeviation="4"/>
<feComposite in2="hardAlpha" operator="out"/>
<feColorMatrix type="matrix" values="0 0 0 0 0 0 0 0 0 0 0 0 0 0 0 0 0 0 0.07 0"/>
<feBlend mode="normal" in2="BackgroundImageFix" result="effect1_dropShadow_181_725"/>
<feBlend mode="normal" in="SourceGraphic" in2="effect1_dropShadow_181_725" result="shape"/>
</filter>
<filter id="filter1_f_181_725" x="44.9197" y="55.3604" width="105.84" height="41.9999" filterUnits="userSpaceOnUse" color-interpolation-filters="sRGB">
<feFlood flood-opacity="0" result="BackgroundImageFix"/>
<feBlend mode="normal" in="SourceGraphic" in2="BackgroundImageFix" result="shape"/>
<feGaussianBlur stdDeviation="2.52" result="effect1_foregroundBlur_181_725"/>
</filter>
<filter id="filter2_d_181_725" x="44.9802" y="57.9745" width="105.719" height="41.879" filterUnits="userSpaceOnUse" color-interpolation-filters="sRGB">
<feFlood flood-opacity="0" result="BackgroundImageFix"/>
<feColorMatrix in="SourceAlpha" type="matrix" values="0 0 0 0 0 0 0 0 0 0 0 0 0 0 0 0 0 0 127 0" result="hardAlpha"/>
<feOffset dy="2.5536"/>
<feGaussianBlur stdDeviation="2.48976"/>
<feComposite in2="hardAlpha" operator="out"/>
<feColorMatrix type="matrix" values="0 0 0 0 0 0 0 0 0 0 0 0 0 0 0 0 0 0 0.1 0"/>
<feBlend mode="normal" in2="BackgroundImageFix" result="effect1_dropShadow_181_725"/>
<feBlend mode="normal" in="SourceGraphic" in2="effect1_dropShadow_181_725" result="shape"/>
</filter>
<filter id="filter3_f_181_725" x="41.1397" y="46.5403" width="113.4" height="39.48" filterUnits="userSpaceOnUse" color-interpolation-filters="sRGB">
<feFlood flood-opacity="0" result="BackgroundImageFix"/>
<feBlend mode="normal" in="SourceGraphic" in2="BackgroundImageFix" result="shape"/>
<feGaussianBlur stdDeviation="0.63" result="effect1_foregroundBlur_181_725"/>
</filter>
<filter id="filter4_d_181_725" x="36.6339" y="44.9913" width="122.411" height="48.4915" filterUnits="userSpaceOnUse" color-interpolation-filters="sRGB">
<feFlood flood-opacity="0" result="BackgroundImageFix"/>
<feColorMatrix in="SourceAlpha" type="matrix" values="0 0 0 0 0 0 0 0 0 0 0 0 0 0 0 0 0 0 127 0" result="hardAlpha"/>
<feOffset dy="2.9568"/>
<feGaussianBlur stdDeviation="2.88288"/>
<feComposite in2="hardAlpha" operator="out"/>
<feColorMatrix type="matrix" values="0 0 0 0 0 0 0 0 0 0 0 0 0 0 0 0 0 0 0.1 0"/>
<feBlend mode="normal" in2="BackgroundImageFix" result="effect1_dropShadow_181_725"/>
<feBlend mode="normal" in="SourceGraphic" in2="effect1_dropShadow_181_725" result="shape"/>
</filter>
<filter id="filter5_f_181_725" x="44.9197" y="6.64018" width="105.84" height="41.9999" filterUnits="userSpaceOnUse" color-interpolation-filters="sRGB">
<feFlood flood-opacity="0" result="BackgroundImageFix"/>
<feBlend mode="normal" in="SourceGraphic" in2="BackgroundImageFix" result="shape"/>
<feGaussianBlur stdDeviation="2.52" result="effect1_foregroundBlur_181_725"/>
</filter>
<filter id="filter6_d_181_725" x="44.9802" y="9.25426" width="105.719" height="41.879" filterUnits="userSpaceOnUse" color-interpolation-filters="sRGB">
<feFlood flood-opacity="0" result="BackgroundImageFix"/>
<feColorMatrix in="SourceAlpha" type="matrix" values="0 0 0 0 0 0 0 0 0 0 0 0 0 0 0 0 0 0 127 0" result="hardAlpha"/>
<feOffset dy="2.5536"/>
<feGaussianBlur stdDeviation="2.48976"/>
<feComposite in2="hardAlpha" operator="out"/>
<feColorMatrix type="matrix" values="0 0 0 0 0 0 0 0 0 0 0 0 0 0 0 0 0 0 0.1 0"/>
<feBlend mode="normal" in2="BackgroundImageFix" result="effect1_dropShadow_181_725"/>
<feBlend mode="normal" in="SourceGraphic" in2="effect1_dropShadow_181_725" result="shape"/>
</filter>
<filter id="filter7_f_181_725" x="41.1397" y="17.9802" width="113.4" height="39.48" filterUnits="userSpaceOnUse" color-interpolation-filters="sRGB">
<feFlood flood-opacity="0" result="BackgroundImageFix"/>
<feBlend mode="normal" in="SourceGraphic" in2="BackgroundImageFix" result="shape"/>
<feGaussianBlur stdDeviation="0.63" result="effect1_foregroundBlur_181_725"/>
</filter>
<filter id="filter8_d_181_725" x="36.6339" y="16.4313" width="122.411" height="48.4915" filterUnits="userSpaceOnUse" color-interpolation-filters="sRGB">
<feFlood flood-opacity="0" result="BackgroundImageFix"/>
<feColorMatrix in="SourceAlpha" type="matrix" values="0 0 0 0 0 0 0 0 0 0 0 0 0 0 0 0 0 0 127 0" result="hardAlpha"/>
<feOffset dy="2.9568"/>
<feGaussianBlur stdDeviation="2.88288"/>
<feComposite in2="hardAlpha" operator="out"/>
<feColorMatrix type="matrix" values="0 0 0 0 0 0 0 0 0 0 0 0 0 0 0 0 0 0 0.1 0"/>
<feBlend mode="normal" in2="BackgroundImageFix" result="effect1_dropShadow_181_725"/>
<feBlend mode="normal" in="SourceGraphic" in2="effect1_dropShadow_181_725" result="shape"/>
</filter>
<filter id="filter9_d_181_725" x="27.4478" y="27.808" width="139.104" height="55.104" filterUnits="userSpaceOnUse" color-interpolation-filters="sRGB">
<feFlood flood-opacity="0" result="BackgroundImageFix"/>
<feColorMatrix in="SourceAlpha" type="matrix" values="0 0 0 0 0 0 0 0 0 0 0 0 0 0 0 0 0 0 127 0" result="hardAlpha"/>
<feOffset dy="3.36"/>
<feGaussianBlur stdDeviation="3.276"/>
<feComposite in2="hardAlpha" operator="out"/>
<feColorMatrix type="matrix" values="0 0 0 0 0 0 0 0 0 0 0 0 0 0 0 0 0 0 0.1 0"/>
<feBlend mode="normal" in2="BackgroundImageFix" result="effect1_dropShadow_181_725"/>
<feBlend mode="normal" in="SourceGraphic" in2="effect1_dropShadow_181_725" result="shape"/>
</filter>
<filter id="filter10_d_181_725" x="77.9998" y="222" width="38" height="38" filterUnits="userSpaceOnUse" color-interpolation-filters="sRGB">
<feFlood flood-opacity="0" result="BackgroundImageFix"/>
<feColorMatrix in="SourceAlpha" type="matrix" values="0 0 0 0 0 0 0 0 0 0 0 0 0 0 0 0 0 0 127 0" result="hardAlpha"/>
<feOffset dy="1"/>
<feGaussianBlur stdDeviation="2"/>
<feComposite in2="hardAlpha" operator="out"/>
<feColorMatrix type="matrix" values="0 0 0 0 0 0 0 0 0 0 0 0 0 0 0 0 0 0 0.15 0"/>
<feBlend mode="normal" in2="BackgroundImageFix" result="effect1_dropShadow_181_725"/>
<feBlend mode="normal" in="SourceGraphic" in2="effect1_dropShadow_181_725" result="shape"/>
</filter>
<linearGradient id="paint0_linear_181_725" x1="185" y1="99" x2="7.99976" y2="4" gradientUnits="userSpaceOnUse">
<stop stop-color="#2BD06E" stop-opacity="0.2"/>
<stop offset="1" stop-color="#2BD06E" stop-opacity="0"/>
</linearGradient>
<linearGradient id="paint1_linear_181_725" x1="80.603" y1="66.4654" x2="120.184" y2="66.4654" gradientUnits="userSpaceOnUse">
<stop stop-color="#86D8A7"/>
<stop offset="1" stop-color="#B8EECE"/>
</linearGradient>
<linearGradient id="paint2_linear_181_725" x1="80.603" y1="71.2534" x2="97.2014" y2="71.2534" gradientUnits="userSpaceOnUse">
<stop stop-color="#86D8A7"/>
<stop offset="1" stop-color="#B8EECE"/>
</linearGradient>
<linearGradient id="paint3_linear_181_725" x1="80.603" y1="79.5522" x2="94.1408" y2="83.0689" gradientUnits="userSpaceOnUse">
<stop stop-color="#86D8A7"/>
<stop offset="1" stop-color="#B8EECE"/>
</linearGradient>
<linearGradient id="paint4_linear_181_725" x1="77.8813" y1="54.8226" x2="123.712" y2="54.8226" gradientUnits="userSpaceOnUse">
<stop stop-color="#86D8A7"/>
<stop offset="1" stop-color="#B8EECE"/>
</linearGradient>
<linearGradient id="paint5_linear_181_725" x1="77.8813" y1="60.3666" x2="97.1005" y2="60.3666" gradientUnits="userSpaceOnUse">
<stop stop-color="#86D8A7"/>
<stop offset="1" stop-color="#B8EECE"/>
</linearGradient>
<linearGradient id="paint6_linear_181_725" x1="77.8813" y1="69.9766" x2="93.5567" y2="74.0485" gradientUnits="userSpaceOnUse">
<stop stop-color="#86D8A7"/>
<stop offset="1" stop-color="#B8EECE"/>
</linearGradient>
<linearGradient id="paint7_linear_181_725" x1="80.603" y1="17.7451" x2="120.184" y2="17.7451" gradientUnits="userSpaceOnUse">
<stop stop-color="#86D8A7"/>
<stop offset="1" stop-color="#B8EECE"/>
</linearGradient>
<linearGradient id="paint8_linear_181_725" x1="80.603" y1="22.5331" x2="97.2014" y2="22.5331" gradientUnits="userSpaceOnUse">
<stop stop-color="#86D8A7"/>
<stop offset="1" stop-color="#B8EECE"/>
</linearGradient>
<linearGradient id="paint9_linear_181_725" x1="80.603" y1="30.832" x2="94.1408" y2="34.3487" gradientUnits="userSpaceOnUse">
<stop stop-color="#86D8A7"/>
<stop offset="1" stop-color="#B8EECE"/>
</linearGradient>
<linearGradient id="paint10_linear_181_725" x1="77.8813" y1="26.2625" x2="123.712" y2="26.2625" gradientUnits="userSpaceOnUse">
<stop stop-color="#86D8A7"/>
<stop offset="1" stop-color="#B8EECE"/>
</linearGradient>
<linearGradient id="paint11_linear_181_725" x1="77.8813" y1="31.8065" x2="97.1005" y2="31.8065" gradientUnits="userSpaceOnUse">
<stop stop-color="#86D8A7"/>
<stop offset="1" stop-color="#B8EECE"/>
</linearGradient>
<linearGradient id="paint12_linear_181_725" x1="77.8813" y1="41.4165" x2="93.5567" y2="45.4884" gradientUnits="userSpaceOnUse">
<stop stop-color="#86D8A7"/>
<stop offset="1" stop-color="#B8EECE"/>
</linearGradient>
<linearGradient id="paint13_linear_181_725" x1="74.3198" y1="38.98" x2="121.36" y2="38.98" gradientUnits="userSpaceOnUse">
<stop stop-color="#86D8A7"/>
<stop offset="1" stop-color="#B8EECE"/>
</linearGradient>
<linearGradient id="paint14_linear_181_725" x1="74.3198" y1="45.2801" x2="139" y2="45.2801" gradientUnits="userSpaceOnUse">
<stop stop-color="#86D8A7"/>
<stop offset="1" stop-color="#B8EECE"/>
</linearGradient>
<linearGradient id="paint15_linear_181_725" x1="74.3198" y1="56.2002" x2="101.2" y2="67.9602" gradientUnits="userSpaceOnUse">
<stop stop-color="#86D8A7"/>
<stop offset="1" stop-color="#B8EECE"/>
</linearGradient>
<linearGradient id="paint16_linear_181_725" x1="7.99976" y1="99.5" x2="185" y2="99.5" gradientUnits="userSpaceOnUse">
<stop stop-color="#B1F4CB" stop-opacity="0.7"/>
<stop offset="1" stop-color="#B1F4CB" stop-opacity="0.5"/>
</linearGradient>
</defs>
</svg>
