<svg width="193" height="260" viewBox="0 0 193 260" fill="none" xmlns="http://www.w3.org/2000/svg">
<g filter="url(#filter0_d_181_726)">
<rect x="7.99976" y="4" width="177" height="227" rx="12" fill="white"/>
</g>
<path d="M7.99976 16C7.99976 9.37258 13.3723 4 19.9998 4H173C179.627 4 185 9.37258 185 16V99H7.99976V16Z" fill="url(#paint0_linear_181_726)"/>
<g opacity="0.1">
<circle cx="9.3691" cy="5.36885" r="1.36885" fill="#15C865"/>
<circle cx="23.0576" cy="5.36885" r="1.36885" fill="#15C865"/>
<circle cx="36.7463" cy="5.36885" r="1.36885" fill="#15C865"/>
<circle cx="50.4348" cy="5.36885" r="1.36885" fill="#15C865"/>
<circle cx="64.123" cy="5.36885" r="1.36885" fill="#15C865"/>
<circle cx="77.8117" cy="5.36885" r="1.36885" fill="#15C865"/>
<circle cx="91.5002" cy="5.36885" r="1.36885" fill="#15C865"/>
<circle cx="105.189" cy="5.36885" r="1.36885" fill="#15C865"/>
<circle cx="118.877" cy="5.36885" r="1.36885" fill="#15C865"/>
<circle cx="132.566" cy="5.36885" r="1.36885" fill="#15C865"/>
<circle cx="146.255" cy="5.36885" r="1.36885" fill="#15C865"/>
<circle cx="159.943" cy="5.36885" r="1.36885" fill="#15C865"/>
<circle cx="173.631" cy="5.36885" r="1.36885" fill="#15C865"/>
<circle cx="14.3691" cy="19.0573" r="1.36885" fill="#15C865"/>
<circle cx="28.0576" cy="19.0573" r="1.36885" fill="#15C865"/>
<circle cx="41.746" cy="19.0573" r="1.36885" fill="#15C865"/>
<circle cx="55.4348" cy="19.0573" r="1.36885" fill="#15C865"/>
<circle cx="69.1232" cy="19.0573" r="1.36885" fill="#15C865"/>
<circle cx="82.8117" cy="19.0573" r="1.36885" fill="#15C865"/>
<circle cx="96.5002" cy="19.0573" r="1.36885" fill="#15C865"/>
<circle cx="110.189" cy="19.0573" r="1.36885" fill="#15C865"/>
<circle cx="123.877" cy="19.0573" r="1.36885" fill="#15C865"/>
<circle cx="137.566" cy="19.0573" r="1.36885" fill="#15C865"/>
<circle cx="151.254" cy="19.0573" r="1.36885" fill="#15C865"/>
<circle cx="164.943" cy="19.0573" r="1.36885" fill="#15C865"/>
<circle cx="178.631" cy="19.0573" r="1.36885" fill="#15C865"/>
<circle cx="9.3691" cy="32.7458" r="1.36885" fill="#15C865"/>
<circle cx="23.0576" cy="32.7458" r="1.36885" fill="#15C865"/>
<circle cx="36.7463" cy="32.7458" r="1.36885" fill="#15C865"/>
<circle cx="50.4348" cy="32.7458" r="1.36885" fill="#15C865"/>
<circle cx="64.123" cy="32.7458" r="1.36885" fill="#15C865"/>
<circle cx="77.8117" cy="32.7458" r="1.36885" fill="#15C865"/>
<circle cx="91.5002" cy="32.7458" r="1.36885" fill="#15C865"/>
<circle cx="105.189" cy="32.7458" r="1.36885" fill="#15C865"/>
<circle cx="118.877" cy="32.7458" r="1.36885" fill="#15C865"/>
<circle cx="132.566" cy="32.7458" r="1.36885" fill="#15C865"/>
<circle cx="146.255" cy="32.7458" r="1.36885" fill="#15C865"/>
<circle cx="159.943" cy="32.7458" r="1.36885" fill="#15C865"/>
<circle cx="173.631" cy="32.7458" r="1.36885" fill="#15C865"/>
<circle cx="14.3691" cy="46.4343" r="1.36885" fill="#15C865"/>
<circle cx="28.0576" cy="46.4343" r="1.36885" fill="#15C865"/>
<circle cx="41.746" cy="46.4343" r="1.36885" fill="#15C865"/>
<circle cx="55.4348" cy="46.4343" r="1.36885" fill="#15C865"/>
<circle cx="69.1232" cy="46.4343" r="1.36885" fill="#15C865"/>
<circle cx="82.8117" cy="46.4343" r="1.36885" fill="#15C865"/>
<circle cx="96.5002" cy="46.4343" r="1.36885" fill="#15C865"/>
<circle cx="110.189" cy="46.4343" r="1.36885" fill="#15C865"/>
<circle cx="123.877" cy="46.4343" r="1.36885" fill="#15C865"/>
<circle cx="137.566" cy="46.4343" r="1.36885" fill="#15C865"/>
<circle cx="151.254" cy="46.4343" r="1.36885" fill="#15C865"/>
<circle cx="164.943" cy="46.4343" r="1.36885" fill="#15C865"/>
<circle cx="178.631" cy="46.4343" r="1.36885" fill="#15C865"/>
<circle cx="9.3691" cy="60.1228" r="1.36885" fill="#15C865"/>
<circle cx="23.0576" cy="60.1228" r="1.36885" fill="#15C865"/>
<circle cx="36.7463" cy="60.1228" r="1.36885" fill="#15C865"/>
<circle cx="50.4348" cy="60.1228" r="1.36885" fill="#15C865"/>
<circle cx="64.123" cy="60.1228" r="1.36885" fill="#15C865"/>
<circle cx="77.8117" cy="60.1228" r="1.36885" fill="#15C865"/>
<circle cx="91.5002" cy="60.1228" r="1.36885" fill="#15C865"/>
<circle cx="105.189" cy="60.1228" r="1.36885" fill="#15C865"/>
<circle cx="118.877" cy="60.1228" r="1.36885" fill="#15C865"/>
<circle cx="132.566" cy="60.1228" r="1.36885" fill="#15C865"/>
<circle cx="146.255" cy="60.1228" r="1.36885" fill="#15C865"/>
<circle cx="159.943" cy="60.1228" r="1.36885" fill="#15C865"/>
<circle cx="173.631" cy="60.1228" r="1.36885" fill="#15C865"/>
<circle cx="14.3691" cy="73.8112" r="1.36885" fill="#15C865"/>
<circle cx="28.0576" cy="73.8112" r="1.36885" fill="#15C865"/>
<circle cx="41.746" cy="73.8112" r="1.36885" fill="#15C865"/>
<circle cx="55.4348" cy="73.8112" r="1.36885" fill="#15C865"/>
<circle cx="69.1232" cy="73.8112" r="1.36885" fill="#15C865"/>
<circle cx="82.8117" cy="73.8112" r="1.36885" fill="#15C865"/>
<circle cx="96.5002" cy="73.8112" r="1.36885" fill="#15C865"/>
<circle cx="110.189" cy="73.8112" r="1.36885" fill="#15C865"/>
<circle cx="123.877" cy="73.8112" r="1.36885" fill="#15C865"/>
<circle cx="137.566" cy="73.8112" r="1.36885" fill="#15C865"/>
<circle cx="151.254" cy="73.8112" r="1.36885" fill="#15C865"/>
<circle cx="164.943" cy="73.8112" r="1.36885" fill="#15C865"/>
<circle cx="178.631" cy="73.8112" r="1.36885" fill="#15C865"/>
<circle cx="9.3691" cy="87.5002" r="1.36885" fill="#15C865"/>
<circle cx="23.0576" cy="87.5002" r="1.36885" fill="#15C865"/>
<circle cx="36.7463" cy="87.5002" r="1.36885" fill="#15C865"/>
<circle cx="50.4348" cy="87.5002" r="1.36885" fill="#15C865"/>
<circle cx="64.123" cy="87.5002" r="1.36885" fill="#15C865"/>
<circle cx="77.8117" cy="87.5002" r="1.36885" fill="#15C865"/>
<circle cx="91.5002" cy="87.5002" r="1.36885" fill="#15C865"/>
<circle cx="105.189" cy="87.5002" r="1.36885" fill="#15C865"/>
<circle cx="118.877" cy="87.5002" r="1.36885" fill="#15C865"/>
<circle cx="132.566" cy="87.5002" r="1.36885" fill="#15C865"/>
<circle cx="146.255" cy="87.5002" r="1.36885" fill="#15C865"/>
<circle cx="159.943" cy="87.5002" r="1.36885" fill="#15C865"/>
<circle cx="173.631" cy="87.5002" r="1.36885" fill="#15C865"/>
<circle cx="14.3691" cy="101.189" r="1.36885" fill="#15C865"/>
<circle cx="28.0576" cy="101.189" r="1.36885" fill="#15C865"/>
<circle cx="41.746" cy="101.189" r="1.36885" fill="#15C865"/>
<circle cx="55.4348" cy="101.189" r="1.36885" fill="#15C865"/>
<circle cx="69.1232" cy="101.189" r="1.36885" fill="#15C865"/>
<circle cx="82.8117" cy="101.189" r="1.36885" fill="#15C865"/>
<circle cx="96.5002" cy="101.189" r="1.36885" fill="#15C865"/>
<circle cx="110.189" cy="101.189" r="1.36885" fill="#15C865"/>
<circle cx="123.877" cy="101.189" r="1.36885" fill="#15C865"/>
<circle cx="137.566" cy="101.189" r="1.36885" fill="#15C865"/>
<circle cx="151.254" cy="101.189" r="1.36885" fill="#15C865"/>
<circle cx="164.943" cy="101.189" r="1.36885" fill="#15C865"/>
<circle cx="178.631" cy="101.189" r="1.36885" fill="#15C865"/>
</g>
<mask id="mask0_181_726" style="mask-type:alpha" maskUnits="userSpaceOnUse" x="8" y="4" width="177" height="96">
<path d="M8 16C8 9.37258 13.3726 4 20 4H173C179.627 4 185 9.37258 185 16V100H8V16Z" fill="#2BD06E"/>
</mask>
<g mask="url(#mask0_181_726)">
<path d="M92.4045 8.53467C93.9803 6.9256 96.57 6.9256 98.1458 8.53467L102.493 12.9741C103.062 13.5547 103.923 13.7381 104.679 13.439L110.456 11.1509C112.55 10.3219 114.916 11.3758 115.701 13.4868L117.867 19.311C118.151 20.0725 118.863 20.5895 119.675 20.6235L125.883 20.8833C128.133 20.9775 129.866 22.9031 129.725 25.1509L129.335 31.3521C129.284 32.163 129.725 32.9263 130.452 33.2876L136.018 36.0493C138.035 37.0507 138.836 39.5153 137.792 41.5112L134.913 47.0171C134.537 47.7371 134.629 48.6127 135.147 49.2388L139.108 54.0269C140.543 55.7622 140.272 58.3389 138.507 59.7378L133.638 63.5972C133.001 64.1018 132.729 64.9387 132.948 65.7212L134.618 71.7065C135.224 73.8758 133.929 76.1192 131.747 76.6792L125.729 78.2241C124.942 78.4262 124.352 79.0805 124.234 79.8843L123.326 86.0317C122.997 88.2597 120.902 89.7824 118.681 89.4067L112.554 88.3706C111.753 88.2352 110.949 88.5929 110.514 89.2788L107.184 94.5249C105.977 96.4266 103.444 96.9656 101.568 95.7192L96.3918 92.2808C95.7151 91.8311 94.8352 91.8311 94.1584 92.2808L88.9827 95.7192C87.1067 96.9656 84.5732 96.4266 83.3665 94.5249L80.0364 89.2788C79.601 88.5929 78.7973 88.2352 77.9963 88.3706L71.8694 89.4067C69.6487 89.7824 67.553 88.2597 67.2239 86.0317L66.3167 79.8843C66.198 79.0805 65.6085 78.4262 64.8215 78.2241L58.803 76.6792C56.6215 76.1192 55.3263 73.8758 55.9319 71.7065L57.6028 65.7212C57.8212 64.9387 57.5491 64.1018 56.9124 63.5972L52.0432 59.7378C50.2781 58.3389 50.007 55.7622 51.4426 54.0269L55.4036 49.2388C55.9214 48.6127 56.0134 47.7371 55.637 47.0171L52.7581 41.5112C51.7145 39.5153 52.515 37.0507 54.5325 36.0493L60.0979 33.2876C60.8257 32.9263 61.2661 32.163 61.2151 31.3521L60.8254 25.1509C60.684 22.903 62.4169 20.9775 64.6672 20.8833L70.8752 20.6235C71.687 20.5895 72.3996 20.0725 72.6829 19.311L74.8489 13.4868C75.6339 11.3758 77.9999 10.3219 80.094 11.1509L85.8713 13.439C86.6268 13.7381 87.4884 13.5547 88.0569 12.9741L92.4045 8.53467Z" fill="#1CC969" stroke="white" stroke-width="2"/>
<path d="M83.3608 54.5827L91.1319 62.0159L105.998 40.3921" stroke="white" stroke-width="5.40596" stroke-linecap="round" stroke-linejoin="round"/>
<g filter="url(#filter1_d_181_726)">
<rect x="33.4163" y="20.8081" width="73.7888" height="28.0621" rx="10.0621" fill="white"/>
<rect x="33.1396" y="20.5314" width="74.3422" height="28.6155" rx="10.3388" stroke="black" stroke-opacity="0.06" stroke-width="0.553416"/>
<path d="M33.4048 37.1621L33.4048 33.8081H39.6936V45.5472C36.6252 48.2747 30.7843 48.7842 28.7091 48.8794C28.4516 48.8912 28.3195 48.5676 28.5013 48.3848C29.8829 46.9953 33.4048 42.8915 33.4048 37.1621Z" fill="white"/>
<mask id="mask1_181_726" style="mask-type:alpha" maskUnits="userSpaceOnUse" x="27" y="35" width="12" height="16">
<path d="M27.1155 50.5781H38.4358V48.1836C36.5359 47.1607 34.9894 45.5841 34.0081 43.6582C33.0658 41.8086 32.894 39.4933 32.8616 35.4854H27.1155V50.5781Z" fill="#8B1A1A"/>
</mask>
<g mask="url(#mask1_181_726)">
<path d="M33.4048 37.1621L33.4048 33.8081H39.6936V45.5472C36.6252 48.2747 30.7843 48.7842 28.7091 48.8794C28.4516 48.8912 28.3195 48.5676 28.5013 48.3848C29.8829 46.9953 33.4048 42.8915 33.4048 37.1621Z" fill="white"/>
<path d="M33.1282 33.5317V37.1626C33.128 42.7802 29.6704 46.8167 28.3049 48.1899C27.9623 48.5348 28.189 49.1802 28.7219 49.1558C29.7683 49.1078 31.7656 48.9555 33.8909 48.4702C36.0091 47.9865 38.2908 47.1643 39.8772 45.7544L39.97 45.6714V33.5317H33.1282Z" stroke="black" stroke-opacity="0.06" stroke-width="0.553416"/>
</g>
</g>
<g filter="url(#filter2_d_181_726)">
<rect width="73.7888" height="28.0621" rx="10.0621" transform="matrix(-1 0 0 1 161.584 53.9956)" fill="white"/>
<rect x="0.276708" y="-0.276708" width="74.3422" height="28.6155" rx="10.3388" transform="matrix(-1 0 0 1 162.138 53.9956)" stroke="black" stroke-opacity="0.06" stroke-width="0.553416"/>
<path d="M161.584 69.9273L161.584 66.5732H155.295V78.3124C158.364 81.0399 164.205 81.5494 166.28 81.6445C166.537 81.6564 166.669 81.3327 166.488 81.1499C165.106 79.7605 161.584 75.6566 161.584 69.9273Z" fill="white"/>
<mask id="mask2_181_726" style="mask-type:alpha" maskUnits="userSpaceOnUse" x="156" y="68" width="12" height="16">
<path d="M167.874 83.3433H156.553V80.9487C158.453 79.9259 160 78.3493 160.981 76.4233C161.923 74.5737 162.095 72.2584 162.127 68.2505H167.874V83.3433Z" fill="#8B1A1A"/>
</mask>
<g mask="url(#mask2_181_726)">
<path d="M161.584 69.9273L161.584 66.5732H155.295V78.3124C158.364 81.0399 164.205 81.5494 166.28 81.6445C166.537 81.6564 166.669 81.3327 166.488 81.1499C165.106 79.7605 161.584 75.6566 161.584 69.9273Z" fill="white"/>
<path d="M161.861 66.2969V69.9277C161.861 75.5454 165.319 79.5818 166.684 80.9551C167.027 81.3 166.8 81.9453 166.267 81.9209C165.221 81.8729 163.223 81.7206 161.098 81.2354C158.98 80.7517 156.698 79.9295 155.112 78.5195L155.019 78.4365V66.2969H161.861Z" stroke="black" stroke-opacity="0.06" stroke-width="0.553416"/>
</g>
</g>
</g>
<path d="M8 100H185V224C185 232.837 177.837 240 169 240H24C15.1635 240 8 232.837 8 224V100Z" fill="white"/>
<path d="M42.8672 125.461L41.2656 129.289L40.9844 129.992C40.6484 130.867 40.3594 131.305 40.1172 131.305C39.9375 131.305 39.75 131.078 39.5547 130.625L39.4453 130.383C38.7656 128.945 37.8984 126.867 36.8438 124.148C36.4609 123.164 36.1797 122.438 35.9844 121.961C35.6406 121.117 35.3594 120.688 35.0234 120.508C34.9688 120.477 34.8828 120.438 34.7578 120.398C34.4375 120.289 34.2734 120.125 34.2734 119.914C34.2734 119.688 34.3984 119.539 34.6562 119.461C34.9141 119.375 35.5625 119.336 36.6094 119.336C37.6562 119.336 38.3047 119.375 38.5625 119.461C38.8203 119.539 38.9453 119.688 38.9453 119.914C38.9453 120.125 38.7266 120.312 38.2812 120.469L38.2344 120.492C37.9766 120.586 37.8594 120.727 37.8594 120.969C37.8594 121.164 37.9922 121.648 38.2578 122.406C38.5312 123.164 38.9844 124.344 39.6172 125.93C39.8906 126.594 40.0859 127.039 40.2109 127.266C40.3359 127.484 40.4453 127.594 40.5312 127.594C40.6172 127.594 40.7109 127.508 40.8125 127.328C40.9219 127.148 41.1094 126.75 41.375 126.117C42.1172 124.391 42.6094 123.203 42.8516 122.547C43.0938 121.883 43.2188 121.445 43.2188 121.227C43.2188 120.883 43.0625 120.664 42.7109 120.508C42.6719 120.484 42.6094 120.461 42.5312 120.43C42.2109 120.297 42.0469 120.125 42.0469 119.914C42.0469 119.688 42.1562 119.539 42.375 119.461C42.6016 119.375 43.1641 119.336 44.0625 119.336C44.9297 119.336 45.4766 119.375 45.7031 119.461C45.9297 119.539 46.0469 119.688 46.0469 119.914C46.0469 120.125 45.8906 120.297 45.5703 120.438C45.4141 120.508 45.2969 120.562 45.2188 120.617C44.8359 120.859 44.2891 121.875 43.5859 123.672C43.2891 124.43 43.0469 125.023 42.8672 125.461ZM51.1328 126.875H47.2266H47.1172C46.8125 126.875 46.6328 126.898 46.5781 126.945C46.5234 126.992 46.4922 127.117 46.4922 127.32C46.4922 128 46.7344 128.578 47.2188 129.07C47.7031 129.555 48.2891 129.797 48.9844 129.797C49.5781 129.797 50.125 129.625 50.6484 129.258C50.7188 129.203 50.8203 129.133 50.9453 129.031C51.2188 128.805 51.4297 128.695 51.5781 128.695C51.8203 128.695 51.9922 128.875 51.9922 129.094C51.9922 129.352 51.7031 129.766 51.2422 130.133C50.2969 130.914 49.4766 131.227 48.4453 131.227C47.2891 131.227 46.3203 130.836 45.5469 130.047C44.7734 129.258 44.3906 128.273 44.3906 127.109C44.3906 125.836 44.7891 124.797 45.5781 123.977C46.375 123.156 47.3906 122.742 48.6328 122.742C49.6797 122.742 50.5078 123.039 51.1172 123.641C51.7344 124.234 52.0391 125.039 52.0391 126.055C52.0391 126.391 51.9922 126.609 51.8906 126.719C51.7891 126.82 51.5391 126.875 51.1328 126.875ZM47.0625 125.945H49.7031C50.1172 125.945 50.2188 125.883 50.2188 125.641C50.2188 125.117 50.0391 124.672 49.6875 124.32C49.3359 123.961 48.8984 123.781 48.3594 123.781C47.8438 123.781 47.4141 123.961 47.0781 124.32C46.7422 124.672 46.5703 125.117 46.5703 125.641C46.5703 125.883 46.6562 125.945 47.0625 125.945ZM55.75 123.891L55.7734 124.055L55.8516 124.086C56.4062 123.211 57.0234 122.742 57.6406 122.742C58.3906 122.742 58.875 123.234 58.875 123.992C58.875 124.75 58.5156 125.211 57.8984 125.211C57.5938 125.211 57.3438 125.102 57.1484 124.891C57.0781 124.82 57.0156 124.711 56.9609 124.57C56.9062 124.43 56.8438 124.359 56.7812 124.359C56.4062 124.359 56.1406 124.617 55.9922 125.141C55.8438 125.656 55.7734 126.742 55.7734 128.391C55.7734 129.336 55.8984 129.789 56.1875 129.914C56.2656 129.945 56.375 129.984 56.5078 130.023C56.8359 130.125 57 130.289 57 130.508C57 130.711 56.8516 130.859 56.5469 130.945C56.2422 131.031 55.7188 131.078 54.9688 131.078C54.1484 131.078 53.6016 131.031 53.3359 130.945C53.0703 130.859 52.9375 130.695 52.9375 130.453C52.9375 130.273 53.0703 130.133 53.3281 130.039C53.4297 130 53.5078 129.969 53.5469 129.945C53.8281 129.789 53.9297 129.484 53.9297 128.664C53.9297 128.562 53.9297 128.383 53.9219 128.117C53.9141 127.852 53.9141 127.633 53.9141 127.461V126.984C53.9141 125.977 53.8906 125.328 53.8438 125.023C53.8047 124.719 53.7266 124.539 53.6094 124.469C53.5234 124.43 53.3984 124.383 53.2344 124.328C52.9141 124.227 52.75 124.078 52.75 123.898C52.75 123.641 52.9141 123.477 53.4062 123.289C53.7812 123.141 54.1406 123.016 54.4922 122.93C54.8438 122.836 55.0938 122.789 55.2266 122.789C55.4844 122.789 55.6641 123.156 55.75 123.891ZM62.1172 124.281L62.0547 126.359V126.406C62.0312 127.312 62.0234 127.977 62.0234 128.406C62.0234 128.922 62.0469 129.289 62.0938 129.5C62.1406 129.711 62.2266 129.852 62.3438 129.914C62.4141 129.953 62.5156 129.992 62.6484 130.047C62.9219 130.148 63.0625 130.297 63.0625 130.508C63.0625 130.719 62.9297 130.867 62.6641 130.953C62.3984 131.039 61.9141 131.078 61.2031 131.078C60.375 131.078 59.8281 131.031 59.5547 130.945C59.2891 130.859 59.1562 130.695 59.1562 130.453C59.1562 130.273 59.2891 130.133 59.5547 130.031C59.6562 129.992 59.7266 129.969 59.7656 129.945C60.0469 129.789 60.1484 129.484 60.1484 128.664C60.1484 128.562 60.1484 128.383 60.1406 128.117C60.1328 127.852 60.1328 127.633 60.1328 127.461V126.617C60.1328 125.766 60.1094 125.203 60.0703 124.945C60.0312 124.688 59.9531 124.523 59.8438 124.469C59.7578 124.43 59.6328 124.383 59.4609 124.328C59.1328 124.227 58.9688 124.078 58.9688 123.898C58.9688 123.656 59.1562 123.477 59.625 123.289C60.0391 123.125 60.4453 123 60.8516 122.898C61.2578 122.797 61.5469 122.742 61.7188 122.742C62.0078 122.742 62.1328 122.93 62.1328 123.43C62.1328 123.828 62.125 124.039 62.1172 124.281ZM59.6562 120.312C59.6562 120.008 59.7812 119.742 60.0391 119.523C60.2969 119.305 60.6016 119.195 60.9688 119.195C61.3203 119.195 61.6172 119.297 61.8438 119.492C62.0781 119.688 62.1953 119.938 62.1953 120.234C62.1953 120.531 62.0703 120.781 61.8125 120.992C61.5625 121.203 61.25 121.305 60.8672 121.305C60.1719 121.305 59.6562 120.883 59.6562 120.312ZM66.5391 122.969H67.7188C67.9922 122.969 68.0703 123.047 68.0703 123.352V123.547C68.0703 123.828 67.9688 123.945 67.7188 123.945H66.5547V128.133C66.5547 128.828 66.5781 129.289 66.6172 129.5C66.6562 129.711 66.7344 129.844 66.8438 129.898C66.9219 129.938 67.0312 129.977 67.1641 130.023C67.4844 130.133 67.6406 130.297 67.6406 130.508C67.6406 130.719 67.5078 130.859 67.2422 130.945C66.9766 131.023 66.4453 131.062 65.6562 131.062C64.8672 131.062 64.3359 131.023 64.0703 130.938C63.8047 130.852 63.6719 130.703 63.6719 130.484C63.6719 130.312 63.7969 130.18 64.0547 130.086L64.2656 129.992C64.3984 129.922 64.4844 129.797 64.5391 129.625C64.5938 129.445 64.6172 129.125 64.6172 128.664V127.883V123.945H63.7031C63.4531 123.945 63.3672 123.852 63.3672 123.547V123.352C63.3672 123.078 63.4688 122.969 63.7188 122.969H64.5781C64.5078 122.508 64.4688 122.117 64.4688 121.75C64.4688 120.93 64.7188 120.289 65.2109 119.828C65.7109 119.367 66.4062 119.141 67.3047 119.141C67.9219 119.141 68.4219 119.281 68.8047 119.562C69.1875 119.836 69.3828 120.188 69.3828 120.617C69.3828 121.125 69.1016 121.398 68.5703 121.398C68.2266 121.398 67.9453 121.234 67.7656 120.953L67.6094 120.656C67.4141 120.266 67.1562 120.07 66.8359 120.07C66.4297 120.07 66.1484 120.359 66.1484 120.789C66.1484 120.914 66.2109 121.219 66.3359 121.695C66.4609 122.172 66.5312 122.594 66.5391 122.969ZM71.3672 124.281L71.3047 126.359V126.406C71.2812 127.312 71.2734 127.977 71.2734 128.406C71.2734 128.922 71.2969 129.289 71.3438 129.5C71.3906 129.711 71.4766 129.852 71.5938 129.914C71.6641 129.953 71.7656 129.992 71.8984 130.047C72.1719 130.148 72.3125 130.297 72.3125 130.508C72.3125 130.719 72.1797 130.867 71.9141 130.953C71.6484 131.039 71.1641 131.078 70.4531 131.078C69.625 131.078 69.0781 131.031 68.8047 130.945C68.5391 130.859 68.4062 130.695 68.4062 130.453C68.4062 130.273 68.5391 130.133 68.8047 130.031C68.9062 129.992 68.9766 129.969 69.0156 129.945C69.2969 129.789 69.3984 129.484 69.3984 128.664C69.3984 128.562 69.3984 128.383 69.3906 128.117C69.3828 127.852 69.3828 127.633 69.3828 127.461V126.617C69.3828 125.766 69.3594 125.203 69.3203 124.945C69.2812 124.688 69.2031 124.523 69.0938 124.469C69.0078 124.43 68.8828 124.383 68.7109 124.328C68.3828 124.227 68.2188 124.078 68.2188 123.898C68.2188 123.656 68.4062 123.477 68.875 123.289C69.2891 123.125 69.6953 123 70.1016 122.898C70.5078 122.797 70.7969 122.742 70.9688 122.742C71.2578 122.742 71.3828 122.93 71.3828 123.43C71.3828 123.828 71.375 124.039 71.3672 124.281ZM68.9062 120.312C68.9062 120.008 69.0312 119.742 69.2891 119.523C69.5469 119.305 69.8516 119.195 70.2188 119.195C70.5703 119.195 70.8672 119.297 71.0938 119.492C71.3281 119.688 71.4453 119.938 71.4453 120.234C71.4453 120.531 71.3203 120.781 71.0625 120.992C70.8125 121.203 70.5 121.305 70.1172 121.305C69.4219 121.305 68.9062 120.883 68.9062 120.312ZM79.8359 126.875H75.9297H75.8203C75.5156 126.875 75.3359 126.898 75.2812 126.945C75.2266 126.992 75.1953 127.117 75.1953 127.32C75.1953 128 75.4375 128.578 75.9219 129.07C76.4062 129.555 76.9922 129.797 77.6875 129.797C78.2812 129.797 78.8281 129.625 79.3516 129.258C79.4219 129.203 79.5234 129.133 79.6484 129.031C79.9219 128.805 80.1328 128.695 80.2812 128.695C80.5234 128.695 80.6953 128.875 80.6953 129.094C80.6953 129.352 80.4062 129.766 79.9453 130.133C79 130.914 78.1797 131.227 77.1484 131.227C75.9922 131.227 75.0234 130.836 74.25 130.047C73.4766 129.258 73.0938 128.273 73.0938 127.109C73.0938 125.836 73.4922 124.797 74.2812 123.977C75.0781 123.156 76.0938 122.742 77.3359 122.742C78.3828 122.742 79.2109 123.039 79.8203 123.641C80.4375 124.234 80.7422 125.039 80.7422 126.055C80.7422 126.391 80.6953 126.609 80.5938 126.719C80.4922 126.82 80.2422 126.875 79.8359 126.875ZM75.7656 125.945H78.4062C78.8203 125.945 78.9219 125.883 78.9219 125.641C78.9219 125.117 78.7422 124.672 78.3906 124.32C78.0391 123.961 77.6016 123.781 77.0625 123.781C76.5469 123.781 76.1172 123.961 75.7812 124.32C75.4453 124.672 75.2734 125.117 75.2734 125.641C75.2734 125.883 75.3594 125.945 75.7656 125.945ZM87.8203 130.633V130.234C87.8203 130.109 87.7891 130.023 87.7578 130.023C87.7344 130.023 87.6562 130.078 87.5078 130.195C87.3672 130.305 87.25 130.398 87.1484 130.469C86.5 130.961 85.8906 131.18 85.2266 131.18C84.2109 131.18 83.3828 130.812 82.7422 130.086C82.1094 129.352 81.7891 128.398 81.7891 127.227C81.7891 125.906 82.1562 124.828 82.8828 123.992C83.6172 123.156 84.5625 122.742 85.7266 122.742C86.2812 122.742 86.8594 122.875 87.4531 123.148C87.5703 123.203 87.6328 123.227 87.6562 123.227C87.7422 123.227 87.7734 123.133 87.7734 122.82V121.867C87.7734 121.484 87.7344 121.227 87.6641 121.078C87.5938 120.93 87.4609 120.812 87.2578 120.742L87.0391 120.68C86.7031 120.586 86.5391 120.445 86.5391 120.25C86.5391 120.102 86.6016 119.977 86.7344 119.875C86.8672 119.773 87.1328 119.641 87.5469 119.492C88.1797 119.266 88.7656 119.141 89.2109 119.141C89.5781 119.141 89.7266 119.336 89.7266 119.812C89.7266 119.852 89.7188 119.992 89.7109 120.227C89.6562 121.836 89.625 123.516 89.625 125.258C89.625 127 89.6406 128.141 89.6797 128.664C89.7188 129.188 89.7812 129.477 89.8672 129.547C89.9531 129.602 90.1328 129.664 90.4219 129.734C90.7109 129.797 90.8594 129.922 90.8594 130.117C90.8594 130.367 90.4688 130.617 89.6797 130.875L89.5938 130.906C89.1484 131.055 88.5625 131.156 88.25 131.156C87.9453 131.156 87.8203 131 87.8203 130.633ZM87.7422 127.852V125.625C87.7344 125.289 87.7188 125.07 87.6953 124.953C87.6719 124.836 87.6328 124.734 87.5781 124.664C87.2266 124.188 86.5156 123.852 85.8516 123.852C85.25 123.852 84.7656 124.102 84.4062 124.594C84.0469 125.086 83.8672 125.766 83.8672 126.617C83.8672 127.531 84.0625 128.273 84.4531 128.844C84.8516 129.414 85.3516 129.703 85.9609 129.703C87.1172 129.703 87.7422 129.062 87.7422 127.852ZM97.3828 131.031C97.2031 131.164 97.0469 131.227 96.8828 131.227C96.7812 131.227 96.6641 131.172 96.5469 131.078C96.3672 130.93 96.2031 130.633 96.0469 130.195C95.8906 129.758 95.8125 129.336 95.8125 128.938C95.8125 128.594 96.0234 128.328 96.2969 128.328C96.5469 128.328 96.7969 128.547 97.0547 128.984C97.1797 129.203 97.2812 129.367 97.3672 129.477C97.6875 129.906 98.2891 130.172 98.9375 130.172C99.6562 130.172 100.102 129.781 100.102 129.18C100.102 128.719 99.6484 128.273 98.7344 127.836L98.2656 127.609C97.4141 127.188 96.8438 126.797 96.5469 126.445C96.25 126.094 96.1016 125.656 96.1016 125.141C96.1016 124.43 96.3438 123.859 96.8359 123.414C97.3281 122.969 97.9688 122.742 98.7578 122.742C99.1406 122.742 99.5312 122.781 99.9141 122.875C100.219 122.742 100.422 122.68 100.547 122.68C100.812 122.68 101.07 122.891 101.32 123.32C101.578 123.75 101.703 124.195 101.703 124.664C101.703 125.047 101.531 125.273 101.219 125.273C100.969 125.273 100.758 125.102 100.422 124.57C100.016 123.906 99.6172 123.672 99.0156 123.672C98.3828 123.672 97.9609 124.062 97.9609 124.633C97.9609 124.875 98.0547 125.094 98.25 125.289C98.4453 125.484 98.8906 125.75 99.5703 126.086L99.6641 126.133C101.172 126.875 101.93 127.688 101.93 128.57C101.93 129.328 101.641 129.961 101.055 130.469C100.477 130.977 99.75 131.227 98.8828 131.227C98.5156 131.227 98.0312 131.156 97.3828 131.031ZM105.664 122.969H107.484C107.758 122.969 107.836 123.047 107.836 123.352V123.547C107.836 123.828 107.734 123.945 107.484 123.945H105.805C105.703 123.945 105.633 124.039 105.633 124.203V128.25C105.633 128.945 105.688 129.383 105.805 129.562C105.922 129.742 106.141 129.828 106.461 129.828C106.633 129.828 106.852 129.781 107.117 129.695C107.391 129.609 107.578 129.562 107.68 129.562C107.922 129.562 108.094 129.719 108.094 129.945C108.094 130.242 107.859 130.531 107.398 130.812C106.938 131.086 106.422 131.227 105.836 131.227C105.156 131.227 104.617 131.047 104.234 130.695C104.039 130.516 103.906 130.281 103.828 129.984C103.75 129.68 103.711 129.125 103.711 128.312V123.945H102.961C102.734 123.945 102.656 123.867 102.656 123.672V123.477C102.656 123.297 102.938 122.969 103.508 122.484L103.844 122.195L104.156 121.922C104.719 121.43 105.102 121.18 105.312 121.18C105.531 121.18 105.664 121.281 105.664 121.445V122.969ZM114.656 130.727V130.148C114.656 130.109 114.641 130.102 114.609 130.102C114.547 130.102 114.453 130.172 114.32 130.305L114.211 130.422C113.703 130.953 113.047 131.211 112.242 131.211C111.422 131.211 110.672 130.891 110.195 130.328C109.938 130.023 109.758 129.648 109.648 129.211C109.547 128.773 109.492 127.969 109.492 126.805C109.492 126.695 109.492 126.516 109.5 126.258C109.508 126 109.508 125.805 109.508 125.656V125.492C109.508 125.047 109.477 124.758 109.414 124.641C109.352 124.516 109.219 124.414 109.023 124.344C108.945 124.312 108.836 124.281 108.703 124.242C108.398 124.156 108.242 124.023 108.242 123.828C108.242 123.695 108.297 123.578 108.406 123.492C108.516 123.398 108.758 123.289 109.141 123.156C109.898 122.906 110.664 122.742 111.109 122.742C111.398 122.742 111.523 122.953 111.523 123.43C111.523 123.461 111.516 123.57 111.508 123.75C111.453 124.75 111.43 125.766 111.43 126.789C111.43 127.898 111.547 128.664 111.773 129.086C112 129.508 112.391 129.719 112.945 129.719C113.57 129.719 114.016 129.445 114.281 128.898C114.555 128.352 114.688 127.414 114.688 126.086V125.461C114.688 125.039 114.656 124.766 114.594 124.641C114.539 124.508 114.414 124.414 114.227 124.344C114.141 124.312 114.031 124.281 113.898 124.242C113.594 124.156 113.445 124.023 113.445 123.828C113.445 123.695 113.5 123.586 113.602 123.5C113.711 123.406 113.953 123.289 114.336 123.156C115.094 122.906 115.844 122.742 116.273 122.742C116.609 122.742 116.719 122.922 116.719 123.43C116.719 123.484 116.711 123.641 116.703 123.883C116.641 125.039 116.609 126.156 116.609 127.242C116.609 127.922 116.617 128.375 116.625 128.617C116.633 128.852 116.648 129.031 116.672 129.156C116.711 129.383 116.875 129.547 117.148 129.656H117.156L117.305 129.703C117.609 129.805 117.766 129.953 117.766 130.133C117.766 130.375 117.594 130.539 117.125 130.727C116.727 130.883 116.336 131.008 115.961 131.102C115.594 131.195 115.305 131.242 115.109 131.242C114.797 131.242 114.656 131.078 114.656 130.727ZM124.539 130.633V130.234C124.539 130.109 124.508 130.023 124.477 130.023C124.453 130.023 124.375 130.078 124.227 130.195C124.086 130.305 123.969 130.398 123.867 130.469C123.219 130.961 122.609 131.18 121.945 131.18C120.93 131.18 120.102 130.812 119.461 130.086C118.828 129.352 118.508 128.398 118.508 127.227C118.508 125.906 118.875 124.828 119.602 123.992C120.336 123.156 121.281 122.742 122.445 122.742C123 122.742 123.578 122.875 124.172 123.148C124.289 123.203 124.352 123.227 124.375 123.227C124.461 123.227 124.492 123.133 124.492 122.82V121.867C124.492 121.484 124.453 121.227 124.383 121.078C124.312 120.93 124.18 120.812 123.977 120.742L123.758 120.68C123.422 120.586 123.258 120.445 123.258 120.25C123.258 120.102 123.32 119.977 123.453 119.875C123.586 119.773 123.852 119.641 124.266 119.492C124.898 119.266 125.484 119.141 125.93 119.141C126.297 119.141 126.445 119.336 126.445 119.812C126.445 119.852 126.438 119.992 126.43 120.227C126.375 121.836 126.344 123.516 126.344 125.258C126.344 127 126.359 128.141 126.398 128.664C126.438 129.188 126.5 129.477 126.586 129.547C126.672 129.602 126.852 129.664 127.141 129.734C127.43 129.797 127.578 129.922 127.578 130.117C127.578 130.367 127.188 130.617 126.398 130.875L126.312 130.906C125.867 131.055 125.281 131.156 124.969 131.156C124.664 131.156 124.539 131 124.539 130.633ZM124.461 127.852V125.625C124.453 125.289 124.438 125.07 124.414 124.953C124.391 124.836 124.352 124.734 124.297 124.664C123.945 124.188 123.234 123.852 122.57 123.852C121.969 123.852 121.484 124.102 121.125 124.594C120.766 125.086 120.586 125.766 120.586 126.617C120.586 127.531 120.781 128.273 121.172 128.844C121.57 129.414 122.07 129.703 122.68 129.703C123.836 129.703 124.461 129.062 124.461 127.852ZM134.82 126.875H130.914H130.805C130.5 126.875 130.32 126.898 130.266 126.945C130.211 126.992 130.18 127.117 130.18 127.32C130.18 128 130.422 128.578 130.906 129.07C131.391 129.555 131.977 129.797 132.672 129.797C133.266 129.797 133.812 129.625 134.336 129.258C134.406 129.203 134.508 129.133 134.633 129.031C134.906 128.805 135.117 128.695 135.266 128.695C135.508 128.695 135.68 128.875 135.68 129.094C135.68 129.352 135.391 129.766 134.93 130.133C133.984 130.914 133.164 131.227 132.133 131.227C130.977 131.227 130.008 130.836 129.234 130.047C128.461 129.258 128.078 128.273 128.078 127.109C128.078 125.836 128.477 124.797 129.266 123.977C130.062 123.156 131.078 122.742 132.32 122.742C133.367 122.742 134.195 123.039 134.805 123.641C135.422 124.234 135.727 125.039 135.727 126.055C135.727 126.391 135.68 126.609 135.578 126.719C135.477 126.82 135.227 126.875 134.82 126.875ZM130.75 125.945H133.391C133.805 125.945 133.906 125.883 133.906 125.641C133.906 125.117 133.727 124.672 133.375 124.32C133.023 123.961 132.586 123.781 132.047 123.781C131.531 123.781 131.102 123.961 130.766 124.32C130.43 124.672 130.258 125.117 130.258 125.641C130.258 125.883 130.344 125.945 130.75 125.945ZM139.664 123.898L139.852 123.727C139.891 123.688 139.953 123.641 140.023 123.57C140.609 123.016 141.25 122.742 141.938 122.742C142.719 122.742 143.484 123.102 143.984 123.688C144.234 123.984 144.414 124.336 144.516 124.75C144.617 125.164 144.672 125.805 144.672 126.68V127.781C144.672 127.914 144.672 128.094 144.664 128.312C144.656 128.531 144.656 128.688 144.656 128.773C144.656 129.156 144.68 129.43 144.734 129.594C144.789 129.75 144.891 129.867 145.023 129.945L145.234 130.031C145.5 130.133 145.633 130.273 145.633 130.453C145.633 130.688 145.508 130.852 145.258 130.938C145.008 131.023 144.469 131.062 143.633 131.062C142.875 131.062 142.359 131.023 142.102 130.945C141.844 130.859 141.719 130.719 141.719 130.508C141.719 130.297 141.852 130.148 142.125 130.047C142.266 129.992 142.367 129.953 142.43 129.914C142.555 129.844 142.641 129.695 142.695 129.461C142.75 129.219 142.773 128.805 142.773 128.219C142.773 126.492 142.664 125.406 142.438 124.969C142.219 124.531 141.82 124.312 141.25 124.312C140.664 124.312 140.094 124.688 139.812 125.273C139.695 125.508 139.609 125.836 139.562 126.258C139.516 126.68 139.492 127.43 139.492 128.508C139.492 129.031 139.516 129.383 139.555 129.562C139.602 129.734 139.68 129.852 139.797 129.914C139.867 129.953 139.969 129.992 140.102 130.047C140.375 130.148 140.516 130.297 140.516 130.508C140.516 130.719 140.383 130.867 140.117 130.953C139.852 131.039 139.367 131.078 138.656 131.078C137.828 131.078 137.281 131.031 137.008 130.945C136.742 130.859 136.609 130.695 136.609 130.453C136.609 130.273 136.742 130.133 137.008 130.031C137.109 129.992 137.18 129.969 137.219 129.945C137.5 129.789 137.602 129.484 137.602 128.664C137.602 128.562 137.602 128.383 137.594 128.117C137.586 127.852 137.586 127.633 137.586 127.461V126.617C137.586 125.766 137.562 125.203 137.523 124.945C137.484 124.688 137.406 124.523 137.297 124.469C137.211 124.43 137.086 124.383 136.914 124.328C136.586 124.227 136.422 124.078 136.422 123.898C136.422 123.656 136.609 123.477 137.078 123.289C137.477 123.133 137.867 123.008 138.25 122.914C138.633 122.82 138.914 122.773 139.094 122.773C139.398 122.773 139.523 122.922 139.523 123.289V123.828C139.523 123.914 139.531 123.922 139.586 123.93C139.609 123.93 139.656 123.906 139.664 123.898ZM149.117 122.969H150.938C151.211 122.969 151.289 123.047 151.289 123.352V123.547C151.289 123.828 151.188 123.945 150.938 123.945H149.258C149.156 123.945 149.086 124.039 149.086 124.203V128.25C149.086 128.945 149.141 129.383 149.258 129.562C149.375 129.742 149.594 129.828 149.914 129.828C150.086 129.828 150.305 129.781 150.57 129.695C150.844 129.609 151.031 129.562 151.133 129.562C151.375 129.562 151.547 129.719 151.547 129.945C151.547 130.242 151.312 130.531 150.852 130.812C150.391 131.086 149.875 131.227 149.289 131.227C148.609 131.227 148.07 131.047 147.688 130.695C147.492 130.516 147.359 130.281 147.281 129.984C147.203 129.68 147.164 129.125 147.164 128.312V123.945H146.414C146.188 123.945 146.109 123.867 146.109 123.672V123.477C146.109 123.297 146.391 122.969 146.961 122.484L147.297 122.195L147.609 121.922C148.172 121.43 148.555 121.18 148.766 121.18C148.984 121.18 149.117 121.281 149.117 121.445V122.969ZM153.664 131.031C153.484 131.164 153.328 131.227 153.164 131.227C153.062 131.227 152.945 131.172 152.828 131.078C152.648 130.93 152.484 130.633 152.328 130.195C152.172 129.758 152.094 129.336 152.094 128.938C152.094 128.594 152.305 128.328 152.578 128.328C152.828 128.328 153.078 128.547 153.336 128.984C153.461 129.203 153.562 129.367 153.648 129.477C153.969 129.906 154.57 130.172 155.219 130.172C155.938 130.172 156.383 129.781 156.383 129.18C156.383 128.719 155.93 128.273 155.016 127.836L154.547 127.609C153.695 127.188 153.125 126.797 152.828 126.445C152.531 126.094 152.383 125.656 152.383 125.141C152.383 124.43 152.625 123.859 153.117 123.414C153.609 122.969 154.25 122.742 155.039 122.742C155.422 122.742 155.812 122.781 156.195 122.875C156.5 122.742 156.703 122.68 156.828 122.68C157.094 122.68 157.352 122.891 157.602 123.32C157.859 123.75 157.984 124.195 157.984 124.664C157.984 125.047 157.812 125.273 157.5 125.273C157.25 125.273 157.039 125.102 156.703 124.57C156.297 123.906 155.898 123.672 155.297 123.672C154.664 123.672 154.242 124.062 154.242 124.633C154.242 124.875 154.336 125.094 154.531 125.289C154.727 125.484 155.172 125.75 155.852 126.086L155.945 126.133C157.453 126.875 158.211 127.688 158.211 128.57C158.211 129.328 157.922 129.961 157.336 130.469C156.758 130.977 156.031 131.227 155.164 131.227C154.797 131.227 154.312 131.156 153.664 131.031ZM53.2812 146.109C53.2812 144.852 53.6875 143.812 54.5 142.984C55.3203 142.156 56.3359 141.742 57.5547 141.742C58.4453 141.742 59.2031 141.977 59.8281 142.445C60.4609 142.906 60.7734 143.453 60.7734 144.078C60.7734 144.578 60.3828 144.93 59.8438 144.93C59.5703 144.93 59.3438 144.867 59.1797 144.734C59.0156 144.602 58.8359 144.32 58.6484 143.875C58.3047 143.094 57.9297 142.828 57.2656 142.828C56.0078 142.828 55.2656 143.805 55.2656 145.484C55.2656 146.453 55.5156 147.242 56.0156 147.852C56.5156 148.461 57.1562 148.766 57.9375 148.766C58.4766 148.766 58.9688 148.617 59.3828 148.336L59.6953 148.102C59.9844 147.875 60.2109 147.758 60.375 147.758C60.6016 147.758 60.7422 147.898 60.7422 148.125C60.7422 148.398 60.4844 148.828 60.1328 149.133C59.2812 149.883 58.3828 150.227 57.2969 150.227C56.1562 150.227 55.2031 149.836 54.4297 149.047C53.6641 148.258 53.2812 147.273 53.2812 146.109ZM63.6953 145.297C63.6953 146.375 63.9219 147.273 64.375 148C64.8359 148.727 65.3906 149.086 66.0469 149.086C66.5781 149.086 67.0078 148.859 67.3359 148.414C67.6719 147.969 67.8359 147.375 67.8359 146.641C67.8359 145.578 67.6016 144.688 67.1406 143.969C66.6797 143.242 66.1328 142.883 65.4844 142.883C64.9453 142.883 64.5156 143.102 64.1875 143.547C63.8594 143.984 63.6953 144.57 63.6953 145.297ZM65.6953 150.227C64.5234 150.227 63.5547 149.828 62.7812 149.031C62.0078 148.234 61.625 147.227 61.625 146.016C61.625 144.789 62.0312 143.773 62.8359 142.961C63.6484 142.148 64.6641 141.742 65.8828 141.742C67.0547 141.742 68.0156 142.125 68.7578 142.883C69.5078 143.641 69.8828 144.617 69.8828 145.805C69.8828 147.062 69.4844 148.117 68.6797 148.961C67.875 149.805 66.8828 150.227 65.6953 150.227ZM73.8047 142.898L73.9922 142.727C74.0312 142.688 74.0938 142.641 74.1641 142.57C74.75 142.016 75.3906 141.742 76.0781 141.742C76.8594 141.742 77.625 142.102 78.125 142.688C78.375 142.984 78.5547 143.336 78.6562 143.75C78.7578 144.164 78.8125 144.805 78.8125 145.68V146.781C78.8125 146.914 78.8125 147.094 78.8047 147.312C78.7969 147.531 78.7969 147.688 78.7969 147.773C78.7969 148.156 78.8203 148.43 78.875 148.594C78.9297 148.75 79.0312 148.867 79.1641 148.945L79.375 149.031C79.6406 149.133 79.7734 149.273 79.7734 149.453C79.7734 149.688 79.6484 149.852 79.3984 149.938C79.1484 150.023 78.6094 150.062 77.7734 150.062C77.0156 150.062 76.5 150.023 76.2422 149.945C75.9844 149.859 75.8594 149.719 75.8594 149.508C75.8594 149.297 75.9922 149.148 76.2656 149.047C76.4062 148.992 76.5078 148.953 76.5703 148.914C76.6953 148.844 76.7812 148.695 76.8359 148.461C76.8906 148.219 76.9141 147.805 76.9141 147.219C76.9141 145.492 76.8047 144.406 76.5781 143.969C76.3594 143.531 75.9609 143.312 75.3906 143.312C74.8047 143.312 74.2344 143.688 73.9531 144.273C73.8359 144.508 73.75 144.836 73.7031 145.258C73.6562 145.68 73.6328 146.43 73.6328 147.508C73.6328 148.031 73.6562 148.383 73.6953 148.562C73.7422 148.734 73.8203 148.852 73.9375 148.914C74.0078 148.953 74.1094 148.992 74.2422 149.047C74.5156 149.148 74.6562 149.297 74.6562 149.508C74.6562 149.719 74.5234 149.867 74.2578 149.953C73.9922 150.039 73.5078 150.078 72.7969 150.078C71.9688 150.078 71.4219 150.031 71.1484 149.945C70.8828 149.859 70.75 149.695 70.75 149.453C70.75 149.273 70.8828 149.133 71.1484 149.031C71.25 148.992 71.3203 148.969 71.3594 148.945C71.6406 148.789 71.7422 148.484 71.7422 147.664C71.7422 147.562 71.7422 147.383 71.7344 147.117C71.7266 146.852 71.7266 146.633 71.7266 146.461V145.617C71.7266 144.766 71.7031 144.203 71.6641 143.945C71.625 143.688 71.5469 143.523 71.4375 143.469C71.3516 143.43 71.2266 143.383 71.0547 143.328C70.7266 143.227 70.5625 143.078 70.5625 142.898C70.5625 142.656 70.75 142.477 71.2188 142.289C71.6172 142.133 72.0078 142.008 72.3906 141.914C72.7734 141.82 73.0547 141.773 73.2344 141.773C73.5391 141.773 73.6641 141.922 73.6641 142.289V142.828C73.6641 142.914 73.6719 142.922 73.7266 142.93C73.75 142.93 73.7969 142.906 73.8047 142.898ZM83.2578 141.969H85.0781C85.3516 141.969 85.4297 142.047 85.4297 142.352V142.547C85.4297 142.828 85.3281 142.945 85.0781 142.945H83.3984C83.2969 142.945 83.2266 143.039 83.2266 143.203V147.25C83.2266 147.945 83.2812 148.383 83.3984 148.562C83.5156 148.742 83.7344 148.828 84.0547 148.828C84.2266 148.828 84.4453 148.781 84.7109 148.695C84.9844 148.609 85.1719 148.562 85.2734 148.562C85.5156 148.562 85.6875 148.719 85.6875 148.945C85.6875 149.242 85.4531 149.531 84.9922 149.812C84.5312 150.086 84.0156 150.227 83.4297 150.227C82.75 150.227 82.2109 150.047 81.8281 149.695C81.6328 149.516 81.5 149.281 81.4219 148.984C81.3438 148.68 81.3047 148.125 81.3047 147.312V142.945H80.5547C80.3281 142.945 80.25 142.867 80.25 142.672V142.477C80.25 142.297 80.5312 141.969 81.1016 141.484L81.4375 141.195L81.75 140.922C82.3125 140.43 82.6953 140.18 82.9062 140.18C83.125 140.18 83.2578 140.281 83.2578 140.445V141.969ZM93.2109 145.148V147.773C93.2109 148.391 93.3125 148.672 93.5312 148.734C93.5938 148.758 93.6797 148.781 93.7812 148.805C94.125 148.898 94.2969 149.039 94.2969 149.219C94.2969 149.477 94.1172 149.719 93.75 149.93C93.3828 150.141 92.9609 150.242 92.4766 150.242C92.2344 150.242 91.9844 150.102 91.7109 149.82C91.4453 149.531 91.3047 149.391 91.2891 149.391C91.2422 149.391 91.125 149.453 90.9375 149.57C90.25 150.016 89.5703 150.242 88.9062 150.242C88.1172 150.242 87.4766 150.016 86.9844 149.555C86.4922 149.094 86.25 148.484 86.25 147.742C86.25 146.875 86.5625 146.195 87.1953 145.711C87.8281 145.219 88.7031 144.977 89.8359 144.977C90.2656 144.977 90.7656 145.023 91.3516 145.117L91.3594 144.258C91.3594 143.297 90.9297 142.766 90.1562 142.766C89.625 142.766 89.1797 142.992 88.75 143.484C88.7109 143.531 88.6484 143.602 88.5781 143.695C88.25 144.109 87.8984 144.32 87.5312 144.32C87.1016 144.32 86.8281 144.023 86.8281 143.555C86.8281 143.047 87.1406 142.617 87.7734 142.266C88.4062 141.914 89.2109 141.742 90.2031 141.742C91.4141 141.742 92.2891 142.07 92.7656 142.672C92.9297 142.883 93.0391 143.148 93.1094 143.484C93.1797 143.82 93.2109 144.375 93.2109 145.148ZM91.3594 147.359L91.3516 146.156C90.9219 146.062 90.5234 146.016 90.1719 146.016C89.0078 146.016 88.3125 146.57 88.3125 147.484C88.3125 148.352 88.9219 148.914 89.8828 148.914C90.9453 148.914 91.3594 148.492 91.3594 147.359ZM95 146.109C95 144.852 95.4062 143.812 96.2188 142.984C97.0391 142.156 98.0547 141.742 99.2734 141.742C100.164 141.742 100.922 141.977 101.547 142.445C102.18 142.906 102.492 143.453 102.492 144.078C102.492 144.578 102.102 144.93 101.562 144.93C101.289 144.93 101.062 144.867 100.898 144.734C100.734 144.602 100.555 144.32 100.367 143.875C100.023 143.094 99.6484 142.828 98.9844 142.828C97.7266 142.828 96.9844 143.805 96.9844 145.484C96.9844 146.453 97.2344 147.242 97.7344 147.852C98.2344 148.461 98.875 148.766 99.6562 148.766C100.195 148.766 100.688 148.617 101.102 148.336L101.414 148.102C101.703 147.875 101.93 147.758 102.094 147.758C102.32 147.758 102.461 147.898 102.461 148.125C102.461 148.398 102.203 148.828 101.852 149.133C101 149.883 100.102 150.227 99.0156 150.227C97.875 150.227 96.9219 149.836 96.1484 149.047C95.3828 148.258 95 147.273 95 146.109ZM106.117 141.969H107.938C108.211 141.969 108.289 142.047 108.289 142.352V142.547C108.289 142.828 108.188 142.945 107.938 142.945H106.258C106.156 142.945 106.086 143.039 106.086 143.203V147.25C106.086 147.945 106.141 148.383 106.258 148.562C106.375 148.742 106.594 148.828 106.914 148.828C107.086 148.828 107.305 148.781 107.57 148.695C107.844 148.609 108.031 148.562 108.133 148.562C108.375 148.562 108.547 148.719 108.547 148.945C108.547 149.242 108.312 149.531 107.852 149.812C107.391 150.086 106.875 150.227 106.289 150.227C105.609 150.227 105.07 150.047 104.688 149.695C104.492 149.516 104.359 149.281 104.281 148.984C104.203 148.68 104.164 148.125 104.164 147.312V142.945H103.414C103.188 142.945 103.109 142.867 103.109 142.672V142.477C103.109 142.297 103.391 141.969 103.961 141.484L104.297 141.195L104.609 140.922C105.172 140.43 105.555 140.18 105.766 140.18C105.984 140.18 106.117 140.281 106.117 140.445V141.969ZM119.836 145.281L118.797 147.906C117.906 150.164 117.172 151.625 116.594 152.305C116.016 152.984 115.328 153.328 114.539 153.328C114.141 153.328 113.812 153.219 113.555 152.992C113.297 152.766 113.164 152.484 113.164 152.141C113.164 151.867 113.258 151.633 113.445 151.438C113.641 151.242 113.867 151.148 114.141 151.148C114.414 151.148 114.617 151.234 114.75 151.391C114.805 151.461 114.883 151.562 114.969 151.695C115.109 151.906 115.234 152.016 115.336 152.016C115.609 152.016 115.891 151.812 116.172 151.414C116.461 151.016 116.602 150.609 116.602 150.18C116.602 149.719 116.414 149.055 116.031 148.195C115.992 148.109 115.969 148.039 115.945 148C115.484 146.969 115.047 146.016 114.641 145.141C114.242 144.266 113.992 143.734 113.898 143.555C113.805 143.359 113.602 143.195 113.281 143.062L113.273 143.055C112.898 142.906 112.797 142.773 112.797 142.547C112.797 142.305 112.938 142.141 113.227 142.047C113.516 141.953 114.055 141.906 114.844 141.906C115.633 141.906 116.164 141.953 116.43 142.039C116.695 142.125 116.828 142.273 116.828 142.492C116.828 142.68 116.758 142.828 116.633 142.898C116.562 142.938 116.469 142.977 116.336 143.031C116.125 143.117 116.023 143.203 116.023 143.297C116.023 143.398 116.078 143.602 116.188 143.906C116.297 144.203 116.516 144.75 116.844 145.539C117.156 146.289 117.383 146.797 117.523 147.062C117.664 147.32 117.773 147.453 117.852 147.453C117.953 147.453 118.188 146.977 118.648 145.789C119.203 144.391 119.438 143.664 119.438 143.391C119.438 143.234 119.281 143.07 118.977 142.898C118.672 142.727 118.523 142.57 118.523 142.43C118.523 142.055 118.961 141.906 120.188 141.906C120.836 141.906 121.281 141.953 121.508 142.039C121.734 142.125 121.852 142.273 121.852 142.492C121.852 142.688 121.695 142.828 121.391 142.906C121.234 142.945 121.125 142.984 121.055 143.023C120.75 143.188 120.422 143.734 120.07 144.656L119.836 145.281ZM123.852 145.297C123.852 146.375 124.078 147.273 124.531 148C124.992 148.727 125.547 149.086 126.203 149.086C126.734 149.086 127.164 148.859 127.492 148.414C127.828 147.969 127.992 147.375 127.992 146.641C127.992 145.578 127.758 144.688 127.297 143.969C126.836 143.242 126.289 142.883 125.641 142.883C125.102 142.883 124.672 143.102 124.344 143.547C124.016 143.984 123.852 144.57 123.852 145.297ZM125.852 150.227C124.68 150.227 123.711 149.828 122.938 149.031C122.164 148.234 121.781 147.227 121.781 146.016C121.781 144.789 122.188 143.773 122.992 142.961C123.805 142.148 124.82 141.742 126.039 141.742C127.211 141.742 128.172 142.125 128.914 142.883C129.664 143.641 130.039 144.617 130.039 145.805C130.039 147.062 129.641 148.117 128.836 148.961C128.031 149.805 127.039 150.227 125.852 150.227ZM136.922 149.727V149.148C136.922 149.109 136.906 149.102 136.875 149.102C136.812 149.102 136.719 149.172 136.586 149.305L136.477 149.422C135.969 149.953 135.312 150.211 134.508 150.211C133.688 150.211 132.938 149.891 132.461 149.328C132.203 149.023 132.023 148.648 131.914 148.211C131.812 147.773 131.758 146.969 131.758 145.805C131.758 145.695 131.758 145.516 131.766 145.258C131.773 145 131.773 144.805 131.773 144.656V144.492C131.773 144.047 131.742 143.758 131.68 143.641C131.617 143.516 131.484 143.414 131.289 143.344C131.211 143.312 131.102 143.281 130.969 143.242C130.664 143.156 130.508 143.023 130.508 142.828C130.508 142.695 130.562 142.578 130.672 142.492C130.781 142.398 131.023 142.289 131.406 142.156C132.164 141.906 132.93 141.742 133.375 141.742C133.664 141.742 133.789 141.953 133.789 142.43C133.789 142.461 133.781 142.57 133.773 142.75C133.719 143.75 133.695 144.766 133.695 145.789C133.695 146.898 133.812 147.664 134.039 148.086C134.266 148.508 134.656 148.719 135.211 148.719C135.836 148.719 136.281 148.445 136.547 147.898C136.82 147.352 136.953 146.414 136.953 145.086V144.461C136.953 144.039 136.922 143.766 136.859 143.641C136.805 143.508 136.68 143.414 136.492 143.344C136.406 143.312 136.297 143.281 136.164 143.242C135.859 143.156 135.711 143.023 135.711 142.828C135.711 142.695 135.766 142.586 135.867 142.5C135.977 142.406 136.219 142.289 136.602 142.156C137.359 141.906 138.109 141.742 138.539 141.742C138.875 141.742 138.984 141.922 138.984 142.43C138.984 142.484 138.977 142.641 138.969 142.883C138.906 144.039 138.875 145.156 138.875 146.242C138.875 146.922 138.883 147.375 138.891 147.617C138.898 147.852 138.914 148.031 138.938 148.156C138.977 148.383 139.141 148.547 139.414 148.656H139.422L139.57 148.703C139.875 148.805 140.031 148.953 140.031 149.133C140.031 149.375 139.859 149.539 139.391 149.727C138.992 149.883 138.602 150.008 138.227 150.102C137.859 150.195 137.57 150.242 137.375 150.242C137.062 150.242 136.922 150.078 136.922 149.727Z" fill="black"/>
<path d="M33.2833 176L29.6853 166.06H31.0013L34.0813 174.684L37.1473 166.06H38.4633L34.8653 176H33.2833ZM42.2006 176.168C41.5006 176.168 40.894 176.009 40.3806 175.692C39.8766 175.375 39.4846 174.927 39.2046 174.348C38.934 173.76 38.7986 173.074 38.7986 172.29C38.7986 171.506 38.934 170.825 39.2046 170.246C39.4846 169.667 39.872 169.219 40.3666 168.902C40.8706 168.575 41.4633 168.412 42.1446 168.412C42.7886 168.412 43.358 168.566 43.8526 168.874C44.3473 169.173 44.73 169.611 45.0006 170.19C45.2806 170.769 45.4206 171.473 45.4206 172.304V172.654H40.0306C40.0773 173.447 40.2873 174.045 40.6606 174.446C41.0433 174.847 41.5566 175.048 42.2006 175.048C42.686 175.048 43.0826 174.936 43.3906 174.712C43.708 174.479 43.9273 174.175 44.0486 173.802L45.3086 173.9C45.1126 174.563 44.7393 175.109 44.1886 175.538C43.6473 175.958 42.9846 176.168 42.2006 176.168ZM40.0306 171.618H44.1326C44.0766 170.899 43.8666 170.372 43.5026 170.036C43.148 169.7 42.6953 169.532 42.1446 169.532C41.5753 169.532 41.104 169.709 40.7306 170.064C40.3666 170.409 40.1333 170.927 40.0306 171.618ZM47.0136 176V168.58H48.0496L48.1056 170.456L47.9936 170.414C48.0869 169.779 48.2876 169.317 48.5956 169.028C48.9129 168.729 49.3329 168.58 49.8556 168.58H50.5836V169.7H49.8696C49.4962 169.7 49.1836 169.77 48.9316 169.91C48.6889 170.041 48.5022 170.241 48.3716 170.512C48.2502 170.773 48.1896 171.109 48.1896 171.52V176H47.0136ZM51.8944 176V168.58H53.0704V176H51.8944ZM51.8664 167.418V166.046H53.0984V167.418H51.8664ZM55.5619 176V167.908C55.5619 167.357 55.7205 166.914 56.0379 166.578C56.3552 166.233 56.8499 166.06 57.5219 166.06H58.6979V167.096H57.6059C57.3165 167.096 57.0972 167.175 56.9479 167.334C56.8079 167.493 56.7379 167.712 56.7379 167.992V176H55.5619ZM54.5539 169.616V168.58H58.5999V169.616H54.5539ZM60.1399 176V168.58H61.3159V176H60.1399ZM60.1119 167.418V166.046H61.3439V167.418H60.1119ZM66.3178 176.168C65.6178 176.168 65.0111 176.009 64.4978 175.692C63.9938 175.375 63.6018 174.927 63.3218 174.348C63.0511 173.76 62.9158 173.074 62.9158 172.29C62.9158 171.506 63.0511 170.825 63.3218 170.246C63.6018 169.667 63.9891 169.219 64.4838 168.902C64.9878 168.575 65.5805 168.412 66.2618 168.412C66.9058 168.412 67.4751 168.566 67.9698 168.874C68.4645 169.173 68.8471 169.611 69.1178 170.19C69.3978 170.769 69.5378 171.473 69.5378 172.304V172.654H64.1478C64.1945 173.447 64.4045 174.045 64.7778 174.446C65.1605 174.847 65.6738 175.048 66.3178 175.048C66.8031 175.048 67.1998 174.936 67.5078 174.712C67.8251 174.479 68.0445 174.175 68.1658 173.802L69.4258 173.9C69.2298 174.563 68.8565 175.109 68.3058 175.538C67.7645 175.958 67.1018 176.168 66.3178 176.168ZM64.1478 171.618H68.2498C68.1938 170.899 67.9838 170.372 67.6198 170.036C67.2651 169.7 66.8125 169.532 66.2618 169.532C65.6925 169.532 65.2211 169.709 64.8478 170.064C64.4838 170.409 64.2505 170.927 64.1478 171.618ZM73.7627 176.168C73.1187 176.168 72.5587 176.009 72.0827 175.692C71.6161 175.375 71.2567 174.927 71.0047 174.348C70.7527 173.769 70.6267 173.083 70.6267 172.29C70.6267 171.497 70.7527 170.811 71.0047 170.232C71.2567 169.653 71.6161 169.205 72.0827 168.888C72.5587 168.571 73.1187 168.412 73.7627 168.412C74.2574 168.412 74.7101 168.519 75.1207 168.734C75.5314 168.939 75.8394 169.233 76.0447 169.616V166.06H77.2207V176H76.1567L76.1147 174.88C75.9094 175.281 75.5967 175.599 75.1767 175.832C74.7567 176.056 74.2854 176.168 73.7627 176.168ZM74.0007 175.048C74.4394 175.048 74.8081 174.936 75.1067 174.712C75.4147 174.488 75.6481 174.171 75.8067 173.76C75.9654 173.34 76.0447 172.85 76.0447 172.29C76.0447 171.711 75.9654 171.217 75.8067 170.806C75.6481 170.395 75.4147 170.083 75.1067 169.868C74.8081 169.644 74.4394 169.532 74.0007 169.532C73.3474 169.532 72.8247 169.779 72.4327 170.274C72.0501 170.759 71.8587 171.431 71.8587 172.29C71.8587 173.139 72.0501 173.811 72.4327 174.306C72.8247 174.801 73.3474 175.048 74.0007 175.048ZM85.6589 176.168C84.9962 176.168 84.4316 176.061 83.9649 175.846C83.5076 175.631 83.1482 175.337 82.8869 174.964C82.6349 174.581 82.4902 174.147 82.4529 173.662L83.6849 173.578C83.7596 174.026 83.9509 174.385 84.2589 174.656C84.5669 174.917 85.0336 175.048 85.6589 175.048C86.1629 175.048 86.5642 174.969 86.8629 174.81C87.1709 174.642 87.3249 174.376 87.3249 174.012C87.3249 173.816 87.2782 173.653 87.1849 173.522C87.0916 173.391 86.9096 173.279 86.6389 173.186C86.3682 173.083 85.9669 172.985 85.4349 172.892C84.7256 172.761 84.1656 172.603 83.7549 172.416C83.3536 172.22 83.0642 171.982 82.8869 171.702C82.7189 171.413 82.6349 171.072 82.6349 170.68C82.6349 170.017 82.8776 169.476 83.3629 169.056C83.8482 168.627 84.5389 168.412 85.4349 168.412C86.0416 168.412 86.5502 168.524 86.9609 168.748C87.3809 168.963 87.7076 169.252 87.9409 169.616C88.1836 169.971 88.3422 170.363 88.4169 170.792L87.1849 170.876C87.1289 170.615 87.0262 170.386 86.8769 170.19C86.7276 169.985 86.5316 169.826 86.2889 169.714C86.0462 169.593 85.7569 169.532 85.4209 169.532C84.8889 169.532 84.4969 169.635 84.2449 169.84C83.9929 170.045 83.8669 170.307 83.8669 170.624C83.8669 170.867 83.9229 171.067 84.0349 171.226C84.1562 171.375 84.3476 171.501 84.6089 171.604C84.8702 171.697 85.2202 171.781 85.6589 171.856C86.4149 171.987 87.0029 172.145 87.4229 172.332C87.8429 172.519 88.1369 172.747 88.3049 173.018C88.4729 173.289 88.5569 173.62 88.5569 174.012C88.5569 174.469 88.4262 174.861 88.1649 175.188C87.9129 175.505 87.5676 175.748 87.1289 175.916C86.6996 176.084 86.2096 176.168 85.6589 176.168ZM92.5909 176C91.9189 176 91.4195 175.846 91.0929 175.538C90.7755 175.23 90.6169 174.749 90.6169 174.096V166.844H91.7929V174.068C91.7929 174.404 91.8675 174.637 92.0169 174.768C92.1662 174.899 92.3949 174.964 92.7029 174.964H93.7669V176H92.5909ZM89.5249 169.616V168.58H93.7669V169.616H89.5249ZM97.7113 176.168C96.9739 176.168 96.3813 175.921 95.9333 175.426C95.4946 174.922 95.2753 174.231 95.2753 173.354V168.58H96.4513V173.032C96.4513 173.751 96.5773 174.283 96.8293 174.628C97.0906 174.964 97.4873 175.132 98.0193 175.132C98.6073 175.132 99.0693 174.945 99.4053 174.572C99.7413 174.189 99.9093 173.667 99.9093 173.004V168.58H101.085V176H99.9653V174.166L100.147 174.264C99.9979 174.871 99.7133 175.342 99.2933 175.678C98.8733 176.005 98.3459 176.168 97.7113 176.168ZM105.823 176.168C105.179 176.168 104.619 176.009 104.143 175.692C103.677 175.375 103.317 174.927 103.065 174.348C102.813 173.769 102.687 173.083 102.687 172.29C102.687 171.497 102.813 170.811 103.065 170.232C103.317 169.653 103.677 169.205 104.143 168.888C104.619 168.571 105.179 168.412 105.823 168.412C106.318 168.412 106.771 168.519 107.181 168.734C107.592 168.939 107.9 169.233 108.105 169.616V166.06H109.281V176H108.217L108.175 174.88C107.97 175.281 107.657 175.599 107.237 175.832C106.817 176.056 106.346 176.168 105.823 176.168ZM106.061 175.048C106.5 175.048 106.869 174.936 107.167 174.712C107.475 174.488 107.709 174.171 107.867 173.76C108.026 173.34 108.105 172.85 108.105 172.29C108.105 171.711 108.026 171.217 107.867 170.806C107.709 170.395 107.475 170.083 107.167 169.868C106.869 169.644 106.5 169.532 106.061 169.532C105.408 169.532 104.885 169.779 104.493 170.274C104.111 170.759 103.919 171.431 103.919 172.29C103.919 173.139 104.111 173.811 104.493 174.306C104.885 174.801 105.408 175.048 106.061 175.048ZM114.279 176.168C113.579 176.168 112.972 176.009 112.459 175.692C111.955 175.375 111.563 174.927 111.283 174.348C111.012 173.76 110.877 173.074 110.877 172.29C110.877 171.506 111.012 170.825 111.283 170.246C111.563 169.667 111.95 169.219 112.445 168.902C112.949 168.575 113.541 168.412 114.223 168.412C114.867 168.412 115.436 168.566 115.931 168.874C116.425 169.173 116.808 169.611 117.079 170.19C117.359 170.769 117.499 171.473 117.499 172.304V172.654H112.109C112.155 173.447 112.365 174.045 112.739 174.446C113.121 174.847 113.635 175.048 114.279 175.048C114.764 175.048 115.161 174.936 115.469 174.712C115.786 174.479 116.005 174.175 116.127 173.802L117.387 173.9C117.191 174.563 116.817 175.109 116.267 175.538C115.725 175.958 115.063 176.168 114.279 176.168ZM112.109 171.618H116.211C116.155 170.899 115.945 170.372 115.581 170.036C115.226 169.7 114.773 169.532 114.223 169.532C113.653 169.532 113.182 169.709 112.809 170.064C112.445 170.409 112.211 170.927 112.109 171.618ZM119.092 176V168.58H120.17L120.212 170.47L120.072 170.344C120.165 169.905 120.328 169.546 120.562 169.266C120.795 168.977 121.075 168.762 121.402 168.622C121.738 168.482 122.097 168.412 122.48 168.412C123.049 168.412 123.516 168.538 123.88 168.79C124.253 169.042 124.528 169.383 124.706 169.812C124.892 170.232 124.986 170.703 124.986 171.226V176H123.81V171.562C123.81 171.105 123.754 170.722 123.642 170.414C123.539 170.097 123.371 169.859 123.138 169.7C122.904 169.532 122.601 169.448 122.228 169.448C121.658 169.448 121.187 169.63 120.814 169.994C120.45 170.349 120.268 170.871 120.268 171.562V176H119.092ZM129.382 176C128.71 176 128.211 175.846 127.884 175.538C127.567 175.23 127.408 174.749 127.408 174.096V166.844H128.584V174.068C128.584 174.404 128.659 174.637 128.808 174.768C128.957 174.899 129.186 174.964 129.494 174.964H130.558V176H129.382ZM126.316 169.616V168.58H130.558V169.616H126.316ZM134.632 176.168C133.969 176.168 133.404 176.061 132.938 175.846C132.48 175.631 132.121 175.337 131.86 174.964C131.608 174.581 131.463 174.147 131.426 173.662L132.658 173.578C132.732 174.026 132.924 174.385 133.232 174.656C133.54 174.917 134.006 175.048 134.632 175.048C135.136 175.048 135.537 174.969 135.836 174.81C136.144 174.642 136.298 174.376 136.298 174.012C136.298 173.816 136.251 173.653 136.158 173.522C136.064 173.391 135.882 173.279 135.612 173.186C135.341 173.083 134.94 172.985 134.408 172.892C133.698 172.761 133.138 172.603 132.728 172.416C132.326 172.22 132.037 171.982 131.86 171.702C131.692 171.413 131.608 171.072 131.608 170.68C131.608 170.017 131.85 169.476 132.336 169.056C132.821 168.627 133.512 168.412 134.408 168.412C135.014 168.412 135.523 168.524 135.934 168.748C136.354 168.963 136.68 169.252 136.914 169.616C137.156 169.971 137.315 170.363 137.39 170.792L136.158 170.876C136.102 170.615 135.999 170.386 135.85 170.19C135.7 169.985 135.504 169.826 135.262 169.714C135.019 169.593 134.73 169.532 134.394 169.532C133.862 169.532 133.47 169.635 133.218 169.84C132.966 170.045 132.84 170.307 132.84 170.624C132.84 170.867 132.896 171.067 133.008 171.226C133.129 171.375 133.32 171.501 133.582 171.604C133.843 171.697 134.193 171.781 134.632 171.856C135.388 171.987 135.976 172.145 136.396 172.332C136.816 172.519 137.11 172.747 137.278 173.018C137.446 173.289 137.53 173.62 137.53 174.012C137.53 174.469 137.399 174.861 137.138 175.188C136.886 175.505 136.54 175.748 136.102 175.916C135.672 176.084 135.182 176.168 134.632 176.168ZM144.255 176L141.959 168.58H143.247L144.983 174.768L146.747 168.58H148.007L149.771 174.768L151.521 168.58H152.809L150.513 176H149.029L147.377 170.358L145.725 176H144.255ZM154.105 176V168.58H155.281V176H154.105ZM154.077 167.418V166.046H155.309V167.418H154.077ZM158.843 176C158.413 176 158.063 175.888 157.793 175.664C157.522 175.44 157.387 175.085 157.387 174.6V166.06H158.563V174.502C158.563 174.651 158.6 174.768 158.675 174.852C158.759 174.927 158.875 174.964 159.025 174.964H159.669V176H158.843ZM162.438 176C162.009 176 161.659 175.888 161.388 175.664C161.118 175.44 160.982 175.085 160.982 174.6V166.06H162.158V174.502C162.158 174.651 162.196 174.768 162.27 174.852C162.354 174.927 162.471 174.964 162.62 174.964H163.264V176H162.438ZM34.7772 194V186.58H35.8132L35.8692 188.456L35.7572 188.414C35.8506 187.779 36.0512 187.317 36.3592 187.028C36.6766 186.729 37.0966 186.58 37.6192 186.58H38.3472V187.7H37.6332C37.2599 187.7 36.9472 187.77 36.6952 187.91C36.4526 188.041 36.2659 188.241 36.1352 188.512C36.0139 188.773 35.9532 189.109 35.9532 189.52V194H34.7772ZM42.4194 194.168C41.7194 194.168 41.1127 194.009 40.5994 193.692C40.0954 193.375 39.7034 192.927 39.4234 192.348C39.1527 191.76 39.0174 191.074 39.0174 190.29C39.0174 189.506 39.1527 188.825 39.4234 188.246C39.7034 187.667 40.0907 187.219 40.5854 186.902C41.0894 186.575 41.682 186.412 42.3634 186.412C43.0074 186.412 43.5767 186.566 44.0714 186.874C44.566 187.173 44.9487 187.611 45.2194 188.19C45.4994 188.769 45.6394 189.473 45.6394 190.304V190.654H40.2494C40.296 191.447 40.506 192.045 40.8794 192.446C41.262 192.847 41.7754 193.048 42.4194 193.048C42.9047 193.048 43.3014 192.936 43.6094 192.712C43.9267 192.479 44.146 192.175 44.2674 191.802L45.5274 191.9C45.3314 192.563 44.958 193.109 44.4074 193.538C43.866 193.958 43.2034 194.168 42.4194 194.168ZM40.2494 189.618H44.3514C44.2954 188.899 44.0854 188.372 43.7214 188.036C43.3667 187.7 42.914 187.532 42.3634 187.532C41.794 187.532 41.3227 187.709 40.9494 188.064C40.5854 188.409 40.352 188.927 40.2494 189.618ZM49.4257 194.168C48.6604 194.168 48.049 193.991 47.5917 193.636C47.1437 193.281 46.9197 192.787 46.9197 192.152C46.9197 191.517 47.1064 191.018 47.4797 190.654C47.853 190.29 48.4457 190.033 49.2577 189.884L51.8897 189.394C51.8897 188.769 51.7404 188.302 51.4417 187.994C51.1524 187.686 50.7137 187.532 50.1257 187.532C49.6124 187.532 49.2064 187.649 48.9077 187.882C48.609 188.106 48.4037 188.433 48.2917 188.862L47.0457 188.764C47.1857 188.064 47.5217 187.499 48.0537 187.07C48.595 186.631 49.2857 186.412 50.1257 186.412C51.0777 186.412 51.8057 186.683 52.3097 187.224C52.8137 187.756 53.0657 188.493 53.0657 189.436V192.502C53.0657 192.67 53.0937 192.791 53.1497 192.866C53.215 192.931 53.3177 192.964 53.4577 192.964H53.7517V194C53.7144 194.009 53.6537 194.014 53.5697 194.014C53.4857 194.023 53.397 194.028 53.3037 194.028C52.9677 194.028 52.6924 193.977 52.4777 193.874C52.2724 193.762 52.123 193.594 52.0297 193.37C51.9364 193.137 51.8897 192.833 51.8897 192.46L52.0297 192.488C51.9644 192.805 51.8057 193.095 51.5537 193.356C51.3017 193.608 50.989 193.809 50.6157 193.958C50.2424 194.098 49.8457 194.168 49.4257 194.168ZM49.5377 193.132C50.0324 193.132 50.4524 193.039 50.7977 192.852C51.1524 192.656 51.423 192.395 51.6097 192.068C51.7964 191.732 51.8897 191.359 51.8897 190.948V190.416L49.4817 190.864C48.9777 190.957 48.6277 191.102 48.4317 191.298C48.245 191.485 48.1517 191.732 48.1517 192.04C48.1517 192.385 48.273 192.656 48.5157 192.852C48.7677 193.039 49.1084 193.132 49.5377 193.132ZM57.9506 194.168C57.26 194.168 56.658 194.009 56.1446 193.692C55.6406 193.375 55.2486 192.927 54.9686 192.348C54.6886 191.76 54.5486 191.074 54.5486 190.29C54.5486 189.506 54.6886 188.825 54.9686 188.246C55.2486 187.667 55.6406 187.219 56.1446 186.902C56.658 186.575 57.26 186.412 57.9506 186.412C58.52 186.412 59.024 186.515 59.4626 186.72C59.9106 186.916 60.2746 187.205 60.5546 187.588C60.8346 187.971 61.0166 188.437 61.1006 188.988L59.8686 189.072C59.7846 188.577 59.57 188.199 59.2246 187.938C58.8793 187.667 58.4546 187.532 57.9506 187.532C57.2693 187.532 56.7373 187.779 56.3546 188.274C55.972 188.759 55.7806 189.431 55.7806 190.29C55.7806 191.149 55.972 191.825 56.3546 192.32C56.7373 192.805 57.2693 193.048 57.9506 193.048C58.4546 193.048 58.8793 192.908 59.2246 192.628C59.57 192.348 59.7846 191.928 59.8686 191.368L61.1006 191.452C61.0166 192.003 60.8346 192.483 60.5546 192.894C60.2746 193.295 59.9106 193.608 59.4626 193.832C59.024 194.056 58.52 194.168 57.9506 194.168ZM62.5585 194V184.06H63.7345V188.218L63.5945 188.19C63.6878 187.779 63.8465 187.443 64.0705 187.182C64.2945 186.921 64.5698 186.729 64.8965 186.608C65.2231 186.477 65.5825 186.412 65.9745 186.412C66.5065 186.412 66.9545 186.533 67.3185 186.776C67.6918 187.009 67.9718 187.341 68.1585 187.77C68.3545 188.19 68.4525 188.675 68.4525 189.226V194H67.2765V189.562C67.2765 188.843 67.1458 188.311 66.8845 187.966C66.6325 187.621 66.2451 187.448 65.7225 187.448C65.1251 187.448 64.6445 187.63 64.2805 187.994C63.9165 188.358 63.7345 188.885 63.7345 189.576V194H62.5585ZM77.0912 194.168C76.4099 194.168 75.8126 194.009 75.2992 193.692C74.7859 193.375 74.3892 192.927 74.1092 192.348C73.8292 191.76 73.6892 191.074 73.6892 190.29C73.6892 189.497 73.8292 188.811 74.1092 188.232C74.3892 187.653 74.7859 187.205 75.2992 186.888C75.8126 186.571 76.4099 186.412 77.0912 186.412C77.7726 186.412 78.3652 186.571 78.8692 186.888C79.3826 187.205 79.7792 187.653 80.0592 188.232C80.3392 188.811 80.4792 189.497 80.4792 190.29C80.4792 191.074 80.3392 191.76 80.0592 192.348C79.7792 192.927 79.3826 193.375 78.8692 193.692C78.3652 194.009 77.7726 194.168 77.0912 194.168ZM77.0912 193.048C77.7726 193.048 78.2999 192.805 78.6732 192.32C79.0559 191.825 79.2472 191.149 79.2472 190.29C79.2472 189.431 79.0559 188.759 78.6732 188.274C78.2999 187.779 77.7726 187.532 77.0912 187.532C76.4099 187.532 75.8779 187.779 75.4952 188.274C75.1126 188.759 74.9212 189.431 74.9212 190.29C74.9212 191.149 75.1126 191.825 75.4952 192.32C75.8779 192.805 76.4099 193.048 77.0912 193.048ZM84.5179 194.168C83.7806 194.168 83.1879 193.921 82.7399 193.426C82.3012 192.922 82.0819 192.231 82.0819 191.354V186.58H83.2579V191.032C83.2579 191.751 83.3839 192.283 83.6359 192.628C83.8972 192.964 84.2939 193.132 84.8259 193.132C85.4139 193.132 85.8759 192.945 86.2119 192.572C86.5479 192.189 86.7159 191.667 86.7159 191.004V186.58H87.8919V194H86.7719V192.166L86.9539 192.264C86.8046 192.871 86.5199 193.342 86.0999 193.678C85.6799 194.005 85.1526 194.168 84.5179 194.168ZM92.4542 194C91.7822 194 91.2828 193.846 90.9562 193.538C90.6388 193.23 90.4802 192.749 90.4802 192.096V184.844H91.6562V192.068C91.6562 192.404 91.7308 192.637 91.8802 192.768C92.0295 192.899 92.2582 192.964 92.5662 192.964H93.6302V194H92.4542ZM89.3882 187.616V186.58H93.6302V187.616H89.3882ZM101.437 194C100.765 194 100.265 193.846 99.9386 193.538C99.6213 193.23 99.4626 192.749 99.4626 192.096V184.844H100.639V192.068C100.639 192.404 100.713 192.637 100.863 192.768C101.012 192.899 101.241 192.964 101.549 192.964H102.613V194H101.437ZM98.3706 187.616V186.58H102.613V187.616H98.3706ZM106.882 194.168C106.201 194.168 105.604 194.009 105.09 193.692C104.577 193.375 104.18 192.927 103.9 192.348C103.62 191.76 103.48 191.074 103.48 190.29C103.48 189.497 103.62 188.811 103.9 188.232C104.18 187.653 104.577 187.205 105.09 186.888C105.604 186.571 106.201 186.412 106.882 186.412C107.564 186.412 108.156 186.571 108.66 186.888C109.174 187.205 109.57 187.653 109.85 188.232C110.13 188.811 110.27 189.497 110.27 190.29C110.27 191.074 110.13 191.76 109.85 192.348C109.57 192.927 109.174 193.375 108.66 193.692C108.156 194.009 107.564 194.168 106.882 194.168ZM106.882 193.048C107.564 193.048 108.091 192.805 108.464 192.32C108.847 191.825 109.038 191.149 109.038 190.29C109.038 189.431 108.847 188.759 108.464 188.274C108.091 187.779 107.564 187.532 106.882 187.532C106.201 187.532 105.669 187.779 105.286 188.274C104.904 188.759 104.712 189.431 104.712 190.29C104.712 191.149 104.904 191.825 105.286 192.32C105.669 192.805 106.201 193.048 106.882 193.048ZM115.832 196.1V195.064H116.686C116.947 195.064 117.138 195.022 117.26 194.938C117.39 194.863 117.488 194.737 117.554 194.56L117.82 193.86H117.414L114.698 186.58H115.986L118.198 192.768L120.312 186.58H121.6L118.59 194.938C118.45 195.339 118.24 195.633 117.96 195.82C117.68 196.007 117.292 196.1 116.798 196.1H115.832ZM125.558 194.168C124.877 194.168 124.279 194.009 123.766 193.692C123.253 193.375 122.856 192.927 122.576 192.348C122.296 191.76 122.156 191.074 122.156 190.29C122.156 189.497 122.296 188.811 122.576 188.232C122.856 187.653 123.253 187.205 123.766 186.888C124.279 186.571 124.877 186.412 125.558 186.412C126.239 186.412 126.832 186.571 127.336 186.888C127.849 187.205 128.246 187.653 128.526 188.232C128.806 188.811 128.946 189.497 128.946 190.29C128.946 191.074 128.806 191.76 128.526 192.348C128.246 192.927 127.849 193.375 127.336 193.692C126.832 194.009 126.239 194.168 125.558 194.168ZM125.558 193.048C126.239 193.048 126.767 192.805 127.14 192.32C127.523 191.825 127.714 191.149 127.714 190.29C127.714 189.431 127.523 188.759 127.14 188.274C126.767 187.779 126.239 187.532 125.558 187.532C124.877 187.532 124.345 187.779 123.962 188.274C123.579 188.759 123.388 189.431 123.388 190.29C123.388 191.149 123.579 191.825 123.962 192.32C124.345 192.805 124.877 193.048 125.558 193.048ZM132.985 194.168C132.247 194.168 131.655 193.921 131.207 193.426C130.768 192.922 130.549 192.231 130.549 191.354V186.58H131.725V191.032C131.725 191.751 131.851 192.283 132.103 192.628C132.364 192.964 132.761 193.132 133.293 193.132C133.881 193.132 134.343 192.945 134.679 192.572C135.015 192.189 135.183 191.667 135.183 191.004V186.58H136.359V194H135.239V192.166L135.421 192.264C135.271 192.871 134.987 193.342 134.567 193.678C134.147 194.005 133.619 194.168 132.985 194.168ZM143.991 194L141.289 186.58H142.577L144.733 192.796L146.889 186.58H148.177L145.475 194H143.991ZM149.471 194V186.58H150.647V194H149.471ZM149.443 185.418V184.046H150.675V185.418H149.443ZM154.754 194.168C153.989 194.168 153.377 193.991 152.92 193.636C152.472 193.281 152.248 192.787 152.248 192.152C152.248 191.517 152.435 191.018 152.808 190.654C153.181 190.29 153.774 190.033 154.586 189.884L157.218 189.394C157.218 188.769 157.069 188.302 156.77 187.994C156.481 187.686 156.042 187.532 155.454 187.532C154.941 187.532 154.535 187.649 154.236 187.882C153.937 188.106 153.732 188.433 153.62 188.862L152.374 188.764C152.514 188.064 152.85 187.499 153.382 187.07C153.923 186.631 154.614 186.412 155.454 186.412C156.406 186.412 157.134 186.683 157.638 187.224C158.142 187.756 158.394 188.493 158.394 189.436V192.502C158.394 192.67 158.422 192.791 158.478 192.866C158.543 192.931 158.646 192.964 158.786 192.964H159.08V194C159.043 194.009 158.982 194.014 158.898 194.014C158.814 194.023 158.725 194.028 158.632 194.028C158.296 194.028 158.021 193.977 157.806 193.874C157.601 193.762 157.451 193.594 157.358 193.37C157.265 193.137 157.218 192.833 157.218 192.46L157.358 192.488C157.293 192.805 157.134 193.095 156.882 193.356C156.63 193.608 156.317 193.809 155.944 193.958C155.571 194.098 155.174 194.168 154.754 194.168ZM154.866 193.132C155.361 193.132 155.781 193.039 156.126 192.852C156.481 192.656 156.751 192.395 156.938 192.068C157.125 191.732 157.218 191.359 157.218 190.948V190.416L154.81 190.864C154.306 190.957 153.956 191.102 153.76 191.298C153.573 191.485 153.48 191.732 153.48 192.04C153.48 192.385 153.601 192.656 153.844 192.852C154.096 193.039 154.437 193.132 154.866 193.132ZM65.108 212L62.49 202.06H63.806L65.85 210.348L67.88 202.06H69.252L71.296 210.348L73.326 202.06H74.656L72.038 212H70.526L68.566 204.3L66.606 212H65.108ZM75.9979 212V202.06H77.1739V206.218L77.0339 206.19C77.1273 205.779 77.2859 205.443 77.5099 205.182C77.7339 204.921 78.0093 204.729 78.3359 204.608C78.6626 204.477 79.0219 204.412 79.4139 204.412C79.9459 204.412 80.3939 204.533 80.7579 204.776C81.1313 205.009 81.4113 205.341 81.5979 205.77C81.7939 206.19 81.8919 206.675 81.8919 207.226V212H80.7159V207.562C80.7159 206.843 80.5853 206.311 80.3239 205.966C80.0719 205.621 79.6846 205.448 79.1619 205.448C78.5646 205.448 78.0839 205.63 77.7199 205.994C77.3559 206.358 77.1739 206.885 77.1739 207.576V212H75.9979ZM85.998 212.168C85.2326 212.168 84.6213 211.991 84.164 211.636C83.716 211.281 83.492 210.787 83.492 210.152C83.492 209.517 83.6786 209.018 84.052 208.654C84.4253 208.29 85.018 208.033 85.83 207.884L88.462 207.394C88.462 206.769 88.3126 206.302 88.014 205.994C87.7246 205.686 87.286 205.532 86.698 205.532C86.1846 205.532 85.7786 205.649 85.48 205.882C85.1813 206.106 84.976 206.433 84.864 206.862L83.618 206.764C83.758 206.064 84.094 205.499 84.626 205.07C85.1673 204.631 85.858 204.412 86.698 204.412C87.65 204.412 88.378 204.683 88.882 205.224C89.386 205.756 89.638 206.493 89.638 207.436V210.502C89.638 210.67 89.666 210.791 89.722 210.866C89.7873 210.931 89.89 210.964 90.03 210.964H90.324V212C90.2866 212.009 90.226 212.014 90.142 212.014C90.058 212.023 89.9693 212.028 89.876 212.028C89.54 212.028 89.2646 211.977 89.05 211.874C88.8446 211.762 88.6953 211.594 88.602 211.37C88.5086 211.137 88.462 210.833 88.462 210.46L88.602 210.488C88.5366 210.805 88.378 211.095 88.126 211.356C87.874 211.608 87.5613 211.809 87.188 211.958C86.8146 212.098 86.418 212.168 85.998 212.168ZM86.11 211.132C86.6046 211.132 87.0246 211.039 87.37 210.852C87.7246 210.656 87.9953 210.395 88.182 210.068C88.3686 209.732 88.462 209.359 88.462 208.948V208.416L86.054 208.864C85.55 208.957 85.2 209.102 85.004 209.298C84.8173 209.485 84.724 209.732 84.724 210.04C84.724 210.385 84.8453 210.656 85.088 210.852C85.34 211.039 85.6806 211.132 86.11 211.132ZM93.9991 212C93.3271 212 92.8278 211.846 92.5011 211.538C92.1838 211.23 92.0251 210.749 92.0251 210.096V202.844H93.2011V210.068C93.2011 210.404 93.2758 210.637 93.4251 210.768C93.5744 210.899 93.8031 210.964 94.1111 210.964H95.1751V212H93.9991ZM90.9331 205.616V204.58H95.1751V205.616H90.9331ZM99.2488 212.168C98.5861 212.168 98.0214 212.061 97.5548 211.846C97.0974 211.631 96.7381 211.337 96.4768 210.964C96.2248 210.581 96.0801 210.147 96.0428 209.662L97.2748 209.578C97.3494 210.026 97.5408 210.385 97.8488 210.656C98.1568 210.917 98.6234 211.048 99.2488 211.048C99.7528 211.048 100.154 210.969 100.453 210.81C100.761 210.642 100.915 210.376 100.915 210.012C100.915 209.816 100.868 209.653 100.775 209.522C100.681 209.391 100.499 209.279 100.229 209.186C99.9581 209.083 99.5568 208.985 99.0248 208.892C98.3154 208.761 97.7554 208.603 97.3448 208.416C96.9434 208.22 96.6541 207.982 96.4768 207.702C96.3088 207.413 96.2248 207.072 96.2248 206.68C96.2248 206.017 96.4674 205.476 96.9528 205.056C97.4381 204.627 98.1288 204.412 99.0248 204.412C99.6314 204.412 100.14 204.524 100.551 204.748C100.971 204.963 101.297 205.252 101.531 205.616C101.773 205.971 101.932 206.363 102.007 206.792L100.775 206.876C100.719 206.615 100.616 206.386 100.467 206.19C100.317 205.985 100.121 205.826 99.8788 205.714C99.6361 205.593 99.3468 205.532 99.0108 205.532C98.4788 205.532 98.0868 205.635 97.8348 205.84C97.5828 206.045 97.4568 206.307 97.4568 206.624C97.4568 206.867 97.5128 207.067 97.6248 207.226C97.7461 207.375 97.9374 207.501 98.1988 207.604C98.4601 207.697 98.8101 207.781 99.2488 207.856C100.005 207.987 100.593 208.145 101.013 208.332C101.433 208.519 101.727 208.747 101.895 209.018C102.063 209.289 102.147 209.62 102.147 210.012C102.147 210.469 102.016 210.861 101.755 211.188C101.503 211.505 101.157 211.748 100.719 211.916C100.289 212.084 99.7994 212.168 99.2488 212.168ZM102.912 212L106.496 202.06H108.12L111.704 212H110.388L109.394 209.172H105.222L104.228 212H102.912ZM105.628 207.996H108.988L107.308 203.11L105.628 207.996ZM112.83 214.1V204.58H113.922L113.95 206.176L113.782 206.092C113.969 205.541 114.277 205.126 114.706 204.846C115.145 204.557 115.649 204.412 116.218 204.412C116.955 204.412 117.557 204.594 118.024 204.958C118.5 205.322 118.85 205.798 119.074 206.386C119.307 206.974 119.424 207.609 119.424 208.29C119.424 208.971 119.307 209.606 119.074 210.194C118.85 210.782 118.5 211.258 118.024 211.622C117.557 211.986 116.955 212.168 116.218 212.168C115.835 212.168 115.476 212.103 115.14 211.972C114.813 211.841 114.533 211.659 114.3 211.426C114.076 211.193 113.922 210.917 113.838 210.6L114.006 210.404V214.1H112.83ZM116.106 211.048C116.75 211.048 117.259 210.805 117.632 210.32C118.005 209.835 118.192 209.158 118.192 208.29C118.192 207.422 118.005 206.745 117.632 206.26C117.259 205.775 116.75 205.532 116.106 205.532C115.677 205.532 115.303 205.635 114.986 205.84C114.678 206.045 114.435 206.353 114.258 206.764C114.09 207.175 114.006 207.683 114.006 208.29C114.006 208.897 114.09 209.405 114.258 209.816C114.426 210.227 114.669 210.535 114.986 210.74C115.303 210.945 115.677 211.048 116.106 211.048ZM121.019 214.1V204.58H122.111L122.139 206.176L121.971 206.092C122.158 205.541 122.466 205.126 122.895 204.846C123.334 204.557 123.838 204.412 124.407 204.412C125.145 204.412 125.747 204.594 126.213 204.958C126.689 205.322 127.039 205.798 127.263 206.386C127.497 206.974 127.613 207.609 127.613 208.29C127.613 208.971 127.497 209.606 127.263 210.194C127.039 210.782 126.689 211.258 126.213 211.622C125.747 211.986 125.145 212.168 124.407 212.168C124.025 212.168 123.665 212.103 123.329 211.972C123.003 211.841 122.723 211.659 122.489 211.426C122.265 211.193 122.111 210.917 122.027 210.6L122.195 210.404V214.1H121.019ZM124.295 211.048C124.939 211.048 125.448 210.805 125.821 210.32C126.195 209.835 126.381 209.158 126.381 208.29C126.381 207.422 126.195 206.745 125.821 206.26C125.448 205.775 124.939 205.532 124.295 205.532C123.866 205.532 123.493 205.635 123.175 205.84C122.867 206.045 122.625 206.353 122.447 206.764C122.279 207.175 122.195 207.683 122.195 208.29C122.195 208.897 122.279 209.405 122.447 209.816C122.615 210.227 122.858 210.535 123.175 210.74C123.493 210.945 123.866 211.048 124.295 211.048ZM128.842 212V210.418H130.424V212H128.842Z" fill="black"/>
<path d="M7.99976 100H185" stroke="url(#paint1_linear_181_726)"/>
<g filter="url(#filter3_d_181_726)">
<rect x="83" y="226" width="28" height="28" rx="10" fill="#1BC969" shape-rendering="crispEdges"/>
<rect x="83" y="226" width="28" height="28" rx="10" stroke="white" stroke-width="2" shape-rendering="crispEdges"/>
<path d="M96.951 245.224C95.803 245.224 94.9163 244.958 94.291 244.426C93.675 243.894 93.3437 243.194 93.297 242.326L94.851 242.242C94.907 242.811 95.1217 243.222 95.495 243.474C95.8777 243.717 96.363 243.838 96.951 243.838C97.343 243.838 97.7023 243.787 98.029 243.684C98.365 243.572 98.631 243.395 98.827 243.152C99.0323 242.9 99.135 242.573 99.135 242.172C99.135 241.575 98.9343 241.136 98.533 240.856C98.1317 240.567 97.5997 240.422 96.937 240.422H96.111V239.106H96.937C97.469 239.106 97.9123 238.999 98.267 238.784C98.6217 238.569 98.799 238.196 98.799 237.664C98.799 237.197 98.6497 236.843 98.351 236.6C98.0523 236.348 97.595 236.222 96.979 236.222C96.3817 236.222 95.929 236.339 95.621 236.572C95.313 236.805 95.131 237.123 95.075 237.524L93.521 237.44C93.6143 236.656 93.955 236.026 94.543 235.55C95.1403 235.074 95.9523 234.836 96.979 234.836C97.6883 234.836 98.295 234.948 98.799 235.172C99.303 235.387 99.6903 235.699 99.961 236.11C100.232 236.521 100.367 237.001 100.367 237.552C100.367 238.159 100.171 238.653 99.779 239.036C99.3963 239.419 98.8317 239.68 98.085 239.82V239.568C98.897 239.671 99.5363 239.96 100.003 240.436C100.47 240.903 100.703 241.5 100.703 242.228C100.703 242.853 100.544 243.395 100.227 243.852C99.9097 244.3 99.471 244.641 98.911 244.874C98.351 245.107 97.6977 245.224 96.951 245.224Z" fill="white"/>
</g>
<defs>
<filter id="filter0_d_181_726" x="-0.000244141" y="0" width="193" height="243" filterUnits="userSpaceOnUse" color-interpolation-filters="sRGB">
<feFlood flood-opacity="0" result="BackgroundImageFix"/>
<feColorMatrix in="SourceAlpha" type="matrix" values="0 0 0 0 0 0 0 0 0 0 0 0 0 0 0 0 0 0 127 0" result="hardAlpha"/>
<feOffset dy="4"/>
<feGaussianBlur stdDeviation="4"/>
<feComposite in2="hardAlpha" operator="out"/>
<feColorMatrix type="matrix" values="0 0 0 0 0 0 0 0 0 0 0 0 0 0 0 0 0 0 0.07 0"/>
<feBlend mode="normal" in2="BackgroundImageFix" result="effect1_dropShadow_181_726"/>
<feBlend mode="normal" in="SourceGraphic" in2="effect1_dropShadow_181_726" result="shape"/>
</filter>
<filter id="filter1_d_181_726" x="22.1083" y="17.6549" width="90.2503" height="38.3782" filterUnits="userSpaceOnUse" color-interpolation-filters="sRGB">
<feFlood flood-opacity="0" result="BackgroundImageFix"/>
<feColorMatrix in="SourceAlpha" type="matrix" values="0 0 0 0 0 0 0 0 0 0 0 0 0 0 0 0 0 0 127 0" result="hardAlpha"/>
<feOffset dy="2"/>
<feGaussianBlur stdDeviation="2.3"/>
<feComposite in2="hardAlpha" operator="out"/>
<feColorMatrix type="matrix" values="0 0 0 0 0 0 0 0 0 0 0 0 0 0 0 0 0 0 0.1 0"/>
<feBlend mode="normal" in2="BackgroundImageFix" result="effect1_dropShadow_181_726"/>
<feBlend mode="normal" in="SourceGraphic" in2="effect1_dropShadow_181_726" result="shape"/>
</filter>
<filter id="filter2_d_181_726" x="82.6419" y="50.8424" width="90.2503" height="38.3689" filterUnits="userSpaceOnUse" color-interpolation-filters="sRGB">
<feFlood flood-opacity="0" result="BackgroundImageFix"/>
<feColorMatrix in="SourceAlpha" type="matrix" values="0 0 0 0 0 0 0 0 0 0 0 0 0 0 0 0 0 0 127 0" result="hardAlpha"/>
<feOffset dy="2"/>
<feGaussianBlur stdDeviation="2.3"/>
<feComposite in2="hardAlpha" operator="out"/>
<feColorMatrix type="matrix" values="0 0 0 0 0 0 0 0 0 0 0 0 0 0 0 0 0 0 0.1 0"/>
<feBlend mode="normal" in2="BackgroundImageFix" result="effect1_dropShadow_181_726"/>
<feBlend mode="normal" in="SourceGraphic" in2="effect1_dropShadow_181_726" result="shape"/>
</filter>
<filter id="filter3_d_181_726" x="78" y="222" width="38" height="38" filterUnits="userSpaceOnUse" color-interpolation-filters="sRGB">
<feFlood flood-opacity="0" result="BackgroundImageFix"/>
<feColorMatrix in="SourceAlpha" type="matrix" values="0 0 0 0 0 0 0 0 0 0 0 0 0 0 0 0 0 0 127 0" result="hardAlpha"/>
<feOffset dy="1"/>
<feGaussianBlur stdDeviation="2"/>
<feComposite in2="hardAlpha" operator="out"/>
<feColorMatrix type="matrix" values="0 0 0 0 0 0 0 0 0 0 0 0 0 0 0 0 0 0 0.15 0"/>
<feBlend mode="normal" in2="BackgroundImageFix" result="effect1_dropShadow_181_726"/>
<feBlend mode="normal" in="SourceGraphic" in2="effect1_dropShadow_181_726" result="shape"/>
</filter>
<linearGradient id="paint0_linear_181_726" x1="185" y1="99" x2="7.99976" y2="4" gradientUnits="userSpaceOnUse">
<stop stop-color="#2BD06E" stop-opacity="0.2"/>
<stop offset="1" stop-color="#2BD06E" stop-opacity="0"/>
</linearGradient>
<linearGradient id="paint1_linear_181_726" x1="7.99976" y1="100.5" x2="185" y2="100.5" gradientUnits="userSpaceOnUse">
<stop stop-color="#B1F4CB" stop-opacity="0.7"/>
<stop offset="1" stop-color="#B1F4CB" stop-opacity="0.5"/>
</linearGradient>
</defs>
</svg>
