<svg width="277" height="261" viewBox="0 0 277 261" fill="none" xmlns="http://www.w3.org/2000/svg">
<path opacity="0.2" d="M57.4678 53C68.7196 53 78.2931 54.607 86.1553 57.8604C94.0157 61.113 100.033 65.8133 104.146 71.9834C108.256 78.148 110.294 85.3897 110.294 93.667C110.294 102.282 107.412 109.454 101.628 115.104L101.629 115.105C98.0701 118.664 93.5206 121.485 88.0078 123.589C94.9959 125.815 100.744 129.151 105.217 133.624C111.806 140.213 115.078 148.719 115.078 159.049C115.078 168.136 112.701 176.053 107.915 182.753L107.909 182.761C103.134 189.309 96.4649 194.332 87.9482 197.847L87.9355 197.852C79.4193 201.231 69.3883 202.905 57.8662 202.905C40.1852 202.905 26.3703 198.888 16.5615 190.714C16.5578 190.711 16.5545 190.707 16.5508 190.704C6.88502 182.4 1.72997 171.234 1.05371 157.303C1.04089 157.036 1.13522 156.776 1.31543 156.579C1.49567 156.382 1.7471 156.266 2.01367 156.256L32.9111 155.06L33.0088 155.061C33.4961 155.089 33.8986 155.469 33.9453 155.965C34.5917 162.816 36.9614 167.703 40.9277 170.809C45.0901 173.83 50.7047 175.391 57.8662 175.391C62.5505 175.391 66.6792 174.741 70.2676 173.462C73.8256 172.062 76.5844 169.982 78.585 167.231L78.6025 167.208C80.7022 164.491 81.7831 161.063 81.7832 156.856C81.7832 150.334 79.5619 145.619 75.2246 142.521C75.2197 142.517 75.2148 142.513 75.21 142.51C70.7856 139.223 64.7069 137.524 56.8691 137.524H44.3115C43.7594 137.524 43.3117 137.077 43.3115 136.524V113.999C43.3117 113.447 43.7593 112.999 44.3115 112.999H56.8691C62.8476 112.999 67.6977 111.765 71.4834 109.367C75.2345 106.944 77.1982 102.864 77.1982 96.8564C77.1982 91.7665 75.6177 87.8674 72.5381 85.0342C72.533 85.0295 72.5275 85.0253 72.5225 85.0205C69.4673 82.0876 64.5248 80.5147 57.4678 80.5146C50.402 80.5146 45.2878 81.9578 41.9531 84.6748C38.5566 87.4424 36.4869 91.0128 35.7295 95.4307C35.6439 95.9302 35.1975 96.2871 34.6914 96.2607L4.19336 94.666C3.91842 94.6516 3.66161 94.5243 3.4834 94.3145C3.30518 94.1046 3.22155 93.8303 3.25195 93.5566C4.60947 81.3396 9.98727 71.5236 19.376 64.1758C28.9041 56.6899 41.6365 53 57.4678 53Z" fill="url(#paint0_linear_93_4547)" stroke="#1CC969" stroke-width="2" stroke-linejoin="round"/>
<g filter="url(#filter0_d_93_4547)">
<rect x="91.5527" y="4" width="177" height="245" rx="12" fill="white"/>
</g>
<path d="M91.5527 16C91.5527 9.37258 96.9253 4 103.553 4H256.553C263.18 4 268.553 9.37258 268.553 16V99H91.5527V16Z" fill="url(#paint1_linear_93_4547)"/>
<g opacity="0.1">
<circle cx="92.9216" cy="5.36885" r="1.36885" fill="#15C865"/>
<circle cx="106.61" cy="5.36885" r="1.36885" fill="#15C865"/>
<circle cx="120.299" cy="5.36885" r="1.36885" fill="#15C865"/>
<circle cx="133.987" cy="5.36885" r="1.36885" fill="#15C865"/>
<circle cx="147.675" cy="5.36885" r="1.36885" fill="#15C865"/>
<circle cx="161.364" cy="5.36885" r="1.36885" fill="#15C865"/>
<circle cx="175.053" cy="5.36885" r="1.36885" fill="#15C865"/>
<circle cx="188.741" cy="5.36885" r="1.36885" fill="#15C865"/>
<circle cx="202.43" cy="5.36885" r="1.36885" fill="#15C865"/>
<circle cx="216.118" cy="5.36885" r="1.36885" fill="#15C865"/>
<circle cx="229.807" cy="5.36885" r="1.36885" fill="#15C865"/>
<circle cx="243.495" cy="5.36885" r="1.36885" fill="#15C865"/>
<circle cx="257.184" cy="5.36885" r="1.36885" fill="#15C865"/>
<circle cx="97.9216" cy="19.0573" r="1.36885" fill="#15C865"/>
<circle cx="111.61" cy="19.0573" r="1.36885" fill="#15C865"/>
<circle cx="125.299" cy="19.0573" r="1.36885" fill="#15C865"/>
<circle cx="138.987" cy="19.0573" r="1.36885" fill="#15C865"/>
<circle cx="152.676" cy="19.0573" r="1.36885" fill="#15C865"/>
<circle cx="166.364" cy="19.0573" r="1.36885" fill="#15C865"/>
<circle cx="180.053" cy="19.0573" r="1.36885" fill="#15C865"/>
<circle cx="193.741" cy="19.0573" r="1.36885" fill="#15C865"/>
<circle cx="207.43" cy="19.0573" r="1.36885" fill="#15C865"/>
<circle cx="221.118" cy="19.0573" r="1.36885" fill="#15C865"/>
<circle cx="234.807" cy="19.0573" r="1.36885" fill="#15C865"/>
<circle cx="248.495" cy="19.0573" r="1.36885" fill="#15C865"/>
<circle cx="262.184" cy="19.0573" r="1.36885" fill="#15C865"/>
<circle cx="92.9216" cy="32.7458" r="1.36885" fill="#15C865"/>
<circle cx="106.61" cy="32.7458" r="1.36885" fill="#15C865"/>
<circle cx="120.299" cy="32.7458" r="1.36885" fill="#15C865"/>
<circle cx="133.987" cy="32.7458" r="1.36885" fill="#15C865"/>
<circle cx="147.675" cy="32.7458" r="1.36885" fill="#15C865"/>
<circle cx="161.364" cy="32.7458" r="1.36885" fill="#15C865"/>
<circle cx="175.053" cy="32.7458" r="1.36885" fill="#15C865"/>
<circle cx="188.741" cy="32.7458" r="1.36885" fill="#15C865"/>
<circle cx="202.43" cy="32.7458" r="1.36885" fill="#15C865"/>
<circle cx="216.118" cy="32.7458" r="1.36885" fill="#15C865"/>
<circle cx="229.807" cy="32.7458" r="1.36885" fill="#15C865"/>
<circle cx="243.495" cy="32.7458" r="1.36885" fill="#15C865"/>
<circle cx="257.184" cy="32.7458" r="1.36885" fill="#15C865"/>
<circle cx="97.9216" cy="46.4345" r="1.36885" fill="#15C865"/>
<circle cx="111.61" cy="46.4345" r="1.36885" fill="#15C865"/>
<circle cx="125.299" cy="46.4345" r="1.36885" fill="#15C865"/>
<circle cx="138.987" cy="46.4345" r="1.36885" fill="#15C865"/>
<circle cx="152.676" cy="46.4345" r="1.36885" fill="#15C865"/>
<circle cx="166.364" cy="46.4345" r="1.36885" fill="#15C865"/>
<circle cx="180.053" cy="46.4345" r="1.36885" fill="#15C865"/>
<circle cx="193.741" cy="46.4345" r="1.36885" fill="#15C865"/>
<circle cx="207.43" cy="46.4345" r="1.36885" fill="#15C865"/>
<circle cx="221.118" cy="46.4345" r="1.36885" fill="#15C865"/>
<circle cx="234.807" cy="46.4345" r="1.36885" fill="#15C865"/>
<circle cx="248.495" cy="46.4345" r="1.36885" fill="#15C865"/>
<circle cx="262.184" cy="46.4345" r="1.36885" fill="#15C865"/>
<circle cx="92.9216" cy="60.123" r="1.36885" fill="#15C865"/>
<circle cx="106.61" cy="60.123" r="1.36885" fill="#15C865"/>
<circle cx="120.299" cy="60.123" r="1.36885" fill="#15C865"/>
<circle cx="133.987" cy="60.123" r="1.36885" fill="#15C865"/>
<circle cx="147.675" cy="60.123" r="1.36885" fill="#15C865"/>
<circle cx="161.364" cy="60.123" r="1.36885" fill="#15C865"/>
<circle cx="175.053" cy="60.123" r="1.36885" fill="#15C865"/>
<circle cx="188.741" cy="60.123" r="1.36885" fill="#15C865"/>
<circle cx="202.43" cy="60.123" r="1.36885" fill="#15C865"/>
<circle cx="216.118" cy="60.123" r="1.36885" fill="#15C865"/>
<circle cx="229.807" cy="60.123" r="1.36885" fill="#15C865"/>
<circle cx="243.495" cy="60.123" r="1.36885" fill="#15C865"/>
<circle cx="257.184" cy="60.123" r="1.36885" fill="#15C865"/>
<circle cx="97.9216" cy="73.8115" r="1.36885" fill="#15C865"/>
<circle cx="111.61" cy="73.8115" r="1.36885" fill="#15C865"/>
<circle cx="125.299" cy="73.8115" r="1.36885" fill="#15C865"/>
<circle cx="138.987" cy="73.8115" r="1.36885" fill="#15C865"/>
<circle cx="152.676" cy="73.8115" r="1.36885" fill="#15C865"/>
<circle cx="166.364" cy="73.8115" r="1.36885" fill="#15C865"/>
<circle cx="180.053" cy="73.8115" r="1.36885" fill="#15C865"/>
<circle cx="193.741" cy="73.8115" r="1.36885" fill="#15C865"/>
<circle cx="207.43" cy="73.8115" r="1.36885" fill="#15C865"/>
<circle cx="221.118" cy="73.8115" r="1.36885" fill="#15C865"/>
<circle cx="234.807" cy="73.8115" r="1.36885" fill="#15C865"/>
<circle cx="248.495" cy="73.8115" r="1.36885" fill="#15C865"/>
<circle cx="262.184" cy="73.8115" r="1.36885" fill="#15C865"/>
<circle cx="92.9216" cy="87.5" r="1.36885" fill="#15C865"/>
<circle cx="106.61" cy="87.5" r="1.36885" fill="#15C865"/>
<circle cx="120.299" cy="87.5" r="1.36885" fill="#15C865"/>
<circle cx="133.987" cy="87.5" r="1.36885" fill="#15C865"/>
<circle cx="147.675" cy="87.5" r="1.36885" fill="#15C865"/>
<circle cx="161.364" cy="87.5" r="1.36885" fill="#15C865"/>
<circle cx="175.053" cy="87.5" r="1.36885" fill="#15C865"/>
<circle cx="188.741" cy="87.5" r="1.36885" fill="#15C865"/>
<circle cx="202.43" cy="87.5" r="1.36885" fill="#15C865"/>
<circle cx="216.118" cy="87.5" r="1.36885" fill="#15C865"/>
<circle cx="229.807" cy="87.5" r="1.36885" fill="#15C865"/>
<circle cx="243.495" cy="87.5" r="1.36885" fill="#15C865"/>
<circle cx="257.184" cy="87.5" r="1.36885" fill="#15C865"/>
<circle cx="97.9216" cy="101.188" r="1.36885" fill="#15C865"/>
<circle cx="111.61" cy="101.188" r="1.36885" fill="#15C865"/>
<circle cx="125.299" cy="101.188" r="1.36885" fill="#15C865"/>
<circle cx="138.987" cy="101.188" r="1.36885" fill="#15C865"/>
<circle cx="152.676" cy="101.188" r="1.36885" fill="#15C865"/>
<circle cx="166.364" cy="101.188" r="1.36885" fill="#15C865"/>
<circle cx="180.053" cy="101.188" r="1.36885" fill="#15C865"/>
<circle cx="193.741" cy="101.188" r="1.36885" fill="#15C865"/>
<circle cx="207.43" cy="101.188" r="1.36885" fill="#15C865"/>
<circle cx="221.118" cy="101.188" r="1.36885" fill="#15C865"/>
<circle cx="234.807" cy="101.188" r="1.36885" fill="#15C865"/>
<circle cx="248.495" cy="101.188" r="1.36885" fill="#15C865"/>
<circle cx="262.184" cy="101.188" r="1.36885" fill="#15C865"/>
</g>
<mask id="mask0_93_4547" style="mask-type:alpha" maskUnits="userSpaceOnUse" x="91" y="4" width="178" height="95">
<path d="M91.5527 16C91.5527 9.37258 96.9253 4 103.553 4H256.553C263.18 4 268.553 9.37258 268.553 16V99H91.5527V16Z" fill="#2BD06E"/>
</mask>
<g mask="url(#mask0_93_4547)">
<path d="M175.957 8.50293C177.533 6.89387 180.122 6.89387 181.698 8.50293L186.046 12.9424C186.614 13.5229 187.476 13.7064 188.231 13.4072L194.009 11.1191C196.103 10.2902 198.469 11.3441 199.254 13.4551L201.42 19.2793C201.703 20.0407 202.416 20.5578 203.228 20.5918L209.436 20.8516C211.686 20.9458 213.419 22.8713 213.277 25.1191L212.888 31.3203C212.837 32.1313 213.277 32.8946 214.005 33.2559L219.57 36.0176C221.588 37.019 222.388 39.4835 221.345 41.4795L218.466 46.9854C218.089 47.7054 218.181 48.581 218.699 49.207L222.66 53.9951C224.096 55.7305 223.825 58.3071 222.06 59.7061L217.19 63.5654C216.554 64.0701 216.282 64.9069 216.5 65.6895L218.171 71.6748C218.777 73.8441 217.481 76.0874 215.3 76.6475L209.281 78.1924C208.494 78.3944 207.905 79.0487 207.786 79.8525L206.879 86C206.55 88.228 204.454 89.7507 202.233 89.375L196.106 88.3389C195.305 88.2035 194.502 88.5612 194.066 89.2471L190.736 94.4932C189.53 96.3949 186.996 96.9339 185.12 95.6875L179.944 92.249C179.268 91.7994 178.388 91.7994 177.711 92.249L172.535 95.6875C170.659 96.9339 168.126 96.3949 166.919 94.4932L163.589 89.2471C163.154 88.5612 162.35 88.2035 161.549 88.3389L155.422 89.375C153.201 89.7507 151.105 88.228 150.776 86L149.869 79.8525C149.75 79.0487 149.161 78.3944 148.374 78.1924L142.355 76.6475C140.174 76.0874 138.879 73.8441 139.484 71.6748L141.155 65.6895C141.374 64.9069 141.102 64.0701 140.465 63.5654L135.596 59.7061C133.831 58.3071 133.559 55.7305 134.995 53.9951L138.956 49.207C139.474 48.581 139.566 47.7054 139.189 46.9854L136.311 41.4795C135.267 39.4835 136.067 37.019 138.085 36.0176L143.65 33.2559C144.378 32.8946 144.819 32.1313 144.768 31.3203L144.378 25.1191C144.236 22.8713 145.969 20.9458 148.22 20.8516L154.428 20.5918C155.239 20.5578 155.952 20.0407 156.235 19.2793L158.401 13.4551C159.186 11.3441 161.552 10.2902 163.646 11.1191L169.424 13.4072C170.179 13.7064 171.041 13.5229 171.609 12.9424L175.957 8.50293Z" fill="#1CC969" stroke="white" stroke-width="2"/>
<path d="M166.913 54.551L174.684 61.9842L189.551 40.3604" stroke="white" stroke-width="5.40596" stroke-linecap="round" stroke-linejoin="round"/>
<g filter="url(#filter1_d_93_4547)">
<rect x="116.969" y="20.4866" width="73.7888" height="28.0621" rx="10.0621" fill="white"/>
<rect x="116.692" y="20.2099" width="74.3422" height="28.6155" rx="10.3388" stroke="black" stroke-opacity="0.06" stroke-width="0.553416"/>
<path d="M116.957 36.8406L116.957 33.4866H123.246V45.2257C120.178 47.9532 114.337 48.4627 112.262 48.5579C112.004 48.5697 111.872 48.2461 112.054 48.0633C113.435 46.6738 116.957 42.57 116.957 36.8406Z" fill="white"/>
<mask id="mask1_93_4547" style="mask-type:alpha" maskUnits="userSpaceOnUse" x="110" y="35" width="12" height="16">
<path d="M110.668 50.2563H121.988V47.8618C120.089 46.839 118.542 45.2632 117.561 43.3374C116.618 41.4877 116.446 39.1719 116.414 35.1636H110.668V50.2563Z" fill="#8B1A1A"/>
</mask>
<g mask="url(#mask1_93_4547)">
<path d="M116.957 36.8406L116.957 33.4866H123.246V45.2257C120.178 47.9532 114.337 48.4627 112.262 48.5579C112.004 48.5697 111.872 48.2461 112.054 48.0633C113.435 46.6738 116.957 42.57 116.957 36.8406Z" fill="white"/>
<path d="M116.681 33.2102V36.8411C116.68 42.4587 113.223 46.4951 111.857 47.8684C111.515 48.2133 111.741 48.8587 112.274 48.8342C113.321 48.7862 115.318 48.6339 117.443 48.1487C119.562 47.665 121.843 46.8428 123.43 45.4329L123.522 45.3499V33.2102H116.681Z" stroke="black" stroke-opacity="0.06" stroke-width="0.553416"/>
</g>
</g>
<g filter="url(#filter2_d_93_4547)">
<rect width="73.7888" height="28.0621" rx="10.0621" transform="matrix(-1 0 0 1 245.137 53.3267)" fill="white"/>
<rect x="0.276708" y="-0.276708" width="74.3422" height="28.6155" rx="10.3388" transform="matrix(-1 0 0 1 245.69 53.3267)" stroke="black" stroke-opacity="0.06" stroke-width="0.553416"/>
<path d="M245.137 69.2583L245.137 65.9043H238.848V77.6434C241.916 80.3709 247.757 80.8804 249.832 80.9756C250.09 80.9874 250.222 80.6638 250.04 80.481C248.659 79.0915 245.137 74.9877 245.137 69.2583Z" fill="white"/>
<mask id="mask2_93_4547" style="mask-type:alpha" maskUnits="userSpaceOnUse" x="240" y="67" width="12" height="16">
<path d="M251.426 82.6741H240.106V80.2795C242.005 79.2567 243.552 77.6809 244.533 75.7551C245.476 73.9054 245.648 71.5896 245.68 67.5813H251.426V82.6741Z" fill="#8B1A1A"/>
</mask>
<g mask="url(#mask2_93_4547)">
<path d="M245.137 69.2583L245.137 65.9043H238.848V77.6434C241.916 80.3709 247.757 80.8804 249.832 80.9756C250.09 80.9874 250.222 80.6638 250.04 80.481C248.659 79.0915 245.137 74.9877 245.137 69.2583Z" fill="white"/>
<path d="M245.413 65.6279V69.2588C245.414 74.8764 248.871 78.9128 250.237 80.2861C250.579 80.631 250.353 81.2764 249.82 81.252C248.773 81.204 246.776 81.0517 244.651 80.5664C242.532 80.0827 240.251 79.2605 238.664 77.8506L238.572 77.7676V65.6279H245.413Z" stroke="black" stroke-opacity="0.06" stroke-width="0.553416"/>
</g>
</g>
</g>
<path d="M91.5527 99H268.553V233C268.553 241.837 261.389 249 252.553 249H107.553C98.7162 249 91.5527 241.837 91.5527 233V99Z" fill="white"/>
<path d="M126.42 124.461L124.818 128.289L124.537 128.992C124.201 129.867 123.912 130.305 123.67 130.305C123.49 130.305 123.303 130.078 123.107 129.625L122.998 129.383C122.318 127.945 121.451 125.867 120.396 123.148C120.014 122.164 119.732 121.438 119.537 120.961C119.193 120.117 118.912 119.688 118.576 119.508C118.521 119.477 118.436 119.438 118.311 119.398C117.99 119.289 117.826 119.125 117.826 118.914C117.826 118.688 117.951 118.539 118.209 118.461C118.467 118.375 119.115 118.336 120.162 118.336C121.209 118.336 121.857 118.375 122.115 118.461C122.373 118.539 122.498 118.688 122.498 118.914C122.498 119.125 122.279 119.312 121.834 119.469L121.787 119.492C121.529 119.586 121.412 119.727 121.412 119.969C121.412 120.164 121.545 120.648 121.811 121.406C122.084 122.164 122.537 123.344 123.17 124.93C123.443 125.594 123.639 126.039 123.764 126.266C123.889 126.484 123.998 126.594 124.084 126.594C124.17 126.594 124.264 126.508 124.365 126.328C124.475 126.148 124.662 125.75 124.928 125.117C125.67 123.391 126.162 122.203 126.404 121.547C126.646 120.883 126.771 120.445 126.771 120.227C126.771 119.883 126.615 119.664 126.264 119.508C126.225 119.484 126.162 119.461 126.084 119.43C125.764 119.297 125.6 119.125 125.6 118.914C125.6 118.688 125.709 118.539 125.928 118.461C126.154 118.375 126.717 118.336 127.615 118.336C128.482 118.336 129.029 118.375 129.256 118.461C129.482 118.539 129.6 118.688 129.6 118.914C129.6 119.125 129.443 119.297 129.123 119.438C128.967 119.508 128.85 119.562 128.771 119.617C128.389 119.859 127.842 120.875 127.139 122.672C126.842 123.43 126.6 124.023 126.42 124.461ZM134.686 125.875H130.779H130.67C130.365 125.875 130.186 125.898 130.131 125.945C130.076 125.992 130.045 126.117 130.045 126.32C130.045 127 130.287 127.578 130.771 128.07C131.256 128.555 131.842 128.797 132.537 128.797C133.131 128.797 133.678 128.625 134.201 128.258C134.271 128.203 134.373 128.133 134.498 128.031C134.771 127.805 134.982 127.695 135.131 127.695C135.373 127.695 135.545 127.875 135.545 128.094C135.545 128.352 135.256 128.766 134.795 129.133C133.85 129.914 133.029 130.227 131.998 130.227C130.842 130.227 129.873 129.836 129.1 129.047C128.326 128.258 127.943 127.273 127.943 126.109C127.943 124.836 128.342 123.797 129.131 122.977C129.928 122.156 130.943 121.742 132.186 121.742C133.232 121.742 134.061 122.039 134.67 122.641C135.287 123.234 135.592 124.039 135.592 125.055C135.592 125.391 135.545 125.609 135.443 125.719C135.342 125.82 135.092 125.875 134.686 125.875ZM130.615 124.945H133.256C133.67 124.945 133.771 124.883 133.771 124.641C133.771 124.117 133.592 123.672 133.24 123.32C132.889 122.961 132.451 122.781 131.912 122.781C131.396 122.781 130.967 122.961 130.631 123.32C130.295 123.672 130.123 124.117 130.123 124.641C130.123 124.883 130.209 124.945 130.615 124.945ZM139.303 122.891L139.326 123.055L139.404 123.086C139.959 122.211 140.576 121.742 141.193 121.742C141.943 121.742 142.428 122.234 142.428 122.992C142.428 123.75 142.068 124.211 141.451 124.211C141.146 124.211 140.896 124.102 140.701 123.891C140.631 123.82 140.568 123.711 140.514 123.57C140.459 123.43 140.396 123.359 140.334 123.359C139.959 123.359 139.693 123.617 139.545 124.141C139.396 124.656 139.326 125.742 139.326 127.391C139.326 128.336 139.451 128.789 139.74 128.914C139.818 128.945 139.928 128.984 140.061 129.023C140.389 129.125 140.553 129.289 140.553 129.508C140.553 129.711 140.404 129.859 140.1 129.945C139.795 130.031 139.271 130.078 138.521 130.078C137.701 130.078 137.154 130.031 136.889 129.945C136.623 129.859 136.49 129.695 136.49 129.453C136.49 129.273 136.623 129.133 136.881 129.039C136.982 129 137.061 128.969 137.1 128.945C137.381 128.789 137.482 128.484 137.482 127.664C137.482 127.562 137.482 127.383 137.475 127.117C137.467 126.852 137.467 126.633 137.467 126.461V125.984C137.467 124.977 137.443 124.328 137.396 124.023C137.357 123.719 137.279 123.539 137.162 123.469C137.076 123.43 136.951 123.383 136.787 123.328C136.467 123.227 136.303 123.078 136.303 122.898C136.303 122.641 136.467 122.477 136.959 122.289C137.334 122.141 137.693 122.016 138.045 121.93C138.396 121.836 138.646 121.789 138.779 121.789C139.037 121.789 139.217 122.156 139.303 122.891ZM145.67 123.281L145.607 125.359V125.406C145.584 126.312 145.576 126.977 145.576 127.406C145.576 127.922 145.6 128.289 145.646 128.5C145.693 128.711 145.779 128.852 145.896 128.914C145.967 128.953 146.068 128.992 146.201 129.047C146.475 129.148 146.615 129.297 146.615 129.508C146.615 129.719 146.482 129.867 146.217 129.953C145.951 130.039 145.467 130.078 144.756 130.078C143.928 130.078 143.381 130.031 143.107 129.945C142.842 129.859 142.709 129.695 142.709 129.453C142.709 129.273 142.842 129.133 143.107 129.031C143.209 128.992 143.279 128.969 143.318 128.945C143.6 128.789 143.701 128.484 143.701 127.664C143.701 127.562 143.701 127.383 143.693 127.117C143.686 126.852 143.686 126.633 143.686 126.461V125.617C143.686 124.766 143.662 124.203 143.623 123.945C143.584 123.688 143.506 123.523 143.396 123.469C143.311 123.43 143.186 123.383 143.014 123.328C142.686 123.227 142.521 123.078 142.521 122.898C142.521 122.656 142.709 122.477 143.178 122.289C143.592 122.125 143.998 122 144.404 121.898C144.811 121.797 145.1 121.742 145.271 121.742C145.561 121.742 145.686 121.93 145.686 122.43C145.686 122.828 145.678 123.039 145.67 123.281ZM143.209 119.312C143.209 119.008 143.334 118.742 143.592 118.523C143.85 118.305 144.154 118.195 144.521 118.195C144.873 118.195 145.17 118.297 145.396 118.492C145.631 118.688 145.748 118.938 145.748 119.234C145.748 119.531 145.623 119.781 145.365 119.992C145.115 120.203 144.803 120.305 144.42 120.305C143.725 120.305 143.209 119.883 143.209 119.312ZM150.092 121.969H151.271C151.545 121.969 151.623 122.047 151.623 122.352V122.547C151.623 122.828 151.521 122.945 151.271 122.945H150.107V127.133C150.107 127.828 150.131 128.289 150.17 128.5C150.209 128.711 150.287 128.844 150.396 128.898C150.475 128.938 150.584 128.977 150.717 129.023C151.037 129.133 151.193 129.297 151.193 129.508C151.193 129.719 151.061 129.859 150.795 129.945C150.529 130.023 149.998 130.062 149.209 130.062C148.42 130.062 147.889 130.023 147.623 129.938C147.357 129.852 147.225 129.703 147.225 129.484C147.225 129.312 147.35 129.18 147.607 129.086L147.818 128.992C147.951 128.922 148.037 128.797 148.092 128.625C148.146 128.445 148.17 128.125 148.17 127.664V126.883V122.945H147.256C147.006 122.945 146.92 122.852 146.92 122.547V122.352C146.92 122.078 147.021 121.969 147.271 121.969H148.131C148.061 121.508 148.021 121.117 148.021 120.75C148.021 119.93 148.271 119.289 148.764 118.828C149.264 118.367 149.959 118.141 150.857 118.141C151.475 118.141 151.975 118.281 152.357 118.562C152.74 118.836 152.936 119.188 152.936 119.617C152.936 120.125 152.654 120.398 152.123 120.398C151.779 120.398 151.498 120.234 151.318 119.953L151.162 119.656C150.967 119.266 150.709 119.07 150.389 119.07C149.982 119.07 149.701 119.359 149.701 119.789C149.701 119.914 149.764 120.219 149.889 120.695C150.014 121.172 150.084 121.594 150.092 121.969ZM154.92 123.281L154.857 125.359V125.406C154.834 126.312 154.826 126.977 154.826 127.406C154.826 127.922 154.85 128.289 154.896 128.5C154.943 128.711 155.029 128.852 155.146 128.914C155.217 128.953 155.318 128.992 155.451 129.047C155.725 129.148 155.865 129.297 155.865 129.508C155.865 129.719 155.732 129.867 155.467 129.953C155.201 130.039 154.717 130.078 154.006 130.078C153.178 130.078 152.631 130.031 152.357 129.945C152.092 129.859 151.959 129.695 151.959 129.453C151.959 129.273 152.092 129.133 152.357 129.031C152.459 128.992 152.529 128.969 152.568 128.945C152.85 128.789 152.951 128.484 152.951 127.664C152.951 127.562 152.951 127.383 152.943 127.117C152.936 126.852 152.936 126.633 152.936 126.461V125.617C152.936 124.766 152.912 124.203 152.873 123.945C152.834 123.688 152.756 123.523 152.646 123.469C152.561 123.43 152.436 123.383 152.264 123.328C151.936 123.227 151.771 123.078 151.771 122.898C151.771 122.656 151.959 122.477 152.428 122.289C152.842 122.125 153.248 122 153.654 121.898C154.061 121.797 154.35 121.742 154.521 121.742C154.811 121.742 154.936 121.93 154.936 122.43C154.936 122.828 154.928 123.039 154.92 123.281ZM152.459 119.312C152.459 119.008 152.584 118.742 152.842 118.523C153.1 118.305 153.404 118.195 153.771 118.195C154.123 118.195 154.42 118.297 154.646 118.492C154.881 118.688 154.998 118.938 154.998 119.234C154.998 119.531 154.873 119.781 154.615 119.992C154.365 120.203 154.053 120.305 153.67 120.305C152.975 120.305 152.459 119.883 152.459 119.312ZM163.389 125.875H159.482H159.373C159.068 125.875 158.889 125.898 158.834 125.945C158.779 125.992 158.748 126.117 158.748 126.32C158.748 127 158.99 127.578 159.475 128.07C159.959 128.555 160.545 128.797 161.24 128.797C161.834 128.797 162.381 128.625 162.904 128.258C162.975 128.203 163.076 128.133 163.201 128.031C163.475 127.805 163.686 127.695 163.834 127.695C164.076 127.695 164.248 127.875 164.248 128.094C164.248 128.352 163.959 128.766 163.498 129.133C162.553 129.914 161.732 130.227 160.701 130.227C159.545 130.227 158.576 129.836 157.803 129.047C157.029 128.258 156.646 127.273 156.646 126.109C156.646 124.836 157.045 123.797 157.834 122.977C158.631 122.156 159.646 121.742 160.889 121.742C161.936 121.742 162.764 122.039 163.373 122.641C163.99 123.234 164.295 124.039 164.295 125.055C164.295 125.391 164.248 125.609 164.146 125.719C164.045 125.82 163.795 125.875 163.389 125.875ZM159.318 124.945H161.959C162.373 124.945 162.475 124.883 162.475 124.641C162.475 124.117 162.295 123.672 161.943 123.32C161.592 122.961 161.154 122.781 160.615 122.781C160.1 122.781 159.67 122.961 159.334 123.32C158.998 123.672 158.826 124.117 158.826 124.641C158.826 124.883 158.912 124.945 159.318 124.945ZM171.373 129.633V129.234C171.373 129.109 171.342 129.023 171.311 129.023C171.287 129.023 171.209 129.078 171.061 129.195C170.92 129.305 170.803 129.398 170.701 129.469C170.053 129.961 169.443 130.18 168.779 130.18C167.764 130.18 166.936 129.812 166.295 129.086C165.662 128.352 165.342 127.398 165.342 126.227C165.342 124.906 165.709 123.828 166.436 122.992C167.17 122.156 168.115 121.742 169.279 121.742C169.834 121.742 170.412 121.875 171.006 122.148C171.123 122.203 171.186 122.227 171.209 122.227C171.295 122.227 171.326 122.133 171.326 121.82V120.867C171.326 120.484 171.287 120.227 171.217 120.078C171.146 119.93 171.014 119.812 170.811 119.742L170.592 119.68C170.256 119.586 170.092 119.445 170.092 119.25C170.092 119.102 170.154 118.977 170.287 118.875C170.42 118.773 170.686 118.641 171.1 118.492C171.732 118.266 172.318 118.141 172.764 118.141C173.131 118.141 173.279 118.336 173.279 118.812C173.279 118.852 173.271 118.992 173.264 119.227C173.209 120.836 173.178 122.516 173.178 124.258C173.178 126 173.193 127.141 173.232 127.664C173.271 128.188 173.334 128.477 173.42 128.547C173.506 128.602 173.686 128.664 173.975 128.734C174.264 128.797 174.412 128.922 174.412 129.117C174.412 129.367 174.021 129.617 173.232 129.875L173.146 129.906C172.701 130.055 172.115 130.156 171.803 130.156C171.498 130.156 171.373 130 171.373 129.633ZM171.295 126.852V124.625C171.287 124.289 171.271 124.07 171.248 123.953C171.225 123.836 171.186 123.734 171.131 123.664C170.779 123.188 170.068 122.852 169.404 122.852C168.803 122.852 168.318 123.102 167.959 123.594C167.6 124.086 167.42 124.766 167.42 125.617C167.42 126.531 167.615 127.273 168.006 127.844C168.404 128.414 168.904 128.703 169.514 128.703C170.67 128.703 171.295 128.062 171.295 126.852ZM180.936 130.031C180.756 130.164 180.6 130.227 180.436 130.227C180.334 130.227 180.217 130.172 180.1 130.078C179.92 129.93 179.756 129.633 179.6 129.195C179.443 128.758 179.365 128.336 179.365 127.938C179.365 127.594 179.576 127.328 179.85 127.328C180.1 127.328 180.35 127.547 180.607 127.984C180.732 128.203 180.834 128.367 180.92 128.477C181.24 128.906 181.842 129.172 182.49 129.172C183.209 129.172 183.654 128.781 183.654 128.18C183.654 127.719 183.201 127.273 182.287 126.836L181.818 126.609C180.967 126.188 180.396 125.797 180.1 125.445C179.803 125.094 179.654 124.656 179.654 124.141C179.654 123.43 179.896 122.859 180.389 122.414C180.881 121.969 181.521 121.742 182.311 121.742C182.693 121.742 183.084 121.781 183.467 121.875C183.771 121.742 183.975 121.68 184.1 121.68C184.365 121.68 184.623 121.891 184.873 122.32C185.131 122.75 185.256 123.195 185.256 123.664C185.256 124.047 185.084 124.273 184.771 124.273C184.521 124.273 184.311 124.102 183.975 123.57C183.568 122.906 183.17 122.672 182.568 122.672C181.936 122.672 181.514 123.062 181.514 123.633C181.514 123.875 181.607 124.094 181.803 124.289C181.998 124.484 182.443 124.75 183.123 125.086L183.217 125.133C184.725 125.875 185.482 126.688 185.482 127.57C185.482 128.328 185.193 128.961 184.607 129.469C184.029 129.977 183.303 130.227 182.436 130.227C182.068 130.227 181.584 130.156 180.936 130.031ZM189.217 121.969H191.037C191.311 121.969 191.389 122.047 191.389 122.352V122.547C191.389 122.828 191.287 122.945 191.037 122.945H189.357C189.256 122.945 189.186 123.039 189.186 123.203V127.25C189.186 127.945 189.24 128.383 189.357 128.562C189.475 128.742 189.693 128.828 190.014 128.828C190.186 128.828 190.404 128.781 190.67 128.695C190.943 128.609 191.131 128.562 191.232 128.562C191.475 128.562 191.646 128.719 191.646 128.945C191.646 129.242 191.412 129.531 190.951 129.812C190.49 130.086 189.975 130.227 189.389 130.227C188.709 130.227 188.17 130.047 187.787 129.695C187.592 129.516 187.459 129.281 187.381 128.984C187.303 128.68 187.264 128.125 187.264 127.312V122.945H186.514C186.287 122.945 186.209 122.867 186.209 122.672V122.477C186.209 122.297 186.49 121.969 187.061 121.484L187.396 121.195L187.709 120.922C188.271 120.43 188.654 120.18 188.865 120.18C189.084 120.18 189.217 120.281 189.217 120.445V121.969ZM198.209 129.727V129.148C198.209 129.109 198.193 129.102 198.162 129.102C198.1 129.102 198.006 129.172 197.873 129.305L197.764 129.422C197.256 129.953 196.6 130.211 195.795 130.211C194.975 130.211 194.225 129.891 193.748 129.328C193.49 129.023 193.311 128.648 193.201 128.211C193.1 127.773 193.045 126.969 193.045 125.805C193.045 125.695 193.045 125.516 193.053 125.258C193.061 125 193.061 124.805 193.061 124.656V124.492C193.061 124.047 193.029 123.758 192.967 123.641C192.904 123.516 192.771 123.414 192.576 123.344C192.498 123.312 192.389 123.281 192.256 123.242C191.951 123.156 191.795 123.023 191.795 122.828C191.795 122.695 191.85 122.578 191.959 122.492C192.068 122.398 192.311 122.289 192.693 122.156C193.451 121.906 194.217 121.742 194.662 121.742C194.951 121.742 195.076 121.953 195.076 122.43C195.076 122.461 195.068 122.57 195.061 122.75C195.006 123.75 194.982 124.766 194.982 125.789C194.982 126.898 195.1 127.664 195.326 128.086C195.553 128.508 195.943 128.719 196.498 128.719C197.123 128.719 197.568 128.445 197.834 127.898C198.107 127.352 198.24 126.414 198.24 125.086V124.461C198.24 124.039 198.209 123.766 198.146 123.641C198.092 123.508 197.967 123.414 197.779 123.344C197.693 123.312 197.584 123.281 197.451 123.242C197.146 123.156 196.998 123.023 196.998 122.828C196.998 122.695 197.053 122.586 197.154 122.5C197.264 122.406 197.506 122.289 197.889 122.156C198.646 121.906 199.396 121.742 199.826 121.742C200.162 121.742 200.271 121.922 200.271 122.43C200.271 122.484 200.264 122.641 200.256 122.883C200.193 124.039 200.162 125.156 200.162 126.242C200.162 126.922 200.17 127.375 200.178 127.617C200.186 127.852 200.201 128.031 200.225 128.156C200.264 128.383 200.428 128.547 200.701 128.656H200.709L200.857 128.703C201.162 128.805 201.318 128.953 201.318 129.133C201.318 129.375 201.146 129.539 200.678 129.727C200.279 129.883 199.889 130.008 199.514 130.102C199.146 130.195 198.857 130.242 198.662 130.242C198.35 130.242 198.209 130.078 198.209 129.727ZM208.092 129.633V129.234C208.092 129.109 208.061 129.023 208.029 129.023C208.006 129.023 207.928 129.078 207.779 129.195C207.639 129.305 207.521 129.398 207.42 129.469C206.771 129.961 206.162 130.18 205.498 130.18C204.482 130.18 203.654 129.812 203.014 129.086C202.381 128.352 202.061 127.398 202.061 126.227C202.061 124.906 202.428 123.828 203.154 122.992C203.889 122.156 204.834 121.742 205.998 121.742C206.553 121.742 207.131 121.875 207.725 122.148C207.842 122.203 207.904 122.227 207.928 122.227C208.014 122.227 208.045 122.133 208.045 121.82V120.867C208.045 120.484 208.006 120.227 207.936 120.078C207.865 119.93 207.732 119.812 207.529 119.742L207.311 119.68C206.975 119.586 206.811 119.445 206.811 119.25C206.811 119.102 206.873 118.977 207.006 118.875C207.139 118.773 207.404 118.641 207.818 118.492C208.451 118.266 209.037 118.141 209.482 118.141C209.85 118.141 209.998 118.336 209.998 118.812C209.998 118.852 209.99 118.992 209.982 119.227C209.928 120.836 209.896 122.516 209.896 124.258C209.896 126 209.912 127.141 209.951 127.664C209.99 128.188 210.053 128.477 210.139 128.547C210.225 128.602 210.404 128.664 210.693 128.734C210.982 128.797 211.131 128.922 211.131 129.117C211.131 129.367 210.74 129.617 209.951 129.875L209.865 129.906C209.42 130.055 208.834 130.156 208.521 130.156C208.217 130.156 208.092 130 208.092 129.633ZM208.014 126.852V124.625C208.006 124.289 207.99 124.07 207.967 123.953C207.943 123.836 207.904 123.734 207.85 123.664C207.498 123.188 206.787 122.852 206.123 122.852C205.521 122.852 205.037 123.102 204.678 123.594C204.318 124.086 204.139 124.766 204.139 125.617C204.139 126.531 204.334 127.273 204.725 127.844C205.123 128.414 205.623 128.703 206.232 128.703C207.389 128.703 208.014 128.062 208.014 126.852ZM218.373 125.875H214.467H214.357C214.053 125.875 213.873 125.898 213.818 125.945C213.764 125.992 213.732 126.117 213.732 126.32C213.732 127 213.975 127.578 214.459 128.07C214.943 128.555 215.529 128.797 216.225 128.797C216.818 128.797 217.365 128.625 217.889 128.258C217.959 128.203 218.061 128.133 218.186 128.031C218.459 127.805 218.67 127.695 218.818 127.695C219.061 127.695 219.232 127.875 219.232 128.094C219.232 128.352 218.943 128.766 218.482 129.133C217.537 129.914 216.717 130.227 215.686 130.227C214.529 130.227 213.561 129.836 212.787 129.047C212.014 128.258 211.631 127.273 211.631 126.109C211.631 124.836 212.029 123.797 212.818 122.977C213.615 122.156 214.631 121.742 215.873 121.742C216.92 121.742 217.748 122.039 218.357 122.641C218.975 123.234 219.279 124.039 219.279 125.055C219.279 125.391 219.232 125.609 219.131 125.719C219.029 125.82 218.779 125.875 218.373 125.875ZM214.303 124.945H216.943C217.357 124.945 217.459 124.883 217.459 124.641C217.459 124.117 217.279 123.672 216.928 123.32C216.576 122.961 216.139 122.781 215.6 122.781C215.084 122.781 214.654 122.961 214.318 123.32C213.982 123.672 213.811 124.117 213.811 124.641C213.811 124.883 213.896 124.945 214.303 124.945ZM223.217 122.898L223.404 122.727C223.443 122.688 223.506 122.641 223.576 122.57C224.162 122.016 224.803 121.742 225.49 121.742C226.271 121.742 227.037 122.102 227.537 122.688C227.787 122.984 227.967 123.336 228.068 123.75C228.17 124.164 228.225 124.805 228.225 125.68V126.781C228.225 126.914 228.225 127.094 228.217 127.312C228.209 127.531 228.209 127.688 228.209 127.773C228.209 128.156 228.232 128.43 228.287 128.594C228.342 128.75 228.443 128.867 228.576 128.945L228.787 129.031C229.053 129.133 229.186 129.273 229.186 129.453C229.186 129.688 229.061 129.852 228.811 129.938C228.561 130.023 228.021 130.062 227.186 130.062C226.428 130.062 225.912 130.023 225.654 129.945C225.396 129.859 225.271 129.719 225.271 129.508C225.271 129.297 225.404 129.148 225.678 129.047C225.818 128.992 225.92 128.953 225.982 128.914C226.107 128.844 226.193 128.695 226.248 128.461C226.303 128.219 226.326 127.805 226.326 127.219C226.326 125.492 226.217 124.406 225.99 123.969C225.771 123.531 225.373 123.312 224.803 123.312C224.217 123.312 223.646 123.688 223.365 124.273C223.248 124.508 223.162 124.836 223.115 125.258C223.068 125.68 223.045 126.43 223.045 127.508C223.045 128.031 223.068 128.383 223.107 128.562C223.154 128.734 223.232 128.852 223.35 128.914C223.42 128.953 223.521 128.992 223.654 129.047C223.928 129.148 224.068 129.297 224.068 129.508C224.068 129.719 223.936 129.867 223.67 129.953C223.404 130.039 222.92 130.078 222.209 130.078C221.381 130.078 220.834 130.031 220.561 129.945C220.295 129.859 220.162 129.695 220.162 129.453C220.162 129.273 220.295 129.133 220.561 129.031C220.662 128.992 220.732 128.969 220.771 128.945C221.053 128.789 221.154 128.484 221.154 127.664C221.154 127.562 221.154 127.383 221.146 127.117C221.139 126.852 221.139 126.633 221.139 126.461V125.617C221.139 124.766 221.115 124.203 221.076 123.945C221.037 123.688 220.959 123.523 220.85 123.469C220.764 123.43 220.639 123.383 220.467 123.328C220.139 123.227 219.975 123.078 219.975 122.898C219.975 122.656 220.162 122.477 220.631 122.289C221.029 122.133 221.42 122.008 221.803 121.914C222.186 121.82 222.467 121.773 222.646 121.773C222.951 121.773 223.076 121.922 223.076 122.289V122.828C223.076 122.914 223.084 122.922 223.139 122.93C223.162 122.93 223.209 122.906 223.217 122.898ZM232.67 121.969H234.49C234.764 121.969 234.842 122.047 234.842 122.352V122.547C234.842 122.828 234.74 122.945 234.49 122.945H232.811C232.709 122.945 232.639 123.039 232.639 123.203V127.25C232.639 127.945 232.693 128.383 232.811 128.562C232.928 128.742 233.146 128.828 233.467 128.828C233.639 128.828 233.857 128.781 234.123 128.695C234.396 128.609 234.584 128.562 234.686 128.562C234.928 128.562 235.1 128.719 235.1 128.945C235.1 129.242 234.865 129.531 234.404 129.812C233.943 130.086 233.428 130.227 232.842 130.227C232.162 130.227 231.623 130.047 231.24 129.695C231.045 129.516 230.912 129.281 230.834 128.984C230.756 128.68 230.717 128.125 230.717 127.312V122.945H229.967C229.74 122.945 229.662 122.867 229.662 122.672V122.477C229.662 122.297 229.943 121.969 230.514 121.484L230.85 121.195L231.162 120.922C231.725 120.43 232.107 120.18 232.318 120.18C232.537 120.18 232.67 120.281 232.67 120.445V121.969ZM237.217 130.031C237.037 130.164 236.881 130.227 236.717 130.227C236.615 130.227 236.498 130.172 236.381 130.078C236.201 129.93 236.037 129.633 235.881 129.195C235.725 128.758 235.646 128.336 235.646 127.938C235.646 127.594 235.857 127.328 236.131 127.328C236.381 127.328 236.631 127.547 236.889 127.984C237.014 128.203 237.115 128.367 237.201 128.477C237.521 128.906 238.123 129.172 238.771 129.172C239.49 129.172 239.936 128.781 239.936 128.18C239.936 127.719 239.482 127.273 238.568 126.836L238.1 126.609C237.248 126.188 236.678 125.797 236.381 125.445C236.084 125.094 235.936 124.656 235.936 124.141C235.936 123.43 236.178 122.859 236.67 122.414C237.162 121.969 237.803 121.742 238.592 121.742C238.975 121.742 239.365 121.781 239.748 121.875C240.053 121.742 240.256 121.68 240.381 121.68C240.646 121.68 240.904 121.891 241.154 122.32C241.412 122.75 241.537 123.195 241.537 123.664C241.537 124.047 241.365 124.273 241.053 124.273C240.803 124.273 240.592 124.102 240.256 123.57C239.85 122.906 239.451 122.672 238.85 122.672C238.217 122.672 237.795 123.062 237.795 123.633C237.795 123.875 237.889 124.094 238.084 124.289C238.279 124.484 238.725 124.75 239.404 125.086L239.498 125.133C241.006 125.875 241.764 126.688 241.764 127.57C241.764 128.328 241.475 128.961 240.889 129.469C240.311 129.977 239.584 130.227 238.717 130.227C238.35 130.227 237.865 130.156 237.217 130.031ZM136.834 145.109C136.834 143.852 137.24 142.812 138.053 141.984C138.873 141.156 139.889 140.742 141.107 140.742C141.998 140.742 142.756 140.977 143.381 141.445C144.014 141.906 144.326 142.453 144.326 143.078C144.326 143.578 143.936 143.93 143.396 143.93C143.123 143.93 142.896 143.867 142.732 143.734C142.568 143.602 142.389 143.32 142.201 142.875C141.857 142.094 141.482 141.828 140.818 141.828C139.561 141.828 138.818 142.805 138.818 144.484C138.818 145.453 139.068 146.242 139.568 146.852C140.068 147.461 140.709 147.766 141.49 147.766C142.029 147.766 142.521 147.617 142.936 147.336L143.248 147.102C143.537 146.875 143.764 146.758 143.928 146.758C144.154 146.758 144.295 146.898 144.295 147.125C144.295 147.398 144.037 147.828 143.686 148.133C142.834 148.883 141.936 149.227 140.85 149.227C139.709 149.227 138.756 148.836 137.982 148.047C137.217 147.258 136.834 146.273 136.834 145.109ZM147.248 144.297C147.248 145.375 147.475 146.273 147.928 147C148.389 147.727 148.943 148.086 149.6 148.086C150.131 148.086 150.561 147.859 150.889 147.414C151.225 146.969 151.389 146.375 151.389 145.641C151.389 144.578 151.154 143.688 150.693 142.969C150.232 142.242 149.686 141.883 149.037 141.883C148.498 141.883 148.068 142.102 147.74 142.547C147.412 142.984 147.248 143.57 147.248 144.297ZM149.248 149.227C148.076 149.227 147.107 148.828 146.334 148.031C145.561 147.234 145.178 146.227 145.178 145.016C145.178 143.789 145.584 142.773 146.389 141.961C147.201 141.148 148.217 140.742 149.436 140.742C150.607 140.742 151.568 141.125 152.311 141.883C153.061 142.641 153.436 143.617 153.436 144.805C153.436 146.062 153.037 147.117 152.232 147.961C151.428 148.805 150.436 149.227 149.248 149.227ZM157.357 141.898L157.545 141.727C157.584 141.688 157.646 141.641 157.717 141.57C158.303 141.016 158.943 140.742 159.631 140.742C160.412 140.742 161.178 141.102 161.678 141.688C161.928 141.984 162.107 142.336 162.209 142.75C162.311 143.164 162.365 143.805 162.365 144.68V145.781C162.365 145.914 162.365 146.094 162.357 146.312C162.35 146.531 162.35 146.688 162.35 146.773C162.35 147.156 162.373 147.43 162.428 147.594C162.482 147.75 162.584 147.867 162.717 147.945L162.928 148.031C163.193 148.133 163.326 148.273 163.326 148.453C163.326 148.688 163.201 148.852 162.951 148.938C162.701 149.023 162.162 149.062 161.326 149.062C160.568 149.062 160.053 149.023 159.795 148.945C159.537 148.859 159.412 148.719 159.412 148.508C159.412 148.297 159.545 148.148 159.818 148.047C159.959 147.992 160.061 147.953 160.123 147.914C160.248 147.844 160.334 147.695 160.389 147.461C160.443 147.219 160.467 146.805 160.467 146.219C160.467 144.492 160.357 143.406 160.131 142.969C159.912 142.531 159.514 142.312 158.943 142.312C158.357 142.312 157.787 142.688 157.506 143.273C157.389 143.508 157.303 143.836 157.256 144.258C157.209 144.68 157.186 145.43 157.186 146.508C157.186 147.031 157.209 147.383 157.248 147.562C157.295 147.734 157.373 147.852 157.49 147.914C157.561 147.953 157.662 147.992 157.795 148.047C158.068 148.148 158.209 148.297 158.209 148.508C158.209 148.719 158.076 148.867 157.811 148.953C157.545 149.039 157.061 149.078 156.35 149.078C155.521 149.078 154.975 149.031 154.701 148.945C154.436 148.859 154.303 148.695 154.303 148.453C154.303 148.273 154.436 148.133 154.701 148.031C154.803 147.992 154.873 147.969 154.912 147.945C155.193 147.789 155.295 147.484 155.295 146.664C155.295 146.562 155.295 146.383 155.287 146.117C155.279 145.852 155.279 145.633 155.279 145.461V144.617C155.279 143.766 155.256 143.203 155.217 142.945C155.178 142.688 155.1 142.523 154.99 142.469C154.904 142.43 154.779 142.383 154.607 142.328C154.279 142.227 154.115 142.078 154.115 141.898C154.115 141.656 154.303 141.477 154.771 141.289C155.17 141.133 155.561 141.008 155.943 140.914C156.326 140.82 156.607 140.773 156.787 140.773C157.092 140.773 157.217 140.922 157.217 141.289V141.828C157.217 141.914 157.225 141.922 157.279 141.93C157.303 141.93 157.35 141.906 157.357 141.898ZM166.811 140.969H168.631C168.904 140.969 168.982 141.047 168.982 141.352V141.547C168.982 141.828 168.881 141.945 168.631 141.945H166.951C166.85 141.945 166.779 142.039 166.779 142.203V146.25C166.779 146.945 166.834 147.383 166.951 147.562C167.068 147.742 167.287 147.828 167.607 147.828C167.779 147.828 167.998 147.781 168.264 147.695C168.537 147.609 168.725 147.562 168.826 147.562C169.068 147.562 169.24 147.719 169.24 147.945C169.24 148.242 169.006 148.531 168.545 148.812C168.084 149.086 167.568 149.227 166.982 149.227C166.303 149.227 165.764 149.047 165.381 148.695C165.186 148.516 165.053 148.281 164.975 147.984C164.896 147.68 164.857 147.125 164.857 146.312V141.945H164.107C163.881 141.945 163.803 141.867 163.803 141.672V141.477C163.803 141.297 164.084 140.969 164.654 140.484L164.99 140.195L165.303 139.922C165.865 139.43 166.248 139.18 166.459 139.18C166.678 139.18 166.811 139.281 166.811 139.445V140.969ZM176.764 144.148V146.773C176.764 147.391 176.865 147.672 177.084 147.734C177.146 147.758 177.232 147.781 177.334 147.805C177.678 147.898 177.85 148.039 177.85 148.219C177.85 148.477 177.67 148.719 177.303 148.93C176.936 149.141 176.514 149.242 176.029 149.242C175.787 149.242 175.537 149.102 175.264 148.82C174.998 148.531 174.857 148.391 174.842 148.391C174.795 148.391 174.678 148.453 174.49 148.57C173.803 149.016 173.123 149.242 172.459 149.242C171.67 149.242 171.029 149.016 170.537 148.555C170.045 148.094 169.803 147.484 169.803 146.742C169.803 145.875 170.115 145.195 170.748 144.711C171.381 144.219 172.256 143.977 173.389 143.977C173.818 143.977 174.318 144.023 174.904 144.117L174.912 143.258C174.912 142.297 174.482 141.766 173.709 141.766C173.178 141.766 172.732 141.992 172.303 142.484C172.264 142.531 172.201 142.602 172.131 142.695C171.803 143.109 171.451 143.32 171.084 143.32C170.654 143.32 170.381 143.023 170.381 142.555C170.381 142.047 170.693 141.617 171.326 141.266C171.959 140.914 172.764 140.742 173.756 140.742C174.967 140.742 175.842 141.07 176.318 141.672C176.482 141.883 176.592 142.148 176.662 142.484C176.732 142.82 176.764 143.375 176.764 144.148ZM174.912 146.359L174.904 145.156C174.475 145.062 174.076 145.016 173.725 145.016C172.561 145.016 171.865 145.57 171.865 146.484C171.865 147.352 172.475 147.914 173.436 147.914C174.498 147.914 174.912 147.492 174.912 146.359ZM178.553 145.109C178.553 143.852 178.959 142.812 179.771 141.984C180.592 141.156 181.607 140.742 182.826 140.742C183.717 140.742 184.475 140.977 185.1 141.445C185.732 141.906 186.045 142.453 186.045 143.078C186.045 143.578 185.654 143.93 185.115 143.93C184.842 143.93 184.615 143.867 184.451 143.734C184.287 143.602 184.107 143.32 183.92 142.875C183.576 142.094 183.201 141.828 182.537 141.828C181.279 141.828 180.537 142.805 180.537 144.484C180.537 145.453 180.787 146.242 181.287 146.852C181.787 147.461 182.428 147.766 183.209 147.766C183.748 147.766 184.24 147.617 184.654 147.336L184.967 147.102C185.256 146.875 185.482 146.758 185.646 146.758C185.873 146.758 186.014 146.898 186.014 147.125C186.014 147.398 185.756 147.828 185.404 148.133C184.553 148.883 183.654 149.227 182.568 149.227C181.428 149.227 180.475 148.836 179.701 148.047C178.936 147.258 178.553 146.273 178.553 145.109ZM189.67 140.969H191.49C191.764 140.969 191.842 141.047 191.842 141.352V141.547C191.842 141.828 191.74 141.945 191.49 141.945H189.811C189.709 141.945 189.639 142.039 189.639 142.203V146.25C189.639 146.945 189.693 147.383 189.811 147.562C189.928 147.742 190.146 147.828 190.467 147.828C190.639 147.828 190.857 147.781 191.123 147.695C191.396 147.609 191.584 147.562 191.686 147.562C191.928 147.562 192.1 147.719 192.1 147.945C192.1 148.242 191.865 148.531 191.404 148.812C190.943 149.086 190.428 149.227 189.842 149.227C189.162 149.227 188.623 149.047 188.24 148.695C188.045 148.516 187.912 148.281 187.834 147.984C187.756 147.68 187.717 147.125 187.717 146.312V141.945H186.967C186.74 141.945 186.662 141.867 186.662 141.672V141.477C186.662 141.297 186.943 140.969 187.514 140.484L187.85 140.195L188.162 139.922C188.725 139.43 189.107 139.18 189.318 139.18C189.537 139.18 189.67 139.281 189.67 139.445V140.969ZM203.389 144.281L202.35 146.906C201.459 149.164 200.725 150.625 200.146 151.305C199.568 151.984 198.881 152.328 198.092 152.328C197.693 152.328 197.365 152.219 197.107 151.992C196.85 151.766 196.717 151.484 196.717 151.141C196.717 150.867 196.811 150.633 196.998 150.438C197.193 150.242 197.42 150.148 197.693 150.148C197.967 150.148 198.17 150.234 198.303 150.391C198.357 150.461 198.436 150.562 198.521 150.695C198.662 150.906 198.787 151.016 198.889 151.016C199.162 151.016 199.443 150.812 199.725 150.414C200.014 150.016 200.154 149.609 200.154 149.18C200.154 148.719 199.967 148.055 199.584 147.195C199.545 147.109 199.521 147.039 199.498 147C199.037 145.969 198.6 145.016 198.193 144.141C197.795 143.266 197.545 142.734 197.451 142.555C197.357 142.359 197.154 142.195 196.834 142.062L196.826 142.055C196.451 141.906 196.35 141.773 196.35 141.547C196.35 141.305 196.49 141.141 196.779 141.047C197.068 140.953 197.607 140.906 198.396 140.906C199.186 140.906 199.717 140.953 199.982 141.039C200.248 141.125 200.381 141.273 200.381 141.492C200.381 141.68 200.311 141.828 200.186 141.898C200.115 141.938 200.021 141.977 199.889 142.031C199.678 142.117 199.576 142.203 199.576 142.297C199.576 142.398 199.631 142.602 199.74 142.906C199.85 143.203 200.068 143.75 200.396 144.539C200.709 145.289 200.936 145.797 201.076 146.062C201.217 146.32 201.326 146.453 201.404 146.453C201.506 146.453 201.74 145.977 202.201 144.789C202.756 143.391 202.99 142.664 202.99 142.391C202.99 142.234 202.834 142.07 202.529 141.898C202.225 141.727 202.076 141.57 202.076 141.43C202.076 141.055 202.514 140.906 203.74 140.906C204.389 140.906 204.834 140.953 205.061 141.039C205.287 141.125 205.404 141.273 205.404 141.492C205.404 141.688 205.248 141.828 204.943 141.906C204.787 141.945 204.678 141.984 204.607 142.023C204.303 142.188 203.975 142.734 203.623 143.656L203.389 144.281ZM207.404 144.297C207.404 145.375 207.631 146.273 208.084 147C208.545 147.727 209.1 148.086 209.756 148.086C210.287 148.086 210.717 147.859 211.045 147.414C211.381 146.969 211.545 146.375 211.545 145.641C211.545 144.578 211.311 143.688 210.85 142.969C210.389 142.242 209.842 141.883 209.193 141.883C208.654 141.883 208.225 142.102 207.896 142.547C207.568 142.984 207.404 143.57 207.404 144.297ZM209.404 149.227C208.232 149.227 207.264 148.828 206.49 148.031C205.717 147.234 205.334 146.227 205.334 145.016C205.334 143.789 205.74 142.773 206.545 141.961C207.357 141.148 208.373 140.742 209.592 140.742C210.764 140.742 211.725 141.125 212.467 141.883C213.217 142.641 213.592 143.617 213.592 144.805C213.592 146.062 213.193 147.117 212.389 147.961C211.584 148.805 210.592 149.227 209.404 149.227ZM220.475 148.727V148.148C220.475 148.109 220.459 148.102 220.428 148.102C220.365 148.102 220.271 148.172 220.139 148.305L220.029 148.422C219.521 148.953 218.865 149.211 218.061 149.211C217.24 149.211 216.49 148.891 216.014 148.328C215.756 148.023 215.576 147.648 215.467 147.211C215.365 146.773 215.311 145.969 215.311 144.805C215.311 144.695 215.311 144.516 215.318 144.258C215.326 144 215.326 143.805 215.326 143.656V143.492C215.326 143.047 215.295 142.758 215.232 142.641C215.17 142.516 215.037 142.414 214.842 142.344C214.764 142.312 214.654 142.281 214.521 142.242C214.217 142.156 214.061 142.023 214.061 141.828C214.061 141.695 214.115 141.578 214.225 141.492C214.334 141.398 214.576 141.289 214.959 141.156C215.717 140.906 216.482 140.742 216.928 140.742C217.217 140.742 217.342 140.953 217.342 141.43C217.342 141.461 217.334 141.57 217.326 141.75C217.271 142.75 217.248 143.766 217.248 144.789C217.248 145.898 217.365 146.664 217.592 147.086C217.818 147.508 218.209 147.719 218.764 147.719C219.389 147.719 219.834 147.445 220.1 146.898C220.373 146.352 220.506 145.414 220.506 144.086V143.461C220.506 143.039 220.475 142.766 220.412 142.641C220.357 142.508 220.232 142.414 220.045 142.344C219.959 142.312 219.85 142.281 219.717 142.242C219.412 142.156 219.264 142.023 219.264 141.828C219.264 141.695 219.318 141.586 219.42 141.5C219.529 141.406 219.771 141.289 220.154 141.156C220.912 140.906 221.662 140.742 222.092 140.742C222.428 140.742 222.537 140.922 222.537 141.43C222.537 141.484 222.529 141.641 222.521 141.883C222.459 143.039 222.428 144.156 222.428 145.242C222.428 145.922 222.436 146.375 222.443 146.617C222.451 146.852 222.467 147.031 222.49 147.156C222.529 147.383 222.693 147.547 222.967 147.656H222.975L223.123 147.703C223.428 147.805 223.584 147.953 223.584 148.133C223.584 148.375 223.412 148.539 222.943 148.727C222.545 148.883 222.154 149.008 221.779 149.102C221.412 149.195 221.123 149.242 220.928 149.242C220.615 149.242 220.475 149.078 220.475 148.727Z" fill="black"/>
<path d="M129.558 175L125.96 165.06H127.276L130.356 173.684L133.422 165.06H134.738L131.14 175H129.558ZM138.475 175.168C137.775 175.168 137.168 175.009 136.655 174.692C136.151 174.375 135.759 173.927 135.479 173.348C135.208 172.76 135.073 172.074 135.073 171.29C135.073 170.506 135.208 169.825 135.479 169.246C135.759 168.667 136.146 168.219 136.641 167.902C137.145 167.575 137.738 167.412 138.419 167.412C139.063 167.412 139.632 167.566 140.127 167.874C140.622 168.173 141.004 168.611 141.275 169.19C141.555 169.769 141.695 170.473 141.695 171.304V171.654H136.305C136.352 172.447 136.562 173.045 136.935 173.446C137.318 173.847 137.831 174.048 138.475 174.048C138.96 174.048 139.357 173.936 139.665 173.712C139.982 173.479 140.202 173.175 140.323 172.802L141.583 172.9C141.387 173.563 141.014 174.109 140.463 174.538C139.922 174.958 139.259 175.168 138.475 175.168ZM136.305 170.618H140.407C140.351 169.899 140.141 169.372 139.777 169.036C139.422 168.7 138.97 168.532 138.419 168.532C137.85 168.532 137.378 168.709 137.005 169.064C136.641 169.409 136.408 169.927 136.305 170.618ZM143.288 175V167.58H144.324L144.38 169.456L144.268 169.414C144.361 168.779 144.562 168.317 144.87 168.028C145.187 167.729 145.607 167.58 146.13 167.58H146.858V168.7H146.144C145.771 168.7 145.458 168.77 145.206 168.91C144.963 169.041 144.777 169.241 144.646 169.512C144.525 169.773 144.464 170.109 144.464 170.52V175H143.288ZM148.169 175V167.58H149.345V175H148.169ZM148.141 166.418V165.046H149.373V166.418H148.141ZM151.836 175V166.908C151.836 166.357 151.995 165.914 152.312 165.578C152.63 165.233 153.124 165.06 153.796 165.06H154.972V166.096H153.88C153.591 166.096 153.372 166.175 153.222 166.334C153.082 166.493 153.012 166.712 153.012 166.992V175H151.836ZM150.828 168.616V167.58H154.874V168.616H150.828ZM156.414 175V167.58H157.59V175H156.414ZM156.386 166.418V165.046H157.618V166.418H156.386ZM162.592 175.168C161.892 175.168 161.286 175.009 160.772 174.692C160.268 174.375 159.876 173.927 159.596 173.348C159.326 172.76 159.19 172.074 159.19 171.29C159.19 170.506 159.326 169.825 159.596 169.246C159.876 168.667 160.264 168.219 160.758 167.902C161.262 167.575 161.855 167.412 162.536 167.412C163.18 167.412 163.75 167.566 164.244 167.874C164.739 168.173 165.122 168.611 165.392 169.19C165.672 169.769 165.812 170.473 165.812 171.304V171.654H160.422C160.469 172.447 160.679 173.045 161.052 173.446C161.435 173.847 161.948 174.048 162.592 174.048C163.078 174.048 163.474 173.936 163.782 173.712C164.1 173.479 164.319 173.175 164.44 172.802L165.7 172.9C165.504 173.563 165.131 174.109 164.58 174.538C164.039 174.958 163.376 175.168 162.592 175.168ZM160.422 170.618H164.524C164.468 169.899 164.258 169.372 163.894 169.036C163.54 168.7 163.087 168.532 162.536 168.532C161.967 168.532 161.496 168.709 161.122 169.064C160.758 169.409 160.525 169.927 160.422 170.618ZM170.037 175.168C169.393 175.168 168.833 175.009 168.357 174.692C167.89 174.375 167.531 173.927 167.279 173.348C167.027 172.769 166.901 172.083 166.901 171.29C166.901 170.497 167.027 169.811 167.279 169.232C167.531 168.653 167.89 168.205 168.357 167.888C168.833 167.571 169.393 167.412 170.037 167.412C170.532 167.412 170.984 167.519 171.395 167.734C171.806 167.939 172.114 168.233 172.319 168.616V165.06H173.495V175H172.431L172.389 173.88C172.184 174.281 171.871 174.599 171.451 174.832C171.031 175.056 170.56 175.168 170.037 175.168ZM170.275 174.048C170.714 174.048 171.082 173.936 171.381 173.712C171.689 173.488 171.922 173.171 172.081 172.76C172.24 172.34 172.319 171.85 172.319 171.29C172.319 170.711 172.24 170.217 172.081 169.806C171.922 169.395 171.689 169.083 171.381 168.868C171.082 168.644 170.714 168.532 170.275 168.532C169.622 168.532 169.099 168.779 168.707 169.274C168.324 169.759 168.133 170.431 168.133 171.29C168.133 172.139 168.324 172.811 168.707 173.306C169.099 173.801 169.622 174.048 170.275 174.048ZM181.933 175.168C181.271 175.168 180.706 175.061 180.239 174.846C179.782 174.631 179.423 174.337 179.161 173.964C178.909 173.581 178.765 173.147 178.727 172.662L179.959 172.578C180.034 173.026 180.225 173.385 180.533 173.656C180.841 173.917 181.308 174.048 181.933 174.048C182.437 174.048 182.839 173.969 183.137 173.81C183.445 173.642 183.599 173.376 183.599 173.012C183.599 172.816 183.553 172.653 183.459 172.522C183.366 172.391 183.184 172.279 182.913 172.186C182.643 172.083 182.241 171.985 181.709 171.892C181 171.761 180.44 171.603 180.029 171.416C179.628 171.22 179.339 170.982 179.161 170.702C178.993 170.413 178.909 170.072 178.909 169.68C178.909 169.017 179.152 168.476 179.637 168.056C180.123 167.627 180.813 167.412 181.709 167.412C182.316 167.412 182.825 167.524 183.235 167.748C183.655 167.963 183.982 168.252 184.215 168.616C184.458 168.971 184.617 169.363 184.691 169.792L183.459 169.876C183.403 169.615 183.301 169.386 183.151 169.19C183.002 168.985 182.806 168.826 182.563 168.714C182.321 168.593 182.031 168.532 181.695 168.532C181.163 168.532 180.771 168.635 180.519 168.84C180.267 169.045 180.141 169.307 180.141 169.624C180.141 169.867 180.197 170.067 180.309 170.226C180.431 170.375 180.622 170.501 180.883 170.604C181.145 170.697 181.495 170.781 181.933 170.856C182.689 170.987 183.277 171.145 183.697 171.332C184.117 171.519 184.411 171.747 184.579 172.018C184.747 172.289 184.831 172.62 184.831 173.012C184.831 173.469 184.701 173.861 184.439 174.188C184.187 174.505 183.842 174.748 183.403 174.916C182.974 175.084 182.484 175.168 181.933 175.168ZM188.865 175C188.193 175 187.694 174.846 187.367 174.538C187.05 174.23 186.891 173.749 186.891 173.096V165.844H188.067V173.068C188.067 173.404 188.142 173.637 188.291 173.768C188.441 173.899 188.669 173.964 188.977 173.964H190.041V175H188.865ZM185.799 168.616V167.58H190.041V168.616H185.799ZM193.986 175.168C193.248 175.168 192.656 174.921 192.208 174.426C191.769 173.922 191.55 173.231 191.55 172.354V167.58H192.726V172.032C192.726 172.751 192.852 173.283 193.104 173.628C193.365 173.964 193.762 174.132 194.294 174.132C194.882 174.132 195.344 173.945 195.68 173.572C196.016 173.189 196.184 172.667 196.184 172.004V167.58H197.36V175H196.24V173.166L196.422 173.264C196.272 173.871 195.988 174.342 195.568 174.678C195.148 175.005 194.62 175.168 193.986 175.168ZM202.098 175.168C201.454 175.168 200.894 175.009 200.418 174.692C199.951 174.375 199.592 173.927 199.34 173.348C199.088 172.769 198.962 172.083 198.962 171.29C198.962 170.497 199.088 169.811 199.34 169.232C199.592 168.653 199.951 168.205 200.418 167.888C200.894 167.571 201.454 167.412 202.098 167.412C202.592 167.412 203.045 167.519 203.456 167.734C203.866 167.939 204.174 168.233 204.38 168.616V165.06H205.556V175H204.492L204.45 173.88C204.244 174.281 203.932 174.599 203.512 174.832C203.092 175.056 202.62 175.168 202.098 175.168ZM202.336 174.048C202.774 174.048 203.143 173.936 203.442 173.712C203.75 173.488 203.983 173.171 204.142 172.76C204.3 172.34 204.38 171.85 204.38 171.29C204.38 170.711 204.3 170.217 204.142 169.806C203.983 169.395 203.75 169.083 203.442 168.868C203.143 168.644 202.774 168.532 202.336 168.532C201.682 168.532 201.16 168.779 200.768 169.274C200.385 169.759 200.194 170.431 200.194 171.29C200.194 172.139 200.385 172.811 200.768 173.306C201.16 173.801 201.682 174.048 202.336 174.048ZM210.553 175.168C209.853 175.168 209.246 175.009 208.733 174.692C208.229 174.375 207.837 173.927 207.557 173.348C207.286 172.76 207.151 172.074 207.151 171.29C207.151 170.506 207.286 169.825 207.557 169.246C207.837 168.667 208.224 168.219 208.719 167.902C209.223 167.575 209.816 167.412 210.497 167.412C211.141 167.412 211.71 167.566 212.205 167.874C212.7 168.173 213.082 168.611 213.353 169.19C213.633 169.769 213.773 170.473 213.773 171.304V171.654H208.383C208.43 172.447 208.64 173.045 209.013 173.446C209.396 173.847 209.909 174.048 210.553 174.048C211.038 174.048 211.435 173.936 211.743 173.712C212.06 173.479 212.28 173.175 212.401 172.802L213.661 172.9C213.465 173.563 213.092 174.109 212.541 174.538C212 174.958 211.337 175.168 210.553 175.168ZM208.383 170.618H212.485C212.429 169.899 212.219 169.372 211.855 169.036C211.5 168.7 211.048 168.532 210.497 168.532C209.928 168.532 209.456 168.709 209.083 169.064C208.719 169.409 208.486 169.927 208.383 170.618ZM215.366 175V167.58H216.444L216.486 169.47L216.346 169.344C216.439 168.905 216.603 168.546 216.836 168.266C217.069 167.977 217.349 167.762 217.676 167.622C218.012 167.482 218.371 167.412 218.754 167.412C219.323 167.412 219.79 167.538 220.154 167.79C220.527 168.042 220.803 168.383 220.98 168.812C221.167 169.232 221.26 169.703 221.26 170.226V175H220.084V170.562C220.084 170.105 220.028 169.722 219.916 169.414C219.813 169.097 219.645 168.859 219.412 168.7C219.179 168.532 218.875 168.448 218.502 168.448C217.933 168.448 217.461 168.63 217.088 168.994C216.724 169.349 216.542 169.871 216.542 170.562V175H215.366ZM225.656 175C224.984 175 224.485 174.846 224.158 174.538C223.841 174.23 223.682 173.749 223.682 173.096V165.844H224.858V173.068C224.858 173.404 224.933 173.637 225.082 173.768C225.232 173.899 225.46 173.964 225.768 173.964H226.832V175H225.656ZM222.59 168.616V167.58H226.832V168.616H222.59ZM230.906 175.168C230.243 175.168 229.679 175.061 229.212 174.846C228.755 174.631 228.395 174.337 228.134 173.964C227.882 173.581 227.737 173.147 227.7 172.662L228.932 172.578C229.007 173.026 229.198 173.385 229.506 173.656C229.814 173.917 230.281 174.048 230.906 174.048C231.41 174.048 231.811 173.969 232.11 173.81C232.418 173.642 232.572 173.376 232.572 173.012C232.572 172.816 232.525 172.653 232.432 172.522C232.339 172.391 232.157 172.279 231.886 172.186C231.615 172.083 231.214 171.985 230.682 171.892C229.973 171.761 229.413 171.603 229.002 171.416C228.601 171.22 228.311 170.982 228.134 170.702C227.966 170.413 227.882 170.072 227.882 169.68C227.882 169.017 228.125 168.476 228.61 168.056C229.095 167.627 229.786 167.412 230.682 167.412C231.289 167.412 231.797 167.524 232.208 167.748C232.628 167.963 232.955 168.252 233.188 168.616C233.431 168.971 233.589 169.363 233.664 169.792L232.432 169.876C232.376 169.615 232.273 169.386 232.124 169.19C231.975 168.985 231.779 168.826 231.536 168.714C231.293 168.593 231.004 168.532 230.668 168.532C230.136 168.532 229.744 168.635 229.492 168.84C229.24 169.045 229.114 169.307 229.114 169.624C229.114 169.867 229.17 170.067 229.282 170.226C229.403 170.375 229.595 170.501 229.856 170.604C230.117 170.697 230.467 170.781 230.906 170.856C231.662 170.987 232.25 171.145 232.67 171.332C233.09 171.519 233.384 171.747 233.552 172.018C233.72 172.289 233.804 172.62 233.804 173.012C233.804 173.469 233.673 173.861 233.412 174.188C233.16 174.505 232.815 174.748 232.376 174.916C231.947 175.084 231.457 175.168 230.906 175.168ZM116.354 193V185.58H117.53V193H116.354ZM116.326 184.418V183.046H117.558V184.418H116.326ZM119.909 193V185.58H120.987L121.029 187.47L120.889 187.344C120.982 186.905 121.146 186.546 121.379 186.266C121.612 185.977 121.892 185.762 122.219 185.622C122.555 185.482 122.914 185.412 123.297 185.412C123.866 185.412 124.333 185.538 124.697 185.79C125.07 186.042 125.346 186.383 125.523 186.812C125.71 187.232 125.803 187.703 125.803 188.226V193H124.627V188.562C124.627 188.105 124.571 187.722 124.459 187.414C124.356 187.097 124.188 186.859 123.955 186.7C123.722 186.532 123.418 186.448 123.045 186.448C122.476 186.448 122.004 186.63 121.631 186.994C121.267 187.349 121.085 187.871 121.085 188.562V193H119.909ZM130.199 193C129.527 193 129.028 192.846 128.701 192.538C128.384 192.23 128.225 191.749 128.225 191.096V183.844H129.401V191.068C129.401 191.404 129.476 191.637 129.625 191.768C129.775 191.899 130.003 191.964 130.311 191.964H131.375V193H130.199ZM127.133 186.616V185.58H131.375V186.616H127.133ZM135.645 193.168C134.945 193.168 134.338 193.009 133.825 192.692C133.321 192.375 132.929 191.927 132.649 191.348C132.378 190.76 132.243 190.074 132.243 189.29C132.243 188.506 132.378 187.825 132.649 187.246C132.929 186.667 133.316 186.219 133.811 185.902C134.315 185.575 134.908 185.412 135.589 185.412C136.233 185.412 136.802 185.566 137.297 185.874C137.792 186.173 138.174 186.611 138.445 187.19C138.725 187.769 138.865 188.473 138.865 189.304V189.654H133.475C133.522 190.447 133.732 191.045 134.105 191.446C134.488 191.847 135.001 192.048 135.645 192.048C136.13 192.048 136.527 191.936 136.835 191.712C137.152 191.479 137.372 191.175 137.493 190.802L138.753 190.9C138.557 191.563 138.184 192.109 137.633 192.538C137.092 192.958 136.429 193.168 135.645 193.168ZM133.475 188.618H137.577C137.521 187.899 137.311 187.372 136.947 187.036C136.592 186.7 136.14 186.532 135.589 186.532C135.02 186.532 134.548 186.709 134.175 187.064C133.811 187.409 133.578 187.927 133.475 188.618ZM140.458 193V185.58H141.494L141.55 187.456L141.438 187.414C141.531 186.779 141.732 186.317 142.04 186.028C142.357 185.729 142.777 185.58 143.3 185.58H144.028V186.7H143.314C142.941 186.7 142.628 186.77 142.376 186.91C142.133 187.041 141.947 187.241 141.816 187.512C141.695 187.773 141.634 188.109 141.634 188.52V193H140.458ZM148.1 193.168C147.4 193.168 146.793 193.009 146.28 192.692C145.776 192.375 145.384 191.927 145.104 191.348C144.833 190.76 144.698 190.074 144.698 189.29C144.698 188.506 144.833 187.825 145.104 187.246C145.384 186.667 145.771 186.219 146.266 185.902C146.77 185.575 147.363 185.412 148.044 185.412C148.688 185.412 149.257 185.566 149.752 185.874C150.247 186.173 150.629 186.611 150.9 187.19C151.18 187.769 151.32 188.473 151.32 189.304V189.654H145.93C145.977 190.447 146.187 191.045 146.56 191.446C146.943 191.847 147.456 192.048 148.1 192.048C148.585 192.048 148.982 191.936 149.29 191.712C149.607 191.479 149.827 191.175 149.948 190.802L151.208 190.9C151.012 191.563 150.639 192.109 150.088 192.538C149.547 192.958 148.884 193.168 148.1 193.168ZM145.93 188.618H150.032C149.976 187.899 149.766 187.372 149.402 187.036C149.047 186.7 148.595 186.532 148.044 186.532C147.475 186.532 147.003 186.709 146.63 187.064C146.266 187.409 146.033 187.927 145.93 188.618ZM155.615 193.168C154.952 193.168 154.388 193.061 153.921 192.846C153.464 192.631 153.104 192.337 152.843 191.964C152.591 191.581 152.446 191.147 152.409 190.662L153.641 190.578C153.716 191.026 153.907 191.385 154.215 191.656C154.523 191.917 154.99 192.048 155.615 192.048C156.119 192.048 156.52 191.969 156.819 191.81C157.127 191.642 157.281 191.376 157.281 191.012C157.281 190.816 157.234 190.653 157.141 190.522C157.048 190.391 156.866 190.279 156.595 190.186C156.324 190.083 155.923 189.985 155.391 189.892C154.682 189.761 154.122 189.603 153.711 189.416C153.31 189.22 153.02 188.982 152.843 188.702C152.675 188.413 152.591 188.072 152.591 187.68C152.591 187.017 152.834 186.476 153.319 186.056C153.804 185.627 154.495 185.412 155.391 185.412C155.998 185.412 156.506 185.524 156.917 185.748C157.337 185.963 157.664 186.252 157.897 186.616C158.14 186.971 158.298 187.363 158.373 187.792L157.141 187.876C157.085 187.615 156.982 187.386 156.833 187.19C156.684 186.985 156.488 186.826 156.245 186.714C156.002 186.593 155.713 186.532 155.377 186.532C154.845 186.532 154.453 186.635 154.201 186.84C153.949 187.045 153.823 187.307 153.823 187.624C153.823 187.867 153.879 188.067 153.991 188.226C154.112 188.375 154.304 188.501 154.565 188.604C154.826 188.697 155.176 188.781 155.615 188.856C156.371 188.987 156.959 189.145 157.379 189.332C157.799 189.519 158.093 189.747 158.261 190.018C158.429 190.289 158.513 190.62 158.513 191.012C158.513 191.469 158.382 191.861 158.121 192.188C157.869 192.505 157.524 192.748 157.085 192.916C156.656 193.084 156.166 193.168 155.615 193.168ZM162.547 193C161.875 193 161.376 192.846 161.049 192.538C160.732 192.23 160.573 191.749 160.573 191.096V183.844H161.749V191.068C161.749 191.404 161.824 191.637 161.973 191.768C162.122 191.899 162.351 191.964 162.659 191.964H163.723V193H162.547ZM159.481 186.616V185.58H163.723V186.616H159.481ZM167.993 193.168C167.293 193.168 166.686 193.009 166.173 192.692C165.669 192.375 165.277 191.927 164.997 191.348C164.726 190.76 164.591 190.074 164.591 189.29C164.591 188.506 164.726 187.825 164.997 187.246C165.277 186.667 165.664 186.219 166.159 185.902C166.663 185.575 167.255 185.412 167.937 185.412C168.581 185.412 169.15 185.566 169.645 185.874C170.139 186.173 170.522 186.611 170.793 187.19C171.073 187.769 171.213 188.473 171.213 189.304V189.654H165.823C165.869 190.447 166.079 191.045 166.453 191.446C166.835 191.847 167.349 192.048 167.993 192.048C168.478 192.048 168.875 191.936 169.183 191.712C169.5 191.479 169.719 191.175 169.841 190.802L171.101 190.9C170.905 191.563 170.531 192.109 169.981 192.538C169.439 192.958 168.777 193.168 167.993 193.168ZM165.823 188.618H169.925C169.869 187.899 169.659 187.372 169.295 187.036C168.94 186.7 168.487 186.532 167.937 186.532C167.367 186.532 166.896 186.709 166.523 187.064C166.159 187.409 165.925 187.927 165.823 188.618ZM175.438 193.168C174.794 193.168 174.234 193.009 173.758 192.692C173.291 192.375 172.932 191.927 172.68 191.348C172.428 190.769 172.302 190.083 172.302 189.29C172.302 188.497 172.428 187.811 172.68 187.232C172.932 186.653 173.291 186.205 173.758 185.888C174.234 185.571 174.794 185.412 175.438 185.412C175.932 185.412 176.385 185.519 176.796 185.734C177.206 185.939 177.514 186.233 177.72 186.616V183.06H178.896V193H177.832L177.79 191.88C177.584 192.281 177.272 192.599 176.852 192.832C176.432 193.056 175.96 193.168 175.438 193.168ZM175.676 192.048C176.114 192.048 176.483 191.936 176.782 191.712C177.09 191.488 177.323 191.171 177.482 190.76C177.64 190.34 177.72 189.85 177.72 189.29C177.72 188.711 177.64 188.217 177.482 187.806C177.323 187.395 177.09 187.083 176.782 186.868C176.483 186.644 176.114 186.532 175.676 186.532C175.022 186.532 174.5 186.779 174.108 187.274C173.725 187.759 173.534 188.431 173.534 189.29C173.534 190.139 173.725 190.811 174.108 191.306C174.5 191.801 175.022 192.048 175.676 192.048ZM186.116 193L183.82 185.58H185.108L186.844 191.768L188.608 185.58H189.868L191.632 191.768L193.382 185.58H194.67L192.374 193H190.89L189.238 187.358L187.586 193H186.116ZM195.966 193V185.58H197.142V193H195.966ZM195.938 184.418V183.046H197.17V184.418H195.938ZM200.703 193C200.274 193 199.924 192.888 199.653 192.664C199.382 192.44 199.247 192.085 199.247 191.6V183.06H200.423V191.502C200.423 191.651 200.46 191.768 200.535 191.852C200.619 191.927 200.736 191.964 200.885 191.964H201.529V193H200.703ZM204.299 193C203.869 193 203.519 192.888 203.249 192.664C202.978 192.44 202.843 192.085 202.843 191.6V183.06H204.019V191.502C204.019 191.651 204.056 191.768 204.131 191.852C204.215 191.927 204.331 191.964 204.481 191.964H205.125V193H204.299ZM210.075 193V185.58H211.111L211.167 187.456L211.055 187.414C211.148 186.779 211.349 186.317 211.657 186.028C211.974 185.729 212.394 185.58 212.917 185.58H213.645V186.7H212.931C212.558 186.7 212.245 186.77 211.993 186.91C211.75 187.041 211.564 187.241 211.433 187.512C211.312 187.773 211.251 188.109 211.251 188.52V193H210.075ZM217.717 193.168C217.017 193.168 216.411 193.009 215.897 192.692C215.393 192.375 215.001 191.927 214.721 191.348C214.451 190.76 214.315 190.074 214.315 189.29C214.315 188.506 214.451 187.825 214.721 187.246C215.001 186.667 215.389 186.219 215.883 185.902C216.387 185.575 216.98 185.412 217.661 185.412C218.305 185.412 218.875 185.566 219.369 185.874C219.864 186.173 220.247 186.611 220.517 187.19C220.797 187.769 220.937 188.473 220.937 189.304V189.654H215.547C215.594 190.447 215.804 191.045 216.177 191.446C216.56 191.847 217.073 192.048 217.717 192.048C218.203 192.048 218.599 191.936 218.907 191.712C219.225 191.479 219.444 191.175 219.565 190.802L220.825 190.9C220.629 191.563 220.256 192.109 219.705 192.538C219.164 192.958 218.501 193.168 217.717 193.168ZM215.547 188.618H219.649C219.593 187.899 219.383 187.372 219.019 187.036C218.665 186.7 218.212 186.532 217.661 186.532C217.092 186.532 216.621 186.709 216.247 187.064C215.883 187.409 215.65 187.927 215.547 188.618ZM224.724 193.168C223.958 193.168 223.347 192.991 222.89 192.636C222.442 192.281 222.218 191.787 222.218 191.152C222.218 190.517 222.404 190.018 222.778 189.654C223.151 189.29 223.744 189.033 224.556 188.884L227.188 188.394C227.188 187.769 227.038 187.302 226.74 186.994C226.45 186.686 226.012 186.532 225.424 186.532C224.91 186.532 224.504 186.649 224.206 186.882C223.907 187.106 223.702 187.433 223.59 187.862L222.344 187.764C222.484 187.064 222.82 186.499 223.352 186.07C223.893 185.631 224.584 185.412 225.424 185.412C226.376 185.412 227.104 185.683 227.608 186.224C228.112 186.756 228.364 187.493 228.364 188.436V191.502C228.364 191.67 228.392 191.791 228.448 191.866C228.513 191.931 228.616 191.964 228.756 191.964H229.05V193C229.012 193.009 228.952 193.014 228.868 193.014C228.784 193.023 228.695 193.028 228.602 193.028C228.266 193.028 227.99 192.977 227.776 192.874C227.57 192.762 227.421 192.594 227.328 192.37C227.234 192.137 227.188 191.833 227.188 191.46L227.328 191.488C227.262 191.805 227.104 192.095 226.852 192.356C226.6 192.608 226.287 192.809 225.914 192.958C225.54 193.098 225.144 193.168 224.724 193.168ZM224.836 192.132C225.33 192.132 225.75 192.039 226.096 191.852C226.45 191.656 226.721 191.395 226.908 191.068C227.094 190.732 227.188 190.359 227.188 189.948V189.416L224.78 189.864C224.276 189.957 223.926 190.102 223.73 190.298C223.543 190.485 223.45 190.732 223.45 191.04C223.45 191.385 223.571 191.656 223.814 191.852C224.066 192.039 224.406 192.132 224.836 192.132ZM233.248 193.168C232.558 193.168 231.956 193.009 231.442 192.692C230.938 192.375 230.546 191.927 230.266 191.348C229.986 190.76 229.846 190.074 229.846 189.29C229.846 188.506 229.986 187.825 230.266 187.246C230.546 186.667 230.938 186.219 231.442 185.902C231.956 185.575 232.558 185.412 233.248 185.412C233.818 185.412 234.322 185.515 234.76 185.72C235.208 185.916 235.572 186.205 235.852 186.588C236.132 186.971 236.314 187.437 236.398 187.988L235.166 188.072C235.082 187.577 234.868 187.199 234.522 186.938C234.177 186.667 233.752 186.532 233.248 186.532C232.567 186.532 232.035 186.779 231.652 187.274C231.27 187.759 231.078 188.431 231.078 189.29C231.078 190.149 231.27 190.825 231.652 191.32C232.035 191.805 232.567 192.048 233.248 192.048C233.752 192.048 234.177 191.908 234.522 191.628C234.868 191.348 235.082 190.928 235.166 190.368L236.398 190.452C236.314 191.003 236.132 191.483 235.852 191.894C235.572 192.295 235.208 192.608 234.76 192.832C234.322 193.056 233.818 193.168 233.248 193.168ZM237.856 193V183.06H239.032V187.218L238.892 187.19C238.986 186.779 239.144 186.443 239.368 186.182C239.592 185.921 239.868 185.729 240.194 185.608C240.521 185.477 240.88 185.412 241.272 185.412C241.804 185.412 242.252 185.533 242.616 185.776C242.99 186.009 243.27 186.341 243.456 186.77C243.652 187.19 243.75 187.675 243.75 188.226V193H242.574V188.562C242.574 187.843 242.444 187.311 242.182 186.966C241.93 186.621 241.543 186.448 241.02 186.448C240.423 186.448 239.942 186.63 239.578 186.994C239.214 187.358 239.032 187.885 239.032 188.576V193H237.856ZM140.936 211.168C140.255 211.168 139.657 211.009 139.144 210.692C138.631 210.375 138.234 209.927 137.954 209.348C137.674 208.76 137.534 208.074 137.534 207.29C137.534 206.497 137.674 205.811 137.954 205.232C138.234 204.653 138.631 204.205 139.144 203.888C139.657 203.571 140.255 203.412 140.936 203.412C141.617 203.412 142.21 203.571 142.714 203.888C143.227 204.205 143.624 204.653 143.904 205.232C144.184 205.811 144.324 206.497 144.324 207.29C144.324 208.074 144.184 208.76 143.904 209.348C143.624 209.927 143.227 210.375 142.714 210.692C142.21 211.009 141.617 211.168 140.936 211.168ZM140.936 210.048C141.617 210.048 142.145 209.805 142.518 209.32C142.901 208.825 143.092 208.149 143.092 207.29C143.092 206.431 142.901 205.759 142.518 205.274C142.145 204.779 141.617 204.532 140.936 204.532C140.255 204.532 139.723 204.779 139.34 205.274C138.957 205.759 138.766 206.431 138.766 207.29C138.766 208.149 138.957 208.825 139.34 209.32C139.723 209.805 140.255 210.048 140.936 210.048ZM148.363 211.168C147.625 211.168 147.033 210.921 146.585 210.426C146.146 209.922 145.927 209.231 145.927 208.354V203.58H147.103V208.032C147.103 208.751 147.229 209.283 147.481 209.628C147.742 209.964 148.139 210.132 148.671 210.132C149.259 210.132 149.721 209.945 150.057 209.572C150.393 209.189 150.561 208.667 150.561 208.004V203.58H151.737V211H150.617V209.166L150.799 209.264C150.649 209.871 150.365 210.342 149.945 210.678C149.525 211.005 148.997 211.168 148.363 211.168ZM156.299 211C155.627 211 155.128 210.846 154.801 210.538C154.484 210.23 154.325 209.749 154.325 209.096V201.844H155.501V209.068C155.501 209.404 155.576 209.637 155.725 209.768C155.874 209.899 156.103 209.964 156.411 209.964H157.475V211H156.299ZM153.233 204.616V203.58H157.475V204.616H153.233ZM165.281 211C164.609 211 164.11 210.846 163.783 210.538C163.466 210.23 163.307 209.749 163.307 209.096V201.844H164.483V209.068C164.483 209.404 164.558 209.637 164.707 209.768C164.857 209.899 165.085 209.964 165.393 209.964H166.457V211H165.281ZM162.215 204.616V203.58H166.457V204.616H162.215ZM170.727 211.168C170.046 211.168 169.448 211.009 168.935 210.692C168.422 210.375 168.025 209.927 167.745 209.348C167.465 208.76 167.325 208.074 167.325 207.29C167.325 206.497 167.465 205.811 167.745 205.232C168.025 204.653 168.422 204.205 168.935 203.888C169.448 203.571 170.046 203.412 170.727 203.412C171.408 203.412 172.001 203.571 172.505 203.888C173.018 204.205 173.415 204.653 173.695 205.232C173.975 205.811 174.115 206.497 174.115 207.29C174.115 208.074 173.975 208.76 173.695 209.348C173.415 209.927 173.018 210.375 172.505 210.692C172.001 211.009 171.408 211.168 170.727 211.168ZM170.727 210.048C171.408 210.048 171.936 209.805 172.309 209.32C172.692 208.825 172.883 208.149 172.883 207.29C172.883 206.431 172.692 205.759 172.309 205.274C171.936 204.779 171.408 204.532 170.727 204.532C170.046 204.532 169.514 204.779 169.131 205.274C168.748 205.759 168.557 206.431 168.557 207.29C168.557 208.149 168.748 208.825 169.131 209.32C169.514 209.805 170.046 210.048 170.727 210.048ZM179.676 213.1V212.064H180.53C180.792 212.064 180.983 212.022 181.104 211.938C181.235 211.863 181.333 211.737 181.398 211.56L181.664 210.86H181.258L178.542 203.58H179.83L182.042 209.768L184.156 203.58H185.444L182.434 211.938C182.294 212.339 182.084 212.633 181.804 212.82C181.524 213.007 181.137 213.1 180.642 213.1H179.676ZM189.403 211.168C188.721 211.168 188.124 211.009 187.611 210.692C187.097 210.375 186.701 209.927 186.421 209.348C186.141 208.76 186.001 208.074 186.001 207.29C186.001 206.497 186.141 205.811 186.421 205.232C186.701 204.653 187.097 204.205 187.611 203.888C188.124 203.571 188.721 203.412 189.403 203.412C190.084 203.412 190.677 203.571 191.181 203.888C191.694 204.205 192.091 204.653 192.371 205.232C192.651 205.811 192.791 206.497 192.791 207.29C192.791 208.074 192.651 208.76 192.371 209.348C192.091 209.927 191.694 210.375 191.181 210.692C190.677 211.009 190.084 211.168 189.403 211.168ZM189.403 210.048C190.084 210.048 190.611 209.805 190.985 209.32C191.367 208.825 191.559 208.149 191.559 207.29C191.559 206.431 191.367 205.759 190.985 205.274C190.611 204.779 190.084 204.532 189.403 204.532C188.721 204.532 188.189 204.779 187.807 205.274C187.424 205.759 187.233 206.431 187.233 207.29C187.233 208.149 187.424 208.825 187.807 209.32C188.189 209.805 188.721 210.048 189.403 210.048ZM196.829 211.168C196.092 211.168 195.499 210.921 195.051 210.426C194.613 209.922 194.393 209.231 194.393 208.354V203.58H195.569V208.032C195.569 208.751 195.695 209.283 195.947 209.628C196.209 209.964 196.605 210.132 197.137 210.132C197.725 210.132 198.187 209.945 198.523 209.572C198.859 209.189 199.027 208.667 199.027 208.004V203.58H200.203V211H199.083V209.166L199.265 209.264C199.116 209.871 198.831 210.342 198.411 210.678C197.991 211.005 197.464 211.168 196.829 211.168ZM207.836 211L205.134 203.58H206.422L208.578 209.796L210.734 203.58H212.022L209.32 211H207.836ZM213.315 211V203.58H214.491V211H213.315ZM213.287 202.418V201.046H214.519V202.418H213.287ZM218.599 211.168C217.833 211.168 217.222 210.991 216.765 210.636C216.317 210.281 216.093 209.787 216.093 209.152C216.093 208.517 216.279 208.018 216.653 207.654C217.026 207.29 217.619 207.033 218.431 206.884L221.063 206.394C221.063 205.769 220.913 205.302 220.615 204.994C220.325 204.686 219.887 204.532 219.299 204.532C218.785 204.532 218.379 204.649 218.081 204.882C217.782 205.106 217.577 205.433 217.465 205.862L216.219 205.764C216.359 205.064 216.695 204.499 217.227 204.07C217.768 203.631 218.459 203.412 219.299 203.412C220.251 203.412 220.979 203.683 221.483 204.224C221.987 204.756 222.239 205.493 222.239 206.436V209.502C222.239 209.67 222.267 209.791 222.323 209.866C222.388 209.931 222.491 209.964 222.631 209.964H222.925V211C222.887 211.009 222.827 211.014 222.743 211.014C222.659 211.023 222.57 211.028 222.477 211.028C222.141 211.028 221.865 210.977 221.651 210.874C221.445 210.762 221.296 210.594 221.203 210.37C221.109 210.137 221.063 209.833 221.063 209.46L221.203 209.488C221.137 209.805 220.979 210.095 220.727 210.356C220.475 210.608 220.162 210.809 219.789 210.958C219.415 211.098 219.019 211.168 218.599 211.168ZM218.711 210.132C219.205 210.132 219.625 210.039 219.971 209.852C220.325 209.656 220.596 209.395 220.783 209.068C220.969 208.732 221.063 208.359 221.063 207.948V207.416L218.655 207.864C218.151 207.957 217.801 208.102 217.605 208.298C217.418 208.485 217.325 208.732 217.325 209.04C217.325 209.385 217.446 209.656 217.689 209.852C217.941 210.039 218.281 210.132 218.711 210.132ZM148.661 229L146.043 219.06H147.359L149.403 227.348L151.433 219.06H152.805L154.849 227.348L156.879 219.06H158.209L155.591 229H154.079L152.119 221.3L150.159 229H148.661ZM159.551 229V219.06H160.727V223.218L160.587 223.19C160.68 222.779 160.839 222.443 161.063 222.182C161.287 221.921 161.562 221.729 161.889 221.608C162.215 221.477 162.575 221.412 162.967 221.412C163.499 221.412 163.947 221.533 164.311 221.776C164.684 222.009 164.964 222.341 165.151 222.77C165.347 223.19 165.445 223.675 165.445 224.226V229H164.269V224.562C164.269 223.843 164.138 223.311 163.877 222.966C163.625 222.621 163.237 222.448 162.715 222.448C162.117 222.448 161.637 222.63 161.273 222.994C160.909 223.358 160.727 223.885 160.727 224.576V229H159.551ZM169.551 229.168C168.785 229.168 168.174 228.991 167.717 228.636C167.269 228.281 167.045 227.787 167.045 227.152C167.045 226.517 167.231 226.018 167.605 225.654C167.978 225.29 168.571 225.033 169.383 224.884L172.015 224.394C172.015 223.769 171.865 223.302 171.567 222.994C171.277 222.686 170.839 222.532 170.251 222.532C169.737 222.532 169.331 222.649 169.033 222.882C168.734 223.106 168.529 223.433 168.417 223.862L167.171 223.764C167.311 223.064 167.647 222.499 168.179 222.07C168.72 221.631 169.411 221.412 170.251 221.412C171.203 221.412 171.931 221.683 172.435 222.224C172.939 222.756 173.191 223.493 173.191 224.436V227.502C173.191 227.67 173.219 227.791 173.275 227.866C173.34 227.931 173.443 227.964 173.583 227.964H173.877V229C173.839 229.009 173.779 229.014 173.695 229.014C173.611 229.023 173.522 229.028 173.429 229.028C173.093 229.028 172.817 228.977 172.603 228.874C172.397 228.762 172.248 228.594 172.155 228.37C172.061 228.137 172.015 227.833 172.015 227.46L172.155 227.488C172.089 227.805 171.931 228.095 171.679 228.356C171.427 228.608 171.114 228.809 170.741 228.958C170.367 229.098 169.971 229.168 169.551 229.168ZM169.663 228.132C170.157 228.132 170.577 228.039 170.923 227.852C171.277 227.656 171.548 227.395 171.735 227.068C171.921 226.732 172.015 226.359 172.015 225.948V225.416L169.607 225.864C169.103 225.957 168.753 226.102 168.557 226.298C168.37 226.485 168.277 226.732 168.277 227.04C168.277 227.385 168.398 227.656 168.641 227.852C168.893 228.039 169.233 228.132 169.663 228.132ZM177.552 229C176.88 229 176.38 228.846 176.054 228.538C175.736 228.23 175.578 227.749 175.578 227.096V219.844H176.754V227.068C176.754 227.404 176.828 227.637 176.978 227.768C177.127 227.899 177.356 227.964 177.664 227.964H178.728V229H177.552ZM174.486 222.616V221.58H178.728V222.616H174.486ZM182.801 229.168C182.139 229.168 181.574 229.061 181.107 228.846C180.65 228.631 180.291 228.337 180.029 227.964C179.777 227.581 179.633 227.147 179.595 226.662L180.827 226.578C180.902 227.026 181.093 227.385 181.401 227.656C181.709 227.917 182.176 228.048 182.801 228.048C183.305 228.048 183.707 227.969 184.005 227.81C184.313 227.642 184.467 227.376 184.467 227.012C184.467 226.816 184.421 226.653 184.327 226.522C184.234 226.391 184.052 226.279 183.781 226.186C183.511 226.083 183.109 225.985 182.577 225.892C181.868 225.761 181.308 225.603 180.897 225.416C180.496 225.22 180.207 224.982 180.029 224.702C179.861 224.413 179.777 224.072 179.777 223.68C179.777 223.017 180.02 222.476 180.505 222.056C180.991 221.627 181.681 221.412 182.577 221.412C183.184 221.412 183.693 221.524 184.103 221.748C184.523 221.963 184.85 222.252 185.083 222.616C185.326 222.971 185.485 223.363 185.559 223.792L184.327 223.876C184.271 223.615 184.169 223.386 184.019 223.19C183.87 222.985 183.674 222.826 183.431 222.714C183.189 222.593 182.899 222.532 182.563 222.532C182.031 222.532 181.639 222.635 181.387 222.84C181.135 223.045 181.009 223.307 181.009 223.624C181.009 223.867 181.065 224.067 181.177 224.226C181.299 224.375 181.49 224.501 181.751 224.604C182.013 224.697 182.363 224.781 182.801 224.856C183.557 224.987 184.145 225.145 184.565 225.332C184.985 225.519 185.279 225.747 185.447 226.018C185.615 226.289 185.699 226.62 185.699 227.012C185.699 227.469 185.569 227.861 185.307 228.188C185.055 228.505 184.71 228.748 184.271 228.916C183.842 229.084 183.352 229.168 182.801 229.168ZM186.465 229L190.049 219.06H191.673L195.257 229H193.941L192.947 226.172H188.775L187.781 229H186.465ZM189.181 224.996H192.541L190.861 220.11L189.181 224.996ZM196.383 231.1V221.58H197.475L197.503 223.176L197.335 223.092C197.521 222.541 197.829 222.126 198.259 221.846C198.697 221.557 199.201 221.412 199.771 221.412C200.508 221.412 201.11 221.594 201.577 221.958C202.053 222.322 202.403 222.798 202.627 223.386C202.86 223.974 202.977 224.609 202.977 225.29C202.977 225.971 202.86 226.606 202.627 227.194C202.403 227.782 202.053 228.258 201.577 228.622C201.11 228.986 200.508 229.168 199.771 229.168C199.388 229.168 199.029 229.103 198.693 228.972C198.366 228.841 198.086 228.659 197.853 228.426C197.629 228.193 197.475 227.917 197.391 227.6L197.559 227.404V231.1H196.383ZM199.659 228.048C200.303 228.048 200.811 227.805 201.185 227.32C201.558 226.835 201.745 226.158 201.745 225.29C201.745 224.422 201.558 223.745 201.185 223.26C200.811 222.775 200.303 222.532 199.659 222.532C199.229 222.532 198.856 222.635 198.539 222.84C198.231 223.045 197.988 223.353 197.811 223.764C197.643 224.175 197.559 224.683 197.559 225.29C197.559 225.897 197.643 226.405 197.811 226.816C197.979 227.227 198.221 227.535 198.539 227.74C198.856 227.945 199.229 228.048 199.659 228.048ZM204.572 231.1V221.58H205.664L205.692 223.176L205.524 223.092C205.711 222.541 206.019 222.126 206.448 221.846C206.887 221.557 207.391 221.412 207.96 221.412C208.697 221.412 209.299 221.594 209.766 221.958C210.242 222.322 210.592 222.798 210.816 223.386C211.049 223.974 211.166 224.609 211.166 225.29C211.166 225.971 211.049 226.606 210.816 227.194C210.592 227.782 210.242 228.258 209.766 228.622C209.299 228.986 208.697 229.168 207.96 229.168C207.577 229.168 207.218 229.103 206.882 228.972C206.555 228.841 206.275 228.659 206.042 228.426C205.818 228.193 205.664 227.917 205.58 227.6L205.748 227.404V231.1H204.572ZM207.848 228.048C208.492 228.048 209.001 227.805 209.374 227.32C209.747 226.835 209.934 226.158 209.934 225.29C209.934 224.422 209.747 223.745 209.374 223.26C209.001 222.775 208.492 222.532 207.848 222.532C207.419 222.532 207.045 222.635 206.728 222.84C206.42 223.045 206.177 223.353 206 223.764C205.832 224.175 205.748 224.683 205.748 225.29C205.748 225.897 205.832 226.405 206 226.816C206.168 227.227 206.411 227.535 206.728 227.74C207.045 227.945 207.419 228.048 207.848 228.048ZM212.394 229V227.418H213.976V229H212.394Z" fill="black"/>
<path d="M91.5527 99H268.553" stroke="url(#paint2_linear_93_4547)"/>
<defs>
<filter id="filter0_d_93_4547" x="83.5527" y="0" width="193" height="261" filterUnits="userSpaceOnUse" color-interpolation-filters="sRGB">
<feFlood flood-opacity="0" result="BackgroundImageFix"/>
<feColorMatrix in="SourceAlpha" type="matrix" values="0 0 0 0 0 0 0 0 0 0 0 0 0 0 0 0 0 0 127 0" result="hardAlpha"/>
<feOffset dy="4"/>
<feGaussianBlur stdDeviation="4"/>
<feComposite in2="hardAlpha" operator="out"/>
<feColorMatrix type="matrix" values="0 0 0 0 0 0 0 0 0 0 0 0 0 0 0 0 0 0 0.07 0"/>
<feBlend mode="normal" in2="BackgroundImageFix" result="effect1_dropShadow_93_4547"/>
<feBlend mode="normal" in="SourceGraphic" in2="effect1_dropShadow_93_4547" result="shape"/>
</filter>
<filter id="filter1_d_93_4547" x="105.661" y="17.3331" width="90.2503" height="38.3787" filterUnits="userSpaceOnUse" color-interpolation-filters="sRGB">
<feFlood flood-opacity="0" result="BackgroundImageFix"/>
<feColorMatrix in="SourceAlpha" type="matrix" values="0 0 0 0 0 0 0 0 0 0 0 0 0 0 0 0 0 0 127 0" result="hardAlpha"/>
<feOffset dy="2"/>
<feGaussianBlur stdDeviation="2.3"/>
<feComposite in2="hardAlpha" operator="out"/>
<feColorMatrix type="matrix" values="0 0 0 0 0 0 0 0 0 0 0 0 0 0 0 0 0 0 0.1 0"/>
<feBlend mode="normal" in2="BackgroundImageFix" result="effect1_dropShadow_93_4547"/>
<feBlend mode="normal" in="SourceGraphic" in2="effect1_dropShadow_93_4547" result="shape"/>
</filter>
<filter id="filter2_d_93_4547" x="166.194" y="50.1732" width="90.2503" height="38.3689" filterUnits="userSpaceOnUse" color-interpolation-filters="sRGB">
<feFlood flood-opacity="0" result="BackgroundImageFix"/>
<feColorMatrix in="SourceAlpha" type="matrix" values="0 0 0 0 0 0 0 0 0 0 0 0 0 0 0 0 0 0 127 0" result="hardAlpha"/>
<feOffset dy="2"/>
<feGaussianBlur stdDeviation="2.3"/>
<feComposite in2="hardAlpha" operator="out"/>
<feColorMatrix type="matrix" values="0 0 0 0 0 0 0 0 0 0 0 0 0 0 0 0 0 0 0.1 0"/>
<feBlend mode="normal" in2="BackgroundImageFix" result="effect1_dropShadow_93_4547"/>
<feBlend mode="normal" in="SourceGraphic" in2="effect1_dropShadow_93_4547" result="shape"/>
</filter>
<linearGradient id="paint0_linear_93_4547" x1="2.05273" y1="54" x2="114.053" y2="202" gradientUnits="userSpaceOnUse">
<stop stop-color="#1AC968" stop-opacity="0.5"/>
<stop offset="1" stop-color="#1AC968"/>
</linearGradient>
<linearGradient id="paint1_linear_93_4547" x1="268.553" y1="99" x2="91.5527" y2="4" gradientUnits="userSpaceOnUse">
<stop stop-color="#2BD06E" stop-opacity="0.2"/>
<stop offset="1" stop-color="#2BD06E" stop-opacity="0"/>
</linearGradient>
<linearGradient id="paint2_linear_93_4547" x1="91.5527" y1="99.5" x2="268.553" y2="99.5" gradientUnits="userSpaceOnUse">
<stop stop-color="#B1F4CB" stop-opacity="0.7"/>
<stop offset="1" stop-color="#B1F4CB" stop-opacity="0.5"/>
</linearGradient>
</defs>
</svg>
