<svg width="24" height="24" viewBox="0 0 24 24" fill="none" xmlns="http://www.w3.org/2000/svg">
<path d="M20.9995 4.5H2.99951C2.8006 4.5 2.60983 4.57902 2.46918 4.71967C2.32853 4.86032 2.24951 5.05109 2.24951 5.25V18C2.24951 18.3978 2.40755 18.7794 2.68885 19.0607C2.97016 19.342 3.35169 19.5 3.74951 19.5H20.2495C20.6473 19.5 21.0289 19.342 21.3102 19.0607C21.5915 18.7794 21.7495 18.3978 21.7495 18V5.25C21.7495 5.05109 21.6705 4.86032 21.5298 4.71967C21.3892 4.57902 21.1984 4.5 20.9995 4.5ZM11.9995 12.4828L4.92795 6H19.0711L11.9995 12.4828ZM9.25357 12L3.74951 17.0447V6.95531L9.25357 12ZM10.3636 13.0172L11.4886 14.0531C11.6269 14.1801 11.8079 14.2506 11.9958 14.2506C12.1836 14.2506 12.3646 14.1801 12.5029 14.0531L13.6279 13.0172L19.0654 18H4.92795L10.3636 13.0172ZM14.7454 12L20.2495 6.95438V17.0456L14.7454 12Z" fill="white"/>
</svg>
