<svg width="343" height="268" viewBox="0 0 343 268" fill="none" xmlns="http://www.w3.org/2000/svg">
<rect width="343" height="268" rx="16" fill="url(#paint0_linear_161_244)"/>
<mask id="mask0_161_244" style="mask-type:alpha" maskUnits="userSpaceOnUse" x="14" y="13" width="315" height="156">
<path d="M28.4674 16.0374C28.4674 17.4206 27.3461 18.5419 25.963 18.5419C24.5798 18.5419 23.4585 17.4206 23.4585 16.0374C23.4585 14.6543 24.5798 13.533 25.963 13.533C27.3461 13.533 28.4674 14.6543 28.4674 16.0374Z" fill="#15C865"/>
<path d="M53.5116 16.0374C53.5116 17.4206 52.3903 18.5418 51.0071 18.5418C49.624 18.5418 48.5027 17.4206 48.5027 16.0374C48.5027 14.6542 49.624 13.533 51.0071 13.533C52.3903 13.533 53.5116 14.6542 53.5116 16.0374Z" fill="#15C865"/>
<path d="M78.5562 16.0374C78.5562 17.4206 77.4349 18.5419 76.0517 18.5419C74.6685 18.5419 73.5473 17.4206 73.5473 16.0374C73.5473 14.6543 74.6685 13.533 76.0517 13.533C77.4349 13.533 78.5562 14.6543 78.5562 16.0374Z" fill="#15C865"/>
<path d="M103.601 16.0374C103.601 17.4206 102.479 18.5418 101.096 18.5418C99.713 18.5418 98.5917 17.4206 98.5917 16.0374C98.5917 14.6542 99.713 13.533 101.096 13.533C102.479 13.533 103.601 14.6542 103.601 16.0374Z" fill="#15C865"/>
<path d="M128.645 16.0374C128.645 17.4206 127.524 18.5418 126.14 18.5418C124.757 18.5418 123.636 17.4206 123.636 16.0374C123.636 14.6542 124.757 13.533 126.14 13.533C127.524 13.533 128.645 14.6542 128.645 16.0374Z" fill="#15C865"/>
<path d="M153.689 16.0374C153.689 17.4206 152.568 18.5418 151.185 18.5418C149.802 18.5418 148.68 17.4206 148.68 16.0374C148.68 14.6542 149.802 13.533 151.185 13.533C152.568 13.533 153.689 14.6542 153.689 16.0374Z" fill="#15C865"/>
<path d="M178.733 16.0374C178.733 17.4206 177.612 18.5418 176.229 18.5418C174.846 18.5418 173.725 17.4206 173.725 16.0374C173.725 14.6542 174.846 13.533 176.229 13.533C177.612 13.533 178.733 14.6542 178.733 16.0374Z" fill="#15C865"/>
<path d="M203.778 16.0374C203.778 17.4206 202.657 18.5419 201.274 18.5419C199.89 18.5419 198.769 17.4206 198.769 16.0374C198.769 14.6543 199.89 13.533 201.274 13.533C202.657 13.533 203.778 14.6543 203.778 16.0374Z" fill="#15C865"/>
<path d="M228.822 16.0374C228.822 17.4206 227.701 18.5418 226.318 18.5418C224.935 18.5418 223.814 17.4206 223.814 16.0374C223.814 14.6542 224.935 13.533 226.318 13.533C227.701 13.533 228.822 14.6542 228.822 16.0374Z" fill="#15C865"/>
<path d="M253.867 16.0374C253.867 17.4206 252.745 18.5418 251.362 18.5418C249.979 18.5418 248.858 17.4206 248.858 16.0374C248.858 14.6542 249.979 13.533 251.362 13.533C252.745 13.533 253.867 14.6542 253.867 16.0374Z" fill="#15C865"/>
<path d="M278.911 16.0374C278.911 17.4206 277.79 18.5418 276.407 18.5418C275.023 18.5418 273.902 17.4206 273.902 16.0374C273.902 14.6542 275.023 13.533 276.407 13.533C277.79 13.533 278.911 14.6542 278.911 16.0374Z" fill="#15C865"/>
<path d="M303.955 16.0374C303.955 17.4206 302.834 18.5418 301.451 18.5418C300.068 18.5418 298.946 17.4206 298.946 16.0374C298.946 14.6542 300.068 13.533 301.451 13.533C302.834 13.533 303.955 14.6542 303.955 16.0374Z" fill="#15C865"/>
<path d="M329 16.0374C329 17.4206 327.879 18.5419 326.495 18.5419C325.112 18.5419 323.991 17.4206 323.991 16.0374C323.991 14.6543 325.112 13.533 326.495 13.533C327.879 13.533 329 14.6543 329 16.0374Z" fill="#15C865"/>
<path d="M19.3194 41.0817C19.3194 42.4649 18.1981 43.5862 16.815 43.5862C15.4318 43.5862 14.3105 42.4649 14.3105 41.0817C14.3105 39.6986 15.4318 38.5773 16.815 38.5773C18.1981 38.5773 19.3194 39.6986 19.3194 41.0817Z" fill="#15C865"/>
<path d="M44.3637 41.0818C44.3637 42.465 43.2424 43.5862 41.8593 43.5862C40.4761 43.5862 39.3548 42.465 39.3548 41.0818C39.3548 39.6986 40.4761 38.5774 41.8593 38.5774C43.2424 38.5774 44.3637 39.6986 44.3637 41.0818Z" fill="#15C865"/>
<path d="M69.408 41.0818C69.408 42.465 68.2867 43.5862 66.9035 43.5862C65.5204 43.5862 64.3991 42.465 64.3991 41.0818C64.3991 39.6986 65.5204 38.5774 66.9035 38.5774C68.2867 38.5774 69.408 39.6986 69.408 41.0818Z" fill="#15C865"/>
<path d="M94.4527 41.0818C94.4527 42.465 93.3315 43.5862 91.9483 43.5862C90.5651 43.5862 89.4439 42.465 89.4439 41.0818C89.4439 39.6986 90.5651 38.5774 91.9483 38.5774C93.3315 38.5774 94.4527 39.6986 94.4527 41.0818Z" fill="#15C865"/>
<path d="M119.497 41.0818C119.497 42.465 118.376 43.5862 116.993 43.5862C115.609 43.5862 114.488 42.465 114.488 41.0818C114.488 39.6986 115.609 38.5774 116.993 38.5774C118.376 38.5774 119.497 39.6986 119.497 41.0818Z" fill="#15C865"/>
<path d="M144.541 41.0818C144.541 42.465 143.42 43.5862 142.037 43.5862C140.654 43.5862 139.532 42.465 139.532 41.0818C139.532 39.6986 140.654 38.5774 142.037 38.5774C143.42 38.5774 144.541 39.6986 144.541 41.0818Z" fill="#15C865"/>
<path d="M169.586 41.0818C169.586 42.465 168.464 43.5862 167.081 43.5862C165.698 43.5862 164.577 42.465 164.577 41.0818C164.577 39.6986 165.698 38.5774 167.081 38.5774C168.464 38.5774 169.586 39.6986 169.586 41.0818Z" fill="#15C865"/>
<path d="M194.63 41.0818C194.63 42.465 193.509 43.5862 192.125 43.5862C190.742 43.5862 189.621 42.465 189.621 41.0818C189.621 39.6986 190.742 38.5774 192.125 38.5774C193.509 38.5774 194.63 39.6986 194.63 41.0818Z" fill="#15C865"/>
<path d="M219.675 41.0818C219.675 42.465 218.553 43.5862 217.17 43.5862C215.787 43.5862 214.666 42.465 214.666 41.0818C214.666 39.6986 215.787 38.5774 217.17 38.5774C218.553 38.5774 219.675 39.6986 219.675 41.0818Z" fill="#15C865"/>
<path d="M244.719 41.0818C244.719 42.465 243.598 43.5862 242.214 43.5862C240.831 43.5862 239.71 42.465 239.71 41.0818C239.71 39.6986 240.831 38.5774 242.214 38.5774C243.598 38.5774 244.719 39.6986 244.719 41.0818Z" fill="#15C865"/>
<path d="M269.763 41.0818C269.763 42.465 268.642 43.5862 267.259 43.5862C265.876 43.5862 264.754 42.465 264.754 41.0818C264.754 39.6986 265.876 38.5774 267.259 38.5774C268.642 38.5774 269.763 39.6986 269.763 41.0818Z" fill="#15C865"/>
<path d="M294.807 41.0818C294.807 42.465 293.686 43.5862 292.303 43.5862C290.92 43.5862 289.799 42.465 289.799 41.0818C289.799 39.6986 290.92 38.5774 292.303 38.5774C293.686 38.5774 294.807 39.6986 294.807 41.0818Z" fill="#15C865"/>
<path d="M319.852 41.0818C319.852 42.465 318.73 43.5862 317.347 43.5862C315.964 43.5862 314.843 42.465 314.843 41.0818C314.843 39.6986 315.964 38.5774 317.347 38.5774C318.73 38.5774 319.852 39.6986 319.852 41.0818Z" fill="#15C865"/>
<path d="M28.4674 66.1262C28.4674 67.5093 27.3461 68.6306 25.9629 68.6306C24.5798 68.6306 23.4585 67.5093 23.4585 66.1262C23.4585 64.743 24.5798 63.6217 25.9629 63.6217C27.3461 63.6217 28.4674 64.743 28.4674 66.1262Z" fill="#15C865"/>
<path d="M53.5115 66.1262C53.5115 67.5093 52.3903 68.6306 51.0071 68.6306C49.6239 68.6306 48.5027 67.5093 48.5027 66.1262C48.5027 64.743 49.6239 63.6217 51.0071 63.6217C52.3903 63.6217 53.5115 64.743 53.5115 66.1262Z" fill="#15C865"/>
<path d="M78.5561 66.1262C78.5561 67.5093 77.4348 68.6306 76.0517 68.6306C74.6685 68.6306 73.5473 67.5093 73.5473 66.1262C73.5473 64.743 74.6685 63.6217 76.0517 63.6217C77.4348 63.6217 78.5561 64.743 78.5561 66.1262Z" fill="#15C865"/>
<path d="M103.601 66.1262C103.601 67.5093 102.479 68.6306 101.096 68.6306C99.713 68.6306 98.5917 67.5093 98.5917 66.1262C98.5917 64.743 99.713 63.6217 101.096 63.6217C102.479 63.6217 103.601 64.743 103.601 66.1262Z" fill="#15C865"/>
<path d="M128.645 66.1262C128.645 67.5093 127.524 68.6306 126.14 68.6306C124.757 68.6306 123.636 67.5093 123.636 66.1262C123.636 64.743 124.757 63.6217 126.14 63.6217C127.524 63.6217 128.645 64.743 128.645 66.1262Z" fill="#15C865"/>
<path d="M153.689 66.1262C153.689 67.5093 152.568 68.6306 151.185 68.6306C149.802 68.6306 148.68 67.5093 148.68 66.1262C148.68 64.743 149.802 63.6217 151.185 63.6217C152.568 63.6217 153.689 64.743 153.689 66.1262Z" fill="#15C865"/>
<path d="M178.733 66.1262C178.733 67.5093 177.612 68.6306 176.229 68.6306C174.846 68.6306 173.725 67.5093 173.725 66.1262C173.725 64.743 174.846 63.6217 176.229 63.6217C177.612 63.6217 178.733 64.743 178.733 66.1262Z" fill="#15C865"/>
<path d="M203.778 66.1262C203.778 67.5093 202.657 68.6306 201.274 68.6306C199.89 68.6306 198.769 67.5093 198.769 66.1262C198.769 64.743 199.89 63.6217 201.274 63.6217C202.657 63.6217 203.778 64.743 203.778 66.1262Z" fill="#15C865"/>
<path d="M228.822 66.1262C228.822 67.5093 227.701 68.6306 226.318 68.6306C224.935 68.6306 223.814 67.5093 223.814 66.1262C223.814 64.743 224.935 63.6217 226.318 63.6217C227.701 63.6217 228.822 64.743 228.822 66.1262Z" fill="#15C865"/>
<path d="M253.867 66.1262C253.867 67.5093 252.745 68.6306 251.362 68.6306C249.979 68.6306 248.858 67.5093 248.858 66.1262C248.858 64.743 249.979 63.6217 251.362 63.6217C252.745 63.6217 253.867 64.743 253.867 66.1262Z" fill="#15C865"/>
<path d="M278.911 66.1262C278.911 67.5093 277.79 68.6306 276.407 68.6306C275.023 68.6306 273.902 67.5093 273.902 66.1262C273.902 64.743 275.023 63.6217 276.407 63.6217C277.79 63.6217 278.911 64.743 278.911 66.1262Z" fill="#15C865"/>
<path d="M303.955 66.1262C303.955 67.5093 302.834 68.6306 301.451 68.6306C300.068 68.6306 298.946 67.5093 298.946 66.1262C298.946 64.743 300.068 63.6217 301.451 63.6217C302.834 63.6217 303.955 64.743 303.955 66.1262Z" fill="#15C865"/>
<path d="M329 66.1262C329 67.5093 327.879 68.6306 326.495 68.6306C325.112 68.6306 323.991 67.5093 323.991 66.1262C323.991 64.743 325.112 63.6217 326.495 63.6217C327.879 63.6217 329 64.743 329 66.1262Z" fill="#15C865"/>
<path d="M19.3194 91.1707C19.3194 92.5539 18.1981 93.6752 16.815 93.6752C15.4318 93.6752 14.3105 92.5539 14.3105 91.1707C14.3105 89.7876 15.4318 88.6663 16.815 88.6663C18.1981 88.6663 19.3194 89.7876 19.3194 91.1707Z" fill="#15C865"/>
<path d="M44.3637 91.1708C44.3637 92.554 43.2424 93.6753 41.8593 93.6753C40.4761 93.6753 39.3548 92.554 39.3548 91.1708C39.3548 89.7877 40.4761 88.6664 41.8593 88.6664C43.2424 88.6664 44.3637 89.7877 44.3637 91.1708Z" fill="#15C865"/>
<path d="M69.408 91.1708C69.408 92.554 68.2867 93.6753 66.9035 93.6753C65.5204 93.6753 64.3991 92.554 64.3991 91.1708C64.3991 89.7877 65.5204 88.6664 66.9035 88.6664C68.2867 88.6664 69.408 89.7877 69.408 91.1708Z" fill="#15C865"/>
<path d="M94.4527 91.1708C94.4527 92.554 93.3315 93.6753 91.9483 93.6753C90.5651 93.6753 89.4439 92.554 89.4439 91.1708C89.4439 89.7877 90.5651 88.6664 91.9483 88.6664C93.3315 88.6664 94.4527 89.7877 94.4527 91.1708Z" fill="#15C865"/>
<path d="M119.497 91.1708C119.497 92.554 118.376 93.6753 116.993 93.6753C115.609 93.6753 114.488 92.554 114.488 91.1708C114.488 89.7877 115.609 88.6664 116.993 88.6664C118.376 88.6664 119.497 89.7877 119.497 91.1708Z" fill="#15C865"/>
<path d="M144.541 91.1708C144.541 92.554 143.42 93.6753 142.037 93.6753C140.654 93.6753 139.532 92.554 139.532 91.1708C139.532 89.7877 140.654 88.6664 142.037 88.6664C143.42 88.6664 144.541 89.7877 144.541 91.1708Z" fill="#15C865"/>
<path d="M169.586 91.1708C169.586 92.554 168.464 93.6753 167.081 93.6753C165.698 93.6753 164.577 92.554 164.577 91.1708C164.577 89.7877 165.698 88.6664 167.081 88.6664C168.464 88.6664 169.586 89.7877 169.586 91.1708Z" fill="#15C865"/>
<path d="M194.63 91.1708C194.63 92.554 193.509 93.6753 192.125 93.6753C190.742 93.6753 189.621 92.554 189.621 91.1708C189.621 89.7877 190.742 88.6664 192.125 88.6664C193.509 88.6664 194.63 89.7877 194.63 91.1708Z" fill="#15C865"/>
<path d="M219.675 91.1708C219.675 92.554 218.553 93.6753 217.17 93.6753C215.787 93.6753 214.666 92.554 214.666 91.1708C214.666 89.7877 215.787 88.6664 217.17 88.6664C218.553 88.6664 219.675 89.7877 219.675 91.1708Z" fill="#15C865"/>
<path d="M244.719 91.1708C244.719 92.554 243.598 93.6753 242.214 93.6753C240.831 93.6753 239.71 92.554 239.71 91.1708C239.71 89.7877 240.831 88.6664 242.214 88.6664C243.598 88.6664 244.719 89.7877 244.719 91.1708Z" fill="#15C865"/>
<path d="M269.763 91.1708C269.763 92.554 268.642 93.6753 267.259 93.6753C265.876 93.6753 264.754 92.554 264.754 91.1708C264.754 89.7877 265.876 88.6664 267.259 88.6664C268.642 88.6664 269.763 89.7877 269.763 91.1708Z" fill="#15C865"/>
<path d="M294.807 91.1708C294.807 92.554 293.686 93.6753 292.303 93.6753C290.92 93.6753 289.799 92.554 289.799 91.1708C289.799 89.7877 290.92 88.6664 292.303 88.6664C293.686 88.6664 294.807 89.7877 294.807 91.1708Z" fill="#15C865"/>
<path d="M319.852 91.1708C319.852 92.554 318.73 93.6753 317.347 93.6753C315.964 93.6753 314.843 92.554 314.843 91.1708C314.843 89.7877 315.964 88.6664 317.347 88.6664C318.73 88.6664 319.852 89.7877 319.852 91.1708Z" fill="#15C865"/>
<path d="M28.4674 116.215C28.4674 117.598 27.3461 118.719 25.963 118.719C24.5798 118.719 23.4585 117.598 23.4585 116.215C23.4585 114.832 24.5798 113.711 25.963 113.711C27.3461 113.711 28.4674 114.832 28.4674 116.215Z" fill="#15C865"/>
<path d="M53.5116 116.215C53.5116 117.598 52.3903 118.719 51.0071 118.719C49.624 118.719 48.5027 117.598 48.5027 116.215C48.5027 114.832 49.624 113.711 51.0071 113.711C52.3903 113.711 53.5116 114.832 53.5116 116.215Z" fill="#15C865"/>
<path d="M78.5562 116.215C78.5562 117.598 77.4349 118.719 76.0517 118.719C74.6685 118.719 73.5473 117.598 73.5473 116.215C73.5473 114.832 74.6685 113.711 76.0517 113.711C77.4349 113.711 78.5562 114.832 78.5562 116.215Z" fill="#15C865"/>
<path d="M103.601 116.215C103.601 117.598 102.479 118.719 101.096 118.719C99.713 118.719 98.5917 117.598 98.5917 116.215C98.5917 114.832 99.713 113.711 101.096 113.711C102.479 113.711 103.601 114.832 103.601 116.215Z" fill="#15C865"/>
<path d="M128.645 116.215C128.645 117.598 127.524 118.719 126.14 118.719C124.757 118.719 123.636 117.598 123.636 116.215C123.636 114.832 124.757 113.711 126.14 113.711C127.524 113.711 128.645 114.832 128.645 116.215Z" fill="#15C865"/>
<path d="M153.689 116.215C153.689 117.598 152.568 118.719 151.185 118.719C149.802 118.719 148.68 117.598 148.68 116.215C148.68 114.832 149.802 113.711 151.185 113.711C152.568 113.711 153.689 114.832 153.689 116.215Z" fill="#15C865"/>
<path d="M178.733 116.215C178.733 117.598 177.612 118.719 176.229 118.719C174.846 118.719 173.725 117.598 173.725 116.215C173.725 114.832 174.846 113.711 176.229 113.711C177.612 113.711 178.733 114.832 178.733 116.215Z" fill="#15C865"/>
<path d="M203.778 116.215C203.778 117.598 202.657 118.719 201.274 118.719C199.89 118.719 198.769 117.598 198.769 116.215C198.769 114.832 199.89 113.711 201.274 113.711C202.657 113.711 203.778 114.832 203.778 116.215Z" fill="#15C865"/>
<path d="M228.822 116.215C228.822 117.598 227.701 118.719 226.318 118.719C224.935 118.719 223.814 117.598 223.814 116.215C223.814 114.832 224.935 113.711 226.318 113.711C227.701 113.711 228.822 114.832 228.822 116.215Z" fill="#15C865"/>
<path d="M253.867 116.215C253.867 117.598 252.745 118.719 251.362 118.719C249.979 118.719 248.858 117.598 248.858 116.215C248.858 114.832 249.979 113.711 251.362 113.711C252.745 113.711 253.867 114.832 253.867 116.215Z" fill="#15C865"/>
<path d="M278.911 116.215C278.911 117.598 277.79 118.719 276.407 118.719C275.023 118.719 273.902 117.598 273.902 116.215C273.902 114.832 275.023 113.711 276.407 113.711C277.79 113.711 278.911 114.832 278.911 116.215Z" fill="#15C865"/>
<path d="M303.955 116.215C303.955 117.598 302.834 118.719 301.451 118.719C300.068 118.719 298.946 117.598 298.946 116.215C298.946 114.832 300.068 113.711 301.451 113.711C302.834 113.711 303.955 114.832 303.955 116.215Z" fill="#15C865"/>
<path d="M329 116.215C329 117.598 327.879 118.719 326.495 118.719C325.112 118.719 323.991 117.598 323.991 116.215C323.991 114.832 325.112 113.711 326.495 113.711C327.879 113.711 329 114.832 329 116.215Z" fill="#15C865"/>
<path d="M19.3194 141.259C19.3194 142.642 18.1981 143.764 16.815 143.764C15.4318 143.764 14.3105 142.642 14.3105 141.259C14.3105 139.876 15.4318 138.755 16.815 138.755C18.1981 138.755 19.3194 139.876 19.3194 141.259Z" fill="#15C865"/>
<path d="M44.3637 141.259C44.3637 142.642 43.2424 143.764 41.8593 143.764C40.4761 143.764 39.3548 142.642 39.3548 141.259C39.3548 139.876 40.4761 138.755 41.8593 138.755C43.2424 138.755 44.3637 139.876 44.3637 141.259Z" fill="#15C865"/>
<path d="M69.408 141.259C69.408 142.642 68.2867 143.764 66.9035 143.764C65.5204 143.764 64.3991 142.642 64.3991 141.259C64.3991 139.876 65.5204 138.755 66.9035 138.755C68.2867 138.755 69.408 139.876 69.408 141.259Z" fill="#15C865"/>
<path d="M94.4527 141.259C94.4527 142.642 93.3315 143.764 91.9483 143.764C90.5651 143.764 89.4439 142.642 89.4439 141.259C89.4439 139.876 90.5651 138.755 91.9483 138.755C93.3315 138.755 94.4527 139.876 94.4527 141.259Z" fill="#15C865"/>
<path d="M119.497 141.259C119.497 142.642 118.376 143.764 116.993 143.764C115.609 143.764 114.488 142.642 114.488 141.259C114.488 139.876 115.609 138.755 116.993 138.755C118.376 138.755 119.497 139.876 119.497 141.259Z" fill="#15C865"/>
<path d="M144.541 141.259C144.541 142.642 143.42 143.764 142.037 143.764C140.654 143.764 139.532 142.642 139.532 141.259C139.532 139.876 140.654 138.755 142.037 138.755C143.42 138.755 144.541 139.876 144.541 141.259Z" fill="#15C865"/>
<path d="M169.586 141.259C169.586 142.642 168.464 143.764 167.081 143.764C165.698 143.764 164.577 142.642 164.577 141.259C164.577 139.876 165.698 138.755 167.081 138.755C168.464 138.755 169.586 139.876 169.586 141.259Z" fill="#15C865"/>
<path d="M194.63 141.259C194.63 142.642 193.509 143.764 192.125 143.764C190.742 143.764 189.621 142.642 189.621 141.259C189.621 139.876 190.742 138.755 192.125 138.755C193.509 138.755 194.63 139.876 194.63 141.259Z" fill="#15C865"/>
<path d="M219.675 141.259C219.675 142.642 218.553 143.764 217.17 143.764C215.787 143.764 214.666 142.642 214.666 141.259C214.666 139.876 215.787 138.755 217.17 138.755C218.553 138.755 219.675 139.876 219.675 141.259Z" fill="#15C865"/>
<path d="M244.719 141.259C244.719 142.642 243.598 143.764 242.214 143.764C240.831 143.764 239.71 142.642 239.71 141.259C239.71 139.876 240.831 138.755 242.214 138.755C243.598 138.755 244.719 139.876 244.719 141.259Z" fill="#15C865"/>
<path d="M269.763 141.259C269.763 142.642 268.642 143.764 267.259 143.764C265.876 143.764 264.754 142.642 264.754 141.259C264.754 139.876 265.876 138.755 267.259 138.755C268.642 138.755 269.763 139.876 269.763 141.259Z" fill="#15C865"/>
<path d="M294.807 141.259C294.807 142.642 293.686 143.764 292.303 143.764C290.92 143.764 289.799 142.642 289.799 141.259C289.799 139.876 290.92 138.755 292.303 138.755C293.686 138.755 294.807 139.876 294.807 141.259Z" fill="#15C865"/>
<path d="M319.852 141.259C319.852 142.642 318.73 143.764 317.347 143.764C315.964 143.764 314.843 142.642 314.843 141.259C314.843 139.876 315.964 138.755 317.347 138.755C318.73 138.755 319.852 139.876 319.852 141.259Z" fill="#15C865"/>
<path d="M28.4674 166.304C28.4674 167.687 27.3461 168.808 25.963 168.808C24.5798 168.808 23.4585 167.687 23.4585 166.304C23.4585 164.92 24.5798 163.799 25.963 163.799C27.3461 163.799 28.4674 164.92 28.4674 166.304Z" fill="#15C865"/>
<path d="M53.5116 166.304C53.5116 167.687 52.3903 168.808 51.0071 168.808C49.624 168.808 48.5027 167.687 48.5027 166.304C48.5027 164.92 49.624 163.799 51.0071 163.799C52.3903 163.799 53.5116 164.92 53.5116 166.304Z" fill="#15C865"/>
<path d="M78.5562 166.304C78.5562 167.687 77.4349 168.808 76.0517 168.808C74.6685 168.808 73.5473 167.687 73.5473 166.304C73.5473 164.92 74.6685 163.799 76.0517 163.799C77.4349 163.799 78.5562 164.92 78.5562 166.304Z" fill="#15C865"/>
<path d="M103.601 166.304C103.601 167.687 102.479 168.808 101.096 168.808C99.713 168.808 98.5917 167.687 98.5917 166.304C98.5917 164.92 99.713 163.799 101.096 163.799C102.479 163.799 103.601 164.92 103.601 166.304Z" fill="#15C865"/>
<path d="M128.645 166.304C128.645 167.687 127.524 168.808 126.14 168.808C124.757 168.808 123.636 167.687 123.636 166.304C123.636 164.92 124.757 163.799 126.14 163.799C127.524 163.799 128.645 164.92 128.645 166.304Z" fill="#15C865"/>
<path d="M153.689 166.304C153.689 167.687 152.568 168.808 151.185 168.808C149.802 168.808 148.68 167.687 148.68 166.304C148.68 164.92 149.802 163.799 151.185 163.799C152.568 163.799 153.689 164.92 153.689 166.304Z" fill="#15C865"/>
<path d="M178.733 166.304C178.733 167.687 177.612 168.808 176.229 168.808C174.846 168.808 173.725 167.687 173.725 166.304C173.725 164.92 174.846 163.799 176.229 163.799C177.612 163.799 178.733 164.92 178.733 166.304Z" fill="#15C865"/>
<path d="M203.778 166.304C203.778 167.687 202.657 168.808 201.274 168.808C199.89 168.808 198.769 167.687 198.769 166.304C198.769 164.92 199.89 163.799 201.274 163.799C202.657 163.799 203.778 164.92 203.778 166.304Z" fill="#15C865"/>
<path d="M228.822 166.304C228.822 167.687 227.701 168.808 226.318 168.808C224.935 168.808 223.814 167.687 223.814 166.304C223.814 164.92 224.935 163.799 226.318 163.799C227.701 163.799 228.822 164.92 228.822 166.304Z" fill="#15C865"/>
<path d="M253.867 166.304C253.867 167.687 252.745 168.808 251.362 168.808C249.979 168.808 248.858 167.687 248.858 166.304C248.858 164.92 249.979 163.799 251.362 163.799C252.745 163.799 253.867 164.92 253.867 166.304Z" fill="#15C865"/>
<path d="M278.911 166.304C278.911 167.687 277.79 168.808 276.407 168.808C275.023 168.808 273.902 167.687 273.902 166.304C273.902 164.92 275.023 163.799 276.407 163.799C277.79 163.799 278.911 164.92 278.911 166.304Z" fill="#15C865"/>
<path d="M303.955 166.304C303.955 167.687 302.834 168.808 301.451 168.808C300.068 168.808 298.946 167.687 298.946 166.304C298.946 164.92 300.068 163.799 301.451 163.799C302.834 163.799 303.955 164.92 303.955 166.304Z" fill="#15C865"/>
<path d="M329 166.304C329 167.687 327.879 168.808 326.495 168.808C325.112 168.808 323.991 167.687 323.991 166.304C323.991 164.92 325.112 163.799 326.495 163.799C327.879 163.799 329 164.92 329 166.304Z" fill="#15C865"/>
</mask>
<g mask="url(#mask0_161_244)">
<rect x="14" y="14" width="315" height="155" fill="url(#paint1_linear_161_244)"/>
</g>
<defs>
<linearGradient id="paint0_linear_161_244" x1="172" y1="5.63924e-07" x2="172" y2="139.531" gradientUnits="userSpaceOnUse">
<stop stop-color="#2BD06E" stop-opacity="0.2"/>
<stop offset="1" stop-color="#2BD06E" stop-opacity="0"/>
</linearGradient>
<linearGradient id="paint1_linear_161_244" x1="171.5" y1="14" x2="171.5" y2="169" gradientUnits="userSpaceOnUse">
<stop stop-color="#2BD06E" stop-opacity="0.2"/>
<stop offset="1" stop-color="#2BD06E" stop-opacity="0"/>
</linearGradient>
</defs>
</svg>
