<svg width="375" height="12" viewBox="0 0 375 12" fill="none" xmlns="http://www.w3.org/2000/svg">
<path d="M-4 11L0.241933 6C2.46364 3.38126 6.5041 3.38126 8.72581 6C10.9475 8.61874 14.988 8.61874 17.2097 6C19.4314 3.38126 23.4718 3.38126 25.6935 6C27.9153 8.61874 31.9557 8.61874 34.1774 6C36.3991 3.38126 40.4396 3.38126 42.6613 6C44.883 8.61874 48.9235 8.61874 51.1452 6C53.3669 3.38126 57.4073 3.38126 59.629 6C61.8507 8.61874 65.8912 8.61874 68.1129 6C70.3346 3.38126 74.3751 3.38126 76.5968 6C78.8185 8.61874 82.8589 8.61874 85.0806 6C87.3023 3.38126 91.3428 3.38126 93.5645 6C95.7862 8.61874 99.8267 8.61874 102.048 6C104.27 3.38126 108.311 3.38126 110.532 6C112.754 8.61874 116.794 8.61874 119.016 6C121.238 3.38126 125.278 3.38126 127.5 6C129.722 8.61874 133.762 8.61874 135.984 6C138.206 3.38126 142.246 3.38126 144.468 6C146.689 8.61874 150.73 8.61874 152.952 6C155.173 3.38126 159.214 3.38126 161.435 6C163.657 8.61874 167.698 8.61874 169.919 6C172.141 3.38126 176.182 3.38126 178.403 6C180.625 8.61874 184.665 8.61874 186.887 6C189.109 3.38126 193.149 3.38126 195.371 6C197.593 8.61874 201.633 8.61874 203.855 6C206.077 3.38126 210.117 3.38126 212.339 6C214.56 8.61874 218.601 8.61874 220.823 6C223.044 3.38126 227.085 3.38126 229.306 6C231.528 8.61874 235.569 8.61874 237.79 6C240.012 3.38126 244.052 3.38126 246.274 6C248.496 8.61874 252.536 8.61874 254.758 6L254.933 5.79391C257.123 3.21219 261.051 3.05136 263.445 5.44537L264.757 6.75736C267.101 9.10051 270.899 9.1005 273.243 6.75736L274.757 5.24264C277.101 2.89949 280.899 2.8995 283.243 5.24264L284.757 6.75736C287.101 9.10051 290.899 9.1005 293.243 6.75736L294.757 5.24264C297.101 2.89949 300.899 2.8995 303.243 5.24264L304.757 6.75736C307.101 9.10051 310.899 9.1005 313.243 6.75736L314.757 5.24264C317.101 2.89949 320.899 2.8995 323.243 5.24264L324.757 6.75736C327.101 9.10051 330.899 9.1005 333.243 6.75736L334.757 5.24264C337.101 2.89949 340.899 2.8995 343.243 5.24264L344.757 6.75736C347.101 9.10051 350.899 9.1005 353.243 6.75736L354.757 5.24264C357.101 2.89949 360.899 2.8995 363.243 5.24264L364.757 6.75736C367.101 9.10051 370.899 9.1005 373.243 6.75736L379 1" stroke="#62DC92" stroke-width="2"/>
</svg>
