<svg width="1280" height="12" viewBox="0 0 1280 12" fill="none" xmlns="http://www.w3.org/2000/svg">
<path d="M1282.25 1L1276.49 6.75736C1274.15 9.1005 1270.35 9.10051 1268.01 6.75736L1266.49 5.24264C1264.15 2.8995 1260.35 2.89949 1258.01 5.24264L1256.49 6.75736C1254.15 9.1005 1250.35 9.10051 1248.01 6.75736L1246.49 5.24264C1244.15 2.8995 1240.35 2.89949 1238.01 5.24264L1236.49 6.75736C1234.15 9.1005 1230.35 9.10051 1228.01 6.75736L1226.49 5.24264C1224.15 2.8995 1220.35 2.89949 1218.01 5.24264L1216.49 6.75736C1214.15 9.1005 1210.35 9.10051 1208.01 6.75736L1206.49 5.24264C1204.15 2.8995 1200.35 2.89949 1198.01 5.24264L1196.49 6.75736C1194.15 9.1005 1190.35 9.10051 1188.01 6.75736L1186.49 5.24264C1184.15 2.8995 1180.35 2.89949 1178.01 5.24264L1176.49 6.75736C1174.15 9.1005 1170.35 9.10051 1168.01 6.75736L1166.7 5.44538C1164.3 3.05136 1160.37 3.21219 1158.18 5.7939L1158.01 6C1155.79 8.61874 1151.75 8.61874 1149.52 6C1147.3 3.38126 1143.26 3.38126 1141.04 6C1138.82 8.61874 1134.78 8.61874 1132.56 6C1130.33 3.38126 1126.29 3.38127 1124.07 6.00001C1121.85 8.61874 1117.81 8.61873 1115.59 5.99999C1113.37 3.38127 1109.33 3.38126 1107.1 6C1104.88 8.61874 1100.84 8.61873 1098.62 6.00001C1096.4 3.38127 1092.36 3.38127 1090.14 6C1087.92 8.61873 1083.87 8.61873 1081.65 5.99999C1079.43 3.38127 1075.39 3.38126 1073.17 6C1070.95 8.61874 1066.91 8.61873 1064.69 6.00001C1062.46 3.38127 1058.42 3.38126 1056.2 5.99999C1053.98 8.61873 1049.94 8.61874 1047.72 6C1045.5 3.38126 1041.46 3.38126 1039.23 6C1037.01 8.61874 1032.97 8.61874 1030.75 6C1028.53 3.38126 1024.49 3.38126 1022.27 6C1020.04 8.61874 1016 8.61873 1013.78 6C1011.56 3.38126 1007.52 3.38126 1005.3 6C1003.08 8.61874 999.036 8.61873 996.815 6C994.593 3.38127 990.552 3.38126 988.331 6C986.109 8.61874 982.069 8.61873 979.847 6C977.625 3.38127 973.585 3.38126 971.363 6C969.141 8.61874 965.101 8.61874 962.879 6C960.657 3.38126 956.617 3.38127 954.395 6C952.173 8.61874 948.133 8.61874 945.911 6C943.69 3.38126 939.649 3.38127 937.427 6C935.206 8.61873 931.165 8.61873 928.944 6C926.722 3.38126 922.681 3.38126 920.46 6C918.238 8.61874 914.198 8.61873 911.976 6C909.754 3.38127 905.714 3.38125 903.492 5.99999L903.317 6.20609C901.127 8.78781 897.199 8.94864 894.805 6.55462L893.493 5.24264C891.149 2.89949 887.351 2.8995 885.007 5.24264L883.493 6.75736C881.149 9.10051 877.351 9.1005 875.007 6.75736L873.493 5.24264C871.149 2.89949 867.351 2.8995 865.007 5.24264L863.493 6.75736C861.149 9.10051 857.351 9.1005 855.007 6.75736L853.493 5.24264C851.149 2.89949 847.351 2.8995 845.007 5.24264L843.493 6.75736C841.149 9.10051 837.351 9.1005 835.007 6.75736L833.493 5.24264C831.149 2.89949 827.351 2.8995 825.007 5.24264L823.493 6.75736C821.149 9.10051 817.351 9.1005 815.007 6.75736L813.493 5.24264C811.149 2.89949 807.351 2.8995 805.007 5.24264L803.493 6.75736C801.149 9.10051 797.351 9.1005 795.007 6.75736L793.493 5.24264C791.149 2.89949 787.351 2.8995 785.007 5.24264L783.493 6.75736C781.149 9.10051 777.351 9.1005 775.007 6.75736L773.493 5.24264C771.149 2.89949 767.351 2.8995 765.007 5.24264L763.493 6.75736C761.149 9.10051 757.351 9.1005 755.007 6.75736L753.493 5.24264C751.149 2.89949 747.351 2.8995 745.007 5.24264L743.493 6.75736C741.149 9.10051 737.351 9.1005 735.007 6.75736L733.493 5.24264C731.149 2.89949 727.351 2.8995 725.007 5.24264L723.493 6.75736C721.149 9.10051 717.351 9.1005 715.007 6.75736L713.493 5.24264C711.149 2.89949 707.351 2.8995 705.007 5.24264L703.493 6.75736C701.149 9.10051 697.351 9.1005 695.007 6.75736L693.493 5.24264C691.149 2.89949 687.351 2.8995 685.007 5.24264L683.493 6.75736C681.149 9.10051 677.351 9.1005 675.007 6.75736L673.493 5.24264C671.149 2.89949 667.351 2.8995 665.007 5.24264L663.493 6.75736C661.149 9.10051 657.351 9.1005 655.007 6.75736L653.493 5.24264C651.149 2.89949 647.351 2.8995 645.007 5.24264L643.493 6.75736C641.149 9.10051 637.351 9.1005 635.007 6.75736L633.493 5.24264C631.149 2.89949 627.351 2.8995 625.007 5.24264L623.493 6.75736C621.149 9.10051 617.351 9.1005 615.007 6.75736L613.493 5.24264C611.149 2.89949 607.351 2.8995 605.007 5.24264L603.493 6.75736C601.149 9.10051 597.351 9.1005 595.007 6.75736L593.493 5.24264C591.149 2.89949 587.351 2.8995 585.007 5.24264L583.493 6.75736C581.149 9.10051 577.351 9.1005 575.007 6.75736L573.493 5.24264C571.149 2.89949 567.351 2.8995 565.007 5.24264L563.493 6.75736C561.149 9.10051 557.351 9.1005 555.007 6.75736L553.493 5.24264C551.149 2.89949 547.351 2.8995 545.007 5.24264L543.493 6.75736C541.149 9.10051 537.351 9.1005 535.007 6.75736L533.493 5.24264C531.149 2.89949 527.351 2.8995 525.007 5.24264L523.493 6.75736C521.149 9.10051 517.351 9.1005 515.007 6.75736L513.493 5.24264C511.149 2.89949 507.351 2.8995 505.007 5.24264L503.493 6.75736C501.149 9.10051 497.351 9.1005 495.007 6.75736L493.493 5.24264C491.149 2.89949 487.351 2.8995 485.007 5.24264L483.493 6.75736C481.149 9.10051 477.351 9.1005 475.007 6.75736L473.493 5.24264C471.149 2.89949 467.351 2.8995 465.007 5.24264L463.493 6.75736C461.149 9.10051 457.351 9.1005 455.007 6.75736L453.493 5.24264C451.149 2.89949 447.351 2.8995 445.007 5.24264L443.493 6.75736C441.149 9.10051 437.351 9.1005 435.007 6.75736L433.493 5.24264C431.149 2.89949 427.351 2.8995 425.007 5.24264L423.493 6.75736C421.149 9.10051 417.351 9.1005 415.007 6.75736L413.493 5.24264C411.149 2.89949 407.351 2.8995 405.007 5.24264L403.493 6.75736C401.149 9.10051 397.351 9.1005 395.007 6.75736L393.493 5.24264C391.149 2.89949 387.351 2.8995 385.007 5.24264L383.207 7.04305C380.978 9.2716 377.405 9.39608 375.027 7.32804L371.973 4.67196C369.595 2.60392 366.022 2.7284 363.793 4.95696L361.993 6.75736C359.649 9.10051 355.851 9.1005 353.507 6.75736L351.993 5.24264C349.649 2.89949 345.851 2.8995 343.507 5.24264L341.993 6.75736C339.649 9.10051 335.851 9.1005 333.507 6.75736L331.993 5.24264C329.649 2.89949 325.851 2.8995 323.507 5.24264L321.993 6.75736C319.649 9.10051 315.851 9.1005 313.507 6.75736L311.993 5.24264C309.649 2.89949 305.851 2.8995 303.507 5.24264L301.993 6.75736C299.649 9.10051 295.851 9.1005 293.507 6.75736L291.993 5.24264C289.649 2.89949 285.851 2.8995 283.507 5.24264L281.993 6.75736C279.649 9.10051 275.851 9.1005 273.507 6.75736L271.993 5.24264C269.649 2.89949 265.851 2.8995 263.507 5.24264L261.993 6.75736C259.649 9.10051 255.851 9.1005 253.507 6.75736L251.993 5.24264C249.649 2.89949 245.851 2.8995 243.507 5.24264L241.993 6.75736C239.649 9.10051 235.851 9.1005 233.507 6.75736L231.993 5.24264C229.649 2.89949 225.851 2.8995 223.507 5.24264L221.993 6.75736C219.649 9.10051 215.851 9.1005 213.507 6.75736L211.993 5.24264C209.649 2.89949 205.851 2.8995 203.507 5.24264L201.993 6.75736C199.649 9.10051 195.851 9.1005 193.507 6.75736L191.993 5.24264C189.649 2.89949 185.851 2.8995 183.507 5.24264L181.993 6.75736C179.649 9.10051 175.851 9.1005 173.507 6.75736L171.993 5.24264C169.649 2.89949 165.851 2.8995 163.507 5.24264L161.993 6.75736C159.649 9.10051 155.851 9.1005 153.507 6.75736L151.993 5.24264C149.649 2.89949 145.851 2.8995 143.507 5.24264L141.993 6.75736C139.649 9.10051 135.851 9.1005 133.507 6.75736L131.993 5.24264C129.649 2.89949 125.851 2.8995 123.507 5.24264L121.993 6.75736C119.649 9.10051 115.851 9.1005 113.507 6.75736L111.993 5.24264C109.649 2.89949 105.851 2.8995 103.507 5.24264L101.993 6.75736C99.6495 9.10051 95.8505 9.1005 93.5074 6.75736L91.9926 5.24264C89.6495 2.89949 85.8505 2.8995 83.5074 5.24264L81.9926 6.75736C79.6495 9.10051 75.8505 9.1005 73.5074 6.75736L71.9926 5.24264C69.6495 2.89949 65.8505 2.8995 63.5074 5.24264L61.9926 6.75736C59.6495 9.10051 55.8505 9.1005 53.5074 6.75736L51.9926 5.24264C49.6495 2.89949 45.8505 2.8995 43.5074 5.24264L41.9926 6.75736C39.6495 9.10051 35.8505 9.1005 33.5074 6.75736L31.9926 5.24264C29.6495 2.89949 25.8505 2.8995 23.5074 5.24264L21.9926 6.75736C19.6495 9.10051 15.8505 9.1005 13.5074 6.75736L11.9926 5.24264C9.64949 2.89949 5.8505 2.8995 3.50736 5.24264L-2.25 11" stroke="#62DC92" stroke-width="2"/>
</svg>
